G04 #@! TF.GenerationSoftware,KiCad,Pcbnew,9.0.7*
G04 #@! TF.CreationDate,2026-05-07T16:22:57+01:00*
G04 #@! TF.ProjectId,catboard,63617462-6f61-4726-942e-6b696361645f,rev?*
G04 #@! TF.SameCoordinates,Original*
G04 #@! TF.FileFunction,Copper,L1,Top*
G04 #@! TF.FilePolarity,Positive*
%FSLAX46Y46*%
G04 Gerber Fmt 4.6, Leading zero omitted, Abs format (unit mm)*
G04 Created by KiCad (PCBNEW 9.0.7) date 2026-05-07 16:22:57*
%MOMM*%
%LPD*%
G01*
G04 APERTURE LIST*
G04 Aperture macros list*
%AMRoundRect*
0 Rectangle with rounded corners*
0 $1 Rounding radius*
0 $2 $3 $4 $5 $6 $7 $8 $9 X,Y pos of 4 corners*
0 Add a 4 corners polygon primitive as box body*
4,1,4,$2,$3,$4,$5,$6,$7,$8,$9,$2,$3,0*
0 Add four circle primitives for the rounded corners*
1,1,$1+$1,$2,$3*
1,1,$1+$1,$4,$5*
1,1,$1+$1,$6,$7*
1,1,$1+$1,$8,$9*
0 Add four rect primitives between the rounded corners*
20,1,$1+$1,$2,$3,$4,$5,0*
20,1,$1+$1,$4,$5,$6,$7,0*
20,1,$1+$1,$6,$7,$8,$9,0*
20,1,$1+$1,$8,$9,$2,$3,0*%
G04 Aperture macros list end*
G04 #@! TA.AperFunction,SMDPad,CuDef*
%ADD10RoundRect,0.140000X0.170000X-0.140000X0.170000X0.140000X-0.170000X0.140000X-0.170000X-0.140000X0*%
G04 #@! TD*
G04 #@! TA.AperFunction,SMDPad,CuDef*
%ADD11RoundRect,0.140000X-0.140000X-0.170000X0.140000X-0.170000X0.140000X0.170000X-0.140000X0.170000X0*%
G04 #@! TD*
G04 #@! TA.AperFunction,SMDPad,CuDef*
%ADD12RoundRect,0.140000X-0.170000X0.140000X-0.170000X-0.140000X0.170000X-0.140000X0.170000X0.140000X0*%
G04 #@! TD*
G04 #@! TA.AperFunction,ComponentPad*
%ADD13R,1.700000X1.700000*%
G04 #@! TD*
G04 #@! TA.AperFunction,ComponentPad*
%ADD14C,1.700000*%
G04 #@! TD*
G04 #@! TA.AperFunction,SMDPad,CuDef*
%ADD15RoundRect,0.062500X-0.387500X-0.062500X0.387500X-0.062500X0.387500X0.062500X-0.387500X0.062500X0*%
G04 #@! TD*
G04 #@! TA.AperFunction,HeatsinkPad*
%ADD16R,0.200000X1.600000*%
G04 #@! TD*
G04 #@! TA.AperFunction,SMDPad,CuDef*
%ADD17RoundRect,0.140000X0.140000X0.170000X-0.140000X0.170000X-0.140000X-0.170000X0.140000X-0.170000X0*%
G04 #@! TD*
G04 #@! TA.AperFunction,SMDPad,CuDef*
%ADD18R,0.600000X1.450000*%
G04 #@! TD*
G04 #@! TA.AperFunction,SMDPad,CuDef*
%ADD19R,0.300000X1.450000*%
G04 #@! TD*
G04 #@! TA.AperFunction,HeatsinkPad*
%ADD20O,1.000000X2.100000*%
G04 #@! TD*
G04 #@! TA.AperFunction,HeatsinkPad*
%ADD21O,1.000000X1.600000*%
G04 #@! TD*
G04 #@! TA.AperFunction,SMDPad,CuDef*
%ADD22RoundRect,0.135000X0.185000X-0.135000X0.185000X0.135000X-0.185000X0.135000X-0.185000X-0.135000X0*%
G04 #@! TD*
G04 #@! TA.AperFunction,SMDPad,CuDef*
%ADD23RoundRect,0.135000X-0.135000X-0.185000X0.135000X-0.185000X0.135000X0.185000X-0.135000X0.185000X0*%
G04 #@! TD*
G04 #@! TA.AperFunction,SMDPad,CuDef*
%ADD24RoundRect,0.050000X-0.387500X-0.050000X0.387500X-0.050000X0.387500X0.050000X-0.387500X0.050000X0*%
G04 #@! TD*
G04 #@! TA.AperFunction,SMDPad,CuDef*
%ADD25RoundRect,0.050000X-0.050000X-0.387500X0.050000X-0.387500X0.050000X0.387500X-0.050000X0.387500X0*%
G04 #@! TD*
G04 #@! TA.AperFunction,HeatsinkPad*
%ADD26R,3.200000X3.200000*%
G04 #@! TD*
G04 #@! TA.AperFunction,SMDPad,CuDef*
%ADD27RoundRect,0.135000X0.135000X0.185000X-0.135000X0.185000X-0.135000X-0.185000X0.135000X-0.185000X0*%
G04 #@! TD*
G04 #@! TA.AperFunction,SMDPad,CuDef*
%ADD28RoundRect,0.140000X0.021213X-0.219203X0.219203X-0.021213X-0.021213X0.219203X-0.219203X0.021213X0*%
G04 #@! TD*
G04 #@! TA.AperFunction,SMDPad,CuDef*
%ADD29RoundRect,0.225000X0.225000X0.250000X-0.225000X0.250000X-0.225000X-0.250000X0.225000X-0.250000X0*%
G04 #@! TD*
G04 #@! TA.AperFunction,SMDPad,CuDef*
%ADD30RoundRect,0.150000X0.150000X-0.587500X0.150000X0.587500X-0.150000X0.587500X-0.150000X-0.587500X0*%
G04 #@! TD*
G04 #@! TA.AperFunction,SMDPad,CuDef*
%ADD31RoundRect,0.250000X0.450000X0.350000X-0.450000X0.350000X-0.450000X-0.350000X0.450000X-0.350000X0*%
G04 #@! TD*
G04 #@! TA.AperFunction,SMDPad,CuDef*
%ADD32RoundRect,0.200000X-0.800000X0.200000X-0.800000X-0.200000X0.800000X-0.200000X0.800000X0.200000X0*%
G04 #@! TD*
G04 #@! TA.AperFunction,SMDPad,CuDef*
%ADD33RoundRect,0.140000X-0.021213X0.219203X-0.219203X0.021213X0.021213X-0.219203X0.219203X-0.021213X0*%
G04 #@! TD*
G04 #@! TA.AperFunction,ViaPad*
%ADD34C,0.600000*%
G04 #@! TD*
G04 #@! TA.AperFunction,Conductor*
%ADD35C,0.200000*%
G04 #@! TD*
G04 APERTURE END LIST*
D10*
G04 #@! TO.P,C3,1*
G04 #@! TO.N,+3V3*
X170700000Y-101780000D03*
G04 #@! TO.P,C3,2*
G04 #@! TO.N,GND*
X170700000Y-100820000D03*
G04 #@! TD*
G04 #@! TO.P,C6,1*
G04 #@! TO.N,+3V3*
X169000000Y-98560000D03*
G04 #@! TO.P,C6,2*
G04 #@! TO.N,GND*
X169000000Y-97600000D03*
G04 #@! TD*
D11*
G04 #@! TO.P,C8,1*
G04 #@! TO.N,+3V3*
X172320000Y-103000000D03*
G04 #@! TO.P,C8,2*
G04 #@! TO.N,GND*
X173280000Y-103000000D03*
G04 #@! TD*
D12*
G04 #@! TO.P,C15,1*
G04 #@! TO.N,GND*
X164490000Y-114620000D03*
G04 #@! TO.P,C15,2*
G04 #@! TO.N,XIN*
X164490000Y-115580000D03*
G04 #@! TD*
D13*
G04 #@! TO.P,J4,1,Pin_1*
G04 #@! TO.N,SWCLK*
X165460000Y-126390000D03*
D14*
G04 #@! TO.P,J4,2,Pin_2*
G04 #@! TO.N,GND*
X168000000Y-126390000D03*
G04 #@! TO.P,J4,3,Pin_3*
G04 #@! TO.N,SWD*
X170540000Y-126390000D03*
G04 #@! TD*
D15*
G04 #@! TO.P,U3,1,~{CS}*
G04 #@! TO.N,QSPI_SS*
X163150000Y-98250000D03*
G04 #@! TO.P,U3,2,DO/IO_{1}*
G04 #@! TO.N,QSPI_SD1*
X163150000Y-98750000D03*
G04 #@! TO.P,U3,3,~{WP}/IO_{2}*
G04 #@! TO.N,QSPI_SD2*
X163150000Y-99250000D03*
G04 #@! TO.P,U3,4,GND*
G04 #@! TO.N,GND*
X163150000Y-99750000D03*
G04 #@! TO.P,U3,5,DI/IO_{0}*
G04 #@! TO.N,QSPI_SD0*
X166000000Y-99750000D03*
G04 #@! TO.P,U3,6,CLK*
G04 #@! TO.N,QSPI_SCLK*
X166000000Y-99250000D03*
G04 #@! TO.P,U3,7,~{HOLD}/~{RESET}/IO_{3}*
G04 #@! TO.N,QSPI_SD3*
X166000000Y-98750000D03*
G04 #@! TO.P,U3,8,VCC*
G04 #@! TO.N,+3V3*
X166000000Y-98250000D03*
D16*
G04 #@! TO.P,U3,9*
G04 #@! TO.N,N/C*
X164575000Y-99000000D03*
G04 #@! TD*
D13*
G04 #@! TO.P,J2,1,Pin_1*
G04 #@! TO.N,GPI0*
X159110000Y-78370000D03*
D14*
G04 #@! TO.P,J2,2,Pin_2*
G04 #@! TO.N,GPI1*
X159110000Y-80910000D03*
G04 #@! TO.P,J2,3,Pin_3*
G04 #@! TO.N,GND*
X159110000Y-83450000D03*
G04 #@! TO.P,J2,4,Pin_4*
G04 #@! TO.N,GPI2*
X159110000Y-85990000D03*
G04 #@! TO.P,J2,5,Pin_5*
G04 #@! TO.N,GPI3*
X159110000Y-88530000D03*
G04 #@! TO.P,J2,6,Pin_6*
G04 #@! TO.N,GPI4*
X159110000Y-91070000D03*
G04 #@! TO.P,J2,7,Pin_7*
G04 #@! TO.N,GPI5*
X159110000Y-93610000D03*
G04 #@! TO.P,J2,8,Pin_8*
G04 #@! TO.N,GND*
X159110000Y-96150000D03*
G04 #@! TO.P,J2,9,Pin_9*
G04 #@! TO.N,GPI6*
X159110000Y-98690000D03*
G04 #@! TO.P,J2,10,Pin_10*
G04 #@! TO.N,GPI7*
X159110000Y-101230000D03*
G04 #@! TO.P,J2,11,Pin_11*
G04 #@! TO.N,GPI8*
X159110000Y-103770000D03*
G04 #@! TO.P,J2,12,Pin_12*
G04 #@! TO.N,GPI9*
X159110000Y-106310000D03*
G04 #@! TO.P,J2,13,Pin_13*
G04 #@! TO.N,GND*
X159110000Y-108850000D03*
G04 #@! TO.P,J2,14,Pin_14*
G04 #@! TO.N,GPI10*
X159110000Y-111390000D03*
G04 #@! TO.P,J2,15,Pin_15*
G04 #@! TO.N,GPI11*
X159110000Y-113930000D03*
G04 #@! TO.P,J2,16,Pin_16*
G04 #@! TO.N,GPI12*
X159110000Y-116470000D03*
G04 #@! TO.P,J2,17,Pin_17*
G04 #@! TO.N,GPI13*
X159110000Y-119010000D03*
G04 #@! TO.P,J2,18,Pin_18*
G04 #@! TO.N,GND*
X159110000Y-121550000D03*
G04 #@! TO.P,J2,19,Pin_19*
G04 #@! TO.N,GPI14*
X159110000Y-124090000D03*
G04 #@! TO.P,J2,20,Pin_20*
G04 #@! TO.N,GPI15*
X159110000Y-126630000D03*
G04 #@! TD*
D10*
G04 #@! TO.P,C7,1*
G04 #@! TO.N,+3V3*
X170000000Y-98020000D03*
G04 #@! TO.P,C7,2*
G04 #@! TO.N,GND*
X170000000Y-97060000D03*
G04 #@! TD*
D17*
G04 #@! TO.P,C17,1*
G04 #@! TO.N,+3V3*
X166755000Y-97200000D03*
G04 #@! TO.P,C17,2*
G04 #@! TO.N,GND*
X165795000Y-97200000D03*
G04 #@! TD*
G04 #@! TO.P,C4,1*
G04 #@! TO.N,+3V3*
X164160000Y-102200000D03*
G04 #@! TO.P,C4,2*
G04 #@! TO.N,GND*
X163200000Y-102200000D03*
G04 #@! TD*
D18*
G04 #@! TO.P,J1,A1,GND*
G04 #@! TO.N,GND*
X171250000Y-83545000D03*
G04 #@! TO.P,J1,A4,VBUS*
G04 #@! TO.N,VBUS*
X170450000Y-83545000D03*
D19*
G04 #@! TO.P,J1,A5,CC1*
G04 #@! TO.N,Net-(J1-CC1)*
X169250000Y-83545000D03*
G04 #@! TO.P,J1,A6,D+*
G04 #@! TO.N,USB_D+*
X168250000Y-83545000D03*
G04 #@! TO.P,J1,A7,D-*
G04 #@! TO.N,USB_D-*
X167750000Y-83545000D03*
G04 #@! TO.P,J1,A8*
G04 #@! TO.N,N/C*
X166750000Y-83545000D03*
D18*
G04 #@! TO.P,J1,A9,VBUS*
G04 #@! TO.N,VBUS*
X165550000Y-83545000D03*
G04 #@! TO.P,J1,A12,GND*
G04 #@! TO.N,GND*
X164750000Y-83545000D03*
G04 #@! TO.P,J1,B1,GND*
X164750000Y-83545000D03*
G04 #@! TO.P,J1,B4,VBUS*
G04 #@! TO.N,VBUS*
X165550000Y-83545000D03*
D19*
G04 #@! TO.P,J1,B5,CC2*
G04 #@! TO.N,Net-(J1-CC2)*
X166250000Y-83545000D03*
G04 #@! TO.P,J1,B6,D+*
G04 #@! TO.N,USB_D+*
X167250000Y-83545000D03*
G04 #@! TO.P,J1,B7,D-*
G04 #@! TO.N,USB_D-*
X168750000Y-83545000D03*
G04 #@! TO.P,J1,B8*
G04 #@! TO.N,N/C*
X169750000Y-83545000D03*
D18*
G04 #@! TO.P,J1,B9,VBUS*
G04 #@! TO.N,VBUS*
X170450000Y-83545000D03*
G04 #@! TO.P,J1,B12,GND*
G04 #@! TO.N,GND*
X171250000Y-83545000D03*
D20*
G04 #@! TO.P,J1,S1,SHIELD*
X172320000Y-82630000D03*
D21*
X172320000Y-78450000D03*
D20*
X163680000Y-82630000D03*
D21*
X163680000Y-78450000D03*
G04 #@! TD*
D22*
G04 #@! TO.P,R1,1*
G04 #@! TO.N,GND*
X167500000Y-86310000D03*
G04 #@! TO.P,R1,2*
G04 #@! TO.N,Net-(J1-CC2)*
X167500000Y-85290000D03*
G04 #@! TD*
D23*
G04 #@! TO.P,R6,1*
G04 #@! TO.N,+3V3*
X163790000Y-97200000D03*
G04 #@! TO.P,R6,2*
G04 #@! TO.N,QSPI_SS*
X164810000Y-97200000D03*
G04 #@! TD*
G04 #@! TO.P,R5,1*
G04 #@! TO.N,XOUT*
X167790000Y-112800000D03*
G04 #@! TO.P,R5,2*
G04 #@! TO.N,Net-(C16-Pad2)*
X168810000Y-112800000D03*
G04 #@! TD*
D22*
G04 #@! TO.P,R4,1*
G04 #@! TO.N,Net-(U1-USB_DP)*
X168700000Y-101800000D03*
G04 #@! TO.P,R4,2*
G04 #@! TO.N,USB_D+*
X168700000Y-100780000D03*
G04 #@! TD*
D10*
G04 #@! TO.P,C16,1*
G04 #@! TO.N,GND*
X169890000Y-115600000D03*
G04 #@! TO.P,C16,2*
G04 #@! TO.N,Net-(C16-Pad2)*
X169890000Y-114640000D03*
G04 #@! TD*
D24*
G04 #@! TO.P,U1,1,IOVDD*
G04 #@! TO.N,+3V3*
X164562500Y-103900000D03*
G04 #@! TO.P,U1,2,GPIO0*
G04 #@! TO.N,GPI0*
X164562500Y-104300000D03*
G04 #@! TO.P,U1,3,GPIO1*
G04 #@! TO.N,GPI1*
X164562500Y-104700000D03*
G04 #@! TO.P,U1,4,GPIO2*
G04 #@! TO.N,GPI2*
X164562500Y-105100000D03*
G04 #@! TO.P,U1,5,GPIO3*
G04 #@! TO.N,GPI3*
X164562500Y-105500000D03*
G04 #@! TO.P,U1,6,GPIO4*
G04 #@! TO.N,GPI4*
X164562500Y-105900000D03*
G04 #@! TO.P,U1,7,GPIO5*
G04 #@! TO.N,GPI5*
X164562500Y-106300000D03*
G04 #@! TO.P,U1,8,GPIO6*
G04 #@! TO.N,GPI6*
X164562500Y-106700000D03*
G04 #@! TO.P,U1,9,GPIO7*
G04 #@! TO.N,GPI7*
X164562500Y-107100000D03*
G04 #@! TO.P,U1,10,IOVDD*
G04 #@! TO.N,+3V3*
X164562500Y-107500000D03*
G04 #@! TO.P,U1,11,GPIO8*
G04 #@! TO.N,GPI8*
X164562500Y-107900000D03*
G04 #@! TO.P,U1,12,GPIO9*
G04 #@! TO.N,GPI9*
X164562500Y-108300000D03*
G04 #@! TO.P,U1,13,GPIO10*
G04 #@! TO.N,GPI10*
X164562500Y-108700000D03*
G04 #@! TO.P,U1,14,GPIO11*
G04 #@! TO.N,GPI11*
X164562500Y-109100000D03*
D25*
G04 #@! TO.P,U1,15,GPIO12*
G04 #@! TO.N,GPI12*
X165400000Y-109937500D03*
G04 #@! TO.P,U1,16,GPIO13*
G04 #@! TO.N,GPI13*
X165800000Y-109937500D03*
G04 #@! TO.P,U1,17,GPIO14*
G04 #@! TO.N,GPI14*
X166200000Y-109937500D03*
G04 #@! TO.P,U1,18,GPIO15*
G04 #@! TO.N,GPI15*
X166600000Y-109937500D03*
G04 #@! TO.P,U1,19,TESTEN*
G04 #@! TO.N,GND*
X167000000Y-109937500D03*
G04 #@! TO.P,U1,20,XIN*
G04 #@! TO.N,XIN*
X167400000Y-109937500D03*
G04 #@! TO.P,U1,21,XOUT*
G04 #@! TO.N,XOUT*
X167800000Y-109937500D03*
G04 #@! TO.P,U1,22,IOVDD*
G04 #@! TO.N,+3V3*
X168200000Y-109937500D03*
G04 #@! TO.P,U1,23,DVDD*
G04 #@! TO.N,+1V1*
X168600000Y-109937500D03*
G04 #@! TO.P,U1,24,SWCLK*
G04 #@! TO.N,SWCLK*
X169000000Y-109937500D03*
G04 #@! TO.P,U1,25,SWDIO*
G04 #@! TO.N,SWD*
X169400000Y-109937500D03*
G04 #@! TO.P,U1,26,RUN*
G04 #@! TO.N,RUN*
X169800000Y-109937500D03*
G04 #@! TO.P,U1,27,GPIO16*
G04 #@! TO.N,GPI16*
X170200000Y-109937500D03*
G04 #@! TO.P,U1,28,GPIO17*
G04 #@! TO.N,GPI17*
X170600000Y-109937500D03*
D24*
G04 #@! TO.P,U1,29,GPIO18*
G04 #@! TO.N,GPI18*
X171437500Y-109100000D03*
G04 #@! TO.P,U1,30,GPIO19*
G04 #@! TO.N,GPI19*
X171437500Y-108700000D03*
G04 #@! TO.P,U1,31,GPIO20*
G04 #@! TO.N,GPI20*
X171437500Y-108300000D03*
G04 #@! TO.P,U1,32,GPIO21*
G04 #@! TO.N,GPI21*
X171437500Y-107900000D03*
G04 #@! TO.P,U1,33,IOVDD*
G04 #@! TO.N,+3V3*
X171437500Y-107500000D03*
G04 #@! TO.P,U1,34,GPIO22*
G04 #@! TO.N,GPI22*
X171437500Y-107100000D03*
G04 #@! TO.P,U1,35,GPIO23*
G04 #@! TO.N,GPI23*
X171437500Y-106700000D03*
G04 #@! TO.P,U1,36,GPIO24*
G04 #@! TO.N,GPI24*
X171437500Y-106300000D03*
G04 #@! TO.P,U1,37,GPIO25*
G04 #@! TO.N,unconnected-(U1-GPIO25-Pad37)*
X171437500Y-105900000D03*
G04 #@! TO.P,U1,38,GPIO26/ADC0*
G04 #@! TO.N,GPI26_ADC0*
X171437500Y-105500000D03*
G04 #@! TO.P,U1,39,GPIO27/ADC1*
G04 #@! TO.N,GPI27_ADC1*
X171437500Y-105100000D03*
G04 #@! TO.P,U1,40,GPIO28/ADC2*
G04 #@! TO.N,GPI28_ADC2*
X171437500Y-104700000D03*
G04 #@! TO.P,U1,41,GPIO29/ADC3*
G04 #@! TO.N,GPI29_ADC3*
X171437500Y-104300000D03*
G04 #@! TO.P,U1,42,IOVDD*
G04 #@! TO.N,+3V3*
X171437500Y-103900000D03*
D25*
G04 #@! TO.P,U1,43,ADC_AVDD*
X170600000Y-103062500D03*
G04 #@! TO.P,U1,44,VREG_VIN*
X170200000Y-103062500D03*
G04 #@! TO.P,U1,45,VREG_VOUT*
G04 #@! TO.N,+1V1*
X169800000Y-103062500D03*
G04 #@! TO.P,U1,46,USB_DM*
G04 #@! TO.N,Net-(U1-USB_DM)*
X169400000Y-103062500D03*
G04 #@! TO.P,U1,47,USB_DP*
G04 #@! TO.N,Net-(U1-USB_DP)*
X169000000Y-103062500D03*
G04 #@! TO.P,U1,48,USB_VDD*
G04 #@! TO.N,+3V3*
X168600000Y-103062500D03*
G04 #@! TO.P,U1,49,IOVDD*
X168200000Y-103062500D03*
G04 #@! TO.P,U1,50,DVDD*
G04 #@! TO.N,+1V1*
X167800000Y-103062500D03*
G04 #@! TO.P,U1,51,QSPI_SD3*
G04 #@! TO.N,QSPI_SD3*
X167400000Y-103062500D03*
G04 #@! TO.P,U1,52,QSPI_SCLK*
G04 #@! TO.N,QSPI_SCLK*
X167000000Y-103062500D03*
G04 #@! TO.P,U1,53,QSPI_SD0*
G04 #@! TO.N,QSPI_SD0*
X166600000Y-103062500D03*
G04 #@! TO.P,U1,54,QSPI_SD2*
G04 #@! TO.N,QSPI_SD2*
X166200000Y-103062500D03*
G04 #@! TO.P,U1,55,QSPI_SD1*
G04 #@! TO.N,QSPI_SD1*
X165800000Y-103062500D03*
G04 #@! TO.P,U1,56,~{QSPI_SS}*
G04 #@! TO.N,QSPI_SS*
X165400000Y-103062500D03*
D26*
G04 #@! TO.P,U1,57,GND*
G04 #@! TO.N,GND*
X168000000Y-106500000D03*
G04 #@! TD*
D27*
G04 #@! TO.P,R7,1*
G04 #@! TO.N,Net-(R7-Pad1)*
X172300000Y-91000000D03*
G04 #@! TO.P,R7,2*
G04 #@! TO.N,QSPI_SS*
X171280000Y-91000000D03*
G04 #@! TD*
D28*
G04 #@! TO.P,C1,1*
G04 #@! TO.N,+3V3*
X172421178Y-100178822D03*
G04 #@! TO.P,C1,2*
G04 #@! TO.N,GND*
X173100000Y-99500000D03*
G04 #@! TD*
D10*
G04 #@! TO.P,C9,1*
G04 #@! TO.N,+3V3*
X168000000Y-98560000D03*
G04 #@! TO.P,C9,2*
G04 #@! TO.N,GND*
X168000000Y-97600000D03*
G04 #@! TD*
D13*
G04 #@! TO.P,J3,1,Pin_1*
G04 #@! TO.N,VBUS*
X176890000Y-78370000D03*
D14*
G04 #@! TO.P,J3,2,Pin_2*
G04 #@! TO.N,GPI29_ADC3*
X176890000Y-80910000D03*
G04 #@! TO.P,J3,3,Pin_3*
G04 #@! TO.N,GND*
X176890000Y-83450000D03*
G04 #@! TO.P,J3,4,Pin_4*
G04 #@! TO.N,GPI28_ADC2*
X176890000Y-85990000D03*
G04 #@! TO.P,J3,5,Pin_5*
G04 #@! TO.N,+3V3*
X176890000Y-88530000D03*
G04 #@! TO.P,J3,6,Pin_6*
G04 #@! TO.N,GPI27_ADC1*
X176890000Y-91070000D03*
G04 #@! TO.P,J3,7,Pin_7*
G04 #@! TO.N,GPI26_ADC0*
X176890000Y-93610000D03*
G04 #@! TO.P,J3,8,Pin_8*
G04 #@! TO.N,GND*
X176890000Y-96150000D03*
G04 #@! TO.P,J3,9,Pin_9*
G04 #@! TO.N,GPI24*
X176890000Y-98690000D03*
G04 #@! TO.P,J3,10,Pin_10*
G04 #@! TO.N,GPI23*
X176890000Y-101230000D03*
G04 #@! TO.P,J3,11,Pin_11*
G04 #@! TO.N,RUN*
X176890000Y-103770000D03*
G04 #@! TO.P,J3,12,Pin_12*
G04 #@! TO.N,GPI22*
X176890000Y-106310000D03*
G04 #@! TO.P,J3,13,Pin_13*
G04 #@! TO.N,GND*
X176890000Y-108850000D03*
G04 #@! TO.P,J3,14,Pin_14*
G04 #@! TO.N,GPI21*
X176890000Y-111390000D03*
G04 #@! TO.P,J3,15,Pin_15*
G04 #@! TO.N,GPI20*
X176890000Y-113930000D03*
G04 #@! TO.P,J3,16,Pin_16*
G04 #@! TO.N,GPI19*
X176890000Y-116470000D03*
G04 #@! TO.P,J3,17,Pin_17*
G04 #@! TO.N,GPI18*
X176890000Y-119010000D03*
G04 #@! TO.P,J3,18,Pin_18*
G04 #@! TO.N,GND*
X176890000Y-121550000D03*
G04 #@! TO.P,J3,19,Pin_19*
G04 #@! TO.N,GPI17*
X176890000Y-124090000D03*
G04 #@! TO.P,J3,20,Pin_20*
G04 #@! TO.N,GPI16*
X176890000Y-126630000D03*
G04 #@! TD*
D29*
G04 #@! TO.P,C13,1*
G04 #@! TO.N,VBUS*
X164975000Y-85600000D03*
G04 #@! TO.P,C13,2*
G04 #@! TO.N,GND*
X163425000Y-85600000D03*
G04 #@! TD*
D10*
G04 #@! TO.P,C5,1*
G04 #@! TO.N,+3V3*
X171700000Y-102100000D03*
G04 #@! TO.P,C5,2*
G04 #@! TO.N,GND*
X171700000Y-101140000D03*
G04 #@! TD*
D30*
G04 #@! TO.P,U2,1,GND*
G04 #@! TO.N,GND*
X164150000Y-89337500D03*
G04 #@! TO.P,U2,2,VO*
G04 #@! TO.N,+3V3*
X166050000Y-89337500D03*
G04 #@! TO.P,U2,3,VI*
G04 #@! TO.N,VBUS*
X165100000Y-87462500D03*
G04 #@! TD*
D31*
G04 #@! TO.P,Y1,1,1*
G04 #@! TO.N,Net-(C16-Pad2)*
X168290000Y-114250000D03*
G04 #@! TO.P,Y1,2,G*
G04 #@! TO.N,GND*
X166090000Y-114250000D03*
G04 #@! TO.P,Y1,3,3*
G04 #@! TO.N,XIN*
X166090000Y-115950000D03*
G04 #@! TO.P,Y1,4,G*
G04 #@! TO.N,GND*
X168290000Y-115950000D03*
G04 #@! TD*
D11*
G04 #@! TO.P,C11,1*
G04 #@! TO.N,+3V3*
X173340000Y-107500000D03*
G04 #@! TO.P,C11,2*
G04 #@! TO.N,GND*
X174300000Y-107500000D03*
G04 #@! TD*
D22*
G04 #@! TO.P,R2,1*
G04 #@! TO.N,GND*
X169500000Y-86310000D03*
G04 #@! TO.P,R2,2*
G04 #@! TO.N,Net-(J1-CC1)*
X169500000Y-85290000D03*
G04 #@! TD*
G04 #@! TO.P,R3,1*
G04 #@! TO.N,Net-(U1-USB_DM)*
X169700000Y-101800000D03*
G04 #@! TO.P,R3,2*
G04 #@! TO.N,USB_D-*
X169700000Y-100780000D03*
G04 #@! TD*
D32*
G04 #@! TO.P,SW1,1,1*
G04 #@! TO.N,GND*
X171800000Y-85600000D03*
G04 #@! TO.P,SW1,2,2*
G04 #@! TO.N,Net-(R7-Pad1)*
X171800000Y-89800000D03*
G04 #@! TD*
D29*
G04 #@! TO.P,C14,1*
G04 #@! TO.N,+3V3*
X165875000Y-91200000D03*
G04 #@! TO.P,C14,2*
G04 #@! TO.N,GND*
X164325000Y-91200000D03*
G04 #@! TD*
D33*
G04 #@! TO.P,C12,1*
G04 #@! TO.N,+3V3*
X162300000Y-108200000D03*
G04 #@! TO.P,C12,2*
G04 #@! TO.N,GND*
X161621178Y-108878822D03*
G04 #@! TD*
D12*
G04 #@! TO.P,C2,1*
G04 #@! TO.N,+3V3*
X169890000Y-112700000D03*
G04 #@! TO.P,C2,2*
G04 #@! TO.N,GND*
X169890000Y-113660000D03*
G04 #@! TD*
G04 #@! TO.P,C10,1*
G04 #@! TO.N,+3V3*
X170890000Y-112700000D03*
G04 #@! TO.P,C10,2*
G04 #@! TO.N,GND*
X170890000Y-113660000D03*
G04 #@! TD*
D34*
G04 #@! TO.N,GND*
X164700000Y-113300000D03*
X169500000Y-87100000D03*
X168200000Y-117000000D03*
X161400000Y-107700000D03*
X165600000Y-105900000D03*
X167550000Y-96250000D03*
X165800000Y-96250000D03*
X164000000Y-103100000D03*
X163550000Y-100450000D03*
X171150000Y-100050000D03*
X167500000Y-87100000D03*
G04 #@! TO.N,+3V3*
X169400000Y-96200000D03*
X165700000Y-107300000D03*
X169200000Y-108800000D03*
X168750000Y-99650000D03*
X164800000Y-102750000D03*
X167500000Y-89500000D03*
X171800000Y-99400000D03*
G04 #@! TO.N,GPI1*
X163100000Y-103400000D03*
G04 #@! TO.N,GPI0*
X165550000Y-104100000D03*
G04 #@! TO.N,GPI2*
X162200000Y-101500000D03*
G04 #@! TO.N,RUN*
X170200000Y-109000000D03*
G04 #@! TO.N,GPI29_ADC3*
X174500000Y-90700000D03*
X173100000Y-104100000D03*
G04 #@! TO.N,QSPI_SS*
X171300000Y-92200000D03*
X163200000Y-96200000D03*
G04 #@! TO.N,+1V1*
X168200000Y-108600000D03*
X167800000Y-104000000D03*
G04 #@! TD*
D35*
G04 #@! TO.N,GND*
X170700000Y-100500000D02*
X171150000Y-100050000D01*
X164490000Y-114620000D02*
X165720000Y-114620000D01*
X161400000Y-108657644D02*
X161621178Y-108878822D01*
X168200000Y-116040000D02*
X168290000Y-115950000D01*
X165795000Y-96255000D02*
X165800000Y-96250000D01*
X170700000Y-100820000D02*
X170700000Y-100500000D01*
X171700000Y-101140000D02*
X171700000Y-100600000D01*
X163200000Y-102200000D02*
X164000000Y-103000000D01*
X167000000Y-111016760D02*
X167001000Y-111017760D01*
X170000000Y-97060000D02*
X169540000Y-97060000D01*
X168200000Y-117000000D02*
X168200000Y-116040000D01*
X164700000Y-113300000D02*
X164800000Y-113300000D01*
X164490000Y-113510000D02*
X164700000Y-113300000D01*
X171700000Y-100600000D02*
X171150000Y-100050000D01*
X167500000Y-87100000D02*
X167500000Y-86310000D01*
X167000000Y-111100000D02*
X167000000Y-111016760D01*
X171250000Y-83545000D02*
X171250000Y-83550000D01*
X170000000Y-96650000D02*
X170100000Y-96550000D01*
X169890000Y-113660000D02*
X170890000Y-113660000D01*
X165600000Y-105900000D02*
X166200000Y-106500000D01*
X165795000Y-97200000D02*
X165795000Y-96255000D01*
X164000000Y-103000000D02*
X164000000Y-103100000D01*
X161400000Y-107700000D02*
X161400000Y-108657644D01*
X158250000Y-97010000D02*
X158250000Y-97100000D01*
X170000000Y-97060000D02*
X170000000Y-96650000D01*
X173280000Y-102230000D02*
X173250000Y-102200000D01*
X169540000Y-115950000D02*
X169890000Y-115600000D01*
X167000000Y-109937500D02*
X167000000Y-111016760D01*
X171250000Y-83550000D02*
X172200000Y-84500000D01*
X169000000Y-97600000D02*
X168000000Y-97600000D01*
X173280000Y-103000000D02*
X173280000Y-102230000D01*
X163150000Y-100050000D02*
X163550000Y-100450000D01*
X163150000Y-99750000D02*
X163150000Y-100050000D01*
X164490000Y-114620000D02*
X164490000Y-113510000D01*
X169500000Y-87100000D02*
X169500000Y-86310000D01*
X159110000Y-96150000D02*
X158250000Y-97010000D01*
X166200000Y-106500000D02*
X168000000Y-106500000D01*
X164800000Y-113300000D02*
X167000000Y-111100000D01*
X165720000Y-114620000D02*
X166090000Y-114250000D01*
X169540000Y-97060000D02*
X169000000Y-97600000D01*
X168290000Y-115950000D02*
X169540000Y-115950000D01*
G04 #@! TO.N,+3V3*
X168200000Y-109937500D02*
X168200000Y-109400000D01*
X171020000Y-102100000D02*
X170700000Y-101780000D01*
X171700000Y-102100000D02*
X172421178Y-101378822D01*
X170137500Y-95462500D02*
X170800000Y-96125000D01*
X163801000Y-97189000D02*
X163790000Y-97200000D01*
X170800000Y-97220000D02*
X170000000Y-98020000D01*
X165301000Y-108901000D02*
X165301000Y-107703226D01*
X168600000Y-102800000D02*
X168200000Y-102400000D01*
X169400000Y-96200000D02*
X170137500Y-95462500D01*
X170650000Y-107500000D02*
X170650000Y-104152226D01*
X164562500Y-107500000D02*
X163000000Y-107500000D01*
X168000000Y-109200000D02*
X165600000Y-109200000D01*
X170902226Y-103227226D02*
X170737500Y-103062500D01*
X166000000Y-97955000D02*
X166755000Y-97200000D01*
X168750000Y-98810000D02*
X169000000Y-98560000D01*
X165875000Y-91200000D02*
X165875000Y-89512500D01*
X164250000Y-95450000D02*
X163801000Y-95899000D01*
X168599000Y-110866100D02*
X168593326Y-110866100D01*
X166755000Y-95955000D02*
X166250000Y-95450000D01*
X172421178Y-101378822D02*
X172421178Y-100178822D01*
X163000000Y-107500000D02*
X162300000Y-108200000D01*
X170800000Y-96125000D02*
X170800000Y-97220000D01*
X171800000Y-99557644D02*
X172421178Y-100178822D01*
X164800000Y-103662500D02*
X164800000Y-102750000D01*
X166755000Y-97200000D02*
X166755000Y-97315000D01*
X168200000Y-109937500D02*
X168200000Y-110472774D01*
X165875000Y-89512500D02*
X166050000Y-89337500D01*
X168600000Y-103062500D02*
X168600000Y-102800000D01*
X168750000Y-99650000D02*
X168750000Y-98810000D01*
X164562500Y-103900000D02*
X164800000Y-103662500D01*
X169350000Y-108800000D02*
X170650000Y-107500000D01*
X172320000Y-103017500D02*
X171437500Y-103900000D01*
X170650000Y-104152226D02*
X170902226Y-103900000D01*
X169890000Y-112700000D02*
X169890000Y-112157100D01*
X170200000Y-103062500D02*
X170600000Y-103062500D01*
X166755000Y-97200000D02*
X166755000Y-95955000D01*
X170890000Y-112700000D02*
X169890000Y-112700000D01*
X165700000Y-107304226D02*
X165301000Y-107703226D01*
X168200000Y-103062500D02*
X168200000Y-102400000D01*
X168200000Y-102400000D02*
X168000000Y-102200000D01*
X165600000Y-109200000D02*
X165301000Y-108901000D01*
X170600000Y-103062500D02*
X170737500Y-103062500D01*
X169200000Y-108800000D02*
X169350000Y-108800000D01*
X171700000Y-102100000D02*
X171020000Y-102100000D01*
X170902226Y-103900000D02*
X170902226Y-103227226D01*
X168000000Y-102200000D02*
X168000000Y-98560000D01*
X165875000Y-91200000D02*
X170137500Y-95462500D01*
X165301000Y-107703226D02*
X165097774Y-107500000D01*
X171800000Y-99400000D02*
X171800000Y-99557644D01*
X164250000Y-102200000D02*
X164800000Y-102750000D01*
X173340000Y-107500000D02*
X171437500Y-107500000D01*
X168200000Y-109400000D02*
X168000000Y-109200000D01*
X167500000Y-89500000D02*
X166212500Y-89500000D01*
X165700000Y-107300000D02*
X165700000Y-107304226D01*
X163801000Y-95899000D02*
X163801000Y-97189000D01*
X166250000Y-95450000D02*
X164250000Y-95450000D01*
X170737500Y-103062500D02*
X171700000Y-102100000D01*
X169540000Y-98020000D02*
X169000000Y-98560000D01*
X166000000Y-98250000D02*
X166000000Y-97955000D01*
X170902226Y-103900000D02*
X171437500Y-103900000D01*
X166755000Y-97315000D02*
X168000000Y-98560000D01*
X172320000Y-103000000D02*
X172320000Y-103017500D01*
X168200000Y-110472774D02*
X168593326Y-110866100D01*
X166212500Y-89500000D02*
X166050000Y-89337500D01*
X170000000Y-98020000D02*
X169540000Y-98020000D01*
X170650000Y-107500000D02*
X171437500Y-107500000D01*
X169890000Y-112157100D02*
X168599000Y-110866100D01*
X165097774Y-107500000D02*
X164562500Y-107500000D01*
X168000000Y-98560000D02*
X169000000Y-98560000D01*
X164160000Y-102200000D02*
X164250000Y-102200000D01*
G04 #@! TO.N,VBUS*
X165550000Y-83545000D02*
X165550000Y-82620000D01*
X172482992Y-79551000D02*
X170214000Y-81819992D01*
X175709000Y-79551000D02*
X172482992Y-79551000D01*
X164975000Y-87337500D02*
X165100000Y-87462500D01*
X165550000Y-82620000D02*
X166350008Y-81819992D01*
X176890000Y-78370000D02*
X175709000Y-79551000D01*
X166350008Y-81819992D02*
X170214000Y-81819992D01*
X165550000Y-83545000D02*
X165550000Y-84350000D01*
X170214000Y-83309000D02*
X170450000Y-83545000D01*
X164975000Y-84925000D02*
X164975000Y-85600000D01*
X165550000Y-84350000D02*
X164975000Y-84925000D01*
X164975000Y-85600000D02*
X164975000Y-87337500D01*
X170214000Y-81819992D02*
X170214000Y-83309000D01*
G04 #@! TO.N,XIN*
X167090000Y-112044200D02*
X167401000Y-111733200D01*
X166090000Y-115950000D02*
X167090000Y-114950000D01*
X167401000Y-110850660D02*
X167400000Y-110849660D01*
X167400000Y-110849660D02*
X167400000Y-109937500D01*
X164490000Y-115580000D02*
X165720000Y-115580000D01*
X165720000Y-115580000D02*
X166090000Y-115950000D01*
X167090000Y-114950000D02*
X167090000Y-112044200D01*
X167401000Y-111733200D02*
X167401000Y-110850660D01*
G04 #@! TO.N,Net-(C16-Pad2)*
X168290000Y-114250000D02*
X169500000Y-114250000D01*
X168290000Y-113320000D02*
X168810000Y-112800000D01*
X169500000Y-114250000D02*
X169890000Y-114640000D01*
X168800000Y-113740000D02*
X168290000Y-114250000D01*
X168290000Y-114250000D02*
X168290000Y-113320000D01*
G04 #@! TO.N,USB_D-*
X169999814Y-91678996D02*
X169726859Y-91406041D01*
X168838331Y-90820133D02*
X168725000Y-90706802D01*
X169700000Y-100416397D02*
X171825000Y-98291397D01*
X168750000Y-83545000D02*
X168750000Y-84632501D01*
X169424239Y-91406041D02*
X169151285Y-91133087D01*
X168725000Y-87401499D02*
X168725000Y-88563561D01*
X168725000Y-86400788D02*
X168725000Y-85849731D01*
X169700000Y-100780000D02*
X169700000Y-100416397D01*
X167750000Y-82568000D02*
X167799000Y-82519000D01*
X168725000Y-86400788D02*
X168725000Y-87272380D01*
X171825000Y-98291397D02*
X171825000Y-93806802D01*
X168725000Y-87272380D02*
X168725000Y-87401499D01*
X168750000Y-82568000D02*
X168750000Y-83545000D01*
X168725000Y-90706802D02*
X168725000Y-88854077D01*
X168750000Y-84632501D02*
X168725000Y-84657501D01*
X171825000Y-93806802D02*
X169999814Y-91981616D01*
X168725000Y-84657501D02*
X168725000Y-85108997D01*
X168701000Y-82519000D02*
X168750000Y-82568000D01*
X169151285Y-91133087D02*
X168838331Y-90820133D01*
X168725000Y-85849731D02*
X168725000Y-85382363D01*
X167799000Y-82519000D02*
X168701000Y-82519000D01*
X167750000Y-83545000D02*
X167750000Y-82568000D01*
X168725000Y-88563561D02*
X168725000Y-88854077D01*
X168725000Y-85108997D02*
X168725000Y-85382363D01*
X169575549Y-91406041D02*
G75*
G02*
X169424239Y-91406041I-75655J75656D01*
G01*
X169999814Y-91830306D02*
G75*
G03*
X169999765Y-91679045I-75614J75606D01*
G01*
X169999814Y-91981616D02*
G75*
G02*
X169999853Y-91830345I75686J75616D01*
G01*
X169726859Y-91406041D02*
G75*
G03*
X169575549Y-91406041I-75655J-75656D01*
G01*
G04 #@! TO.N,Net-(J1-CC1)*
X169250000Y-83545000D02*
X169250000Y-85040000D01*
X169250000Y-85040000D02*
X169500000Y-85290000D01*
G04 #@! TO.N,USB_D+*
X168275000Y-85899474D02*
X168275000Y-90893198D01*
X168275000Y-84657501D02*
X168275000Y-85769132D01*
X171375000Y-93993198D02*
X171375000Y-98105000D01*
X168250000Y-83545000D02*
X168250000Y-84632501D01*
X171375000Y-98105000D02*
X168700000Y-100780000D01*
X168275000Y-85769132D02*
X168275000Y-85899474D01*
X167299000Y-84571000D02*
X168229000Y-84571000D01*
X167250000Y-84522000D02*
X167299000Y-84571000D01*
X168250000Y-84632501D02*
X168275000Y-84657501D01*
X168250000Y-84550000D02*
X168250000Y-83545000D01*
X168275000Y-90893198D02*
X171375000Y-93993198D01*
X167250000Y-83545000D02*
X167250000Y-84522000D01*
X168229000Y-84571000D02*
X168250000Y-84550000D01*
G04 #@! TO.N,Net-(J1-CC2)*
X166890000Y-85290000D02*
X166250000Y-84650000D01*
X166250000Y-84650000D02*
X166250000Y-83545000D01*
X167500000Y-85290000D02*
X166890000Y-85290000D01*
G04 #@! TO.N,GPI12*
X165162500Y-109937500D02*
X162400000Y-112700000D01*
X162030000Y-116470000D02*
X159110000Y-116470000D01*
X165400000Y-109937500D02*
X165162500Y-109937500D01*
X162400000Y-112700000D02*
X162400000Y-116100000D01*
X162400000Y-116100000D02*
X162030000Y-116470000D01*
G04 #@! TO.N,GPI13*
X165800000Y-109937500D02*
X165800000Y-110500000D01*
X165102000Y-111198000D02*
X164550250Y-111198000D01*
X164550250Y-111198000D02*
X162887000Y-112861250D01*
X162377000Y-119010000D02*
X159110000Y-119010000D01*
X162887000Y-112861250D02*
X162887000Y-118500000D01*
X165800000Y-110500000D02*
X165102000Y-111198000D01*
X162887000Y-118500000D02*
X162377000Y-119010000D01*
G04 #@! TO.N,GPI9*
X161000000Y-110800000D02*
X160399000Y-110199000D01*
X161300000Y-110800000D02*
X161000000Y-110800000D01*
X160399000Y-108199000D02*
X159110000Y-106910000D01*
X164562500Y-108300000D02*
X163800000Y-108300000D01*
X163800000Y-108300000D02*
X161300000Y-110800000D01*
X159110000Y-106910000D02*
X159110000Y-106310000D01*
X160399000Y-110199000D02*
X160399000Y-108199000D01*
G04 #@! TO.N,GPI3*
X162405000Y-105141740D02*
X162004000Y-104740740D01*
X160734550Y-90154550D02*
X159110000Y-88530000D01*
X164562500Y-105500000D02*
X162600000Y-105500000D01*
X162004000Y-104740740D02*
X162004000Y-102535600D01*
X160734550Y-94067450D02*
X160734550Y-90154550D01*
X161503000Y-94835900D02*
X160734550Y-94067450D01*
X162004000Y-102535600D02*
X161503000Y-102034600D01*
X161503000Y-102034600D02*
X161503000Y-94835900D01*
X162600000Y-105500000D02*
X162405000Y-105305000D01*
X162405000Y-105305000D02*
X162405000Y-105141740D01*
G04 #@! TO.N,GPI1*
X162900000Y-104100000D02*
X163000000Y-104000000D01*
X162900000Y-104400000D02*
X162900000Y-104100000D01*
X163200000Y-104700000D02*
X162900000Y-104400000D01*
X163000000Y-104000000D02*
X163100000Y-103900000D01*
X163100000Y-103900000D02*
X163100000Y-103400000D01*
X164562500Y-104700000D02*
X163200000Y-104700000D01*
G04 #@! TO.N,GPI15*
X165500000Y-112000000D02*
X166600000Y-110900000D01*
X163689000Y-113193450D02*
X164882450Y-112000000D01*
X164882450Y-112000000D02*
X165500000Y-112000000D01*
X159110000Y-126630000D02*
X163689000Y-122051000D01*
X163689000Y-122051000D02*
X163689000Y-113193450D01*
X166600000Y-110900000D02*
X166600000Y-109937500D01*
G04 #@! TO.N,GPI14*
X161082900Y-124090000D02*
X163288000Y-121884900D01*
X159110000Y-124090000D02*
X161082900Y-124090000D01*
X163288000Y-121884900D02*
X163288000Y-113027350D01*
X165301000Y-111599000D02*
X166200000Y-110700000D01*
X163288000Y-113027350D02*
X164716350Y-111599000D01*
X164716350Y-111599000D02*
X165301000Y-111599000D01*
X166200000Y-110700000D02*
X166200000Y-109937500D01*
G04 #@! TO.N,GPI5*
X160701000Y-95201000D02*
X160701000Y-102366800D01*
X161603000Y-105473940D02*
X161603000Y-106103000D01*
X160701000Y-102366800D02*
X161202000Y-102867800D01*
X161603000Y-106103000D02*
X161800000Y-106300000D01*
X161800000Y-106300000D02*
X164562500Y-106300000D01*
X161202000Y-105072940D02*
X161603000Y-105473940D01*
X161202000Y-102867800D02*
X161202000Y-105072940D01*
X159110000Y-93610000D02*
X160701000Y-95201000D01*
G04 #@! TO.N,GPI8*
X160400000Y-107632900D02*
X160400000Y-105972240D01*
X159427760Y-105000000D02*
X159427760Y-104087760D01*
X159427760Y-104087760D02*
X159110000Y-103770000D01*
X160400000Y-105972240D02*
X159427760Y-105000000D01*
X164562500Y-107900000D02*
X163600000Y-107900000D01*
X160800000Y-108032900D02*
X160800000Y-109500000D01*
X161200000Y-109900000D02*
X161600000Y-109900000D01*
X160800000Y-109500000D02*
X161200000Y-109900000D01*
X160400000Y-107632900D02*
X160800000Y-108032900D01*
X163600000Y-107900000D02*
X161600000Y-109900000D01*
G04 #@! TO.N,GPI4*
X161102000Y-102200700D02*
X161102000Y-95002000D01*
X161102000Y-95002000D02*
X160333550Y-94233550D01*
X161603000Y-104906840D02*
X161603000Y-102701700D01*
X160333550Y-94233550D02*
X160333550Y-92293550D01*
X162004000Y-105604000D02*
X162004000Y-105307840D01*
X164562500Y-105900000D02*
X162300000Y-105900000D01*
X162300000Y-105900000D02*
X162004000Y-105604000D01*
X161603000Y-102701700D02*
X161102000Y-102200700D01*
X160333550Y-92293550D02*
X159110000Y-91070000D01*
X162004000Y-105307840D02*
X161603000Y-104906840D01*
G04 #@! TO.N,GPI0*
X165100000Y-104300000D02*
X165350000Y-104300000D01*
X165350000Y-104300000D02*
X165550000Y-104100000D01*
X164562500Y-104300000D02*
X165100000Y-104300000D01*
G04 #@! TO.N,GPI2*
X162200000Y-101500000D02*
X162405000Y-101705000D01*
X162405000Y-101705000D02*
X162405000Y-104574640D01*
X162930360Y-105100000D02*
X164562500Y-105100000D01*
X162200000Y-101600000D02*
X162400000Y-101800000D01*
X162405000Y-104574640D02*
X162930360Y-105100000D01*
X162200000Y-101500000D02*
X162200000Y-101600000D01*
G04 #@! TO.N,GPI10*
X160600000Y-111400000D02*
X160590000Y-111390000D01*
X164000000Y-108700000D02*
X161300000Y-111400000D01*
X160590000Y-111390000D02*
X159110000Y-111390000D01*
X164562500Y-108700000D02*
X164000000Y-108700000D01*
X161300000Y-111400000D02*
X160600000Y-111400000D01*
G04 #@! TO.N,GPI11*
X159732500Y-113930000D02*
X164562500Y-109100000D01*
X159110000Y-113930000D02*
X159732500Y-113930000D01*
G04 #@! TO.N,GPI6*
X160300000Y-102532900D02*
X160801000Y-103033900D01*
X159110000Y-98690000D02*
X160300000Y-99880000D01*
X160801000Y-105239040D02*
X161202000Y-105640040D01*
X161202000Y-106502000D02*
X161400000Y-106700000D01*
X160300000Y-99880000D02*
X160300000Y-102532900D01*
X160801000Y-103033900D02*
X160801000Y-105239040D01*
X161202000Y-105640040D02*
X161202000Y-106502000D01*
X161400000Y-106700000D02*
X164562500Y-106700000D01*
G04 #@! TO.N,GPI7*
X160801000Y-105806140D02*
X160400000Y-105405140D01*
X160801000Y-106701000D02*
X160801000Y-105806140D01*
X161200000Y-107100000D02*
X160801000Y-106701000D01*
X164562500Y-107100000D02*
X161200000Y-107100000D01*
X159110000Y-101910000D02*
X159110000Y-101230000D01*
X160400000Y-103200000D02*
X159110000Y-101910000D01*
X160400000Y-105405140D02*
X160400000Y-103200000D01*
G04 #@! TO.N,GPI23*
X171437500Y-106700000D02*
X172300000Y-106700000D01*
X174899000Y-106301000D02*
X175700000Y-105500000D01*
X175700000Y-102420000D02*
X176890000Y-101230000D01*
X172300000Y-106700000D02*
X172699000Y-106301000D01*
X172699000Y-106301000D02*
X174899000Y-106301000D01*
X175700000Y-105500000D02*
X175700000Y-102420000D01*
G04 #@! TO.N,GPI18*
X173503000Y-111868800D02*
X173503000Y-118300000D01*
X171437500Y-109100000D02*
X171634200Y-109296700D01*
X173503000Y-118300000D02*
X174213000Y-119010000D01*
X171634200Y-109296700D02*
X171634200Y-110000000D01*
X174213000Y-119010000D02*
X176890000Y-119010000D01*
X171634200Y-110000000D02*
X173503000Y-111868800D01*
G04 #@! TO.N,RUN*
X169800000Y-109937500D02*
X169800000Y-109400000D01*
X169800000Y-109400000D02*
X170000000Y-109200000D01*
X170000000Y-109200000D02*
X170200000Y-109000000D01*
G04 #@! TO.N,GPI27_ADC1*
X174464450Y-93495550D02*
X176890000Y-91070000D01*
X174000000Y-105100000D02*
X174464450Y-104635550D01*
X174464450Y-104635550D02*
X174464450Y-93495550D01*
X171437500Y-105100000D02*
X174000000Y-105100000D01*
G04 #@! TO.N,GPI17*
X171100000Y-110700000D02*
X171767100Y-110700000D01*
X173102000Y-112034900D02*
X171767100Y-110700000D01*
X170600000Y-110200000D02*
X171100000Y-110700000D01*
X173102000Y-122900000D02*
X173102000Y-112034900D01*
X176890000Y-124090000D02*
X174292000Y-124090000D01*
X174292000Y-124090000D02*
X173102000Y-122900000D01*
X170600000Y-109937500D02*
X170600000Y-110200000D01*
G04 #@! TO.N,GPI22*
X171437500Y-107100000D02*
X172500000Y-107100000D01*
X172500000Y-107100000D02*
X172799000Y-106801000D01*
X175590000Y-106310000D02*
X176890000Y-106310000D01*
X172799000Y-106801000D02*
X175099000Y-106801000D01*
X175099000Y-106801000D02*
X175590000Y-106310000D01*
G04 #@! TO.N,GPI24*
X174731900Y-105901000D02*
X175266450Y-105366450D01*
X175266450Y-100313550D02*
X176890000Y-98690000D01*
X172132900Y-106300000D02*
X172531900Y-105901000D01*
X172531900Y-105901000D02*
X174731900Y-105901000D01*
X175266450Y-105366450D02*
X175266450Y-100313550D01*
X171437500Y-106300000D02*
X172132900Y-106300000D01*
G04 #@! TO.N,GPI29_ADC3*
X174500000Y-90700000D02*
X174500000Y-83300000D01*
X172900000Y-104300000D02*
X173100000Y-104100000D01*
X171437500Y-104300000D02*
X172900000Y-104300000D01*
X174500000Y-83300000D02*
X176890000Y-80910000D01*
G04 #@! TO.N,GPI21*
X173001000Y-108533900D02*
X173001000Y-109665500D01*
X174725500Y-111390000D02*
X176890000Y-111390000D01*
X171437500Y-107900000D02*
X172367100Y-107900000D01*
X173001000Y-109665500D02*
X174725500Y-111390000D01*
X172367100Y-107900000D02*
X173001000Y-108533900D01*
G04 #@! TO.N,GPI19*
X172200000Y-108900000D02*
X172200000Y-110000000D01*
X174374000Y-116470000D02*
X173904000Y-116000000D01*
X172000000Y-108700000D02*
X172200000Y-108900000D01*
X172200000Y-110000000D02*
X173904000Y-111704000D01*
X173904000Y-111704000D02*
X173904000Y-116000000D01*
X171437500Y-108700000D02*
X172000000Y-108700000D01*
X176890000Y-116470000D02*
X174374000Y-116470000D01*
G04 #@! TO.N,GPI16*
X173530000Y-126630000D02*
X172700000Y-125800000D01*
X170200000Y-110500000D02*
X170200000Y-109937500D01*
X172701000Y-125799000D02*
X172701000Y-112201000D01*
X172701000Y-112201000D02*
X171600000Y-111100000D01*
X172700000Y-125800000D02*
X172701000Y-125799000D01*
X171600000Y-111100000D02*
X170800000Y-111100000D01*
X176890000Y-126630000D02*
X173530000Y-126630000D01*
X170800000Y-111100000D02*
X170200000Y-110500000D01*
G04 #@! TO.N,GPI26_ADC0*
X171437500Y-105500000D02*
X174565800Y-105500000D01*
X174865450Y-105200350D02*
X174865450Y-95634550D01*
X174865450Y-95634550D02*
X176890000Y-93610000D01*
X174565800Y-105500000D02*
X174865450Y-105200350D01*
G04 #@! TO.N,GPI20*
X174730000Y-113930000D02*
X174305000Y-113505000D01*
X172200000Y-108300000D02*
X171437500Y-108300000D01*
X172600000Y-108700000D02*
X172200000Y-108300000D01*
X172633550Y-109866450D02*
X172600000Y-109832900D01*
X172600000Y-109832900D02*
X172600000Y-108700000D01*
X172634850Y-109866450D02*
X172633550Y-109866450D01*
X174305000Y-111536600D02*
X172634850Y-109866450D01*
X174305000Y-113505000D02*
X174305000Y-111536600D01*
X176890000Y-113930000D02*
X174730000Y-113930000D01*
G04 #@! TO.N,GPI28_ADC2*
X174063450Y-104336550D02*
X174063450Y-92036550D01*
X173700000Y-104700000D02*
X174063450Y-104336550D01*
X175300000Y-90800000D02*
X175300000Y-87580000D01*
X175300000Y-87580000D02*
X176890000Y-85990000D01*
X171437500Y-104700000D02*
X173700000Y-104700000D01*
X174063450Y-92036550D02*
X175300000Y-90800000D01*
G04 #@! TO.N,SWCLK*
X171899000Y-112566100D02*
X171332900Y-112000000D01*
X170300000Y-112000000D02*
X169000000Y-110700000D01*
X171599000Y-124300000D02*
X171899000Y-124000000D01*
X165460000Y-126390000D02*
X167550000Y-124300000D01*
X171332900Y-112000000D02*
X170300000Y-112000000D01*
X171899000Y-124000000D02*
X171899000Y-112566100D01*
X169000000Y-110700000D02*
X169000000Y-109937500D01*
X167550000Y-124300000D02*
X171599000Y-124300000D01*
G04 #@! TO.N,SWD*
X172300000Y-112400000D02*
X172300000Y-124630000D01*
X171400000Y-111500000D02*
X172300000Y-112400000D01*
X169400000Y-109937500D02*
X169400000Y-110500000D01*
X169400000Y-110500000D02*
X170400000Y-111500000D01*
X170400000Y-111500000D02*
X171400000Y-111500000D01*
X172300000Y-124630000D02*
X170540000Y-126390000D01*
G04 #@! TO.N,Net-(U1-USB_DM)*
X169400000Y-103062500D02*
X169400000Y-102100000D01*
X169400000Y-102100000D02*
X169700000Y-101800000D01*
G04 #@! TO.N,Net-(U1-USB_DP)*
X169000000Y-102100000D02*
X168700000Y-101800000D01*
X169000000Y-103062500D02*
X169000000Y-102100000D01*
G04 #@! TO.N,XOUT*
X167790000Y-112800000D02*
X168130063Y-112459937D01*
X167800000Y-110639874D02*
X167800000Y-109937500D01*
X168130063Y-110969937D02*
X167800000Y-110639874D01*
X168130063Y-112459937D02*
X168130063Y-110969937D01*
G04 #@! TO.N,QSPI_SS*
X163049943Y-101500000D02*
X162448943Y-100899000D01*
X165100000Y-101500000D02*
X164100000Y-101500000D01*
X161949000Y-100899000D02*
X161904000Y-100854000D01*
X162000000Y-98250000D02*
X161904000Y-98346000D01*
X165400000Y-103062500D02*
X165400000Y-101800000D01*
X163760000Y-98250000D02*
X163150000Y-98250000D01*
X163150000Y-98250000D02*
X162617102Y-98250000D01*
X163150000Y-96250000D02*
X163200000Y-96200000D01*
X162617102Y-98250000D02*
X162000000Y-98250000D01*
X165400000Y-101800000D02*
X165100000Y-101500000D01*
X161904000Y-98346000D02*
X161904000Y-98550000D01*
X164810000Y-97200000D02*
X163760000Y-98250000D01*
X162448943Y-100899000D02*
X162150000Y-100899000D01*
X162150000Y-100899000D02*
X161949000Y-100899000D01*
X171300000Y-92200000D02*
X171300000Y-91020000D01*
X163150000Y-98250000D02*
X163150000Y-96250000D01*
X171300000Y-91020000D02*
X171280000Y-91000000D01*
X161904000Y-100854000D02*
X161904000Y-98600000D01*
X164100000Y-101500000D02*
X163049943Y-101500000D01*
G04 #@! TO.N,Net-(R7-Pad1)*
X172300000Y-91000000D02*
X172300000Y-90300000D01*
X172300000Y-90300000D02*
X171800000Y-89800000D01*
G04 #@! TO.N,QSPI_SD1*
X163150000Y-98750000D02*
X162350000Y-98750000D01*
X162350000Y-98750000D02*
X162305000Y-98795000D01*
X162305000Y-98795000D02*
X162305000Y-100455000D01*
X165399000Y-101099000D02*
X165800000Y-101500000D01*
X162615043Y-100498000D02*
X163216043Y-101099000D01*
X163216043Y-101099000D02*
X165399000Y-101099000D01*
X162348000Y-100498000D02*
X162615043Y-100498000D01*
X165800000Y-101500000D02*
X165800000Y-103062500D01*
X162305000Y-100455000D02*
X162348000Y-100498000D01*
G04 #@! TO.N,QSPI_SCLK*
X167000000Y-103062500D02*
X167000000Y-99784202D01*
X166465798Y-99250000D02*
X166000000Y-99250000D01*
X167000000Y-99784202D02*
X166465798Y-99250000D01*
G04 #@! TO.N,QSPI_SD2*
X166200000Y-103062500D02*
X166200000Y-100900000D01*
X163150000Y-99250000D02*
X163700000Y-99250000D01*
X164174000Y-100124000D02*
X164550000Y-100500000D01*
X164550000Y-100500000D02*
X165800000Y-100500000D01*
X166200000Y-100900000D02*
X165800000Y-100500000D01*
X164174000Y-99724000D02*
X164174000Y-100124000D01*
X163700000Y-99250000D02*
X164174000Y-99724000D01*
X163515798Y-99250000D02*
X163050000Y-99250000D01*
G04 #@! TO.N,+1V1*
X167800000Y-104000000D02*
X169397774Y-104000000D01*
X169397774Y-104000000D02*
X169801000Y-103596774D01*
X169800000Y-103062500D02*
X169800000Y-103595774D01*
X169800000Y-103595774D02*
X169801000Y-103596774D01*
X168600000Y-109000000D02*
X168200000Y-108600000D01*
X167800000Y-104000000D02*
X167800000Y-103062500D01*
X168600000Y-109937500D02*
X168600000Y-109000000D01*
G04 #@! TO.N,QSPI_SD0*
X166000000Y-99750000D02*
X166600000Y-100350000D01*
X166600000Y-100350000D02*
X166600000Y-103062500D01*
G04 #@! TO.N,QSPI_SD3*
X167400000Y-99200000D02*
X167400000Y-103062500D01*
X166950000Y-98750000D02*
X167400000Y-99200000D01*
X166950000Y-98750000D02*
X166000000Y-98750000D01*
G04 #@! TD*
G04 #@! TA.AperFunction,Conductor*
G04 #@! TO.N,GND*
G36*
X170833039Y-113429685D02*
G01*
X170878794Y-113482489D01*
X170890000Y-113534000D01*
X170890000Y-113660000D01*
X171016000Y-113660000D01*
X171083039Y-113679685D01*
X171128794Y-113732489D01*
X171140000Y-113784000D01*
X171140000Y-114237467D01*
X171142729Y-114237212D01*
X171267919Y-114193405D01*
X171300866Y-114169090D01*
X171366495Y-114145119D01*
X171434665Y-114160434D01*
X171483734Y-114210174D01*
X171498500Y-114268860D01*
X171498500Y-123775500D01*
X171478815Y-123842539D01*
X171426011Y-123888294D01*
X171374500Y-123899500D01*
X167497273Y-123899500D01*
X167395411Y-123926793D01*
X167380483Y-123935413D01*
X167380482Y-123935413D01*
X167304090Y-123979517D01*
X167304085Y-123979521D01*
X166080424Y-125203181D01*
X166019101Y-125236666D01*
X165992743Y-125239500D01*
X164565143Y-125239500D01*
X164565117Y-125239502D01*
X164540012Y-125242413D01*
X164540008Y-125242415D01*
X164437235Y-125287793D01*
X164357794Y-125367234D01*
X164312415Y-125470006D01*
X164312415Y-125470008D01*
X164309500Y-125495131D01*
X164309500Y-127284856D01*
X164309502Y-127284882D01*
X164312413Y-127309987D01*
X164312415Y-127309991D01*
X164357793Y-127412764D01*
X164357794Y-127412765D01*
X164437235Y-127492206D01*
X164540009Y-127537585D01*
X164565135Y-127540500D01*
X166354864Y-127540499D01*
X166354879Y-127540497D01*
X166354882Y-127540497D01*
X166379987Y-127537586D01*
X166379988Y-127537585D01*
X166379991Y-127537585D01*
X166482765Y-127492206D01*
X166562206Y-127412765D01*
X166607585Y-127309991D01*
X166610500Y-127284865D01*
X166610499Y-126543924D01*
X166630183Y-126476887D01*
X166682987Y-126431132D01*
X166752146Y-126421188D01*
X166815702Y-126450213D01*
X166853476Y-126508991D01*
X166856972Y-126524528D01*
X166878317Y-126659293D01*
X166934251Y-126831444D01*
X166934252Y-126831447D01*
X167016431Y-126992730D01*
X167027913Y-127008532D01*
X167027913Y-127008533D01*
X167517037Y-126519408D01*
X167534075Y-126582993D01*
X167599901Y-126697007D01*
X167692993Y-126790099D01*
X167807007Y-126855925D01*
X167870590Y-126872962D01*
X167381466Y-127362085D01*
X167381466Y-127362086D01*
X167397267Y-127373566D01*
X167397275Y-127373571D01*
X167558552Y-127455747D01*
X167558555Y-127455748D01*
X167730706Y-127511682D01*
X167909494Y-127540000D01*
X168090506Y-127540000D01*
X168269293Y-127511682D01*
X168441444Y-127455748D01*
X168441452Y-127455745D01*
X168602730Y-127373568D01*
X168618532Y-127362085D01*
X168618533Y-127362085D01*
X168129410Y-126872962D01*
X168192993Y-126855925D01*
X168307007Y-126790099D01*
X168400099Y-126697007D01*
X168465925Y-126582993D01*
X168482962Y-126519409D01*
X168972085Y-127008532D01*
X168983568Y-126992730D01*
X169065745Y-126831452D01*
X169065748Y-126831444D01*
X169121683Y-126659292D01*
X169147273Y-126497721D01*
X169177202Y-126434586D01*
X169236513Y-126397654D01*
X169306376Y-126398652D01*
X169364609Y-126437261D01*
X169392219Y-126497720D01*
X169417828Y-126659410D01*
X169473787Y-126831636D01*
X169473788Y-126831639D01*
X169508320Y-126899410D01*
X169555869Y-126992730D01*
X169556006Y-126992997D01*
X169662441Y-127139494D01*
X169662445Y-127139499D01*
X169790500Y-127267554D01*
X169790505Y-127267558D01*
X169918287Y-127360396D01*
X169937006Y-127373996D01*
X170013094Y-127412765D01*
X170098360Y-127456211D01*
X170098363Y-127456212D01*
X170184476Y-127484191D01*
X170270591Y-127512171D01*
X170353429Y-127525291D01*
X170449449Y-127540500D01*
X170449454Y-127540500D01*
X170630551Y-127540500D01*
X170717259Y-127526765D01*
X170809409Y-127512171D01*
X170981639Y-127456211D01*
X171142994Y-127373996D01*
X171289501Y-127267553D01*
X171417553Y-127139501D01*
X171523996Y-126992994D01*
X171606211Y-126831639D01*
X171662171Y-126659409D01*
X171687780Y-126497721D01*
X171690500Y-126480551D01*
X171690500Y-126299448D01*
X171672905Y-126188361D01*
X171662171Y-126120591D01*
X171615424Y-125976716D01*
X171613429Y-125906875D01*
X171645672Y-125850719D01*
X172088820Y-125407572D01*
X172108255Y-125396960D01*
X172124989Y-125382460D01*
X172138320Y-125380543D01*
X172150142Y-125374088D01*
X172172228Y-125375667D01*
X172194147Y-125372516D01*
X172206398Y-125378111D01*
X172219834Y-125379072D01*
X172237560Y-125392342D01*
X172257703Y-125401541D01*
X172264985Y-125412872D01*
X172275767Y-125420944D01*
X172283504Y-125441689D01*
X172295477Y-125460319D01*
X172298628Y-125482237D01*
X172300184Y-125486408D01*
X172300500Y-125495254D01*
X172300500Y-125731551D01*
X172299500Y-125746817D01*
X172299500Y-125852726D01*
X172326793Y-125954589D01*
X172347181Y-125989901D01*
X172379520Y-126045913D01*
X173284087Y-126950480D01*
X173375412Y-127003207D01*
X173477273Y-127030500D01*
X175726840Y-127030500D01*
X175793879Y-127050185D01*
X175837325Y-127098205D01*
X175906006Y-127232997D01*
X176012441Y-127379494D01*
X176012445Y-127379499D01*
X176140500Y-127507554D01*
X176140505Y-127507558D01*
X176268287Y-127600396D01*
X176287006Y-127613996D01*
X176387136Y-127665015D01*
X176437932Y-127712990D01*
X176454727Y-127780811D01*
X176432189Y-127846946D01*
X176377474Y-127890397D01*
X176330841Y-127899500D01*
X159669159Y-127899500D01*
X159602120Y-127879815D01*
X159556365Y-127827011D01*
X159546421Y-127757853D01*
X159575446Y-127694297D01*
X159612864Y-127665015D01*
X159712994Y-127613996D01*
X159859501Y-127507553D01*
X159987553Y-127379501D01*
X160093996Y-127232994D01*
X160176211Y-127071639D01*
X160232171Y-126899409D01*
X160249484Y-126790099D01*
X160260500Y-126720551D01*
X160260500Y-126539448D01*
X160243344Y-126431132D01*
X160232171Y-126360591D01*
X160185424Y-126216716D01*
X160183429Y-126146875D01*
X160215672Y-126090719D01*
X164009480Y-122296913D01*
X164062207Y-122205588D01*
X164089500Y-122103727D01*
X164089500Y-121998273D01*
X164089500Y-116279461D01*
X164109185Y-116212422D01*
X164161989Y-116166667D01*
X164231147Y-116156723D01*
X164235988Y-116157598D01*
X164237180Y-116157709D01*
X164237181Y-116157710D01*
X164243948Y-116158344D01*
X164266930Y-116160500D01*
X164266934Y-116160500D01*
X164713070Y-116160500D01*
X164726289Y-116159260D01*
X164742819Y-116157710D01*
X164742823Y-116157708D01*
X164742826Y-116157708D01*
X164857980Y-116117413D01*
X164868157Y-116113852D01*
X164891866Y-116096353D01*
X164957493Y-116072382D01*
X165025664Y-116087697D01*
X165074733Y-116137436D01*
X165089500Y-116196123D01*
X165089500Y-116343102D01*
X165094163Y-116381930D01*
X165100122Y-116431561D01*
X165155639Y-116572343D01*
X165247077Y-116692922D01*
X165367656Y-116784360D01*
X165367657Y-116784360D01*
X165367658Y-116784361D01*
X165508436Y-116839877D01*
X165596898Y-116850500D01*
X165596903Y-116850500D01*
X166583097Y-116850500D01*
X166583102Y-116850500D01*
X166671564Y-116839877D01*
X166812342Y-116784361D01*
X166932922Y-116692922D01*
X167024361Y-116572342D01*
X167074916Y-116444144D01*
X167117818Y-116389004D01*
X167183726Y-116365810D01*
X167251711Y-116381930D01*
X167300188Y-116432246D01*
X167305622Y-116444147D01*
X167356077Y-116572091D01*
X167356078Y-116572093D01*
X167447435Y-116692564D01*
X167567904Y-116783920D01*
X167708556Y-116839386D01*
X167796946Y-116850000D01*
X168040000Y-116850000D01*
X168040000Y-116074000D01*
X168059685Y-116006961D01*
X168112489Y-115961206D01*
X168164000Y-115950000D01*
X168416000Y-115950000D01*
X168483039Y-115969685D01*
X168528794Y-116022489D01*
X168540000Y-116074000D01*
X168540000Y-116850000D01*
X168783054Y-116850000D01*
X168871443Y-116839386D01*
X169012095Y-116783920D01*
X169132564Y-116692564D01*
X169223920Y-116572095D01*
X169279386Y-116431443D01*
X169290000Y-116343053D01*
X169290000Y-116215133D01*
X169309685Y-116148094D01*
X169362489Y-116102339D01*
X169431647Y-116092395D01*
X169487635Y-116115364D01*
X169512079Y-116133405D01*
X169637271Y-116177212D01*
X169637269Y-116177212D01*
X169640000Y-116177467D01*
X170140000Y-116177467D01*
X170142729Y-116177212D01*
X170267919Y-116133405D01*
X170374641Y-116054641D01*
X170453403Y-115947922D01*
X170487668Y-115850000D01*
X170140000Y-115850000D01*
X170140000Y-116177467D01*
X169640000Y-116177467D01*
X169640000Y-115724000D01*
X169659685Y-115656961D01*
X169712489Y-115611206D01*
X169764000Y-115600000D01*
X169890000Y-115600000D01*
X169890000Y-115474000D01*
X169909685Y-115406961D01*
X169962489Y-115361206D01*
X170014000Y-115350000D01*
X170487668Y-115350000D01*
X170453403Y-115252077D01*
X170410581Y-115194056D01*
X170386609Y-115128427D01*
X170401924Y-115060257D01*
X170410572Y-115046798D01*
X170453852Y-114988157D01*
X170497710Y-114862819D01*
X170500500Y-114833066D01*
X170500500Y-114446934D01*
X170497710Y-114417181D01*
X170491265Y-114398765D01*
X170487703Y-114328987D01*
X170522431Y-114268359D01*
X170584424Y-114236131D01*
X170629746Y-114236610D01*
X170629756Y-114236509D01*
X170630984Y-114236624D01*
X170634762Y-114236664D01*
X170637273Y-114237212D01*
X170640000Y-114237467D01*
X170640000Y-113910000D01*
X170014000Y-113910000D01*
X169946961Y-113890315D01*
X169901206Y-113837511D01*
X169890000Y-113786000D01*
X169890000Y-113534000D01*
X169909685Y-113466961D01*
X169962489Y-113421206D01*
X170014000Y-113410000D01*
X170766000Y-113410000D01*
X170833039Y-113429685D01*
G37*
G04 #@! TD.AperFunction*
G04 #@! TA.AperFunction,Conductor*
G36*
X178242539Y-77120185D02*
G01*
X178288294Y-77172989D01*
X178299500Y-77224500D01*
X178299500Y-127775500D01*
X178279815Y-127842539D01*
X178227011Y-127888294D01*
X178175500Y-127899500D01*
X177449159Y-127899500D01*
X177382120Y-127879815D01*
X177336365Y-127827011D01*
X177326421Y-127757853D01*
X177355446Y-127694297D01*
X177392864Y-127665015D01*
X177492994Y-127613996D01*
X177639501Y-127507553D01*
X177767553Y-127379501D01*
X177873996Y-127232994D01*
X177956211Y-127071639D01*
X178012171Y-126899409D01*
X178029484Y-126790099D01*
X178040500Y-126720551D01*
X178040500Y-126539448D01*
X178023344Y-126431132D01*
X178012171Y-126360591D01*
X177969578Y-126229500D01*
X177956212Y-126188363D01*
X177956211Y-126188360D01*
X177921679Y-126120589D01*
X177873996Y-126027006D01*
X177847038Y-125989901D01*
X177767558Y-125880505D01*
X177767554Y-125880500D01*
X177639499Y-125752445D01*
X177639494Y-125752441D01*
X177492997Y-125646006D01*
X177492996Y-125646005D01*
X177492994Y-125646004D01*
X177422535Y-125610103D01*
X177331639Y-125563788D01*
X177331636Y-125563787D01*
X177159410Y-125507829D01*
X176999321Y-125482473D01*
X176936186Y-125452544D01*
X176899255Y-125393232D01*
X176900253Y-125323370D01*
X176938863Y-125265137D01*
X176999321Y-125237527D01*
X177069425Y-125226422D01*
X177159409Y-125212171D01*
X177331639Y-125156211D01*
X177492994Y-125073996D01*
X177639501Y-124967553D01*
X177767553Y-124839501D01*
X177873996Y-124692994D01*
X177956211Y-124531639D01*
X178012171Y-124359409D01*
X178026765Y-124267259D01*
X178040500Y-124180551D01*
X178040500Y-123999448D01*
X178015647Y-123842539D01*
X178012171Y-123820591D01*
X177968657Y-123686666D01*
X177956212Y-123648363D01*
X177956211Y-123648360D01*
X177927740Y-123592484D01*
X177873996Y-123487006D01*
X177858657Y-123465893D01*
X177767558Y-123340505D01*
X177767554Y-123340500D01*
X177639499Y-123212445D01*
X177639494Y-123212441D01*
X177492997Y-123106006D01*
X177492996Y-123106005D01*
X177492994Y-123106004D01*
X177441300Y-123079664D01*
X177331639Y-123023788D01*
X177331636Y-123023787D01*
X177159410Y-122967828D01*
X176997720Y-122942219D01*
X176934585Y-122912289D01*
X176897654Y-122852978D01*
X176898652Y-122783115D01*
X176937262Y-122724883D01*
X176997721Y-122697273D01*
X177159292Y-122671683D01*
X177331444Y-122615748D01*
X177331452Y-122615745D01*
X177492730Y-122533568D01*
X177508532Y-122522085D01*
X177508533Y-122522085D01*
X177019410Y-122032962D01*
X177082993Y-122015925D01*
X177197007Y-121950099D01*
X177290099Y-121857007D01*
X177355925Y-121742993D01*
X177372962Y-121679409D01*
X177862085Y-122168532D01*
X177873568Y-122152730D01*
X177955745Y-121991452D01*
X177955748Y-121991444D01*
X178011682Y-121819293D01*
X178040000Y-121640506D01*
X178040000Y-121459493D01*
X178011682Y-121280706D01*
X177955748Y-121108555D01*
X177955747Y-121108552D01*
X177873571Y-120947275D01*
X177873566Y-120947267D01*
X177862085Y-120931466D01*
X177372962Y-121420589D01*
X177355925Y-121357007D01*
X177290099Y-121242993D01*
X177197007Y-121149901D01*
X177082993Y-121084075D01*
X177019409Y-121067037D01*
X177508533Y-120577913D01*
X177492730Y-120566431D01*
X177331447Y-120484252D01*
X177331444Y-120484251D01*
X177159293Y-120428317D01*
X176997720Y-120402726D01*
X176934585Y-120372797D01*
X176897654Y-120313485D01*
X176898652Y-120243623D01*
X176937262Y-120185390D01*
X176997720Y-120157780D01*
X177012270Y-120155475D01*
X177159409Y-120132171D01*
X177331639Y-120076211D01*
X177492994Y-119993996D01*
X177639501Y-119887553D01*
X177767553Y-119759501D01*
X177873996Y-119612994D01*
X177956211Y-119451639D01*
X178012171Y-119279409D01*
X178026765Y-119187259D01*
X178040500Y-119100551D01*
X178040500Y-118919448D01*
X178024019Y-118815397D01*
X178012171Y-118740591D01*
X177968657Y-118606666D01*
X177956212Y-118568363D01*
X177956211Y-118568360D01*
X177927740Y-118512484D01*
X177873996Y-118407006D01*
X177783716Y-118282745D01*
X177767558Y-118260505D01*
X177767554Y-118260500D01*
X177639499Y-118132445D01*
X177639494Y-118132441D01*
X177492997Y-118026006D01*
X177492996Y-118026005D01*
X177492994Y-118026004D01*
X177441300Y-117999664D01*
X177331639Y-117943788D01*
X177331636Y-117943787D01*
X177159410Y-117887829D01*
X176999321Y-117862473D01*
X176936186Y-117832544D01*
X176899255Y-117773232D01*
X176900253Y-117703370D01*
X176938863Y-117645137D01*
X176999321Y-117617527D01*
X177069425Y-117606422D01*
X177159409Y-117592171D01*
X177331639Y-117536211D01*
X177492994Y-117453996D01*
X177639501Y-117347553D01*
X177767553Y-117219501D01*
X177873996Y-117072994D01*
X177956211Y-116911639D01*
X178012171Y-116739409D01*
X178038632Y-116572342D01*
X178040500Y-116560551D01*
X178040500Y-116379448D01*
X178014474Y-116215133D01*
X178012171Y-116200591D01*
X177966769Y-116060855D01*
X177956212Y-116028363D01*
X177956211Y-116028360D01*
X177926314Y-115969685D01*
X177873996Y-115867006D01*
X177770097Y-115724000D01*
X177767558Y-115720505D01*
X177767554Y-115720500D01*
X177639499Y-115592445D01*
X177639494Y-115592441D01*
X177492997Y-115486006D01*
X177492996Y-115486005D01*
X177492994Y-115486004D01*
X177441300Y-115459664D01*
X177331639Y-115403788D01*
X177331636Y-115403787D01*
X177159410Y-115347829D01*
X176999321Y-115322473D01*
X176936186Y-115292544D01*
X176899255Y-115233232D01*
X176900253Y-115163370D01*
X176938863Y-115105137D01*
X176999321Y-115077527D01*
X177069425Y-115066422D01*
X177159409Y-115052171D01*
X177331639Y-114996211D01*
X177492994Y-114913996D01*
X177639501Y-114807553D01*
X177767553Y-114679501D01*
X177873996Y-114532994D01*
X177956211Y-114371639D01*
X178012171Y-114199409D01*
X178032526Y-114070892D01*
X178040500Y-114020551D01*
X178040500Y-113839448D01*
X178015195Y-113679685D01*
X178012171Y-113660591D01*
X177969578Y-113529500D01*
X177956212Y-113488363D01*
X177956211Y-113488360D01*
X177926314Y-113429685D01*
X177873996Y-113327006D01*
X177806316Y-113233852D01*
X177767558Y-113180505D01*
X177767554Y-113180500D01*
X177639499Y-113052445D01*
X177639494Y-113052441D01*
X177492997Y-112946006D01*
X177492996Y-112946005D01*
X177492994Y-112946004D01*
X177430956Y-112914394D01*
X177331639Y-112863788D01*
X177331636Y-112863787D01*
X177159410Y-112807829D01*
X176999321Y-112782473D01*
X176936186Y-112752544D01*
X176899255Y-112693232D01*
X176900253Y-112623370D01*
X176938863Y-112565137D01*
X176999321Y-112537527D01*
X177069425Y-112526422D01*
X177159409Y-112512171D01*
X177331639Y-112456211D01*
X177492994Y-112373996D01*
X177639501Y-112267553D01*
X177767553Y-112139501D01*
X177873996Y-111992994D01*
X177956211Y-111831639D01*
X178012171Y-111659409D01*
X178030976Y-111540679D01*
X178040500Y-111480551D01*
X178040500Y-111299448D01*
X178024019Y-111195397D01*
X178012171Y-111120591D01*
X177969578Y-110989500D01*
X177956212Y-110948363D01*
X177956211Y-110948360D01*
X177927740Y-110892484D01*
X177873996Y-110787006D01*
X177860396Y-110768287D01*
X177767558Y-110640505D01*
X177767554Y-110640500D01*
X177639499Y-110512445D01*
X177639494Y-110512441D01*
X177492997Y-110406006D01*
X177492996Y-110406005D01*
X177492994Y-110406004D01*
X177441300Y-110379664D01*
X177331639Y-110323788D01*
X177331636Y-110323787D01*
X177159410Y-110267828D01*
X176997720Y-110242219D01*
X176934585Y-110212289D01*
X176897654Y-110152978D01*
X176898652Y-110083115D01*
X176937262Y-110024883D01*
X176997721Y-109997273D01*
X177159292Y-109971683D01*
X177331444Y-109915748D01*
X177331452Y-109915745D01*
X177492730Y-109833568D01*
X177508532Y-109822085D01*
X177508533Y-109822085D01*
X177019410Y-109332962D01*
X177082993Y-109315925D01*
X177197007Y-109250099D01*
X177290099Y-109157007D01*
X177355925Y-109042993D01*
X177372962Y-108979409D01*
X177862085Y-109468532D01*
X177873568Y-109452730D01*
X177955745Y-109291452D01*
X177955748Y-109291444D01*
X178011682Y-109119293D01*
X178040000Y-108940506D01*
X178040000Y-108759493D01*
X178011682Y-108580706D01*
X177955748Y-108408555D01*
X177955747Y-108408552D01*
X177873571Y-108247275D01*
X177873566Y-108247267D01*
X177862085Y-108231466D01*
X177372962Y-108720589D01*
X177355925Y-108657007D01*
X177290099Y-108542993D01*
X177197007Y-108449901D01*
X177082993Y-108384075D01*
X177019409Y-108367037D01*
X177508533Y-107877913D01*
X177492730Y-107866431D01*
X177331447Y-107784252D01*
X177331444Y-107784251D01*
X177159293Y-107728317D01*
X176997720Y-107702726D01*
X176934585Y-107672797D01*
X176897654Y-107613485D01*
X176898652Y-107543623D01*
X176937262Y-107485390D01*
X176997720Y-107457780D01*
X177012270Y-107455475D01*
X177159409Y-107432171D01*
X177331639Y-107376211D01*
X177492994Y-107293996D01*
X177639501Y-107187553D01*
X177767553Y-107059501D01*
X177873996Y-106912994D01*
X177956211Y-106751639D01*
X178012171Y-106579409D01*
X178027027Y-106485610D01*
X178040500Y-106400551D01*
X178040500Y-106219448D01*
X178015339Y-106060596D01*
X178012171Y-106040591D01*
X177976309Y-105930216D01*
X177956212Y-105868363D01*
X177956211Y-105868360D01*
X177927740Y-105812484D01*
X177873996Y-105707006D01*
X177840277Y-105660596D01*
X177767558Y-105560505D01*
X177767554Y-105560500D01*
X177639499Y-105432445D01*
X177639494Y-105432441D01*
X177492997Y-105326006D01*
X177492996Y-105326005D01*
X177492994Y-105326004D01*
X177413717Y-105285610D01*
X177331639Y-105243788D01*
X177331636Y-105243787D01*
X177159410Y-105187829D01*
X176999321Y-105162473D01*
X176936186Y-105132544D01*
X176899255Y-105073232D01*
X176900253Y-105003370D01*
X176938863Y-104945137D01*
X176999321Y-104917527D01*
X177069425Y-104906422D01*
X177159409Y-104892171D01*
X177331639Y-104836211D01*
X177492994Y-104753996D01*
X177639501Y-104647553D01*
X177767553Y-104519501D01*
X177873996Y-104372994D01*
X177956211Y-104211639D01*
X178012171Y-104039409D01*
X178031969Y-103914409D01*
X178040500Y-103860551D01*
X178040500Y-103679448D01*
X178024019Y-103575397D01*
X178012171Y-103500591D01*
X177976309Y-103390216D01*
X177956212Y-103328363D01*
X177956211Y-103328360D01*
X177916334Y-103250098D01*
X177873996Y-103167006D01*
X177838912Y-103118717D01*
X177767558Y-103020505D01*
X177767554Y-103020500D01*
X177639499Y-102892445D01*
X177639494Y-102892441D01*
X177492997Y-102786006D01*
X177492996Y-102786005D01*
X177492994Y-102786004D01*
X177441300Y-102759664D01*
X177331639Y-102703788D01*
X177331636Y-102703787D01*
X177159410Y-102647829D01*
X176999321Y-102622473D01*
X176936186Y-102592544D01*
X176899255Y-102533232D01*
X176900253Y-102463370D01*
X176938863Y-102405137D01*
X176999321Y-102377527D01*
X177069425Y-102366422D01*
X177159409Y-102352171D01*
X177331639Y-102296211D01*
X177492994Y-102213996D01*
X177639501Y-102107553D01*
X177767553Y-101979501D01*
X177873996Y-101832994D01*
X177956211Y-101671639D01*
X178012171Y-101499409D01*
X178034501Y-101358423D01*
X178040500Y-101320551D01*
X178040500Y-101139448D01*
X178013258Y-100967457D01*
X178012171Y-100960591D01*
X177966491Y-100820000D01*
X177956212Y-100788363D01*
X177956211Y-100788360D01*
X177897822Y-100673767D01*
X177873996Y-100627006D01*
X177827581Y-100563121D01*
X177767558Y-100480505D01*
X177767554Y-100480500D01*
X177639499Y-100352445D01*
X177639494Y-100352441D01*
X177492997Y-100246006D01*
X177492996Y-100246005D01*
X177492994Y-100246004D01*
X177426766Y-100212259D01*
X177331639Y-100163788D01*
X177331636Y-100163787D01*
X177159410Y-100107829D01*
X176999321Y-100082473D01*
X176936186Y-100052544D01*
X176899255Y-99993232D01*
X176900253Y-99923370D01*
X176938863Y-99865137D01*
X176999321Y-99837527D01*
X177069425Y-99826422D01*
X177159409Y-99812171D01*
X177331639Y-99756211D01*
X177492994Y-99673996D01*
X177639501Y-99567553D01*
X177767553Y-99439501D01*
X177873996Y-99292994D01*
X177956211Y-99131639D01*
X178012171Y-98959409D01*
X178026765Y-98867259D01*
X178040500Y-98780551D01*
X178040500Y-98599448D01*
X178013585Y-98429520D01*
X178012171Y-98420591D01*
X177976309Y-98310216D01*
X177956212Y-98248363D01*
X177956211Y-98248360D01*
X177927740Y-98192484D01*
X177873996Y-98087006D01*
X177830570Y-98027235D01*
X177767558Y-97940505D01*
X177767554Y-97940500D01*
X177639499Y-97812445D01*
X177639494Y-97812441D01*
X177492997Y-97706006D01*
X177492996Y-97706005D01*
X177492994Y-97706004D01*
X177425950Y-97671843D01*
X177331639Y-97623788D01*
X177331636Y-97623787D01*
X177159410Y-97567828D01*
X176997720Y-97542219D01*
X176934585Y-97512289D01*
X176897654Y-97452978D01*
X176898652Y-97383115D01*
X176937262Y-97324883D01*
X176997721Y-97297273D01*
X177159292Y-97271683D01*
X177331444Y-97215748D01*
X177331452Y-97215745D01*
X177492730Y-97133568D01*
X177508532Y-97122085D01*
X177508533Y-97122085D01*
X177019410Y-96632962D01*
X177082993Y-96615925D01*
X177197007Y-96550099D01*
X177290099Y-96457007D01*
X177355925Y-96342993D01*
X177372962Y-96279409D01*
X177862085Y-96768532D01*
X177873568Y-96752730D01*
X177955745Y-96591452D01*
X177955748Y-96591444D01*
X178011682Y-96419293D01*
X178040000Y-96240506D01*
X178040000Y-96059493D01*
X178011682Y-95880706D01*
X177955748Y-95708555D01*
X177955747Y-95708552D01*
X177873571Y-95547275D01*
X177873566Y-95547267D01*
X177862085Y-95531466D01*
X177372962Y-96020589D01*
X177355925Y-95957007D01*
X177290099Y-95842993D01*
X177197007Y-95749901D01*
X177082993Y-95684075D01*
X177019409Y-95667037D01*
X177508533Y-95177913D01*
X177492730Y-95166431D01*
X177331447Y-95084252D01*
X177331444Y-95084251D01*
X177159293Y-95028317D01*
X176997720Y-95002726D01*
X176934585Y-94972797D01*
X176897654Y-94913485D01*
X176898652Y-94843623D01*
X176937262Y-94785390D01*
X176997720Y-94757780D01*
X177012270Y-94755475D01*
X177159409Y-94732171D01*
X177331639Y-94676211D01*
X177492994Y-94593996D01*
X177639501Y-94487553D01*
X177767553Y-94359501D01*
X177873996Y-94212994D01*
X177956211Y-94051639D01*
X178012171Y-93879409D01*
X178038559Y-93712803D01*
X178040500Y-93700551D01*
X178040500Y-93519448D01*
X178024019Y-93415397D01*
X178012171Y-93340591D01*
X177976309Y-93230216D01*
X177956212Y-93168363D01*
X177956211Y-93168360D01*
X177927740Y-93112484D01*
X177873996Y-93007006D01*
X177778635Y-92875752D01*
X177767558Y-92860505D01*
X177767554Y-92860500D01*
X177639499Y-92732445D01*
X177639494Y-92732441D01*
X177492997Y-92626006D01*
X177492996Y-92626005D01*
X177492994Y-92626004D01*
X177441300Y-92599664D01*
X177331639Y-92543788D01*
X177331636Y-92543787D01*
X177159410Y-92487829D01*
X176999321Y-92462473D01*
X176936186Y-92432544D01*
X176899255Y-92373232D01*
X176900253Y-92303370D01*
X176938863Y-92245137D01*
X176999321Y-92217527D01*
X177069425Y-92206422D01*
X177159409Y-92192171D01*
X177331639Y-92136211D01*
X177492994Y-92053996D01*
X177639501Y-91947553D01*
X177767553Y-91819501D01*
X177873996Y-91672994D01*
X177956211Y-91511639D01*
X178012171Y-91339409D01*
X178036421Y-91186302D01*
X178040500Y-91160551D01*
X178040500Y-90979448D01*
X178018487Y-90840471D01*
X178012171Y-90800591D01*
X177971596Y-90675711D01*
X177956212Y-90628363D01*
X177956211Y-90628360D01*
X177927740Y-90572484D01*
X177873996Y-90467006D01*
X177839118Y-90419000D01*
X177767558Y-90320505D01*
X177767554Y-90320500D01*
X177639499Y-90192445D01*
X177639494Y-90192441D01*
X177492997Y-90086006D01*
X177492996Y-90086005D01*
X177492994Y-90086004D01*
X177418164Y-90047876D01*
X177331639Y-90003788D01*
X177331636Y-90003787D01*
X177159410Y-89947829D01*
X176999321Y-89922473D01*
X176936186Y-89892544D01*
X176899255Y-89833232D01*
X176900253Y-89763370D01*
X176938863Y-89705137D01*
X176999321Y-89677527D01*
X177069425Y-89666422D01*
X177159409Y-89652171D01*
X177331639Y-89596211D01*
X177492994Y-89513996D01*
X177639501Y-89407553D01*
X177767553Y-89279501D01*
X177873996Y-89132994D01*
X177956211Y-88971639D01*
X178012171Y-88799409D01*
X178028582Y-88695793D01*
X178040500Y-88620551D01*
X178040500Y-88439448D01*
X178019717Y-88308237D01*
X178012171Y-88260591D01*
X177971267Y-88134699D01*
X177956212Y-88088363D01*
X177956211Y-88088360D01*
X177927740Y-88032484D01*
X177873996Y-87927006D01*
X177860396Y-87908287D01*
X177767558Y-87780505D01*
X177767554Y-87780500D01*
X177639499Y-87652445D01*
X177639494Y-87652441D01*
X177492997Y-87546006D01*
X177492996Y-87546005D01*
X177492994Y-87546004D01*
X177441300Y-87519664D01*
X177331639Y-87463788D01*
X177331636Y-87463787D01*
X177159410Y-87407829D01*
X176999321Y-87382473D01*
X176936186Y-87352544D01*
X176899255Y-87293232D01*
X176900253Y-87223370D01*
X176938863Y-87165137D01*
X176999321Y-87137527D01*
X177069425Y-87126422D01*
X177159409Y-87112171D01*
X177331639Y-87056211D01*
X177492994Y-86973996D01*
X177639501Y-86867553D01*
X177767553Y-86739501D01*
X177873996Y-86592994D01*
X177956211Y-86431639D01*
X178012171Y-86259409D01*
X178033572Y-86124288D01*
X178040500Y-86080551D01*
X178040500Y-85899448D01*
X178018886Y-85762990D01*
X178012171Y-85720591D01*
X177976309Y-85610216D01*
X177956212Y-85548363D01*
X177956211Y-85548360D01*
X177920083Y-85477457D01*
X177873996Y-85387006D01*
X177817247Y-85308897D01*
X177767558Y-85240505D01*
X177767554Y-85240500D01*
X177639499Y-85112445D01*
X177639494Y-85112441D01*
X177492997Y-85006006D01*
X177492996Y-85006005D01*
X177492994Y-85006004D01*
X177431993Y-84974922D01*
X177331639Y-84923788D01*
X177331636Y-84923787D01*
X177159410Y-84867828D01*
X176997720Y-84842219D01*
X176934585Y-84812289D01*
X176897654Y-84752978D01*
X176898652Y-84683115D01*
X176937262Y-84624883D01*
X176997721Y-84597273D01*
X177159292Y-84571683D01*
X177331444Y-84515748D01*
X177331452Y-84515745D01*
X177492730Y-84433568D01*
X177508532Y-84422085D01*
X177508533Y-84422085D01*
X177019410Y-83932962D01*
X177082993Y-83915925D01*
X177197007Y-83850099D01*
X177290099Y-83757007D01*
X177355925Y-83642993D01*
X177372962Y-83579409D01*
X177862085Y-84068532D01*
X177873568Y-84052730D01*
X177955745Y-83891452D01*
X177955748Y-83891444D01*
X178011682Y-83719293D01*
X178040000Y-83540506D01*
X178040000Y-83359493D01*
X178011682Y-83180706D01*
X177955748Y-83008555D01*
X177955747Y-83008552D01*
X177873571Y-82847275D01*
X177873566Y-82847267D01*
X177862085Y-82831466D01*
X177372962Y-83320589D01*
X177355925Y-83257007D01*
X177290099Y-83142993D01*
X177197007Y-83049901D01*
X177082993Y-82984075D01*
X177019409Y-82967037D01*
X177508533Y-82477913D01*
X177492730Y-82466431D01*
X177331447Y-82384252D01*
X177331444Y-82384251D01*
X177159293Y-82328317D01*
X176997720Y-82302726D01*
X176934585Y-82272797D01*
X176897654Y-82213485D01*
X176898652Y-82143623D01*
X176937262Y-82085390D01*
X176997720Y-82057780D01*
X177012270Y-82055475D01*
X177159409Y-82032171D01*
X177331639Y-81976211D01*
X177492994Y-81893996D01*
X177639501Y-81787553D01*
X177767553Y-81659501D01*
X177873996Y-81512994D01*
X177956211Y-81351639D01*
X178012171Y-81179409D01*
X178026765Y-81087259D01*
X178040500Y-81000551D01*
X178040500Y-80819448D01*
X178024019Y-80715397D01*
X178012171Y-80640591D01*
X177976309Y-80530216D01*
X177956212Y-80468363D01*
X177956211Y-80468360D01*
X177927740Y-80412484D01*
X177873996Y-80307006D01*
X177860396Y-80288287D01*
X177767558Y-80160505D01*
X177767554Y-80160500D01*
X177639499Y-80032445D01*
X177639494Y-80032441D01*
X177492997Y-79926006D01*
X177492996Y-79926005D01*
X177492994Y-79926004D01*
X177441300Y-79899664D01*
X177331639Y-79843788D01*
X177331636Y-79843787D01*
X177159410Y-79787829D01*
X177027727Y-79766972D01*
X176964592Y-79737043D01*
X176927661Y-79677731D01*
X176928659Y-79607868D01*
X176967269Y-79549636D01*
X177031233Y-79521522D01*
X177047125Y-79520499D01*
X177784856Y-79520499D01*
X177784864Y-79520499D01*
X177784879Y-79520497D01*
X177784882Y-79520497D01*
X177809987Y-79517586D01*
X177809988Y-79517585D01*
X177809991Y-79517585D01*
X177912765Y-79472206D01*
X177992206Y-79392765D01*
X178037585Y-79289991D01*
X178040500Y-79264865D01*
X178040499Y-77475136D01*
X178040497Y-77475117D01*
X178037586Y-77450012D01*
X178037585Y-77450010D01*
X178037585Y-77450009D01*
X177992206Y-77347235D01*
X177957152Y-77312181D01*
X177923667Y-77250858D01*
X177928651Y-77181166D01*
X177970523Y-77125233D01*
X178035987Y-77100816D01*
X178044833Y-77100500D01*
X178175500Y-77100500D01*
X178242539Y-77120185D01*
G37*
G04 #@! TD.AperFunction*
G04 #@! TA.AperFunction,Conductor*
G36*
X171430783Y-124720185D02*
G01*
X171476538Y-124772989D01*
X171486482Y-124842147D01*
X171457457Y-124905703D01*
X171451425Y-124912181D01*
X171079280Y-125284325D01*
X171017957Y-125317810D01*
X170953281Y-125314575D01*
X170809410Y-125267829D01*
X170630551Y-125239500D01*
X170630546Y-125239500D01*
X170449454Y-125239500D01*
X170449449Y-125239500D01*
X170270589Y-125267829D01*
X170098363Y-125323787D01*
X170098360Y-125323788D01*
X169937002Y-125406006D01*
X169790505Y-125512441D01*
X169790500Y-125512445D01*
X169662445Y-125640500D01*
X169662441Y-125640505D01*
X169556006Y-125787002D01*
X169473788Y-125948360D01*
X169473787Y-125948363D01*
X169417829Y-126120589D01*
X169392219Y-126282280D01*
X169362289Y-126345414D01*
X169302978Y-126382345D01*
X169233115Y-126381347D01*
X169174883Y-126342737D01*
X169147273Y-126282279D01*
X169121682Y-126120706D01*
X169065748Y-125948555D01*
X169065747Y-125948552D01*
X168983571Y-125787275D01*
X168983566Y-125787267D01*
X168972085Y-125771466D01*
X168482962Y-126260589D01*
X168465925Y-126197007D01*
X168400099Y-126082993D01*
X168307007Y-125989901D01*
X168192993Y-125924075D01*
X168129409Y-125907037D01*
X168618533Y-125417913D01*
X168602730Y-125406431D01*
X168441447Y-125324252D01*
X168441444Y-125324251D01*
X168269293Y-125268317D01*
X168090506Y-125240000D01*
X167909494Y-125240000D01*
X167730706Y-125268317D01*
X167558555Y-125324251D01*
X167558547Y-125324254D01*
X167397269Y-125406432D01*
X167381466Y-125417912D01*
X167381466Y-125417913D01*
X167870591Y-125907037D01*
X167807007Y-125924075D01*
X167692993Y-125989901D01*
X167599901Y-126082993D01*
X167534075Y-126197007D01*
X167517037Y-126260590D01*
X167027912Y-125771466D01*
X167016432Y-125787269D01*
X166934254Y-125948547D01*
X166934251Y-125948555D01*
X166878317Y-126120706D01*
X166856972Y-126255472D01*
X166827043Y-126318607D01*
X166767731Y-126355538D01*
X166697869Y-126354540D01*
X166639636Y-126315930D01*
X166611522Y-126251966D01*
X166610499Y-126236074D01*
X166610499Y-125857254D01*
X166630184Y-125790215D01*
X166646813Y-125769578D01*
X167679574Y-124736819D01*
X167740897Y-124703334D01*
X167767255Y-124700500D01*
X171363744Y-124700500D01*
X171430783Y-124720185D01*
G37*
G04 #@! TD.AperFunction*
G04 #@! TA.AperFunction,Conductor*
G36*
X158644075Y-121742993D02*
G01*
X158709901Y-121857007D01*
X158802993Y-121950099D01*
X158917007Y-122015925D01*
X158980590Y-122032962D01*
X158491466Y-122522085D01*
X158491466Y-122522086D01*
X158507267Y-122533566D01*
X158507275Y-122533571D01*
X158668552Y-122615747D01*
X158668555Y-122615748D01*
X158840706Y-122671682D01*
X159002279Y-122697273D01*
X159065413Y-122727202D01*
X159102345Y-122786513D01*
X159101347Y-122856376D01*
X159062738Y-122914609D01*
X159002280Y-122942219D01*
X158840589Y-122967829D01*
X158668363Y-123023787D01*
X158668360Y-123023788D01*
X158507002Y-123106006D01*
X158360505Y-123212441D01*
X158360500Y-123212445D01*
X158232445Y-123340500D01*
X158232441Y-123340505D01*
X158126006Y-123487002D01*
X158043788Y-123648360D01*
X158043785Y-123648368D01*
X158042430Y-123652541D01*
X158002992Y-123710216D01*
X157938633Y-123737413D01*
X157869787Y-123725498D01*
X157818312Y-123678253D01*
X157800500Y-123614221D01*
X157800500Y-122024158D01*
X157820185Y-121957119D01*
X157872989Y-121911364D01*
X157942147Y-121901420D01*
X158005703Y-121930445D01*
X158042432Y-121985842D01*
X158044253Y-121991448D01*
X158126431Y-122152730D01*
X158137913Y-122168532D01*
X158137913Y-122168533D01*
X158627037Y-121679408D01*
X158644075Y-121742993D01*
G37*
G04 #@! TD.AperFunction*
G04 #@! TA.AperFunction,Conductor*
G36*
X162806834Y-119249073D02*
G01*
X162862767Y-119290945D01*
X162887184Y-119356409D01*
X162887500Y-119365255D01*
X162887500Y-121667645D01*
X162867815Y-121734684D01*
X162851181Y-121755326D01*
X160953326Y-123653181D01*
X160892003Y-123686666D01*
X160865645Y-123689500D01*
X160273160Y-123689500D01*
X160206121Y-123669815D01*
X160162675Y-123621795D01*
X160154009Y-123604787D01*
X160093996Y-123487006D01*
X160078657Y-123465893D01*
X159987558Y-123340505D01*
X159987554Y-123340500D01*
X159859499Y-123212445D01*
X159859494Y-123212441D01*
X159712997Y-123106006D01*
X159712996Y-123106005D01*
X159712994Y-123106004D01*
X159661300Y-123079664D01*
X159551639Y-123023788D01*
X159551636Y-123023787D01*
X159379410Y-122967828D01*
X159217720Y-122942219D01*
X159154585Y-122912289D01*
X159117654Y-122852978D01*
X159118652Y-122783115D01*
X159157262Y-122724883D01*
X159217721Y-122697273D01*
X159379292Y-122671683D01*
X159551444Y-122615748D01*
X159551452Y-122615745D01*
X159712730Y-122533568D01*
X159728532Y-122522085D01*
X159728533Y-122522085D01*
X159239410Y-122032962D01*
X159302993Y-122015925D01*
X159417007Y-121950099D01*
X159510099Y-121857007D01*
X159575925Y-121742993D01*
X159592962Y-121679409D01*
X160082085Y-122168532D01*
X160093568Y-122152730D01*
X160175745Y-121991452D01*
X160175748Y-121991444D01*
X160231682Y-121819293D01*
X160260000Y-121640506D01*
X160260000Y-121459493D01*
X160231682Y-121280706D01*
X160175748Y-121108555D01*
X160175747Y-121108552D01*
X160093571Y-120947275D01*
X160093566Y-120947267D01*
X160082085Y-120931466D01*
X159592962Y-121420589D01*
X159575925Y-121357007D01*
X159510099Y-121242993D01*
X159417007Y-121149901D01*
X159302993Y-121084075D01*
X159239409Y-121067037D01*
X159728533Y-120577913D01*
X159712730Y-120566431D01*
X159551447Y-120484252D01*
X159551444Y-120484251D01*
X159379293Y-120428317D01*
X159217720Y-120402726D01*
X159154585Y-120372797D01*
X159117654Y-120313485D01*
X159118652Y-120243623D01*
X159157262Y-120185390D01*
X159217720Y-120157780D01*
X159232270Y-120155475D01*
X159379409Y-120132171D01*
X159551639Y-120076211D01*
X159712994Y-119993996D01*
X159859501Y-119887553D01*
X159987553Y-119759501D01*
X160093996Y-119612994D01*
X160162675Y-119478205D01*
X160210650Y-119427409D01*
X160273160Y-119410500D01*
X162429725Y-119410500D01*
X162429727Y-119410500D01*
X162531588Y-119383207D01*
X162622913Y-119330480D01*
X162675819Y-119277574D01*
X162737142Y-119244089D01*
X162806834Y-119249073D01*
G37*
G04 #@! TD.AperFunction*
G04 #@! TA.AperFunction,Conductor*
G36*
X173630814Y-119044432D02*
G01*
X173644147Y-119042516D01*
X173664290Y-119051715D01*
X173685927Y-119056422D01*
X173703652Y-119069690D01*
X173707703Y-119071541D01*
X173714181Y-119077573D01*
X173888179Y-119251571D01*
X173888189Y-119251582D01*
X173892519Y-119255912D01*
X173892520Y-119255913D01*
X173967087Y-119330480D01*
X174058413Y-119383207D01*
X174160273Y-119410501D01*
X174160275Y-119410501D01*
X174273323Y-119410501D01*
X174273339Y-119410500D01*
X175726840Y-119410500D01*
X175793879Y-119430185D01*
X175837325Y-119478205D01*
X175906006Y-119612997D01*
X176012441Y-119759494D01*
X176012445Y-119759499D01*
X176140500Y-119887554D01*
X176140505Y-119887558D01*
X176268287Y-119980396D01*
X176287006Y-119993996D01*
X176392484Y-120047740D01*
X176448360Y-120076211D01*
X176448363Y-120076212D01*
X176534476Y-120104191D01*
X176620591Y-120132171D01*
X176740038Y-120151089D01*
X176782279Y-120157780D01*
X176845414Y-120187709D01*
X176882345Y-120247021D01*
X176881347Y-120316883D01*
X176842737Y-120375116D01*
X176782279Y-120402726D01*
X176620706Y-120428317D01*
X176448555Y-120484251D01*
X176448547Y-120484254D01*
X176287269Y-120566432D01*
X176271466Y-120577912D01*
X176271466Y-120577913D01*
X176760591Y-121067037D01*
X176697007Y-121084075D01*
X176582993Y-121149901D01*
X176489901Y-121242993D01*
X176424075Y-121357007D01*
X176407037Y-121420590D01*
X175917913Y-120931466D01*
X175917912Y-120931466D01*
X175906432Y-120947269D01*
X175824254Y-121108547D01*
X175824251Y-121108555D01*
X175768317Y-121280706D01*
X175740000Y-121459493D01*
X175740000Y-121640506D01*
X175768317Y-121819293D01*
X175824251Y-121991444D01*
X175824252Y-121991447D01*
X175906431Y-122152730D01*
X175917913Y-122168532D01*
X175917913Y-122168533D01*
X176407037Y-121679409D01*
X176424075Y-121742993D01*
X176489901Y-121857007D01*
X176582993Y-121950099D01*
X176697007Y-122015925D01*
X176760590Y-122032962D01*
X176271466Y-122522085D01*
X176271466Y-122522086D01*
X176287267Y-122533566D01*
X176287275Y-122533571D01*
X176448552Y-122615747D01*
X176448555Y-122615748D01*
X176620706Y-122671682D01*
X176782279Y-122697273D01*
X176845413Y-122727202D01*
X176882345Y-122786513D01*
X176881347Y-122856376D01*
X176842738Y-122914609D01*
X176782280Y-122942219D01*
X176620589Y-122967829D01*
X176448363Y-123023787D01*
X176448360Y-123023788D01*
X176287002Y-123106006D01*
X176140505Y-123212441D01*
X176140500Y-123212445D01*
X176012445Y-123340500D01*
X176012441Y-123340505D01*
X175906006Y-123487002D01*
X175837325Y-123621795D01*
X175789350Y-123672591D01*
X175726840Y-123689500D01*
X174509255Y-123689500D01*
X174442216Y-123669815D01*
X174421574Y-123653181D01*
X173538819Y-122770426D01*
X173505334Y-122709103D01*
X173502500Y-122682745D01*
X173502500Y-119165254D01*
X173508738Y-119144008D01*
X173510318Y-119121920D01*
X173518390Y-119111136D01*
X173522185Y-119098215D01*
X173538918Y-119083715D01*
X173552190Y-119065987D01*
X173564810Y-119061279D01*
X173574989Y-119052460D01*
X173596906Y-119049308D01*
X173617654Y-119041570D01*
X173630814Y-119044432D01*
G37*
G04 #@! TD.AperFunction*
G04 #@! TA.AperFunction,Conductor*
G36*
X158005703Y-119392065D02*
G01*
X158042432Y-119447462D01*
X158043789Y-119451640D01*
X158126006Y-119612997D01*
X158232441Y-119759494D01*
X158232445Y-119759499D01*
X158360500Y-119887554D01*
X158360505Y-119887558D01*
X158488287Y-119980396D01*
X158507006Y-119993996D01*
X158612484Y-120047740D01*
X158668360Y-120076211D01*
X158668363Y-120076212D01*
X158754476Y-120104191D01*
X158840591Y-120132171D01*
X158960038Y-120151089D01*
X159002279Y-120157780D01*
X159065414Y-120187709D01*
X159102345Y-120247021D01*
X159101347Y-120316883D01*
X159062737Y-120375116D01*
X159002279Y-120402726D01*
X158840706Y-120428317D01*
X158668555Y-120484251D01*
X158668547Y-120484254D01*
X158507269Y-120566432D01*
X158491466Y-120577912D01*
X158491466Y-120577913D01*
X158980591Y-121067037D01*
X158917007Y-121084075D01*
X158802993Y-121149901D01*
X158709901Y-121242993D01*
X158644075Y-121357007D01*
X158627037Y-121420590D01*
X158137913Y-120931466D01*
X158137912Y-120931466D01*
X158126432Y-120947269D01*
X158044254Y-121108547D01*
X158044254Y-121108549D01*
X158042431Y-121114161D01*
X158002992Y-121171836D01*
X157938633Y-121199033D01*
X157869787Y-121187118D01*
X157818312Y-121139873D01*
X157800500Y-121075841D01*
X157800500Y-119485778D01*
X157820185Y-119418739D01*
X157872989Y-119372984D01*
X157942147Y-119363040D01*
X158005703Y-119392065D01*
G37*
G04 #@! TD.AperFunction*
G04 #@! TA.AperFunction,Conductor*
G36*
X166919834Y-111249073D02*
G01*
X166975767Y-111290945D01*
X167000184Y-111356409D01*
X167000500Y-111365255D01*
X167000500Y-111515945D01*
X166980815Y-111582984D01*
X166964181Y-111603626D01*
X166769522Y-111798284D01*
X166769520Y-111798287D01*
X166716791Y-111889614D01*
X166711382Y-111909805D01*
X166711382Y-111909807D01*
X166689500Y-111991473D01*
X166689500Y-113226000D01*
X166669815Y-113293039D01*
X166617011Y-113338794D01*
X166565500Y-113350000D01*
X166340000Y-113350000D01*
X166340000Y-114126000D01*
X166320315Y-114193039D01*
X166267511Y-114238794D01*
X166216000Y-114250000D01*
X165964000Y-114250000D01*
X165896961Y-114230315D01*
X165851206Y-114177511D01*
X165840000Y-114126000D01*
X165840000Y-113350000D01*
X165596946Y-113350000D01*
X165508556Y-113360613D01*
X165367904Y-113416079D01*
X165247435Y-113507435D01*
X165156079Y-113627904D01*
X165100613Y-113768556D01*
X165090000Y-113856946D01*
X165090000Y-114004866D01*
X165070315Y-114071905D01*
X165017511Y-114117660D01*
X164948353Y-114127604D01*
X164892367Y-114104637D01*
X164867919Y-114086594D01*
X164742727Y-114042787D01*
X164742725Y-114042786D01*
X164740000Y-114042530D01*
X164740000Y-114496000D01*
X164720315Y-114563039D01*
X164667511Y-114608794D01*
X164616000Y-114620000D01*
X164364000Y-114620000D01*
X164296961Y-114600315D01*
X164251206Y-114547511D01*
X164240000Y-114496000D01*
X164240000Y-114042531D01*
X164239999Y-114042530D01*
X164229769Y-114043492D01*
X164229578Y-114041466D01*
X164170264Y-114037274D01*
X164114295Y-113995450D01*
X164089823Y-113930006D01*
X164089500Y-113921056D01*
X164089500Y-113410705D01*
X164109185Y-113343666D01*
X164125819Y-113323024D01*
X165012024Y-112436819D01*
X165073347Y-112403334D01*
X165099705Y-112400500D01*
X165552725Y-112400500D01*
X165552727Y-112400500D01*
X165654588Y-112373207D01*
X165745913Y-112320480D01*
X166788819Y-111277574D01*
X166850142Y-111244089D01*
X166919834Y-111249073D01*
G37*
G04 #@! TD.AperFunction*
G04 #@! TA.AperFunction,Conductor*
G36*
X158644075Y-109042993D02*
G01*
X158709901Y-109157007D01*
X158802993Y-109250099D01*
X158917007Y-109315925D01*
X158980589Y-109332962D01*
X158491466Y-109822085D01*
X158491466Y-109822086D01*
X158507267Y-109833566D01*
X158507275Y-109833571D01*
X158668552Y-109915747D01*
X158668555Y-109915748D01*
X158840706Y-109971682D01*
X159002279Y-109997273D01*
X159065413Y-110027202D01*
X159102345Y-110086513D01*
X159101347Y-110156376D01*
X159062738Y-110214609D01*
X159002280Y-110242219D01*
X158840589Y-110267829D01*
X158668363Y-110323787D01*
X158668360Y-110323788D01*
X158507002Y-110406006D01*
X158360505Y-110512441D01*
X158360500Y-110512445D01*
X158232445Y-110640500D01*
X158232441Y-110640505D01*
X158126006Y-110787002D01*
X158043788Y-110948360D01*
X158043785Y-110948368D01*
X158042430Y-110952541D01*
X158002992Y-111010216D01*
X157938633Y-111037413D01*
X157869787Y-111025498D01*
X157818312Y-110978253D01*
X157800500Y-110914221D01*
X157800500Y-109324158D01*
X157820185Y-109257119D01*
X157872989Y-109211364D01*
X157942147Y-109201420D01*
X158005703Y-109230445D01*
X158042432Y-109285842D01*
X158044253Y-109291448D01*
X158126431Y-109452730D01*
X158137913Y-109468532D01*
X158137913Y-109468533D01*
X158627037Y-108979408D01*
X158644075Y-109042993D01*
G37*
G04 #@! TD.AperFunction*
G04 #@! TA.AperFunction,Conductor*
G36*
X175797316Y-106771589D02*
G01*
X175853250Y-106813460D01*
X175864467Y-106831476D01*
X175906002Y-106912992D01*
X175906003Y-106912993D01*
X176012441Y-107059494D01*
X176012445Y-107059499D01*
X176140500Y-107187554D01*
X176140505Y-107187558D01*
X176222570Y-107247181D01*
X176287006Y-107293996D01*
X176365728Y-107334107D01*
X176448360Y-107376211D01*
X176448363Y-107376212D01*
X176534476Y-107404191D01*
X176620591Y-107432171D01*
X176740038Y-107451089D01*
X176782279Y-107457780D01*
X176845414Y-107487709D01*
X176882345Y-107547021D01*
X176881347Y-107616883D01*
X176842737Y-107675116D01*
X176782279Y-107702726D01*
X176620706Y-107728317D01*
X176448555Y-107784251D01*
X176448547Y-107784254D01*
X176287269Y-107866432D01*
X176271466Y-107877912D01*
X176271466Y-107877913D01*
X176760591Y-108367037D01*
X176697007Y-108384075D01*
X176582993Y-108449901D01*
X176489901Y-108542993D01*
X176424075Y-108657007D01*
X176407037Y-108720590D01*
X175917913Y-108231466D01*
X175917912Y-108231466D01*
X175906432Y-108247269D01*
X175824254Y-108408547D01*
X175824251Y-108408555D01*
X175768317Y-108580706D01*
X175740000Y-108759493D01*
X175740000Y-108940506D01*
X175768317Y-109119293D01*
X175824251Y-109291444D01*
X175824252Y-109291447D01*
X175906431Y-109452730D01*
X175917913Y-109468532D01*
X175917913Y-109468533D01*
X176407037Y-108979409D01*
X176424075Y-109042993D01*
X176489901Y-109157007D01*
X176582993Y-109250099D01*
X176697007Y-109315925D01*
X176760590Y-109332962D01*
X176271466Y-109822085D01*
X176271466Y-109822086D01*
X176287267Y-109833566D01*
X176287275Y-109833571D01*
X176448552Y-109915747D01*
X176448555Y-109915748D01*
X176620706Y-109971682D01*
X176782279Y-109997273D01*
X176845413Y-110027202D01*
X176882345Y-110086513D01*
X176881347Y-110156376D01*
X176842738Y-110214609D01*
X176782280Y-110242219D01*
X176620589Y-110267829D01*
X176448363Y-110323787D01*
X176448360Y-110323788D01*
X176287002Y-110406006D01*
X176140505Y-110512441D01*
X176140500Y-110512445D01*
X176012445Y-110640500D01*
X176012441Y-110640505D01*
X175906006Y-110787002D01*
X175837325Y-110921795D01*
X175789350Y-110972591D01*
X175726840Y-110989500D01*
X174942755Y-110989500D01*
X174875716Y-110969815D01*
X174855074Y-110953181D01*
X173437819Y-109535926D01*
X173404334Y-109474603D01*
X173401500Y-109448245D01*
X173401500Y-108481176D01*
X173401499Y-108481169D01*
X173390337Y-108439511D01*
X173374207Y-108379312D01*
X173326394Y-108296499D01*
X173309922Y-108228601D01*
X173332774Y-108162574D01*
X173387695Y-108119383D01*
X173433782Y-108110500D01*
X173533070Y-108110500D01*
X173546289Y-108109260D01*
X173562819Y-108107710D01*
X173562823Y-108107708D01*
X173562826Y-108107708D01*
X173611836Y-108090557D01*
X173688157Y-108063852D01*
X173746789Y-108020578D01*
X173812415Y-107996609D01*
X173880586Y-108011924D01*
X173894056Y-108020581D01*
X173952077Y-108063403D01*
X174050000Y-108097668D01*
X174050000Y-108097667D01*
X174550000Y-108097667D01*
X174647922Y-108063403D01*
X174754641Y-107984641D01*
X174833405Y-107877919D01*
X174877212Y-107752727D01*
X174877213Y-107752725D01*
X174877469Y-107750000D01*
X174550000Y-107750000D01*
X174550000Y-108097667D01*
X174050000Y-108097667D01*
X174050000Y-107624000D01*
X174069685Y-107556961D01*
X174122489Y-107511206D01*
X174174000Y-107500000D01*
X174300000Y-107500000D01*
X174300000Y-107374000D01*
X174319685Y-107306961D01*
X174372489Y-107261206D01*
X174424000Y-107250000D01*
X174877468Y-107250000D01*
X174884751Y-107242004D01*
X174944445Y-107205695D01*
X174976426Y-107201500D01*
X175151725Y-107201500D01*
X175151727Y-107201500D01*
X175253588Y-107174207D01*
X175344913Y-107121480D01*
X175666304Y-106800088D01*
X175727625Y-106766605D01*
X175797316Y-106771589D01*
G37*
G04 #@! TD.AperFunction*
G04 #@! TA.AperFunction,Conductor*
G36*
X166818518Y-103782885D02*
G01*
X166820891Y-103782608D01*
X166839165Y-103788503D01*
X166839404Y-103787730D01*
X166848600Y-103790571D01*
X166848604Y-103790571D01*
X166848607Y-103790573D01*
X166916740Y-103800500D01*
X166916745Y-103800500D01*
X167075500Y-103800500D01*
X167142539Y-103820185D01*
X167188294Y-103872989D01*
X167199500Y-103924500D01*
X167199500Y-104079057D01*
X167235026Y-104211640D01*
X167240423Y-104231783D01*
X167240426Y-104231790D01*
X167319475Y-104368709D01*
X167319479Y-104368714D01*
X167319480Y-104368716D01*
X167431284Y-104480520D01*
X167431286Y-104480521D01*
X167431290Y-104480524D01*
X167568209Y-104559573D01*
X167568216Y-104559577D01*
X167720943Y-104600500D01*
X167720945Y-104600500D01*
X167879055Y-104600500D01*
X167879057Y-104600500D01*
X168031784Y-104559577D01*
X168168716Y-104480520D01*
X168212417Y-104436819D01*
X168273740Y-104403334D01*
X168300098Y-104400500D01*
X169450499Y-104400500D01*
X169450501Y-104400500D01*
X169552362Y-104373207D01*
X169643687Y-104320480D01*
X170063128Y-103901037D01*
X170124449Y-103867554D01*
X170194140Y-103872538D01*
X170250074Y-103914409D01*
X170274491Y-103979874D01*
X170270583Y-104020810D01*
X170257040Y-104071357D01*
X170249500Y-104099499D01*
X170249500Y-104099501D01*
X170249500Y-107282744D01*
X170229815Y-107349783D01*
X170213181Y-107370425D01*
X169412529Y-108171076D01*
X169351206Y-108204561D01*
X169292760Y-108203171D01*
X169279060Y-108199500D01*
X169279057Y-108199500D01*
X169120943Y-108199500D01*
X168968216Y-108240423D01*
X168968215Y-108240423D01*
X168863787Y-108300714D01*
X168795887Y-108317185D01*
X168729860Y-108294333D01*
X168694401Y-108255326D01*
X168680522Y-108231287D01*
X168680518Y-108231282D01*
X168568717Y-108119481D01*
X168568709Y-108119475D01*
X168431790Y-108040426D01*
X168431786Y-108040424D01*
X168431784Y-108040423D01*
X168279057Y-107999500D01*
X168120943Y-107999500D01*
X167968216Y-108040423D01*
X167968209Y-108040426D01*
X167831290Y-108119475D01*
X167831282Y-108119481D01*
X167719481Y-108231282D01*
X167719475Y-108231290D01*
X167640426Y-108368209D01*
X167640423Y-108368216D01*
X167599500Y-108520943D01*
X167599500Y-108675500D01*
X167579815Y-108742539D01*
X167527011Y-108788294D01*
X167475500Y-108799500D01*
X165825500Y-108799500D01*
X165758461Y-108779815D01*
X165712706Y-108727011D01*
X165701500Y-108675500D01*
X165701500Y-108016429D01*
X165721185Y-107949390D01*
X165773989Y-107903635D01*
X165793396Y-107896657D01*
X165931784Y-107859577D01*
X166068716Y-107780520D01*
X166180520Y-107668716D01*
X166259577Y-107531784D01*
X166300500Y-107379057D01*
X166300500Y-107220943D01*
X166259577Y-107068216D01*
X166259573Y-107068209D01*
X166180524Y-106931290D01*
X166180518Y-106931282D01*
X166068717Y-106819481D01*
X166068709Y-106819475D01*
X165931790Y-106740426D01*
X165931786Y-106740424D01*
X165931784Y-106740423D01*
X165779057Y-106699500D01*
X165620943Y-106699500D01*
X165468216Y-106740423D01*
X165468214Y-106740423D01*
X165460365Y-106742527D01*
X165459739Y-106740190D01*
X165402472Y-106746342D01*
X165339996Y-106715061D01*
X165304349Y-106654969D01*
X165302023Y-106643688D01*
X165300500Y-106634060D01*
X165300500Y-106616740D01*
X165290573Y-106548607D01*
X165285264Y-106537748D01*
X165282358Y-106519374D01*
X165284549Y-106502440D01*
X165281673Y-106485610D01*
X165288910Y-106460960D01*
X165287730Y-106460596D01*
X165290571Y-106451399D01*
X165290571Y-106451396D01*
X165290573Y-106451393D01*
X165300500Y-106383260D01*
X165300500Y-106216740D01*
X165290573Y-106148607D01*
X165290571Y-106148604D01*
X165290571Y-106148600D01*
X165287730Y-106139404D01*
X165290709Y-106138483D01*
X165281673Y-106085610D01*
X165288910Y-106060960D01*
X165287730Y-106060596D01*
X165290571Y-106051399D01*
X165290571Y-106051396D01*
X165290573Y-106051393D01*
X165300500Y-105983260D01*
X165300500Y-105816740D01*
X165290573Y-105748607D01*
X165290571Y-105748604D01*
X165290571Y-105748600D01*
X165287730Y-105739404D01*
X165290709Y-105738483D01*
X165281673Y-105685610D01*
X165288910Y-105660960D01*
X165287730Y-105660596D01*
X165290571Y-105651399D01*
X165290571Y-105651396D01*
X165290573Y-105651393D01*
X165300500Y-105583260D01*
X165300500Y-105416740D01*
X165290573Y-105348607D01*
X165290571Y-105348604D01*
X165290571Y-105348600D01*
X165287730Y-105339404D01*
X165290709Y-105338483D01*
X165281673Y-105285610D01*
X165288910Y-105260960D01*
X165287730Y-105260596D01*
X165290571Y-105251399D01*
X165290571Y-105251396D01*
X165290573Y-105251393D01*
X165300500Y-105183260D01*
X165300500Y-105016740D01*
X165290573Y-104948607D01*
X165290571Y-104948604D01*
X165290571Y-104948600D01*
X165287730Y-104939404D01*
X165290709Y-104938483D01*
X165281673Y-104885610D01*
X165283182Y-104875987D01*
X165286319Y-104860094D01*
X165290573Y-104851393D01*
X165297722Y-104802323D01*
X165298322Y-104799286D01*
X165313084Y-104770963D01*
X165326414Y-104741921D01*
X165329128Y-104740183D01*
X165330617Y-104737328D01*
X165358353Y-104721479D01*
X165385263Y-104704257D01*
X165390376Y-104703181D01*
X165391282Y-104702664D01*
X165392527Y-104702728D01*
X165401274Y-104700888D01*
X165402723Y-104700500D01*
X165402727Y-104700500D01*
X165404731Y-104699963D01*
X165406801Y-104699963D01*
X165410790Y-104699438D01*
X165410859Y-104699963D01*
X165462815Y-104699963D01*
X165462884Y-104699439D01*
X165466864Y-104699963D01*
X165468939Y-104699963D01*
X165470943Y-104700500D01*
X165470945Y-104700500D01*
X165629055Y-104700500D01*
X165629057Y-104700500D01*
X165781784Y-104659577D01*
X165918716Y-104580520D01*
X166030520Y-104468716D01*
X166109577Y-104331784D01*
X166150500Y-104179057D01*
X166150500Y-104020943D01*
X166133257Y-103956591D01*
X166133661Y-103939621D01*
X166129038Y-103923287D01*
X166134475Y-103905417D01*
X166134920Y-103886744D01*
X166144436Y-103872683D01*
X166149378Y-103856443D01*
X166163611Y-103844351D01*
X166174082Y-103828881D01*
X166190004Y-103821930D01*
X166202627Y-103811207D01*
X166225886Y-103806266D01*
X166236587Y-103801595D01*
X166244771Y-103800500D01*
X166283260Y-103800500D01*
X166351393Y-103790573D01*
X166363614Y-103784598D01*
X166383555Y-103781930D01*
X166398994Y-103784304D01*
X166414390Y-103781673D01*
X166439039Y-103788910D01*
X166439404Y-103787730D01*
X166448600Y-103790571D01*
X166448604Y-103790571D01*
X166448607Y-103790573D01*
X166516740Y-103800500D01*
X166516745Y-103800500D01*
X166683255Y-103800500D01*
X166683260Y-103800500D01*
X166751393Y-103790573D01*
X166751396Y-103790571D01*
X166751399Y-103790571D01*
X166760596Y-103787730D01*
X166761169Y-103789585D01*
X166783055Y-103787028D01*
X166814390Y-103781673D01*
X166818518Y-103782885D01*
G37*
G04 #@! TD.AperFunction*
G04 #@! TA.AperFunction,Conductor*
G36*
X158005703Y-106692065D02*
G01*
X158042432Y-106747462D01*
X158043789Y-106751640D01*
X158078353Y-106819475D01*
X158126003Y-106912993D01*
X158126006Y-106912997D01*
X158232441Y-107059494D01*
X158232445Y-107059499D01*
X158360500Y-107187554D01*
X158360505Y-107187558D01*
X158442570Y-107247181D01*
X158507006Y-107293996D01*
X158585728Y-107334107D01*
X158668360Y-107376211D01*
X158668363Y-107376212D01*
X158754476Y-107404191D01*
X158840591Y-107432171D01*
X158960038Y-107451089D01*
X159002279Y-107457780D01*
X159065414Y-107487709D01*
X159102345Y-107547021D01*
X159101347Y-107616883D01*
X159062737Y-107675116D01*
X159002279Y-107702726D01*
X158840706Y-107728317D01*
X158668555Y-107784251D01*
X158668547Y-107784254D01*
X158507269Y-107866432D01*
X158491466Y-107877912D01*
X158491466Y-107877913D01*
X158980590Y-108367037D01*
X158917007Y-108384075D01*
X158802993Y-108449901D01*
X158709901Y-108542993D01*
X158644075Y-108657007D01*
X158627037Y-108720590D01*
X158137913Y-108231466D01*
X158137912Y-108231466D01*
X158126432Y-108247269D01*
X158044254Y-108408547D01*
X158044254Y-108408549D01*
X158042431Y-108414161D01*
X158002992Y-108471836D01*
X157938633Y-108499033D01*
X157869787Y-108487118D01*
X157818312Y-108439873D01*
X157800500Y-108375841D01*
X157800500Y-106785778D01*
X157820185Y-106718739D01*
X157872989Y-106672984D01*
X157942147Y-106663040D01*
X158005703Y-106692065D01*
G37*
G04 #@! TD.AperFunction*
G04 #@! TA.AperFunction,Conductor*
G36*
X161142507Y-107500500D02*
G01*
X161147273Y-107500500D01*
X161836760Y-107500500D01*
X161903799Y-107520185D01*
X161949554Y-107572989D01*
X161959498Y-107642147D01*
X161930473Y-107705703D01*
X161924441Y-107712181D01*
X161731797Y-107904824D01*
X161731785Y-107904838D01*
X161712729Y-107927836D01*
X161712726Y-107927840D01*
X161655112Y-108047478D01*
X161655111Y-108047481D01*
X161644251Y-108119536D01*
X161614794Y-108182893D01*
X161560588Y-108218777D01*
X161363452Y-108284005D01*
X161336231Y-108284929D01*
X161309360Y-108289354D01*
X161301826Y-108286097D01*
X161293623Y-108286376D01*
X161270224Y-108272437D01*
X161245225Y-108261631D01*
X161240647Y-108254818D01*
X161233597Y-108250618D01*
X161221450Y-108226244D01*
X161206260Y-108203636D01*
X161204502Y-108192238D01*
X161202432Y-108188084D01*
X161203025Y-108182657D01*
X161200500Y-108166282D01*
X161200500Y-107980175D01*
X161200500Y-107980173D01*
X161173207Y-107878313D01*
X161120480Y-107786987D01*
X161045913Y-107712420D01*
X161044795Y-107711302D01*
X161011310Y-107649979D01*
X161016294Y-107580287D01*
X161058166Y-107524354D01*
X161123630Y-107499937D01*
X161142507Y-107500500D01*
G37*
G04 #@! TD.AperFunction*
G04 #@! TA.AperFunction,Conductor*
G36*
X163707016Y-102704571D02*
G01*
X163739742Y-102711923D01*
X163741830Y-102713265D01*
X163742298Y-102713382D01*
X163742735Y-102713846D01*
X163753208Y-102720577D01*
X163811843Y-102763852D01*
X163848312Y-102776613D01*
X163937173Y-102807708D01*
X163937177Y-102807708D01*
X163937181Y-102807710D01*
X163952057Y-102809105D01*
X163966930Y-102810500D01*
X163966934Y-102810500D01*
X164099379Y-102810500D01*
X164166418Y-102830185D01*
X164212173Y-102882989D01*
X164219153Y-102902403D01*
X164227203Y-102932446D01*
X164240423Y-102981785D01*
X164240426Y-102981790D01*
X164319475Y-103118709D01*
X164319481Y-103118717D01*
X164363181Y-103162417D01*
X164377884Y-103189344D01*
X164394477Y-103215163D01*
X164395368Y-103221363D01*
X164396666Y-103223740D01*
X164399500Y-103250098D01*
X164399500Y-103375500D01*
X164379815Y-103442539D01*
X164327011Y-103488294D01*
X164275500Y-103499500D01*
X164141739Y-103499500D01*
X164073608Y-103509426D01*
X163968516Y-103560802D01*
X163899708Y-103629610D01*
X163838384Y-103663094D01*
X163768693Y-103658109D01*
X163712759Y-103616238D01*
X163688343Y-103550773D01*
X163692252Y-103509836D01*
X163700500Y-103479057D01*
X163700500Y-103320943D01*
X163659577Y-103168216D01*
X163630999Y-103118717D01*
X163580524Y-103031290D01*
X163580518Y-103031282D01*
X163512797Y-102963561D01*
X163503367Y-102946292D01*
X163489883Y-102931959D01*
X163486965Y-102916254D01*
X163479312Y-102902238D01*
X163480715Y-102882612D01*
X163477121Y-102863264D01*
X163483156Y-102848475D01*
X163484296Y-102832546D01*
X163496087Y-102816794D01*
X163503524Y-102798575D01*
X163519858Y-102785041D01*
X163526168Y-102776613D01*
X163529231Y-102774392D01*
X163608331Y-102718862D01*
X163640074Y-102708113D01*
X163671571Y-102696609D01*
X163673062Y-102696944D01*
X163674510Y-102696454D01*
X163707016Y-102704571D01*
G37*
G04 #@! TD.AperFunction*
G04 #@! TA.AperFunction,Conductor*
G36*
X176757407Y-79527702D02*
G01*
X176782770Y-79530980D01*
X176790377Y-79537383D01*
X176799914Y-79540184D01*
X176816656Y-79559505D01*
X176836222Y-79575976D01*
X176839159Y-79585475D01*
X176845669Y-79592988D01*
X176849308Y-79618298D01*
X176856862Y-79642728D01*
X176854197Y-79652304D01*
X176855613Y-79662146D01*
X176844989Y-79685408D01*
X176838137Y-79710042D01*
X176830718Y-79716658D01*
X176826588Y-79725702D01*
X176805074Y-79739527D01*
X176785992Y-79756546D01*
X176771732Y-79760954D01*
X176767810Y-79763476D01*
X176752273Y-79766972D01*
X176620589Y-79787829D01*
X176448363Y-79843787D01*
X176448360Y-79843788D01*
X176287006Y-79926003D01*
X176147859Y-80027099D01*
X176124629Y-80035387D01*
X176110925Y-80061971D01*
X176108863Y-80064083D01*
X176012440Y-80160506D01*
X175906006Y-80307002D01*
X175823788Y-80468360D01*
X175823787Y-80468363D01*
X175767829Y-80640589D01*
X175739500Y-80819448D01*
X175739500Y-81000551D01*
X175767829Y-81179410D01*
X175814575Y-81323281D01*
X175816570Y-81393122D01*
X175784325Y-81449280D01*
X174179522Y-83054084D01*
X174179520Y-83054087D01*
X174126791Y-83145414D01*
X174105598Y-83224516D01*
X174105597Y-83224521D01*
X174099500Y-83247272D01*
X174099500Y-90199902D01*
X174079815Y-90266941D01*
X174063181Y-90287583D01*
X174019481Y-90331282D01*
X174019475Y-90331290D01*
X173940426Y-90468209D01*
X173940423Y-90468216D01*
X173899500Y-90620943D01*
X173899500Y-90779057D01*
X173934291Y-90908897D01*
X173940423Y-90931783D01*
X173940426Y-90931790D01*
X174019475Y-91068709D01*
X174019481Y-91068717D01*
X174131284Y-91180520D01*
X174131946Y-91180902D01*
X174132392Y-91181370D01*
X174137735Y-91185470D01*
X174137096Y-91186302D01*
X174180164Y-91231467D01*
X174193390Y-91300073D01*
X174167425Y-91364939D01*
X174157632Y-91375973D01*
X173742972Y-91790634D01*
X173742970Y-91790637D01*
X173690241Y-91881964D01*
X173668702Y-91962357D01*
X173668701Y-91962362D01*
X173662950Y-91983822D01*
X173662950Y-99239242D01*
X173643265Y-99306281D01*
X173626631Y-99326923D01*
X173453554Y-99500000D01*
X173626631Y-99673077D01*
X173660116Y-99734400D01*
X173662950Y-99760758D01*
X173662950Y-102274089D01*
X173643265Y-102341128D01*
X173590461Y-102386883D01*
X173541938Y-102393859D01*
X173530000Y-102402330D01*
X173530000Y-102876000D01*
X173510315Y-102943039D01*
X173457511Y-102988794D01*
X173406000Y-103000000D01*
X173154000Y-103000000D01*
X173086961Y-102980315D01*
X173041206Y-102927511D01*
X173030000Y-102876000D01*
X173030000Y-102402330D01*
X173029999Y-102402330D01*
X172932079Y-102436594D01*
X172874055Y-102479419D01*
X172808427Y-102503390D01*
X172740256Y-102488075D01*
X172726787Y-102479419D01*
X172723226Y-102476791D01*
X172668157Y-102436148D01*
X172668155Y-102436147D01*
X172542826Y-102392291D01*
X172542814Y-102392289D01*
X172513070Y-102389500D01*
X172513066Y-102389500D01*
X172434500Y-102389500D01*
X172425814Y-102386949D01*
X172416853Y-102388238D01*
X172392812Y-102377259D01*
X172367461Y-102369815D01*
X172361533Y-102362974D01*
X172353297Y-102359213D01*
X172339007Y-102336978D01*
X172321706Y-102317011D01*
X172319418Y-102306496D01*
X172315523Y-102300435D01*
X172310500Y-102265500D01*
X172310500Y-102107253D01*
X172330185Y-102040214D01*
X172346815Y-102019576D01*
X172656881Y-101709509D01*
X172656886Y-101709506D01*
X172667089Y-101699302D01*
X172667091Y-101699302D01*
X172741658Y-101624735D01*
X172794385Y-101533409D01*
X172796382Y-101525953D01*
X172798113Y-101519498D01*
X172821600Y-101431843D01*
X172821679Y-101431549D01*
X172821679Y-101326095D01*
X172821679Y-101318500D01*
X172821678Y-101318482D01*
X172821678Y-100693061D01*
X172841363Y-100626022D01*
X172857992Y-100605384D01*
X172989385Y-100473992D01*
X173008451Y-100450981D01*
X173066066Y-100331341D01*
X173076926Y-100259286D01*
X173106382Y-100195930D01*
X173165415Y-100158555D01*
X173181062Y-100155152D01*
X173252368Y-100144405D01*
X173345837Y-100099391D01*
X172923223Y-99676777D01*
X172500607Y-99254160D01*
X172499064Y-99254423D01*
X172429675Y-99246246D01*
X172375721Y-99201853D01*
X172371270Y-99194801D01*
X172362840Y-99180395D01*
X172359577Y-99168216D01*
X172280520Y-99031284D01*
X172168716Y-98919480D01*
X172136025Y-98900606D01*
X172854161Y-98900606D01*
X172854161Y-98900607D01*
X173099999Y-99146445D01*
X173331554Y-98914889D01*
X173329450Y-98913147D01*
X173329440Y-98913140D01*
X173209945Y-98855595D01*
X173078787Y-98835827D01*
X172947628Y-98855595D01*
X172854161Y-98900606D01*
X172136025Y-98900606D01*
X172051646Y-98851890D01*
X172003432Y-98801325D01*
X171990208Y-98732718D01*
X172016176Y-98667853D01*
X172025953Y-98656835D01*
X172145480Y-98537310D01*
X172198207Y-98445985D01*
X172225500Y-98344124D01*
X172225500Y-98238670D01*
X172225500Y-93754075D01*
X172198207Y-93652215D01*
X172198207Y-93652214D01*
X172145480Y-93560889D01*
X171527108Y-92942517D01*
X171493623Y-92881194D01*
X171498607Y-92811502D01*
X171540479Y-92755569D01*
X171552774Y-92747458D01*
X171668716Y-92680520D01*
X171780520Y-92568716D01*
X171859577Y-92431784D01*
X171900500Y-92279057D01*
X171900500Y-92120943D01*
X171859577Y-91968216D01*
X171827076Y-91911922D01*
X171780524Y-91831290D01*
X171780518Y-91831282D01*
X171736819Y-91787583D01*
X171722115Y-91760655D01*
X171705523Y-91734837D01*
X171704631Y-91728636D01*
X171703334Y-91726260D01*
X171700500Y-91699902D01*
X171700500Y-91629077D01*
X171720185Y-91562038D01*
X171772989Y-91516283D01*
X171842147Y-91506339D01*
X171898131Y-91529306D01*
X171959206Y-91574381D01*
X172000511Y-91588834D01*
X172083119Y-91617741D01*
X172090796Y-91618460D01*
X172112543Y-91620500D01*
X172487456Y-91620499D01*
X172516879Y-91617741D01*
X172640794Y-91574381D01*
X172746423Y-91496423D01*
X172824381Y-91390794D01*
X172856126Y-91300073D01*
X172867741Y-91266881D01*
X172867741Y-91266879D01*
X172867741Y-91266874D01*
X172870500Y-91237457D01*
X172870499Y-90762544D01*
X172867741Y-90733121D01*
X172862244Y-90717413D01*
X172851924Y-90687920D01*
X172824381Y-90609206D01*
X172824379Y-90609203D01*
X172820039Y-90600990D01*
X172821539Y-90600197D01*
X172801298Y-90544785D01*
X172816611Y-90476614D01*
X172850725Y-90437511D01*
X172957546Y-90357546D01*
X173043796Y-90242331D01*
X173094091Y-90107483D01*
X173100500Y-90047873D01*
X173100499Y-89552128D01*
X173094091Y-89492517D01*
X173062403Y-89407558D01*
X173043797Y-89357671D01*
X173043793Y-89357664D01*
X172957547Y-89242455D01*
X172957544Y-89242452D01*
X172842335Y-89156206D01*
X172842328Y-89156202D01*
X172707482Y-89105908D01*
X172707483Y-89105908D01*
X172647883Y-89099501D01*
X172647881Y-89099500D01*
X172647873Y-89099500D01*
X172647864Y-89099500D01*
X170952129Y-89099500D01*
X170952123Y-89099501D01*
X170892516Y-89105908D01*
X170757671Y-89156202D01*
X170757664Y-89156206D01*
X170642455Y-89242452D01*
X170642452Y-89242455D01*
X170556206Y-89357664D01*
X170556202Y-89357671D01*
X170505910Y-89492513D01*
X170505909Y-89492517D01*
X170499500Y-89552127D01*
X170499500Y-89552134D01*
X170499500Y-89552135D01*
X170499500Y-90047870D01*
X170499501Y-90047876D01*
X170505908Y-90107483D01*
X170556202Y-90242328D01*
X170556206Y-90242335D01*
X170642452Y-90357544D01*
X170642455Y-90357547D01*
X170736388Y-90427866D01*
X170778259Y-90483800D01*
X170783243Y-90553491D01*
X170761851Y-90600761D01*
X170755618Y-90609206D01*
X170712258Y-90733118D01*
X170712258Y-90733120D01*
X170709500Y-90762538D01*
X170709500Y-91237453D01*
X170712258Y-91266874D01*
X170712260Y-91266884D01*
X170750433Y-91375973D01*
X170755619Y-91390794D01*
X170779418Y-91423040D01*
X170833574Y-91496420D01*
X170833576Y-91496422D01*
X170833577Y-91496423D01*
X170849133Y-91507903D01*
X170852154Y-91511882D01*
X170856703Y-91513960D01*
X170873074Y-91539434D01*
X170891383Y-91563547D01*
X170892510Y-91569678D01*
X170894477Y-91572738D01*
X170899500Y-91607673D01*
X170899500Y-91699902D01*
X170879815Y-91766941D01*
X170863181Y-91787583D01*
X170819481Y-91831282D01*
X170819477Y-91831287D01*
X170752550Y-91947210D01*
X170734456Y-91964461D01*
X170719473Y-91984477D01*
X170709604Y-91988157D01*
X170701983Y-91995425D01*
X170677434Y-92000156D01*
X170654009Y-92008894D01*
X170643718Y-92006655D01*
X170633376Y-92008649D01*
X170610162Y-91999355D01*
X170585736Y-91994042D01*
X170572914Y-91984444D01*
X170568511Y-91982681D01*
X170557482Y-91972891D01*
X170467441Y-91882850D01*
X170433956Y-91821527D01*
X170431898Y-91781321D01*
X170434909Y-91754535D01*
X170422059Y-91640857D01*
X170384227Y-91532891D01*
X170361286Y-91496423D01*
X170323312Y-91436057D01*
X170282906Y-91395695D01*
X170282842Y-91395631D01*
X170282101Y-91394891D01*
X169972772Y-91085561D01*
X169972771Y-91085560D01*
X169969630Y-91082419D01*
X169969620Y-91082411D01*
X169872787Y-91021567D01*
X169764842Y-90983796D01*
X169764837Y-90983795D01*
X169651208Y-90970993D01*
X169651207Y-90970993D01*
X169651205Y-90970993D01*
X169651204Y-90970993D01*
X169624602Y-90973989D01*
X169555781Y-90961933D01*
X169523041Y-90938450D01*
X169161819Y-90577228D01*
X169128334Y-90515905D01*
X169125500Y-90489547D01*
X169125500Y-87003313D01*
X169145185Y-86936274D01*
X169197989Y-86890519D01*
X169246077Y-86882388D01*
X169249999Y-86878817D01*
X169750000Y-86878817D01*
X169766780Y-86877244D01*
X169890561Y-86833931D01*
X169996065Y-86756065D01*
X170073933Y-86650559D01*
X170073934Y-86650557D01*
X170105621Y-86560000D01*
X169750000Y-86560000D01*
X169750000Y-86878817D01*
X169249999Y-86878817D01*
X169250000Y-86878816D01*
X169250000Y-86434000D01*
X169269685Y-86366961D01*
X169322489Y-86321206D01*
X169374000Y-86310000D01*
X169500000Y-86310000D01*
X169500000Y-86184000D01*
X169519685Y-86116961D01*
X169572489Y-86071206D01*
X169624000Y-86060000D01*
X170105622Y-86060000D01*
X170105621Y-86059999D01*
X170073934Y-85969442D01*
X170073932Y-85969439D01*
X170009333Y-85881912D01*
X170009331Y-85881910D01*
X170003535Y-85874057D01*
X169994748Y-85850000D01*
X170500234Y-85850000D01*
X170506401Y-85907375D01*
X170556645Y-86042086D01*
X170556649Y-86042093D01*
X170642809Y-86157187D01*
X170642812Y-86157190D01*
X170757906Y-86243350D01*
X170757913Y-86243354D01*
X170892620Y-86293596D01*
X170892627Y-86293598D01*
X170952155Y-86299999D01*
X170952172Y-86300000D01*
X171550000Y-86300000D01*
X172050000Y-86300000D01*
X172647828Y-86300000D01*
X172647844Y-86299999D01*
X172707372Y-86293598D01*
X172707379Y-86293596D01*
X172842086Y-86243354D01*
X172842093Y-86243350D01*
X172957187Y-86157190D01*
X172957190Y-86157187D01*
X173043350Y-86042093D01*
X173043354Y-86042086D01*
X173093598Y-85907375D01*
X173099766Y-85850000D01*
X172050000Y-85850000D01*
X172050000Y-86300000D01*
X171550000Y-86300000D01*
X171550000Y-85850000D01*
X170500234Y-85850000D01*
X169994748Y-85850000D01*
X169979563Y-85808428D01*
X169994877Y-85740257D01*
X170003529Y-85726794D01*
X170074381Y-85630794D01*
X170101763Y-85552541D01*
X170117741Y-85506881D01*
X170117741Y-85506879D01*
X170120500Y-85477461D01*
X170120500Y-85391726D01*
X170120500Y-85350000D01*
X170500234Y-85350000D01*
X171550000Y-85350000D01*
X172050000Y-85350000D01*
X173099765Y-85350000D01*
X173093598Y-85292624D01*
X173043354Y-85157913D01*
X173043350Y-85157906D01*
X172957190Y-85042812D01*
X172957187Y-85042809D01*
X172842093Y-84956649D01*
X172842086Y-84956645D01*
X172707379Y-84906403D01*
X172707372Y-84906401D01*
X172647844Y-84900000D01*
X172050000Y-84900000D01*
X172050000Y-85350000D01*
X171550000Y-85350000D01*
X171550000Y-84900000D01*
X170952155Y-84900000D01*
X170892627Y-84906401D01*
X170892620Y-84906403D01*
X170757913Y-84956645D01*
X170757906Y-84956649D01*
X170642812Y-85042809D01*
X170642809Y-85042812D01*
X170556649Y-85157906D01*
X170556645Y-85157913D01*
X170506401Y-85292624D01*
X170500234Y-85350000D01*
X170120500Y-85350000D01*
X170120499Y-85102546D01*
X170119348Y-85090270D01*
X170117741Y-85073121D01*
X170074381Y-84949206D01*
X170028940Y-84887636D01*
X169996423Y-84843576D01*
X169922233Y-84788822D01*
X169915752Y-84780286D01*
X169906450Y-84774963D01*
X169894991Y-84752942D01*
X169879983Y-84733175D01*
X169879145Y-84722490D01*
X169874198Y-84712982D01*
X169876463Y-84688264D01*
X169874524Y-84663518D01*
X169879596Y-84654075D01*
X169880575Y-84643404D01*
X169895844Y-84623834D01*
X169907592Y-84601969D01*
X169918097Y-84595315D01*
X169923556Y-84588319D01*
X169946013Y-84577633D01*
X169954865Y-84572027D01*
X169966331Y-84568009D01*
X169969991Y-84567585D01*
X169979398Y-84563431D01*
X169983997Y-84561820D01*
X170014199Y-84560266D01*
X170044183Y-84556338D01*
X170051096Y-84558367D01*
X170053774Y-84558230D01*
X170057089Y-84560127D01*
X170075084Y-84565410D01*
X170080009Y-84567585D01*
X170105135Y-84570500D01*
X170794864Y-84570499D01*
X170794879Y-84570497D01*
X170794882Y-84570497D01*
X170829258Y-84566511D01*
X170829432Y-84568016D01*
X170870629Y-84568017D01*
X170870862Y-84566015D01*
X170905206Y-84569999D01*
X171000000Y-84569998D01*
X171000000Y-84473917D01*
X171010565Y-84423832D01*
X171047585Y-84339991D01*
X171050500Y-84314865D01*
X171050499Y-83644859D01*
X171070183Y-83577822D01*
X171122987Y-83532067D01*
X171189248Y-83521741D01*
X171390749Y-83545880D01*
X171416336Y-83556844D01*
X171443039Y-83564685D01*
X171448002Y-83570412D01*
X171454971Y-83573399D01*
X171470569Y-83596456D01*
X171488794Y-83617489D01*
X171490688Y-83626196D01*
X171494121Y-83631271D01*
X171494403Y-83643276D01*
X171500000Y-83669000D01*
X171500000Y-84569999D01*
X171594786Y-84569999D01*
X171594808Y-84569997D01*
X171619869Y-84567091D01*
X171619873Y-84567090D01*
X171722474Y-84521788D01*
X171722479Y-84521785D01*
X171801785Y-84442479D01*
X171801788Y-84442474D01*
X171847089Y-84339877D01*
X171847089Y-84339875D01*
X171849999Y-84314794D01*
X171849999Y-84036812D01*
X171869683Y-83969773D01*
X171922487Y-83924018D01*
X171991646Y-83914074D01*
X172021451Y-83922251D01*
X172069999Y-83942360D01*
X172070000Y-83942360D01*
X172070000Y-83346988D01*
X172079940Y-83364205D01*
X172135795Y-83420060D01*
X172204204Y-83459556D01*
X172280504Y-83480000D01*
X172359496Y-83480000D01*
X172435796Y-83459556D01*
X172504205Y-83420060D01*
X172560060Y-83364205D01*
X172570000Y-83346988D01*
X172570000Y-83942360D01*
X172698934Y-83888954D01*
X172698952Y-83888944D01*
X172829965Y-83801404D01*
X172829973Y-83801398D01*
X172941398Y-83689973D01*
X172941401Y-83689969D01*
X173028947Y-83558948D01*
X173028952Y-83558939D01*
X173089256Y-83413351D01*
X173089258Y-83413343D01*
X173119999Y-83258797D01*
X173120000Y-83258794D01*
X173120000Y-82880000D01*
X172620000Y-82880000D01*
X172620000Y-82380000D01*
X173120000Y-82380000D01*
X173120000Y-82001206D01*
X173119999Y-82001202D01*
X173089258Y-81846656D01*
X173089256Y-81846648D01*
X173028952Y-81701060D01*
X173028947Y-81701051D01*
X172941401Y-81570030D01*
X172941398Y-81570026D01*
X172829973Y-81458601D01*
X172829969Y-81458598D01*
X172698948Y-81371052D01*
X172698938Y-81371047D01*
X172570000Y-81317639D01*
X172570000Y-81913011D01*
X172560060Y-81895795D01*
X172504205Y-81839940D01*
X172435796Y-81800444D01*
X172359496Y-81780000D01*
X172280504Y-81780000D01*
X172204204Y-81800444D01*
X172135795Y-81839940D01*
X172079940Y-81895795D01*
X172070000Y-81913011D01*
X172070000Y-81317639D01*
X172069999Y-81317639D01*
X171941061Y-81371047D01*
X171941051Y-81371052D01*
X171810030Y-81458598D01*
X171810026Y-81458601D01*
X171698601Y-81570026D01*
X171698598Y-81570030D01*
X171611052Y-81701051D01*
X171611049Y-81701057D01*
X171587446Y-81758040D01*
X171543604Y-81812443D01*
X171477310Y-81834507D01*
X171409611Y-81817227D01*
X171365498Y-81772587D01*
X171350515Y-81746635D01*
X171243365Y-81639485D01*
X171232090Y-81632975D01*
X171204236Y-81616893D01*
X171156021Y-81566325D01*
X171142800Y-81497718D01*
X171168769Y-81432854D01*
X171178548Y-81421835D01*
X172612566Y-79987819D01*
X172673889Y-79954334D01*
X172700247Y-79951500D01*
X175761725Y-79951500D01*
X175761727Y-79951500D01*
X175863588Y-79924207D01*
X175954913Y-79871480D01*
X175954915Y-79871477D01*
X175959179Y-79869016D01*
X175970894Y-79866173D01*
X175976779Y-79851059D01*
X175987286Y-79839106D01*
X176269574Y-79556817D01*
X176330897Y-79523333D01*
X176357255Y-79520499D01*
X176732875Y-79520499D01*
X176757407Y-79527702D01*
G37*
G04 #@! TD.AperFunction*
G04 #@! TA.AperFunction,Conductor*
G36*
X171187837Y-99597465D02*
G01*
X171243770Y-99639337D01*
X171251890Y-99651647D01*
X171319477Y-99768712D01*
X171319479Y-99768715D01*
X171319480Y-99768716D01*
X171431284Y-99880520D01*
X171431286Y-99880521D01*
X171431290Y-99880524D01*
X171550050Y-99949089D01*
X171568216Y-99959577D01*
X171628089Y-99975619D01*
X171641975Y-99983636D01*
X171655422Y-99986562D01*
X171683676Y-100007713D01*
X171722330Y-100046367D01*
X171755815Y-100107690D01*
X171757265Y-100152523D01*
X171756499Y-100157606D01*
X171756499Y-100157609D01*
X171776289Y-100288913D01*
X171776290Y-100288917D01*
X171833904Y-100408555D01*
X171833907Y-100408559D01*
X171852963Y-100431557D01*
X171852965Y-100431560D01*
X171852970Y-100431565D01*
X171852971Y-100431566D01*
X171913682Y-100492277D01*
X171947166Y-100553598D01*
X171950000Y-100579957D01*
X171950000Y-101016000D01*
X171930315Y-101083039D01*
X171877511Y-101128794D01*
X171826000Y-101140000D01*
X171574000Y-101140000D01*
X171506961Y-101120315D01*
X171461206Y-101067511D01*
X171450000Y-101016000D01*
X171450000Y-100562531D01*
X171449999Y-100562530D01*
X171447274Y-100562786D01*
X171447270Y-100562787D01*
X171428778Y-100569258D01*
X171358999Y-100572819D01*
X171298372Y-100538088D01*
X171270784Y-100493169D01*
X171263404Y-100472078D01*
X171184641Y-100365358D01*
X171077919Y-100286594D01*
X170952727Y-100242787D01*
X170952725Y-100242786D01*
X170950000Y-100242530D01*
X170950000Y-100696000D01*
X170930315Y-100763039D01*
X170877511Y-100808794D01*
X170826000Y-100820000D01*
X170574000Y-100820000D01*
X170506961Y-100800315D01*
X170461206Y-100747511D01*
X170450000Y-100696000D01*
X170450000Y-100284150D01*
X170469685Y-100217111D01*
X170486314Y-100196474D01*
X171056824Y-99625964D01*
X171118145Y-99592481D01*
X171187837Y-99597465D01*
G37*
G04 #@! TD.AperFunction*
G04 #@! TA.AperFunction,Conductor*
G36*
X163218039Y-99769685D02*
G01*
X163263794Y-99822489D01*
X163275000Y-99874000D01*
X163275000Y-100174999D01*
X163571902Y-100174999D01*
X163651894Y-100163346D01*
X163652287Y-100166045D01*
X163707288Y-100165257D01*
X163766602Y-100202185D01*
X163793837Y-100252628D01*
X163800793Y-100278588D01*
X163853520Y-100369913D01*
X163853522Y-100369915D01*
X163970426Y-100486819D01*
X164003911Y-100548142D01*
X163998927Y-100617834D01*
X163957055Y-100673767D01*
X163891591Y-100698184D01*
X163882745Y-100698500D01*
X163433298Y-100698500D01*
X163366259Y-100678815D01*
X163345617Y-100662181D01*
X163029398Y-100345962D01*
X162995913Y-100284639D01*
X163000897Y-100214947D01*
X163025000Y-100177442D01*
X163025000Y-99874000D01*
X163027550Y-99865314D01*
X163026262Y-99856353D01*
X163037240Y-99832312D01*
X163044685Y-99806961D01*
X163051525Y-99801033D01*
X163055287Y-99792797D01*
X163077521Y-99778507D01*
X163097489Y-99761206D01*
X163108003Y-99758918D01*
X163114065Y-99755023D01*
X163149000Y-99750000D01*
X163151000Y-99750000D01*
X163218039Y-99769685D01*
G37*
G04 #@! TD.AperFunction*
G04 #@! TA.AperFunction,Conductor*
G36*
X176476716Y-94685424D02*
G01*
X176620591Y-94732171D01*
X176740038Y-94751089D01*
X176782279Y-94757780D01*
X176845414Y-94787709D01*
X176882345Y-94847021D01*
X176881347Y-94916883D01*
X176842737Y-94975116D01*
X176782279Y-95002726D01*
X176620706Y-95028317D01*
X176448555Y-95084251D01*
X176448547Y-95084254D01*
X176287269Y-95166432D01*
X176271466Y-95177912D01*
X176271466Y-95177913D01*
X176760591Y-95667037D01*
X176697007Y-95684075D01*
X176582993Y-95749901D01*
X176489901Y-95842993D01*
X176424075Y-95957007D01*
X176407037Y-96020590D01*
X175917912Y-95531466D01*
X175906432Y-95547269D01*
X175824254Y-95708547D01*
X175824251Y-95708555D01*
X175768317Y-95880706D01*
X175740000Y-96059493D01*
X175740000Y-96240506D01*
X175768317Y-96419293D01*
X175824251Y-96591444D01*
X175824252Y-96591447D01*
X175906431Y-96752730D01*
X175917913Y-96768532D01*
X175917913Y-96768533D01*
X176407037Y-96279409D01*
X176424075Y-96342993D01*
X176489901Y-96457007D01*
X176582993Y-96550099D01*
X176697007Y-96615925D01*
X176760590Y-96632962D01*
X176271466Y-97122085D01*
X176271466Y-97122086D01*
X176287267Y-97133566D01*
X176287275Y-97133571D01*
X176448552Y-97215747D01*
X176448555Y-97215748D01*
X176620706Y-97271682D01*
X176782279Y-97297273D01*
X176845413Y-97327202D01*
X176882345Y-97386513D01*
X176881347Y-97456376D01*
X176842738Y-97514609D01*
X176782280Y-97542219D01*
X176620589Y-97567829D01*
X176448363Y-97623787D01*
X176448360Y-97623788D01*
X176287002Y-97706006D01*
X176140505Y-97812441D01*
X176140500Y-97812445D01*
X176012445Y-97940500D01*
X176012441Y-97940505D01*
X175906006Y-98087002D01*
X175823788Y-98248360D01*
X175823787Y-98248363D01*
X175767829Y-98420589D01*
X175739500Y-98599448D01*
X175739500Y-98780551D01*
X175767829Y-98959412D01*
X175814575Y-99103283D01*
X175816570Y-99173124D01*
X175784325Y-99229281D01*
X175477631Y-99535975D01*
X175416308Y-99569460D01*
X175346616Y-99564476D01*
X175290683Y-99522604D01*
X175266266Y-99457140D01*
X175265950Y-99448294D01*
X175265950Y-95851804D01*
X175285635Y-95784765D01*
X175302264Y-95764127D01*
X176350719Y-94715672D01*
X176412040Y-94682189D01*
X176476716Y-94685424D01*
G37*
G04 #@! TD.AperFunction*
G04 #@! TA.AperFunction,Conductor*
G36*
X158644075Y-96342993D02*
G01*
X158709901Y-96457007D01*
X158802993Y-96550099D01*
X158917007Y-96615925D01*
X158980590Y-96632962D01*
X158491466Y-97122085D01*
X158491466Y-97122086D01*
X158507267Y-97133566D01*
X158507275Y-97133571D01*
X158668552Y-97215747D01*
X158668555Y-97215748D01*
X158840706Y-97271682D01*
X159002279Y-97297273D01*
X159065413Y-97327202D01*
X159102345Y-97386513D01*
X159101347Y-97456376D01*
X159062738Y-97514609D01*
X159002280Y-97542219D01*
X158840589Y-97567829D01*
X158668363Y-97623787D01*
X158668360Y-97623788D01*
X158507002Y-97706006D01*
X158360505Y-97812441D01*
X158360500Y-97812445D01*
X158232445Y-97940500D01*
X158232441Y-97940505D01*
X158126006Y-98087002D01*
X158043788Y-98248360D01*
X158043785Y-98248368D01*
X158042430Y-98252541D01*
X158002992Y-98310216D01*
X157938633Y-98337413D01*
X157869787Y-98325498D01*
X157818312Y-98278253D01*
X157800500Y-98214221D01*
X157800500Y-96624158D01*
X157820185Y-96557119D01*
X157872989Y-96511364D01*
X157942147Y-96501420D01*
X158005703Y-96530445D01*
X158042432Y-96585842D01*
X158044253Y-96591448D01*
X158126431Y-96752730D01*
X158137913Y-96768532D01*
X158137913Y-96768533D01*
X158627037Y-96279408D01*
X158644075Y-96342993D01*
G37*
G04 #@! TD.AperFunction*
G04 #@! TA.AperFunction,Conductor*
G36*
X160082085Y-96768532D02*
G01*
X160087243Y-96768127D01*
X160131516Y-96733990D01*
X160201130Y-96728014D01*
X160262924Y-96760622D01*
X160297279Y-96821462D01*
X160300500Y-96849543D01*
X160300500Y-97989600D01*
X160280815Y-98056639D01*
X160228011Y-98102394D01*
X160158853Y-98112338D01*
X160095297Y-98083313D01*
X160076182Y-98062485D01*
X159987558Y-97940505D01*
X159987554Y-97940500D01*
X159859499Y-97812445D01*
X159859494Y-97812441D01*
X159712997Y-97706006D01*
X159712996Y-97706005D01*
X159712994Y-97706004D01*
X159645950Y-97671843D01*
X159551639Y-97623788D01*
X159551636Y-97623787D01*
X159379410Y-97567828D01*
X159217720Y-97542219D01*
X159154585Y-97512289D01*
X159117654Y-97452978D01*
X159118652Y-97383115D01*
X159157262Y-97324883D01*
X159217721Y-97297273D01*
X159379292Y-97271683D01*
X159551444Y-97215748D01*
X159551452Y-97215745D01*
X159712730Y-97133568D01*
X159728532Y-97122085D01*
X159728533Y-97122085D01*
X159239410Y-96632962D01*
X159302993Y-96615925D01*
X159417007Y-96550099D01*
X159510099Y-96457007D01*
X159575925Y-96342993D01*
X159592962Y-96279409D01*
X160082085Y-96768532D01*
G37*
G04 #@! TD.AperFunction*
G04 #@! TA.AperFunction,Conductor*
G36*
X175802206Y-77120185D02*
G01*
X175847961Y-77172989D01*
X175857905Y-77242147D01*
X175828880Y-77305703D01*
X175822848Y-77312181D01*
X175787794Y-77347234D01*
X175742415Y-77450006D01*
X175742415Y-77450008D01*
X175739500Y-77475131D01*
X175739500Y-78902744D01*
X175730854Y-78932187D01*
X175724332Y-78962170D01*
X175720577Y-78967185D01*
X175719815Y-78969783D01*
X175703185Y-78990420D01*
X175579424Y-79114182D01*
X175518104Y-79147666D01*
X175491745Y-79150500D01*
X173205601Y-79150500D01*
X173138562Y-79130815D01*
X173092807Y-79078011D01*
X173082863Y-79008853D01*
X173088198Y-78989393D01*
X173087489Y-78989178D01*
X173089258Y-78983343D01*
X173119999Y-78828797D01*
X173120000Y-78828794D01*
X173120000Y-78700000D01*
X172620000Y-78700000D01*
X172620000Y-78200000D01*
X173120000Y-78200000D01*
X173120000Y-78071206D01*
X173119999Y-78071202D01*
X173089258Y-77916656D01*
X173089256Y-77916648D01*
X173028952Y-77771060D01*
X173028947Y-77771051D01*
X172941401Y-77640030D01*
X172941398Y-77640026D01*
X172829973Y-77528601D01*
X172829969Y-77528598D01*
X172698948Y-77441052D01*
X172698938Y-77441047D01*
X172570000Y-77387639D01*
X172570000Y-77983011D01*
X172560060Y-77965795D01*
X172504205Y-77909940D01*
X172435796Y-77870444D01*
X172359496Y-77850000D01*
X172280504Y-77850000D01*
X172204204Y-77870444D01*
X172135795Y-77909940D01*
X172079940Y-77965795D01*
X172070000Y-77983011D01*
X172070000Y-77387639D01*
X172069999Y-77387639D01*
X171941061Y-77441047D01*
X171941051Y-77441052D01*
X171810030Y-77528598D01*
X171810026Y-77528601D01*
X171698601Y-77640026D01*
X171698598Y-77640030D01*
X171611052Y-77771051D01*
X171611047Y-77771060D01*
X171550743Y-77916648D01*
X171550741Y-77916656D01*
X171520000Y-78071202D01*
X171520000Y-78200000D01*
X172020000Y-78200000D01*
X172020000Y-78700000D01*
X171520000Y-78700000D01*
X171520000Y-78828797D01*
X171550741Y-78983343D01*
X171550743Y-78983351D01*
X171611047Y-79128939D01*
X171611052Y-79128948D01*
X171698598Y-79259969D01*
X171698601Y-79259973D01*
X171810029Y-79371401D01*
X171855944Y-79402080D01*
X171900749Y-79455692D01*
X171909456Y-79525017D01*
X171879302Y-79588044D01*
X171874734Y-79592863D01*
X170084426Y-81383173D01*
X170023103Y-81416658D01*
X169996745Y-81419492D01*
X166297281Y-81419492D01*
X166195418Y-81446785D01*
X166104096Y-81499511D01*
X165789633Y-81813973D01*
X165728310Y-81847457D01*
X165658618Y-81842473D01*
X165602685Y-81800601D01*
X165594565Y-81788291D01*
X165594142Y-81787558D01*
X165570515Y-81746635D01*
X165463365Y-81639485D01*
X165397750Y-81601602D01*
X165332136Y-81563719D01*
X165258950Y-81544109D01*
X165185766Y-81524500D01*
X165034234Y-81524500D01*
X164887863Y-81563719D01*
X164756635Y-81639485D01*
X164756632Y-81639487D01*
X164649487Y-81746632D01*
X164649481Y-81746641D01*
X164634499Y-81772589D01*
X164583931Y-81820803D01*
X164515324Y-81834024D01*
X164450460Y-81808054D01*
X164412553Y-81758038D01*
X164388954Y-81701064D01*
X164388947Y-81701051D01*
X164301401Y-81570030D01*
X164301398Y-81570026D01*
X164189973Y-81458601D01*
X164189969Y-81458598D01*
X164058948Y-81371052D01*
X164058938Y-81371047D01*
X163930000Y-81317639D01*
X163930000Y-81913011D01*
X163920060Y-81895795D01*
X163864205Y-81839940D01*
X163795796Y-81800444D01*
X163719496Y-81780000D01*
X163640504Y-81780000D01*
X163564204Y-81800444D01*
X163495795Y-81839940D01*
X163439940Y-81895795D01*
X163430000Y-81913011D01*
X163430000Y-81317639D01*
X163429999Y-81317639D01*
X163301061Y-81371047D01*
X163301051Y-81371052D01*
X163170030Y-81458598D01*
X163170026Y-81458601D01*
X163058601Y-81570026D01*
X163058598Y-81570030D01*
X162971052Y-81701051D01*
X162971047Y-81701060D01*
X162910743Y-81846648D01*
X162910741Y-81846656D01*
X162880000Y-82001202D01*
X162880000Y-82380000D01*
X163380000Y-82380000D01*
X163380000Y-82880000D01*
X162880000Y-82880000D01*
X162880000Y-83258797D01*
X162910741Y-83413343D01*
X162910743Y-83413351D01*
X162971047Y-83558939D01*
X162971052Y-83558948D01*
X163058598Y-83689969D01*
X163058601Y-83689973D01*
X163170026Y-83801398D01*
X163170034Y-83801404D01*
X163301047Y-83888944D01*
X163301065Y-83888954D01*
X163429999Y-83942360D01*
X163430000Y-83942360D01*
X163430000Y-83346988D01*
X163439940Y-83364205D01*
X163495795Y-83420060D01*
X163564204Y-83459556D01*
X163640504Y-83480000D01*
X163719496Y-83480000D01*
X163795796Y-83459556D01*
X163864205Y-83420060D01*
X163920060Y-83364205D01*
X163930000Y-83346988D01*
X163930000Y-83942359D01*
X163978547Y-83922251D01*
X164048017Y-83914782D01*
X164110496Y-83946057D01*
X164146148Y-84006146D01*
X164150000Y-84036812D01*
X164150000Y-84314785D01*
X164150002Y-84314808D01*
X164152908Y-84339869D01*
X164152909Y-84339873D01*
X164198211Y-84442474D01*
X164198214Y-84442479D01*
X164277520Y-84521785D01*
X164277525Y-84521788D01*
X164380123Y-84567089D01*
X164405205Y-84569999D01*
X164405206Y-84569999D01*
X164502725Y-84569998D01*
X164511290Y-84572512D01*
X164500316Y-84543090D01*
X164500000Y-84534244D01*
X164500000Y-83795000D01*
X164144000Y-83795000D01*
X164076961Y-83775315D01*
X164031206Y-83722511D01*
X164020000Y-83671000D01*
X164020000Y-83419000D01*
X164039685Y-83351961D01*
X164092489Y-83306206D01*
X164144000Y-83295000D01*
X164626000Y-83295000D01*
X164693039Y-83314685D01*
X164738794Y-83367489D01*
X164750000Y-83419000D01*
X164750000Y-83545000D01*
X164825501Y-83545000D01*
X164892540Y-83564685D01*
X164938295Y-83617489D01*
X164949501Y-83669000D01*
X164949501Y-84314870D01*
X164949789Y-84317347D01*
X164949681Y-84317974D01*
X164949708Y-84318439D01*
X164949600Y-84318445D01*
X164937957Y-84386207D01*
X164914295Y-84419310D01*
X164711681Y-84621925D01*
X164650358Y-84655410D01*
X164617036Y-84653026D01*
X164620101Y-84674346D01*
X164626146Y-84705989D01*
X164625114Y-84709206D01*
X164625465Y-84711643D01*
X164617768Y-84740275D01*
X164614494Y-84748412D01*
X164601793Y-84770412D01*
X164594108Y-84799090D01*
X164591312Y-84806043D01*
X164574122Y-84827826D01*
X164559679Y-84851522D01*
X164551319Y-84856724D01*
X164548031Y-84860892D01*
X164540405Y-84863516D01*
X164521764Y-84875119D01*
X164490023Y-84887636D01*
X164374920Y-84974922D01*
X164298488Y-85075712D01*
X164242295Y-85117235D01*
X164172574Y-85121786D01*
X164111460Y-85087920D01*
X164100881Y-85075711D01*
X164024721Y-84975278D01*
X163909729Y-84888077D01*
X163775467Y-84835131D01*
X163691102Y-84825000D01*
X163675000Y-84825000D01*
X163675000Y-86375000D01*
X163691102Y-86375000D01*
X163775467Y-86364868D01*
X163775468Y-86364868D01*
X163909729Y-86311922D01*
X164024721Y-86224721D01*
X164100881Y-86124288D01*
X164157073Y-86082765D01*
X164226794Y-86078213D01*
X164287908Y-86112077D01*
X164298488Y-86124287D01*
X164343771Y-86184000D01*
X164374922Y-86225078D01*
X164490025Y-86312364D01*
X164495988Y-86314715D01*
X164512579Y-86327623D01*
X164531703Y-86336357D01*
X164539600Y-86348646D01*
X164551131Y-86357617D01*
X164558110Y-86377448D01*
X164569477Y-86395135D01*
X164573028Y-86419833D01*
X164574327Y-86423524D01*
X164574500Y-86430070D01*
X164574500Y-86584334D01*
X164554815Y-86651373D01*
X164550271Y-86657967D01*
X164547207Y-86662118D01*
X164547206Y-86662119D01*
X164502353Y-86790298D01*
X164502353Y-86790300D01*
X164499500Y-86820730D01*
X164499500Y-88104269D01*
X164502353Y-88134699D01*
X164503964Y-88142073D01*
X164501423Y-88142627D01*
X164504343Y-88200023D01*
X164469604Y-88260644D01*
X164451465Y-88270069D01*
X164452245Y-88271168D01*
X164400000Y-88308237D01*
X164400000Y-89087500D01*
X164749999Y-89087500D01*
X164749999Y-88695803D01*
X164747148Y-88665395D01*
X164746298Y-88662966D01*
X164746200Y-88661052D01*
X164745538Y-88658020D01*
X164746039Y-88657910D01*
X164742733Y-88593188D01*
X164777459Y-88532559D01*
X164839451Y-88500328D01*
X164874916Y-88498548D01*
X164895731Y-88500500D01*
X164895734Y-88500500D01*
X165304265Y-88500500D01*
X165304266Y-88500500D01*
X165324532Y-88498599D01*
X165393116Y-88511936D01*
X165443603Y-88560237D01*
X165459962Y-88628164D01*
X165453158Y-88663000D01*
X165452354Y-88665298D01*
X165452353Y-88665300D01*
X165449500Y-88695730D01*
X165449500Y-89979269D01*
X165452352Y-90009689D01*
X165452353Y-90009697D01*
X165452354Y-90009699D01*
X165465711Y-90047872D01*
X165467541Y-90053100D01*
X165474500Y-90094055D01*
X165474500Y-90369928D01*
X165454815Y-90436967D01*
X165402011Y-90482722D01*
X165395996Y-90485280D01*
X165390028Y-90487633D01*
X165390026Y-90487634D01*
X165274920Y-90574922D01*
X165198488Y-90675712D01*
X165142295Y-90717235D01*
X165072574Y-90721786D01*
X165011460Y-90687920D01*
X165000881Y-90675711D01*
X164924721Y-90575278D01*
X164809729Y-90488077D01*
X164809723Y-90488074D01*
X164676307Y-90435461D01*
X164621163Y-90392555D01*
X164597970Y-90326647D01*
X164614091Y-90258663D01*
X164622027Y-90246473D01*
X164702346Y-90137644D01*
X164747149Y-90009604D01*
X164747149Y-90009600D01*
X164750000Y-89979206D01*
X164750000Y-89587500D01*
X164400000Y-89587500D01*
X164400000Y-90295000D01*
X164451000Y-90295000D01*
X164518039Y-90314685D01*
X164563794Y-90367489D01*
X164575000Y-90419000D01*
X164575000Y-91975000D01*
X164591102Y-91975000D01*
X164675467Y-91964868D01*
X164675468Y-91964868D01*
X164809729Y-91911922D01*
X164924721Y-91824721D01*
X165000881Y-91724288D01*
X165057073Y-91682765D01*
X165126794Y-91678213D01*
X165187908Y-91712077D01*
X165198488Y-91724287D01*
X165246488Y-91787583D01*
X165274922Y-91825078D01*
X165311602Y-91852894D01*
X165390023Y-91912363D01*
X165390024Y-91912363D01*
X165390025Y-91912364D01*
X165524410Y-91965359D01*
X165608856Y-91975500D01*
X166032745Y-91975500D01*
X166099784Y-91995185D01*
X166120426Y-92011819D01*
X169483426Y-95374819D01*
X169487764Y-95382764D01*
X169495012Y-95388190D01*
X169504246Y-95412949D01*
X169516911Y-95436142D01*
X169516265Y-95445171D01*
X169519429Y-95453654D01*
X169513812Y-95479474D01*
X169511927Y-95505834D01*
X169506108Y-95514887D01*
X169504577Y-95521927D01*
X169483426Y-95550181D01*
X169470426Y-95563181D01*
X169409103Y-95596666D01*
X169382745Y-95599500D01*
X169320943Y-95599500D01*
X169168216Y-95640423D01*
X169168209Y-95640426D01*
X169031290Y-95719475D01*
X169031282Y-95719481D01*
X168919481Y-95831282D01*
X168919475Y-95831290D01*
X168840426Y-95968209D01*
X168840423Y-95968216D01*
X168799500Y-96120943D01*
X168799500Y-96279057D01*
X168802672Y-96290893D01*
X168840423Y-96431783D01*
X168840426Y-96431790D01*
X168919475Y-96568709D01*
X168919479Y-96568714D01*
X168919480Y-96568716D01*
X169031284Y-96680520D01*
X169031286Y-96680521D01*
X169031290Y-96680524D01*
X169168209Y-96759573D01*
X169168216Y-96759577D01*
X169235396Y-96777577D01*
X169295056Y-96813942D01*
X169325585Y-96876789D01*
X169317290Y-96946164D01*
X169286783Y-96989042D01*
X169250000Y-97022531D01*
X169250000Y-97476000D01*
X169230315Y-97543039D01*
X169177511Y-97588794D01*
X169126000Y-97600000D01*
X169000000Y-97600000D01*
X169000000Y-97726000D01*
X168980315Y-97793039D01*
X168927511Y-97838794D01*
X168876000Y-97850000D01*
X168124000Y-97850000D01*
X168056961Y-97830315D01*
X168011206Y-97777511D01*
X168000000Y-97726000D01*
X168000000Y-97600000D01*
X167874000Y-97600000D01*
X167806961Y-97580315D01*
X167761206Y-97527511D01*
X167750000Y-97476000D01*
X167750000Y-97022531D01*
X167749999Y-97022530D01*
X168250000Y-97022530D01*
X168250000Y-97350000D01*
X168750000Y-97350000D01*
X168750000Y-97022531D01*
X168749999Y-97022530D01*
X168747274Y-97022786D01*
X168747272Y-97022787D01*
X168622078Y-97066595D01*
X168622077Y-97066595D01*
X168573633Y-97102349D01*
X168508004Y-97126320D01*
X168439834Y-97111004D01*
X168426367Y-97102349D01*
X168377921Y-97066595D01*
X168252727Y-97022787D01*
X168252725Y-97022786D01*
X168250000Y-97022530D01*
X167749999Y-97022530D01*
X167747274Y-97022786D01*
X167747272Y-97022787D01*
X167622080Y-97066594D01*
X167533134Y-97132240D01*
X167467505Y-97156211D01*
X167399335Y-97140896D01*
X167350266Y-97091156D01*
X167335500Y-97032470D01*
X167335500Y-96976929D01*
X167332710Y-96947185D01*
X167332710Y-96947181D01*
X167332708Y-96947177D01*
X167332708Y-96947173D01*
X167288852Y-96821844D01*
X167288852Y-96821843D01*
X167209999Y-96715001D01*
X167205864Y-96711949D01*
X167163615Y-96656301D01*
X167155500Y-96612181D01*
X167155500Y-95902275D01*
X167155499Y-95902271D01*
X167136479Y-95831284D01*
X167128207Y-95800412D01*
X167075480Y-95709087D01*
X166495913Y-95129520D01*
X166417511Y-95084254D01*
X166404589Y-95076793D01*
X166353657Y-95063146D01*
X166302727Y-95049500D01*
X164302727Y-95049500D01*
X164197273Y-95049500D01*
X164095410Y-95076793D01*
X164004087Y-95129520D01*
X164004084Y-95129522D01*
X163530830Y-95602775D01*
X163469507Y-95636260D01*
X163411056Y-95634869D01*
X163291279Y-95602775D01*
X163279057Y-95599500D01*
X163120943Y-95599500D01*
X162968216Y-95640423D01*
X162968209Y-95640426D01*
X162831290Y-95719475D01*
X162831282Y-95719481D01*
X162719481Y-95831282D01*
X162719475Y-95831290D01*
X162640426Y-95968209D01*
X162640423Y-95968216D01*
X162599500Y-96120943D01*
X162599500Y-96279057D01*
X162602672Y-96290893D01*
X162640423Y-96431783D01*
X162640426Y-96431790D01*
X162719473Y-96568706D01*
X162719477Y-96568712D01*
X162719480Y-96568716D01*
X162719481Y-96568717D01*
X162723872Y-96574438D01*
X162749069Y-96639606D01*
X162749500Y-96649930D01*
X162749500Y-97714880D01*
X162743604Y-97734956D01*
X162742534Y-97755857D01*
X162733958Y-97767808D01*
X162729815Y-97781919D01*
X162714001Y-97795621D01*
X162701801Y-97812625D01*
X162683118Y-97822381D01*
X162677011Y-97827674D01*
X162671173Y-97830162D01*
X162660694Y-97834313D01*
X162657491Y-97834780D01*
X162648833Y-97839012D01*
X162644367Y-97840782D01*
X162631112Y-97841999D01*
X162598694Y-97849500D01*
X162060339Y-97849500D01*
X162060323Y-97849499D01*
X162052727Y-97849499D01*
X162027500Y-97849499D01*
X161960461Y-97829814D01*
X161914706Y-97777010D01*
X161903500Y-97725499D01*
X161903500Y-94783175D01*
X161903500Y-94783173D01*
X161876207Y-94681313D01*
X161823480Y-94589987D01*
X161748913Y-94515420D01*
X161171369Y-93937876D01*
X161137884Y-93876553D01*
X161135050Y-93850195D01*
X161135050Y-91491102D01*
X163575000Y-91491102D01*
X163585131Y-91575467D01*
X163585131Y-91575468D01*
X163638077Y-91709729D01*
X163725278Y-91824721D01*
X163840270Y-91911922D01*
X163974532Y-91964868D01*
X164058898Y-91975000D01*
X164075000Y-91975000D01*
X164075000Y-91450000D01*
X163575000Y-91450000D01*
X163575000Y-91491102D01*
X161135050Y-91491102D01*
X161135050Y-90217279D01*
X161135051Y-90217266D01*
X161135051Y-90101824D01*
X161134696Y-90100499D01*
X161107757Y-89999963D01*
X161095767Y-89979196D01*
X163550001Y-89979196D01*
X163552851Y-90009606D01*
X163597653Y-90137645D01*
X163678207Y-90246792D01*
X163788227Y-90327990D01*
X163830477Y-90383637D01*
X163835936Y-90453294D01*
X163802868Y-90514843D01*
X163789519Y-90526563D01*
X163725279Y-90575278D01*
X163638077Y-90690270D01*
X163585131Y-90824531D01*
X163585131Y-90824532D01*
X163575000Y-90908897D01*
X163575000Y-90950000D01*
X164075000Y-90950000D01*
X164075000Y-90505000D01*
X164024000Y-90505000D01*
X163956961Y-90485315D01*
X163911206Y-90432511D01*
X163900000Y-90381000D01*
X163900000Y-89587500D01*
X163550001Y-89587500D01*
X163550001Y-89979196D01*
X161095767Y-89979196D01*
X161055030Y-89908637D01*
X160980463Y-89834070D01*
X160980462Y-89834069D01*
X160976132Y-89829739D01*
X160976121Y-89829729D01*
X160770211Y-89623819D01*
X160553950Y-89407558D01*
X160215674Y-89069281D01*
X160182189Y-89007958D01*
X160185423Y-88943284D01*
X160232171Y-88799409D01*
X160248581Y-88695803D01*
X160248583Y-88695793D01*
X163550000Y-88695793D01*
X163550000Y-89087500D01*
X163900000Y-89087500D01*
X163900000Y-88308237D01*
X163899999Y-88308237D01*
X163787355Y-88347653D01*
X163678207Y-88428207D01*
X163597653Y-88537354D01*
X163552850Y-88665395D01*
X163552850Y-88665399D01*
X163550000Y-88695793D01*
X160248583Y-88695793D01*
X160252114Y-88673499D01*
X160252114Y-88673497D01*
X160260500Y-88620552D01*
X160260500Y-88439448D01*
X160239717Y-88308237D01*
X160232171Y-88260591D01*
X160191267Y-88134699D01*
X160176212Y-88088363D01*
X160176211Y-88088360D01*
X160147740Y-88032484D01*
X160093996Y-87927006D01*
X160080396Y-87908287D01*
X159987558Y-87780505D01*
X159987554Y-87780500D01*
X159859499Y-87652445D01*
X159859494Y-87652441D01*
X159712997Y-87546006D01*
X159712996Y-87546005D01*
X159712994Y-87546004D01*
X159661300Y-87519664D01*
X159551639Y-87463788D01*
X159551636Y-87463787D01*
X159379410Y-87407829D01*
X159219321Y-87382473D01*
X159156186Y-87352544D01*
X159119255Y-87293232D01*
X159120253Y-87223370D01*
X159158863Y-87165137D01*
X159219321Y-87137527D01*
X159289425Y-87126422D01*
X159379409Y-87112171D01*
X159551639Y-87056211D01*
X159712994Y-86973996D01*
X159859501Y-86867553D01*
X159987553Y-86739501D01*
X160093996Y-86592994D01*
X160176211Y-86431639D01*
X160232171Y-86259409D01*
X160253572Y-86124288D01*
X160260500Y-86080551D01*
X160260500Y-85899449D01*
X160259178Y-85891102D01*
X162675000Y-85891102D01*
X162685131Y-85975467D01*
X162685131Y-85975468D01*
X162738077Y-86109729D01*
X162825278Y-86224721D01*
X162940270Y-86311922D01*
X163074532Y-86364868D01*
X163158898Y-86375000D01*
X163175000Y-86375000D01*
X163175000Y-85850000D01*
X162675000Y-85850000D01*
X162675000Y-85891102D01*
X160259178Y-85891102D01*
X160247605Y-85818037D01*
X160247605Y-85818036D01*
X160238886Y-85762990D01*
X160232171Y-85720591D01*
X160196309Y-85610216D01*
X160176212Y-85548363D01*
X160176211Y-85548360D01*
X160093995Y-85387004D01*
X160087510Y-85378079D01*
X160037247Y-85308897D01*
X162675000Y-85308897D01*
X162675000Y-85350000D01*
X163175000Y-85350000D01*
X163175000Y-84825000D01*
X163158898Y-84825000D01*
X163074532Y-84835131D01*
X163074531Y-84835131D01*
X162940270Y-84888077D01*
X162825278Y-84975278D01*
X162738077Y-85090270D01*
X162685131Y-85224531D01*
X162685131Y-85224532D01*
X162675000Y-85308897D01*
X160037247Y-85308897D01*
X159987553Y-85240499D01*
X159859501Y-85112447D01*
X159859499Y-85112445D01*
X159859494Y-85112441D01*
X159712997Y-85006006D01*
X159712996Y-85006005D01*
X159712994Y-85006004D01*
X159651993Y-84974922D01*
X159551639Y-84923788D01*
X159551636Y-84923787D01*
X159379410Y-84867828D01*
X159217720Y-84842219D01*
X159154585Y-84812289D01*
X159117654Y-84752978D01*
X159118652Y-84683115D01*
X159157262Y-84624883D01*
X159217721Y-84597273D01*
X159379292Y-84571683D01*
X159551444Y-84515748D01*
X159551452Y-84515745D01*
X159712730Y-84433568D01*
X159728532Y-84422085D01*
X159728533Y-84422085D01*
X159239410Y-83932962D01*
X159302993Y-83915925D01*
X159417007Y-83850099D01*
X159510099Y-83757007D01*
X159575925Y-83642993D01*
X159592962Y-83579409D01*
X160082085Y-84068532D01*
X160093568Y-84052730D01*
X160175745Y-83891452D01*
X160175748Y-83891444D01*
X160231682Y-83719293D01*
X160260000Y-83540506D01*
X160260000Y-83359493D01*
X160231682Y-83180706D01*
X160175748Y-83008555D01*
X160175747Y-83008552D01*
X160112759Y-82884933D01*
X160093571Y-82847275D01*
X160093566Y-82847267D01*
X160082085Y-82831466D01*
X159592962Y-83320589D01*
X159575925Y-83257007D01*
X159510099Y-83142993D01*
X159417007Y-83049901D01*
X159302993Y-82984075D01*
X159239409Y-82967037D01*
X159728533Y-82477913D01*
X159712730Y-82466431D01*
X159551447Y-82384252D01*
X159551444Y-82384251D01*
X159379293Y-82328317D01*
X159217720Y-82302726D01*
X159154585Y-82272797D01*
X159117654Y-82213485D01*
X159118652Y-82143623D01*
X159157262Y-82085390D01*
X159217720Y-82057780D01*
X159232270Y-82055475D01*
X159379409Y-82032171D01*
X159551639Y-81976211D01*
X159712994Y-81893996D01*
X159831284Y-81808054D01*
X159859495Y-81787558D01*
X159859497Y-81787555D01*
X159859501Y-81787553D01*
X159987553Y-81659501D01*
X160093996Y-81512994D01*
X160176211Y-81351639D01*
X160232171Y-81179409D01*
X160246765Y-81087259D01*
X160260500Y-81000551D01*
X160260500Y-80819448D01*
X160244019Y-80715397D01*
X160232171Y-80640591D01*
X160196309Y-80530216D01*
X160176212Y-80468363D01*
X160176211Y-80468360D01*
X160147740Y-80412484D01*
X160093996Y-80307006D01*
X160080396Y-80288287D01*
X159987558Y-80160505D01*
X159987554Y-80160500D01*
X159859499Y-80032445D01*
X159859494Y-80032441D01*
X159712997Y-79926006D01*
X159712996Y-79926005D01*
X159712994Y-79926004D01*
X159661300Y-79899664D01*
X159551639Y-79843788D01*
X159551636Y-79843787D01*
X159379410Y-79787829D01*
X159247728Y-79766972D01*
X159184594Y-79737042D01*
X159147663Y-79677731D01*
X159148661Y-79607868D01*
X159187271Y-79549636D01*
X159251235Y-79521522D01*
X159267120Y-79520499D01*
X160004864Y-79520499D01*
X160004879Y-79520497D01*
X160004882Y-79520497D01*
X160029987Y-79517586D01*
X160029988Y-79517585D01*
X160029991Y-79517585D01*
X160132765Y-79472206D01*
X160212206Y-79392765D01*
X160257585Y-79289991D01*
X160260500Y-79264865D01*
X160260499Y-78071202D01*
X162880000Y-78071202D01*
X162880000Y-78200000D01*
X163380000Y-78200000D01*
X163380000Y-78700000D01*
X162880000Y-78700000D01*
X162880000Y-78828797D01*
X162910741Y-78983343D01*
X162910743Y-78983351D01*
X162971047Y-79128939D01*
X162971052Y-79128948D01*
X163058598Y-79259969D01*
X163058601Y-79259973D01*
X163170026Y-79371398D01*
X163170034Y-79371404D01*
X163301047Y-79458944D01*
X163301065Y-79458954D01*
X163429999Y-79512360D01*
X163430000Y-79512360D01*
X163430000Y-78916988D01*
X163439940Y-78934205D01*
X163495795Y-78990060D01*
X163564204Y-79029556D01*
X163640504Y-79050000D01*
X163719496Y-79050000D01*
X163795796Y-79029556D01*
X163864205Y-78990060D01*
X163920060Y-78934205D01*
X163930000Y-78916988D01*
X163930000Y-79512360D01*
X164058934Y-79458954D01*
X164058952Y-79458944D01*
X164189965Y-79371404D01*
X164189973Y-79371398D01*
X164301398Y-79259973D01*
X164301401Y-79259969D01*
X164388947Y-79128948D01*
X164388952Y-79128939D01*
X164449256Y-78983351D01*
X164449258Y-78983343D01*
X164479999Y-78828797D01*
X164480000Y-78828794D01*
X164480000Y-78700000D01*
X163980000Y-78700000D01*
X163980000Y-78200000D01*
X164480000Y-78200000D01*
X164480000Y-78071206D01*
X164479999Y-78071202D01*
X164449258Y-77916656D01*
X164449256Y-77916648D01*
X164388952Y-77771060D01*
X164388947Y-77771051D01*
X164301401Y-77640030D01*
X164301398Y-77640026D01*
X164189973Y-77528601D01*
X164189969Y-77528598D01*
X164058948Y-77441052D01*
X164058938Y-77441047D01*
X163930000Y-77387639D01*
X163930000Y-77983011D01*
X163920060Y-77965795D01*
X163864205Y-77909940D01*
X163795796Y-77870444D01*
X163719496Y-77850000D01*
X163640504Y-77850000D01*
X163564204Y-77870444D01*
X163495795Y-77909940D01*
X163439940Y-77965795D01*
X163430000Y-77983011D01*
X163430000Y-77387639D01*
X163429999Y-77387639D01*
X163301061Y-77441047D01*
X163301051Y-77441052D01*
X163170030Y-77528598D01*
X163170026Y-77528601D01*
X163058601Y-77640026D01*
X163058598Y-77640030D01*
X162971052Y-77771051D01*
X162971047Y-77771060D01*
X162910743Y-77916648D01*
X162910741Y-77916656D01*
X162880000Y-78071202D01*
X160260499Y-78071202D01*
X160260499Y-77475136D01*
X160260497Y-77475117D01*
X160257586Y-77450012D01*
X160257585Y-77450010D01*
X160257585Y-77450009D01*
X160212206Y-77347235D01*
X160177152Y-77312181D01*
X160143667Y-77250858D01*
X160148651Y-77181166D01*
X160190523Y-77125233D01*
X160255987Y-77100816D01*
X160264833Y-77100500D01*
X175735167Y-77100500D01*
X175802206Y-77120185D01*
G37*
G04 #@! TD.AperFunction*
G04 #@! TA.AperFunction,Conductor*
G36*
X166099784Y-95870185D02*
G01*
X166120426Y-95886819D01*
X166318181Y-96084574D01*
X166351666Y-96145897D01*
X166354500Y-96172255D01*
X166354500Y-96547116D01*
X166334815Y-96614155D01*
X166282011Y-96659910D01*
X166212853Y-96669854D01*
X166156868Y-96646887D01*
X166142922Y-96636595D01*
X166045000Y-96602330D01*
X166045000Y-97076000D01*
X166025315Y-97143039D01*
X165972511Y-97188794D01*
X165921000Y-97200000D01*
X165669000Y-97200000D01*
X165601961Y-97180315D01*
X165556206Y-97127511D01*
X165545000Y-97076000D01*
X165545000Y-96602330D01*
X165544999Y-96602330D01*
X165447079Y-96636594D01*
X165380006Y-96686097D01*
X165314377Y-96710068D01*
X165246207Y-96694753D01*
X165232742Y-96686099D01*
X165150794Y-96625619D01*
X165150792Y-96625618D01*
X165026880Y-96582258D01*
X164997461Y-96579500D01*
X164622546Y-96579500D01*
X164593125Y-96582258D01*
X164593115Y-96582260D01*
X164469207Y-96625618D01*
X164469206Y-96625619D01*
X164402599Y-96674778D01*
X164399134Y-96677335D01*
X164333505Y-96701306D01*
X164265335Y-96685991D01*
X164216266Y-96636251D01*
X164201500Y-96577565D01*
X164201500Y-96116255D01*
X164210144Y-96086814D01*
X164216668Y-96056828D01*
X164220422Y-96051812D01*
X164221185Y-96049216D01*
X164237819Y-96028574D01*
X164379574Y-95886819D01*
X164440897Y-95853334D01*
X164467255Y-95850500D01*
X166032745Y-95850500D01*
X166099784Y-95870185D01*
G37*
G04 #@! TD.AperFunction*
G04 #@! TA.AperFunction,Conductor*
G36*
X170180828Y-96088071D02*
G01*
X170225180Y-96116573D01*
X170363181Y-96254574D01*
X170396666Y-96315897D01*
X170399500Y-96342255D01*
X170399500Y-96360837D01*
X170379815Y-96427876D01*
X170327011Y-96473631D01*
X170260255Y-96483229D01*
X170260231Y-96483492D01*
X170259141Y-96483389D01*
X170257853Y-96483575D01*
X170254325Y-96482937D01*
X170250000Y-96482530D01*
X170250000Y-96936000D01*
X170230315Y-97003039D01*
X170177511Y-97048794D01*
X170126000Y-97060000D01*
X169874000Y-97060000D01*
X169865314Y-97057449D01*
X169856353Y-97058738D01*
X169832312Y-97047759D01*
X169806961Y-97040315D01*
X169801033Y-97033474D01*
X169792797Y-97029713D01*
X169778507Y-97007478D01*
X169761206Y-96987511D01*
X169758918Y-96976996D01*
X169755023Y-96970935D01*
X169750000Y-96936000D01*
X169750000Y-96750598D01*
X169769685Y-96683559D01*
X169786319Y-96662917D01*
X169833311Y-96615925D01*
X169880520Y-96568716D01*
X169959577Y-96431784D01*
X170000500Y-96279057D01*
X170000500Y-96217254D01*
X170009144Y-96187815D01*
X170015666Y-96157831D01*
X170019422Y-96152812D01*
X170020185Y-96150215D01*
X170036811Y-96129579D01*
X170049819Y-96116573D01*
X170111136Y-96083089D01*
X170180828Y-96088071D01*
G37*
G04 #@! TD.AperFunction*
G04 #@! TA.AperFunction,Conductor*
G36*
X158005703Y-93992065D02*
G01*
X158042432Y-94047462D01*
X158043789Y-94051640D01*
X158064926Y-94093122D01*
X158124709Y-94210453D01*
X158126006Y-94212997D01*
X158232441Y-94359494D01*
X158232445Y-94359499D01*
X158360500Y-94487554D01*
X158360505Y-94487558D01*
X158488287Y-94580396D01*
X158507006Y-94593996D01*
X158612484Y-94647740D01*
X158668360Y-94676211D01*
X158668363Y-94676212D01*
X158754476Y-94704191D01*
X158840591Y-94732171D01*
X158960038Y-94751089D01*
X159002279Y-94757780D01*
X159065414Y-94787709D01*
X159102345Y-94847021D01*
X159101347Y-94916883D01*
X159062737Y-94975116D01*
X159002279Y-95002726D01*
X158840706Y-95028317D01*
X158668555Y-95084251D01*
X158668547Y-95084254D01*
X158507269Y-95166432D01*
X158491466Y-95177912D01*
X158491466Y-95177913D01*
X158980591Y-95667037D01*
X158917007Y-95684075D01*
X158802993Y-95749901D01*
X158709901Y-95842993D01*
X158644075Y-95957007D01*
X158627037Y-96020590D01*
X158137913Y-95531466D01*
X158137912Y-95531466D01*
X158126432Y-95547269D01*
X158044254Y-95708547D01*
X158044254Y-95708549D01*
X158042431Y-95714161D01*
X158002992Y-95771836D01*
X157938633Y-95799033D01*
X157869787Y-95787118D01*
X157818312Y-95739873D01*
X157800500Y-95675841D01*
X157800500Y-94085778D01*
X157820185Y-94018739D01*
X157872989Y-93972984D01*
X157942147Y-93963040D01*
X158005703Y-93992065D01*
G37*
G04 #@! TD.AperFunction*
G04 #@! TA.AperFunction,Conductor*
G36*
X159649281Y-94715674D02*
G01*
X160264181Y-95330573D01*
X160297666Y-95391896D01*
X160300500Y-95418254D01*
X160300500Y-95450454D01*
X160280815Y-95517493D01*
X160228011Y-95563248D01*
X160158853Y-95573192D01*
X160095297Y-95544167D01*
X160083761Y-95531598D01*
X160082085Y-95531466D01*
X159592962Y-96020589D01*
X159575925Y-95957007D01*
X159510099Y-95842993D01*
X159417007Y-95749901D01*
X159302993Y-95684075D01*
X159239409Y-95667037D01*
X159728533Y-95177913D01*
X159712730Y-95166431D01*
X159551447Y-95084252D01*
X159551444Y-95084251D01*
X159379293Y-95028317D01*
X159217720Y-95002726D01*
X159154585Y-94972797D01*
X159117654Y-94913485D01*
X159118652Y-94843623D01*
X159157262Y-94785390D01*
X159217720Y-94757780D01*
X159232270Y-94755475D01*
X159379409Y-94732171D01*
X159523284Y-94685423D01*
X159593123Y-94683429D01*
X159649281Y-94715674D01*
G37*
G04 #@! TD.AperFunction*
G04 #@! TA.AperFunction,Conductor*
G36*
X165814848Y-84754059D02*
G01*
X165870782Y-84795930D01*
X165878900Y-84808238D01*
X165929520Y-84895913D01*
X165929521Y-84895914D01*
X165929522Y-84895915D01*
X166565179Y-85531571D01*
X166565189Y-85531582D01*
X166569519Y-85535912D01*
X166569520Y-85535913D01*
X166644087Y-85610480D01*
X166717261Y-85652727D01*
X166735413Y-85663207D01*
X166837273Y-85690501D01*
X166837275Y-85690501D01*
X166886304Y-85690501D01*
X166953343Y-85710186D01*
X166999098Y-85762990D01*
X167009042Y-85832148D01*
X166986073Y-85888136D01*
X166926067Y-85969439D01*
X166926065Y-85969442D01*
X166894378Y-86059999D01*
X166894378Y-86060000D01*
X167376000Y-86060000D01*
X167443039Y-86079685D01*
X167488794Y-86132489D01*
X167500000Y-86184000D01*
X167500000Y-86310000D01*
X167626000Y-86310000D01*
X167693039Y-86329685D01*
X167738794Y-86382489D01*
X167750000Y-86434000D01*
X167750000Y-86878816D01*
X167754455Y-86882874D01*
X167807513Y-86893197D01*
X167857996Y-86941501D01*
X167874500Y-87003313D01*
X167874500Y-88817063D01*
X167854815Y-88884102D01*
X167802011Y-88929857D01*
X167732853Y-88939801D01*
X167718407Y-88936838D01*
X167619717Y-88910394D01*
X167579057Y-88899500D01*
X167420943Y-88899500D01*
X167268216Y-88940423D01*
X167268209Y-88940426D01*
X167131290Y-89019475D01*
X167131282Y-89019481D01*
X167087583Y-89063181D01*
X167060655Y-89077884D01*
X167034837Y-89094477D01*
X167028636Y-89095368D01*
X167026260Y-89096666D01*
X166999902Y-89099500D01*
X166774500Y-89099500D01*
X166707461Y-89079815D01*
X166661706Y-89027011D01*
X166650500Y-88975500D01*
X166650500Y-88695730D01*
X166647646Y-88665300D01*
X166647646Y-88665298D01*
X166610883Y-88560237D01*
X166602793Y-88537118D01*
X166522150Y-88427850D01*
X166412882Y-88347207D01*
X166412880Y-88347206D01*
X166284700Y-88302353D01*
X166254270Y-88299500D01*
X166254266Y-88299500D01*
X165845734Y-88299500D01*
X165829852Y-88300989D01*
X165825462Y-88301401D01*
X165756878Y-88288060D01*
X165706394Y-88239757D01*
X165690038Y-88171829D01*
X165696847Y-88136984D01*
X165697646Y-88134699D01*
X165700500Y-88104269D01*
X165700500Y-86820730D01*
X165697646Y-86790300D01*
X165697646Y-86790298D01*
X165652793Y-86662119D01*
X165652793Y-86662118D01*
X165577427Y-86560000D01*
X166894378Y-86560000D01*
X166926065Y-86650557D01*
X166926066Y-86650559D01*
X167003934Y-86756065D01*
X167109438Y-86833931D01*
X167233219Y-86877244D01*
X167249999Y-86878817D01*
X167250000Y-86878816D01*
X167250000Y-86560000D01*
X166894378Y-86560000D01*
X165577427Y-86560000D01*
X165572150Y-86552850D01*
X165481458Y-86485917D01*
X165475642Y-86480325D01*
X165462141Y-86456718D01*
X165445696Y-86435058D01*
X165445051Y-86426834D01*
X165440956Y-86419673D01*
X165442361Y-86392514D01*
X165440237Y-86365401D01*
X165444141Y-86358133D01*
X165444568Y-86349897D01*
X165460433Y-86327810D01*
X165473305Y-86303852D01*
X165485049Y-86293540D01*
X165485330Y-86293150D01*
X165485629Y-86293031D01*
X165486648Y-86292136D01*
X165575078Y-86225078D01*
X165662364Y-86109975D01*
X165715359Y-85975590D01*
X165725500Y-85891144D01*
X165725500Y-85308856D01*
X165715359Y-85224410D01*
X165662364Y-85090025D01*
X165662363Y-85090024D01*
X165662363Y-85090023D01*
X165604351Y-85013523D01*
X165604208Y-85013148D01*
X165603887Y-85012908D01*
X165591810Y-84980528D01*
X165579528Y-84948212D01*
X165579611Y-84947818D01*
X165579471Y-84947443D01*
X165586819Y-84913661D01*
X165593956Y-84879848D01*
X165594266Y-84879430D01*
X165594323Y-84879170D01*
X165615467Y-84850925D01*
X165683836Y-84782556D01*
X165745157Y-84749074D01*
X165814848Y-84754059D01*
G37*
G04 #@! TD.AperFunction*
G04 #@! TA.AperFunction,Conductor*
G36*
X176476716Y-81985424D02*
G01*
X176620591Y-82032171D01*
X176740038Y-82051089D01*
X176782279Y-82057780D01*
X176845414Y-82087709D01*
X176882345Y-82147021D01*
X176881347Y-82216883D01*
X176842737Y-82275116D01*
X176782279Y-82302726D01*
X176620706Y-82328317D01*
X176448555Y-82384251D01*
X176448547Y-82384254D01*
X176287269Y-82466432D01*
X176271466Y-82477912D01*
X176271466Y-82477913D01*
X176760591Y-82967037D01*
X176697007Y-82984075D01*
X176582993Y-83049901D01*
X176489901Y-83142993D01*
X176424075Y-83257007D01*
X176407037Y-83320590D01*
X175917913Y-82831466D01*
X175917912Y-82831466D01*
X175906432Y-82847269D01*
X175824254Y-83008547D01*
X175824251Y-83008555D01*
X175768317Y-83180706D01*
X175740000Y-83359493D01*
X175740000Y-83540506D01*
X175768317Y-83719293D01*
X175824251Y-83891444D01*
X175824252Y-83891447D01*
X175906431Y-84052730D01*
X175917913Y-84068532D01*
X175917913Y-84068533D01*
X176407037Y-83579409D01*
X176424075Y-83642993D01*
X176489901Y-83757007D01*
X176582993Y-83850099D01*
X176697007Y-83915925D01*
X176760590Y-83932962D01*
X176271466Y-84422085D01*
X176271466Y-84422086D01*
X176287267Y-84433566D01*
X176287275Y-84433571D01*
X176448552Y-84515747D01*
X176448555Y-84515748D01*
X176620706Y-84571682D01*
X176782279Y-84597273D01*
X176845413Y-84627202D01*
X176882345Y-84686513D01*
X176881347Y-84756376D01*
X176842738Y-84814609D01*
X176782280Y-84842219D01*
X176620589Y-84867829D01*
X176448363Y-84923787D01*
X176448360Y-84923788D01*
X176287002Y-85006006D01*
X176140505Y-85112441D01*
X176140500Y-85112445D01*
X176012445Y-85240500D01*
X176012441Y-85240505D01*
X175906006Y-85387002D01*
X175823788Y-85548360D01*
X175823787Y-85548363D01*
X175767829Y-85720589D01*
X175739500Y-85899448D01*
X175739500Y-86080551D01*
X175767829Y-86259412D01*
X175814575Y-86403283D01*
X175816570Y-86473124D01*
X175784325Y-86529281D01*
X175112181Y-87201426D01*
X175050858Y-87234911D01*
X174981167Y-87229927D01*
X174925233Y-87188056D01*
X174900816Y-87122591D01*
X174900500Y-87113745D01*
X174900500Y-83517254D01*
X174909144Y-83487813D01*
X174915668Y-83457827D01*
X174919422Y-83452811D01*
X174920185Y-83450215D01*
X174936814Y-83429578D01*
X176350719Y-82015672D01*
X176412040Y-81982189D01*
X176476716Y-81985424D01*
G37*
G04 #@! TD.AperFunction*
G04 #@! TA.AperFunction,Conductor*
G36*
X158644075Y-83642993D02*
G01*
X158709901Y-83757007D01*
X158802993Y-83850099D01*
X158917007Y-83915925D01*
X158980590Y-83932962D01*
X158491466Y-84422085D01*
X158491466Y-84422086D01*
X158507267Y-84433566D01*
X158507275Y-84433571D01*
X158668552Y-84515747D01*
X158668555Y-84515748D01*
X158840706Y-84571682D01*
X159002279Y-84597273D01*
X159065413Y-84627202D01*
X159102345Y-84686513D01*
X159101347Y-84756376D01*
X159062738Y-84814609D01*
X159002280Y-84842219D01*
X158840589Y-84867829D01*
X158668363Y-84923787D01*
X158668360Y-84923788D01*
X158507002Y-85006006D01*
X158360505Y-85112441D01*
X158360500Y-85112445D01*
X158232445Y-85240500D01*
X158232441Y-85240505D01*
X158126006Y-85387002D01*
X158043788Y-85548360D01*
X158043785Y-85548368D01*
X158042430Y-85552541D01*
X158002992Y-85610216D01*
X157938633Y-85637413D01*
X157869787Y-85625498D01*
X157818312Y-85578253D01*
X157800500Y-85514221D01*
X157800500Y-83924158D01*
X157820185Y-83857119D01*
X157872989Y-83811364D01*
X157942147Y-83801420D01*
X158005703Y-83830445D01*
X158042432Y-83885842D01*
X158044253Y-83891448D01*
X158126431Y-84052730D01*
X158137913Y-84068532D01*
X158137913Y-84068533D01*
X158627037Y-83579408D01*
X158644075Y-83642993D01*
G37*
G04 #@! TD.AperFunction*
G04 #@! TA.AperFunction,Conductor*
G36*
X158005703Y-81292065D02*
G01*
X158042432Y-81347462D01*
X158043789Y-81351640D01*
X158064926Y-81393122D01*
X158118220Y-81497718D01*
X158126006Y-81512997D01*
X158232441Y-81659494D01*
X158232445Y-81659499D01*
X158360500Y-81787554D01*
X158360505Y-81787558D01*
X158442950Y-81847457D01*
X158507006Y-81893996D01*
X158612484Y-81947740D01*
X158668360Y-81976211D01*
X158668363Y-81976212D01*
X158745277Y-82001202D01*
X158840591Y-82032171D01*
X158960038Y-82051089D01*
X159002279Y-82057780D01*
X159065414Y-82087709D01*
X159102345Y-82147021D01*
X159101347Y-82216883D01*
X159062737Y-82275116D01*
X159002279Y-82302726D01*
X158840706Y-82328317D01*
X158668555Y-82384251D01*
X158668547Y-82384254D01*
X158507269Y-82466432D01*
X158491466Y-82477912D01*
X158491466Y-82477913D01*
X158980591Y-82967037D01*
X158917007Y-82984075D01*
X158802993Y-83049901D01*
X158709901Y-83142993D01*
X158644075Y-83257007D01*
X158627037Y-83320590D01*
X158137913Y-82831466D01*
X158137912Y-82831466D01*
X158126432Y-82847269D01*
X158044254Y-83008547D01*
X158044254Y-83008549D01*
X158042431Y-83014161D01*
X158002992Y-83071836D01*
X157938633Y-83099033D01*
X157869787Y-83087118D01*
X157818312Y-83039873D01*
X157800500Y-82975841D01*
X157800500Y-81385778D01*
X157820185Y-81318739D01*
X157872989Y-81272984D01*
X157942147Y-81263040D01*
X158005703Y-81292065D01*
G37*
G04 #@! TD.AperFunction*
G04 #@! TD*
M02*
