%TF.GenerationSoftware,KiCad,Pcbnew,9.0.7*%
%TF.CreationDate,2026-05-07T16:22:57+01:00*%
%TF.ProjectId,catboard,63617462-6f61-4726-942e-6b696361645f,rev?*%
%TF.SameCoordinates,Original*%
%TF.FileFunction,Drillmap*%
%TF.FilePolarity,Positive*%
%FSLAX45Y45*%
G04 Gerber Fmt 4.5, Leading zero omitted, Abs format (unit mm)*
G04 Created by KiCad (PCBNEW 9.0.7) date 2026-05-07 16:22:57*
%MOMM*%
%LPD*%
G01*
G04 APERTURE LIST*
%ADD10C,0.050000*%
%ADD11C,0.200000*%
%ADD12C,0.100000*%
G04 APERTURE END LIST*
D10*
X15730000Y-7660000D02*
X17880000Y-7660000D01*
X17880000Y-12840000D01*
X15730000Y-12840000D01*
X15730000Y-7660000D01*
D11*
D12*
X16478500Y-8177500D02*
X16543500Y-8242500D01*
X16543500Y-8177500D02*
X16478500Y-8242500D01*
X17056500Y-8177500D02*
X17121500Y-8242500D01*
X17121500Y-8177500D02*
X17056500Y-8242500D01*
D11*
X15988277Y-13153984D02*
X15988277Y-12953984D01*
X15988277Y-12953984D02*
X16035896Y-12953984D01*
X16035896Y-12953984D02*
X16064467Y-12963508D01*
X16064467Y-12963508D02*
X16083515Y-12982555D01*
X16083515Y-12982555D02*
X16093039Y-13001603D01*
X16093039Y-13001603D02*
X16102562Y-13039698D01*
X16102562Y-13039698D02*
X16102562Y-13068269D01*
X16102562Y-13068269D02*
X16093039Y-13106365D01*
X16093039Y-13106365D02*
X16083515Y-13125412D01*
X16083515Y-13125412D02*
X16064467Y-13144460D01*
X16064467Y-13144460D02*
X16035896Y-13153984D01*
X16035896Y-13153984D02*
X15988277Y-13153984D01*
X16188277Y-13153984D02*
X16188277Y-13020650D01*
X16188277Y-13058746D02*
X16197801Y-13039698D01*
X16197801Y-13039698D02*
X16207324Y-13030174D01*
X16207324Y-13030174D02*
X16226372Y-13020650D01*
X16226372Y-13020650D02*
X16245420Y-13020650D01*
X16312086Y-13153984D02*
X16312086Y-13020650D01*
X16312086Y-12953984D02*
X16302562Y-12963508D01*
X16302562Y-12963508D02*
X16312086Y-12973031D01*
X16312086Y-12973031D02*
X16321610Y-12963508D01*
X16321610Y-12963508D02*
X16312086Y-12953984D01*
X16312086Y-12953984D02*
X16312086Y-12973031D01*
X16435896Y-13153984D02*
X16416848Y-13144460D01*
X16416848Y-13144460D02*
X16407324Y-13125412D01*
X16407324Y-13125412D02*
X16407324Y-12953984D01*
X16540658Y-13153984D02*
X16521610Y-13144460D01*
X16521610Y-13144460D02*
X16512086Y-13125412D01*
X16512086Y-13125412D02*
X16512086Y-12953984D01*
X16769229Y-13153984D02*
X16769229Y-12953984D01*
X16769229Y-12953984D02*
X16835896Y-13096841D01*
X16835896Y-13096841D02*
X16902563Y-12953984D01*
X16902563Y-12953984D02*
X16902563Y-13153984D01*
X17083515Y-13153984D02*
X17083515Y-13049222D01*
X17083515Y-13049222D02*
X17073991Y-13030174D01*
X17073991Y-13030174D02*
X17054944Y-13020650D01*
X17054944Y-13020650D02*
X17016848Y-13020650D01*
X17016848Y-13020650D02*
X16997801Y-13030174D01*
X17083515Y-13144460D02*
X17064467Y-13153984D01*
X17064467Y-13153984D02*
X17016848Y-13153984D01*
X17016848Y-13153984D02*
X16997801Y-13144460D01*
X16997801Y-13144460D02*
X16988277Y-13125412D01*
X16988277Y-13125412D02*
X16988277Y-13106365D01*
X16988277Y-13106365D02*
X16997801Y-13087317D01*
X16997801Y-13087317D02*
X17016848Y-13077793D01*
X17016848Y-13077793D02*
X17064467Y-13077793D01*
X17064467Y-13077793D02*
X17083515Y-13068269D01*
X17178753Y-13020650D02*
X17178753Y-13220650D01*
X17178753Y-13030174D02*
X17197801Y-13020650D01*
X17197801Y-13020650D02*
X17235896Y-13020650D01*
X17235896Y-13020650D02*
X17254944Y-13030174D01*
X17254944Y-13030174D02*
X17264467Y-13039698D01*
X17264467Y-13039698D02*
X17273991Y-13058746D01*
X17273991Y-13058746D02*
X17273991Y-13115888D01*
X17273991Y-13115888D02*
X17264467Y-13134936D01*
X17264467Y-13134936D02*
X17254944Y-13144460D01*
X17254944Y-13144460D02*
X17235896Y-13153984D01*
X17235896Y-13153984D02*
X17197801Y-13153984D01*
X17197801Y-13153984D02*
X17178753Y-13144460D01*
X17359705Y-13134936D02*
X17369229Y-13144460D01*
X17369229Y-13144460D02*
X17359705Y-13153984D01*
X17359705Y-13153984D02*
X17350182Y-13144460D01*
X17350182Y-13144460D02*
X17359705Y-13134936D01*
X17359705Y-13134936D02*
X17359705Y-13153984D01*
X17359705Y-13030174D02*
X17369229Y-13039698D01*
X17369229Y-13039698D02*
X17359705Y-13049222D01*
X17359705Y-13049222D02*
X17350182Y-13039698D01*
X17350182Y-13039698D02*
X17359705Y-13030174D01*
X17359705Y-13030174D02*
X17359705Y-13049222D01*
D12*
X15662500Y-13450000D02*
X15727500Y-13515000D01*
X15727500Y-13450000D02*
X15662500Y-13515000D01*
D11*
X16026372Y-13373984D02*
X16045420Y-13373984D01*
X16045420Y-13373984D02*
X16064467Y-13383508D01*
X16064467Y-13383508D02*
X16073991Y-13393031D01*
X16073991Y-13393031D02*
X16083515Y-13412079D01*
X16083515Y-13412079D02*
X16093039Y-13450174D01*
X16093039Y-13450174D02*
X16093039Y-13497793D01*
X16093039Y-13497793D02*
X16083515Y-13535888D01*
X16083515Y-13535888D02*
X16073991Y-13554936D01*
X16073991Y-13554936D02*
X16064467Y-13564460D01*
X16064467Y-13564460D02*
X16045420Y-13573984D01*
X16045420Y-13573984D02*
X16026372Y-13573984D01*
X16026372Y-13573984D02*
X16007324Y-13564460D01*
X16007324Y-13564460D02*
X15997801Y-13554936D01*
X15997801Y-13554936D02*
X15988277Y-13535888D01*
X15988277Y-13535888D02*
X15978753Y-13497793D01*
X15978753Y-13497793D02*
X15978753Y-13450174D01*
X15978753Y-13450174D02*
X15988277Y-13412079D01*
X15988277Y-13412079D02*
X15997801Y-13393031D01*
X15997801Y-13393031D02*
X16007324Y-13383508D01*
X16007324Y-13383508D02*
X16026372Y-13373984D01*
X16178753Y-13554936D02*
X16188277Y-13564460D01*
X16188277Y-13564460D02*
X16178753Y-13573984D01*
X16178753Y-13573984D02*
X16169229Y-13564460D01*
X16169229Y-13564460D02*
X16178753Y-13554936D01*
X16178753Y-13554936D02*
X16178753Y-13573984D01*
X16359705Y-13373984D02*
X16321610Y-13373984D01*
X16321610Y-13373984D02*
X16302562Y-13383508D01*
X16302562Y-13383508D02*
X16293039Y-13393031D01*
X16293039Y-13393031D02*
X16273991Y-13421603D01*
X16273991Y-13421603D02*
X16264467Y-13459698D01*
X16264467Y-13459698D02*
X16264467Y-13535888D01*
X16264467Y-13535888D02*
X16273991Y-13554936D01*
X16273991Y-13554936D02*
X16283515Y-13564460D01*
X16283515Y-13564460D02*
X16302562Y-13573984D01*
X16302562Y-13573984D02*
X16340658Y-13573984D01*
X16340658Y-13573984D02*
X16359705Y-13564460D01*
X16359705Y-13564460D02*
X16369229Y-13554936D01*
X16369229Y-13554936D02*
X16378753Y-13535888D01*
X16378753Y-13535888D02*
X16378753Y-13488269D01*
X16378753Y-13488269D02*
X16369229Y-13469222D01*
X16369229Y-13469222D02*
X16359705Y-13459698D01*
X16359705Y-13459698D02*
X16340658Y-13450174D01*
X16340658Y-13450174D02*
X16302562Y-13450174D01*
X16302562Y-13450174D02*
X16283515Y-13459698D01*
X16283515Y-13459698D02*
X16273991Y-13469222D01*
X16273991Y-13469222D02*
X16264467Y-13488269D01*
X16559705Y-13373984D02*
X16464467Y-13373984D01*
X16464467Y-13373984D02*
X16454943Y-13469222D01*
X16454943Y-13469222D02*
X16464467Y-13459698D01*
X16464467Y-13459698D02*
X16483515Y-13450174D01*
X16483515Y-13450174D02*
X16531134Y-13450174D01*
X16531134Y-13450174D02*
X16550182Y-13459698D01*
X16550182Y-13459698D02*
X16559705Y-13469222D01*
X16559705Y-13469222D02*
X16569229Y-13488269D01*
X16569229Y-13488269D02*
X16569229Y-13535888D01*
X16569229Y-13535888D02*
X16559705Y-13554936D01*
X16559705Y-13554936D02*
X16550182Y-13564460D01*
X16550182Y-13564460D02*
X16531134Y-13573984D01*
X16531134Y-13573984D02*
X16483515Y-13573984D01*
X16483515Y-13573984D02*
X16464467Y-13564460D01*
X16464467Y-13564460D02*
X16454943Y-13554936D01*
X16693039Y-13373984D02*
X16712086Y-13373984D01*
X16712086Y-13373984D02*
X16731134Y-13383508D01*
X16731134Y-13383508D02*
X16740658Y-13393031D01*
X16740658Y-13393031D02*
X16750182Y-13412079D01*
X16750182Y-13412079D02*
X16759705Y-13450174D01*
X16759705Y-13450174D02*
X16759705Y-13497793D01*
X16759705Y-13497793D02*
X16750182Y-13535888D01*
X16750182Y-13535888D02*
X16740658Y-13554936D01*
X16740658Y-13554936D02*
X16731134Y-13564460D01*
X16731134Y-13564460D02*
X16712086Y-13573984D01*
X16712086Y-13573984D02*
X16693039Y-13573984D01*
X16693039Y-13573984D02*
X16673991Y-13564460D01*
X16673991Y-13564460D02*
X16664467Y-13554936D01*
X16664467Y-13554936D02*
X16654943Y-13535888D01*
X16654943Y-13535888D02*
X16645420Y-13497793D01*
X16645420Y-13497793D02*
X16645420Y-13450174D01*
X16645420Y-13450174D02*
X16654943Y-13412079D01*
X16654943Y-13412079D02*
X16664467Y-13393031D01*
X16664467Y-13393031D02*
X16673991Y-13383508D01*
X16673991Y-13383508D02*
X16693039Y-13373984D01*
X16845420Y-13573984D02*
X16845420Y-13440650D01*
X16845420Y-13459698D02*
X16854944Y-13450174D01*
X16854944Y-13450174D02*
X16873991Y-13440650D01*
X16873991Y-13440650D02*
X16902563Y-13440650D01*
X16902563Y-13440650D02*
X16921610Y-13450174D01*
X16921610Y-13450174D02*
X16931134Y-13469222D01*
X16931134Y-13469222D02*
X16931134Y-13573984D01*
X16931134Y-13469222D02*
X16940658Y-13450174D01*
X16940658Y-13450174D02*
X16959705Y-13440650D01*
X16959705Y-13440650D02*
X16988277Y-13440650D01*
X16988277Y-13440650D02*
X17007325Y-13450174D01*
X17007325Y-13450174D02*
X17016848Y-13469222D01*
X17016848Y-13469222D02*
X17016848Y-13573984D01*
X17112086Y-13573984D02*
X17112086Y-13440650D01*
X17112086Y-13459698D02*
X17121610Y-13450174D01*
X17121610Y-13450174D02*
X17140658Y-13440650D01*
X17140658Y-13440650D02*
X17169229Y-13440650D01*
X17169229Y-13440650D02*
X17188277Y-13450174D01*
X17188277Y-13450174D02*
X17197801Y-13469222D01*
X17197801Y-13469222D02*
X17197801Y-13573984D01*
X17197801Y-13469222D02*
X17207325Y-13450174D01*
X17207325Y-13450174D02*
X17226372Y-13440650D01*
X17226372Y-13440650D02*
X17254944Y-13440650D01*
X17254944Y-13440650D02*
X17273991Y-13450174D01*
X17273991Y-13450174D02*
X17283515Y-13469222D01*
X17283515Y-13469222D02*
X17283515Y-13573984D01*
X17673991Y-13364460D02*
X17502563Y-13621603D01*
X17931134Y-13373984D02*
X17950182Y-13373984D01*
X17950182Y-13373984D02*
X17969229Y-13383508D01*
X17969229Y-13383508D02*
X17978753Y-13393031D01*
X17978753Y-13393031D02*
X17988277Y-13412079D01*
X17988277Y-13412079D02*
X17997801Y-13450174D01*
X17997801Y-13450174D02*
X17997801Y-13497793D01*
X17997801Y-13497793D02*
X17988277Y-13535888D01*
X17988277Y-13535888D02*
X17978753Y-13554936D01*
X17978753Y-13554936D02*
X17969229Y-13564460D01*
X17969229Y-13564460D02*
X17950182Y-13573984D01*
X17950182Y-13573984D02*
X17931134Y-13573984D01*
X17931134Y-13573984D02*
X17912087Y-13564460D01*
X17912087Y-13564460D02*
X17902563Y-13554936D01*
X17902563Y-13554936D02*
X17893039Y-13535888D01*
X17893039Y-13535888D02*
X17883515Y-13497793D01*
X17883515Y-13497793D02*
X17883515Y-13450174D01*
X17883515Y-13450174D02*
X17893039Y-13412079D01*
X17893039Y-13412079D02*
X17902563Y-13393031D01*
X17902563Y-13393031D02*
X17912087Y-13383508D01*
X17912087Y-13383508D02*
X17931134Y-13373984D01*
X18083515Y-13554936D02*
X18093039Y-13564460D01*
X18093039Y-13564460D02*
X18083515Y-13573984D01*
X18083515Y-13573984D02*
X18073991Y-13564460D01*
X18073991Y-13564460D02*
X18083515Y-13554936D01*
X18083515Y-13554936D02*
X18083515Y-13573984D01*
X18216848Y-13373984D02*
X18235896Y-13373984D01*
X18235896Y-13373984D02*
X18254944Y-13383508D01*
X18254944Y-13383508D02*
X18264468Y-13393031D01*
X18264468Y-13393031D02*
X18273991Y-13412079D01*
X18273991Y-13412079D02*
X18283515Y-13450174D01*
X18283515Y-13450174D02*
X18283515Y-13497793D01*
X18283515Y-13497793D02*
X18273991Y-13535888D01*
X18273991Y-13535888D02*
X18264468Y-13554936D01*
X18264468Y-13554936D02*
X18254944Y-13564460D01*
X18254944Y-13564460D02*
X18235896Y-13573984D01*
X18235896Y-13573984D02*
X18216848Y-13573984D01*
X18216848Y-13573984D02*
X18197801Y-13564460D01*
X18197801Y-13564460D02*
X18188277Y-13554936D01*
X18188277Y-13554936D02*
X18178753Y-13535888D01*
X18178753Y-13535888D02*
X18169229Y-13497793D01*
X18169229Y-13497793D02*
X18169229Y-13450174D01*
X18169229Y-13450174D02*
X18178753Y-13412079D01*
X18178753Y-13412079D02*
X18188277Y-13393031D01*
X18188277Y-13393031D02*
X18197801Y-13383508D01*
X18197801Y-13383508D02*
X18216848Y-13373984D01*
X18359706Y-13393031D02*
X18369229Y-13383508D01*
X18369229Y-13383508D02*
X18388277Y-13373984D01*
X18388277Y-13373984D02*
X18435896Y-13373984D01*
X18435896Y-13373984D02*
X18454944Y-13383508D01*
X18454944Y-13383508D02*
X18464468Y-13393031D01*
X18464468Y-13393031D02*
X18473991Y-13412079D01*
X18473991Y-13412079D02*
X18473991Y-13431127D01*
X18473991Y-13431127D02*
X18464468Y-13459698D01*
X18464468Y-13459698D02*
X18350182Y-13573984D01*
X18350182Y-13573984D02*
X18473991Y-13573984D01*
X18654944Y-13373984D02*
X18559706Y-13373984D01*
X18559706Y-13373984D02*
X18550182Y-13469222D01*
X18550182Y-13469222D02*
X18559706Y-13459698D01*
X18559706Y-13459698D02*
X18578753Y-13450174D01*
X18578753Y-13450174D02*
X18626372Y-13450174D01*
X18626372Y-13450174D02*
X18645420Y-13459698D01*
X18645420Y-13459698D02*
X18654944Y-13469222D01*
X18654944Y-13469222D02*
X18664468Y-13488269D01*
X18664468Y-13488269D02*
X18664468Y-13535888D01*
X18664468Y-13535888D02*
X18654944Y-13554936D01*
X18654944Y-13554936D02*
X18645420Y-13564460D01*
X18645420Y-13564460D02*
X18626372Y-13573984D01*
X18626372Y-13573984D02*
X18578753Y-13573984D01*
X18578753Y-13573984D02*
X18559706Y-13564460D01*
X18559706Y-13564460D02*
X18550182Y-13554936D01*
X18835896Y-13373984D02*
X18797801Y-13373984D01*
X18797801Y-13373984D02*
X18778753Y-13383508D01*
X18778753Y-13383508D02*
X18769229Y-13393031D01*
X18769229Y-13393031D02*
X18750182Y-13421603D01*
X18750182Y-13421603D02*
X18740658Y-13459698D01*
X18740658Y-13459698D02*
X18740658Y-13535888D01*
X18740658Y-13535888D02*
X18750182Y-13554936D01*
X18750182Y-13554936D02*
X18759706Y-13564460D01*
X18759706Y-13564460D02*
X18778753Y-13573984D01*
X18778753Y-13573984D02*
X18816849Y-13573984D01*
X18816849Y-13573984D02*
X18835896Y-13564460D01*
X18835896Y-13564460D02*
X18845420Y-13554936D01*
X18845420Y-13554936D02*
X18854944Y-13535888D01*
X18854944Y-13535888D02*
X18854944Y-13488269D01*
X18854944Y-13488269D02*
X18845420Y-13469222D01*
X18845420Y-13469222D02*
X18835896Y-13459698D01*
X18835896Y-13459698D02*
X18816849Y-13450174D01*
X18816849Y-13450174D02*
X18778753Y-13450174D01*
X18778753Y-13450174D02*
X18759706Y-13459698D01*
X18759706Y-13459698D02*
X18750182Y-13469222D01*
X18750182Y-13469222D02*
X18740658Y-13488269D01*
X18931134Y-13373984D02*
X18931134Y-13412079D01*
X19007325Y-13373984D02*
X19007325Y-13412079D01*
X19302563Y-13650174D02*
X19293039Y-13640650D01*
X19293039Y-13640650D02*
X19273991Y-13612079D01*
X19273991Y-13612079D02*
X19264468Y-13593031D01*
X19264468Y-13593031D02*
X19254944Y-13564460D01*
X19254944Y-13564460D02*
X19245420Y-13516841D01*
X19245420Y-13516841D02*
X19245420Y-13478746D01*
X19245420Y-13478746D02*
X19254944Y-13431127D01*
X19254944Y-13431127D02*
X19264468Y-13402555D01*
X19264468Y-13402555D02*
X19273991Y-13383508D01*
X19273991Y-13383508D02*
X19293039Y-13354936D01*
X19293039Y-13354936D02*
X19302563Y-13345412D01*
X19369230Y-13393031D02*
X19378753Y-13383508D01*
X19378753Y-13383508D02*
X19397801Y-13373984D01*
X19397801Y-13373984D02*
X19445420Y-13373984D01*
X19445420Y-13373984D02*
X19464468Y-13383508D01*
X19464468Y-13383508D02*
X19473991Y-13393031D01*
X19473991Y-13393031D02*
X19483515Y-13412079D01*
X19483515Y-13412079D02*
X19483515Y-13431127D01*
X19483515Y-13431127D02*
X19473991Y-13459698D01*
X19473991Y-13459698D02*
X19359706Y-13573984D01*
X19359706Y-13573984D02*
X19483515Y-13573984D01*
X19721611Y-13573984D02*
X19721611Y-13373984D01*
X19807325Y-13573984D02*
X19807325Y-13469222D01*
X19807325Y-13469222D02*
X19797801Y-13450174D01*
X19797801Y-13450174D02*
X19778753Y-13440650D01*
X19778753Y-13440650D02*
X19750182Y-13440650D01*
X19750182Y-13440650D02*
X19731134Y-13450174D01*
X19731134Y-13450174D02*
X19721611Y-13459698D01*
X19931134Y-13573984D02*
X19912087Y-13564460D01*
X19912087Y-13564460D02*
X19902563Y-13554936D01*
X19902563Y-13554936D02*
X19893039Y-13535888D01*
X19893039Y-13535888D02*
X19893039Y-13478746D01*
X19893039Y-13478746D02*
X19902563Y-13459698D01*
X19902563Y-13459698D02*
X19912087Y-13450174D01*
X19912087Y-13450174D02*
X19931134Y-13440650D01*
X19931134Y-13440650D02*
X19959706Y-13440650D01*
X19959706Y-13440650D02*
X19978753Y-13450174D01*
X19978753Y-13450174D02*
X19988277Y-13459698D01*
X19988277Y-13459698D02*
X19997801Y-13478746D01*
X19997801Y-13478746D02*
X19997801Y-13535888D01*
X19997801Y-13535888D02*
X19988277Y-13554936D01*
X19988277Y-13554936D02*
X19978753Y-13564460D01*
X19978753Y-13564460D02*
X19959706Y-13573984D01*
X19959706Y-13573984D02*
X19931134Y-13573984D01*
X20112087Y-13573984D02*
X20093039Y-13564460D01*
X20093039Y-13564460D02*
X20083515Y-13545412D01*
X20083515Y-13545412D02*
X20083515Y-13373984D01*
X20264468Y-13564460D02*
X20245420Y-13573984D01*
X20245420Y-13573984D02*
X20207325Y-13573984D01*
X20207325Y-13573984D02*
X20188277Y-13564460D01*
X20188277Y-13564460D02*
X20178753Y-13545412D01*
X20178753Y-13545412D02*
X20178753Y-13469222D01*
X20178753Y-13469222D02*
X20188277Y-13450174D01*
X20188277Y-13450174D02*
X20207325Y-13440650D01*
X20207325Y-13440650D02*
X20245420Y-13440650D01*
X20245420Y-13440650D02*
X20264468Y-13450174D01*
X20264468Y-13450174D02*
X20273992Y-13469222D01*
X20273992Y-13469222D02*
X20273992Y-13488269D01*
X20273992Y-13488269D02*
X20178753Y-13507317D01*
X20350182Y-13564460D02*
X20369230Y-13573984D01*
X20369230Y-13573984D02*
X20407325Y-13573984D01*
X20407325Y-13573984D02*
X20426373Y-13564460D01*
X20426373Y-13564460D02*
X20435896Y-13545412D01*
X20435896Y-13545412D02*
X20435896Y-13535888D01*
X20435896Y-13535888D02*
X20426373Y-13516841D01*
X20426373Y-13516841D02*
X20407325Y-13507317D01*
X20407325Y-13507317D02*
X20378753Y-13507317D01*
X20378753Y-13507317D02*
X20359706Y-13497793D01*
X20359706Y-13497793D02*
X20350182Y-13478746D01*
X20350182Y-13478746D02*
X20350182Y-13469222D01*
X20350182Y-13469222D02*
X20359706Y-13450174D01*
X20359706Y-13450174D02*
X20378753Y-13440650D01*
X20378753Y-13440650D02*
X20407325Y-13440650D01*
X20407325Y-13440650D02*
X20426373Y-13450174D01*
X20502563Y-13650174D02*
X20512087Y-13640650D01*
X20512087Y-13640650D02*
X20531134Y-13612079D01*
X20531134Y-13612079D02*
X20540658Y-13593031D01*
X20540658Y-13593031D02*
X20550182Y-13564460D01*
X20550182Y-13564460D02*
X20559706Y-13516841D01*
X20559706Y-13516841D02*
X20559706Y-13478746D01*
X20559706Y-13478746D02*
X20550182Y-13431127D01*
X20550182Y-13431127D02*
X20540658Y-13402555D01*
X20540658Y-13402555D02*
X20531134Y-13383508D01*
X20531134Y-13383508D02*
X20512087Y-13354936D01*
X20512087Y-13354936D02*
X20502563Y-13345412D01*
X20864468Y-13650174D02*
X20854944Y-13640650D01*
X20854944Y-13640650D02*
X20835896Y-13612079D01*
X20835896Y-13612079D02*
X20826373Y-13593031D01*
X20826373Y-13593031D02*
X20816849Y-13564460D01*
X20816849Y-13564460D02*
X20807325Y-13516841D01*
X20807325Y-13516841D02*
X20807325Y-13478746D01*
X20807325Y-13478746D02*
X20816849Y-13431127D01*
X20816849Y-13431127D02*
X20826373Y-13402555D01*
X20826373Y-13402555D02*
X20835896Y-13383508D01*
X20835896Y-13383508D02*
X20854944Y-13354936D01*
X20854944Y-13354936D02*
X20864468Y-13345412D01*
X20940658Y-13440650D02*
X20940658Y-13573984D01*
X20940658Y-13459698D02*
X20950182Y-13450174D01*
X20950182Y-13450174D02*
X20969230Y-13440650D01*
X20969230Y-13440650D02*
X20997801Y-13440650D01*
X20997801Y-13440650D02*
X21016849Y-13450174D01*
X21016849Y-13450174D02*
X21026373Y-13469222D01*
X21026373Y-13469222D02*
X21026373Y-13573984D01*
X21150182Y-13573984D02*
X21131134Y-13564460D01*
X21131134Y-13564460D02*
X21121611Y-13554936D01*
X21121611Y-13554936D02*
X21112087Y-13535888D01*
X21112087Y-13535888D02*
X21112087Y-13478746D01*
X21112087Y-13478746D02*
X21121611Y-13459698D01*
X21121611Y-13459698D02*
X21131134Y-13450174D01*
X21131134Y-13450174D02*
X21150182Y-13440650D01*
X21150182Y-13440650D02*
X21178754Y-13440650D01*
X21178754Y-13440650D02*
X21197801Y-13450174D01*
X21197801Y-13450174D02*
X21207325Y-13459698D01*
X21207325Y-13459698D02*
X21216849Y-13478746D01*
X21216849Y-13478746D02*
X21216849Y-13535888D01*
X21216849Y-13535888D02*
X21207325Y-13554936D01*
X21207325Y-13554936D02*
X21197801Y-13564460D01*
X21197801Y-13564460D02*
X21178754Y-13573984D01*
X21178754Y-13573984D02*
X21150182Y-13573984D01*
X21273992Y-13440650D02*
X21350182Y-13440650D01*
X21302563Y-13373984D02*
X21302563Y-13545412D01*
X21302563Y-13545412D02*
X21312087Y-13564460D01*
X21312087Y-13564460D02*
X21331134Y-13573984D01*
X21331134Y-13573984D02*
X21350182Y-13573984D01*
X21569230Y-13440650D02*
X21569230Y-13640650D01*
X21569230Y-13450174D02*
X21588277Y-13440650D01*
X21588277Y-13440650D02*
X21626373Y-13440650D01*
X21626373Y-13440650D02*
X21645420Y-13450174D01*
X21645420Y-13450174D02*
X21654944Y-13459698D01*
X21654944Y-13459698D02*
X21664468Y-13478746D01*
X21664468Y-13478746D02*
X21664468Y-13535888D01*
X21664468Y-13535888D02*
X21654944Y-13554936D01*
X21654944Y-13554936D02*
X21645420Y-13564460D01*
X21645420Y-13564460D02*
X21626373Y-13573984D01*
X21626373Y-13573984D02*
X21588277Y-13573984D01*
X21588277Y-13573984D02*
X21569230Y-13564460D01*
X21778754Y-13573984D02*
X21759706Y-13564460D01*
X21759706Y-13564460D02*
X21750182Y-13545412D01*
X21750182Y-13545412D02*
X21750182Y-13373984D01*
X21940658Y-13573984D02*
X21940658Y-13469222D01*
X21940658Y-13469222D02*
X21931135Y-13450174D01*
X21931135Y-13450174D02*
X21912087Y-13440650D01*
X21912087Y-13440650D02*
X21873992Y-13440650D01*
X21873992Y-13440650D02*
X21854944Y-13450174D01*
X21940658Y-13564460D02*
X21921611Y-13573984D01*
X21921611Y-13573984D02*
X21873992Y-13573984D01*
X21873992Y-13573984D02*
X21854944Y-13564460D01*
X21854944Y-13564460D02*
X21845420Y-13545412D01*
X21845420Y-13545412D02*
X21845420Y-13526365D01*
X21845420Y-13526365D02*
X21854944Y-13507317D01*
X21854944Y-13507317D02*
X21873992Y-13497793D01*
X21873992Y-13497793D02*
X21921611Y-13497793D01*
X21921611Y-13497793D02*
X21940658Y-13488269D01*
X22007325Y-13440650D02*
X22083515Y-13440650D01*
X22035896Y-13373984D02*
X22035896Y-13545412D01*
X22035896Y-13545412D02*
X22045420Y-13564460D01*
X22045420Y-13564460D02*
X22064468Y-13573984D01*
X22064468Y-13573984D02*
X22083515Y-13573984D01*
X22226373Y-13564460D02*
X22207325Y-13573984D01*
X22207325Y-13573984D02*
X22169230Y-13573984D01*
X22169230Y-13573984D02*
X22150182Y-13564460D01*
X22150182Y-13564460D02*
X22140658Y-13545412D01*
X22140658Y-13545412D02*
X22140658Y-13469222D01*
X22140658Y-13469222D02*
X22150182Y-13450174D01*
X22150182Y-13450174D02*
X22169230Y-13440650D01*
X22169230Y-13440650D02*
X22207325Y-13440650D01*
X22207325Y-13440650D02*
X22226373Y-13450174D01*
X22226373Y-13450174D02*
X22235896Y-13469222D01*
X22235896Y-13469222D02*
X22235896Y-13488269D01*
X22235896Y-13488269D02*
X22140658Y-13507317D01*
X22407325Y-13573984D02*
X22407325Y-13373984D01*
X22407325Y-13564460D02*
X22388277Y-13573984D01*
X22388277Y-13573984D02*
X22350182Y-13573984D01*
X22350182Y-13573984D02*
X22331135Y-13564460D01*
X22331135Y-13564460D02*
X22321611Y-13554936D01*
X22321611Y-13554936D02*
X22312087Y-13535888D01*
X22312087Y-13535888D02*
X22312087Y-13478746D01*
X22312087Y-13478746D02*
X22321611Y-13459698D01*
X22321611Y-13459698D02*
X22331135Y-13450174D01*
X22331135Y-13450174D02*
X22350182Y-13440650D01*
X22350182Y-13440650D02*
X22388277Y-13440650D01*
X22388277Y-13440650D02*
X22407325Y-13450174D01*
X22483515Y-13650174D02*
X22493039Y-13640650D01*
X22493039Y-13640650D02*
X22512087Y-13612079D01*
X22512087Y-13612079D02*
X22521611Y-13593031D01*
X22521611Y-13593031D02*
X22531134Y-13564460D01*
X22531134Y-13564460D02*
X22540658Y-13516841D01*
X22540658Y-13516841D02*
X22540658Y-13478746D01*
X22540658Y-13478746D02*
X22531134Y-13431127D01*
X22531134Y-13431127D02*
X22521611Y-13402555D01*
X22521611Y-13402555D02*
X22512087Y-13383508D01*
X22512087Y-13383508D02*
X22493039Y-13354936D01*
X22493039Y-13354936D02*
X22483515Y-13345412D01*
M02*
