G04 #@! TF.GenerationSoftware,KiCad,Pcbnew,9.0.7*
G04 #@! TF.CreationDate,2026-05-07T16:22:57+01:00*
G04 #@! TF.ProjectId,catboard,63617462-6f61-4726-942e-6b696361645f,rev?*
G04 #@! TF.SameCoordinates,Original*
G04 #@! TF.FileFunction,Copper,L2,Bot*
G04 #@! TF.FilePolarity,Positive*
%FSLAX46Y46*%
G04 Gerber Fmt 4.6, Leading zero omitted, Abs format (unit mm)*
G04 Created by KiCad (PCBNEW 9.0.7) date 2026-05-07 16:22:57*
%MOMM*%
%LPD*%
G01*
G04 APERTURE LIST*
G04 #@! TA.AperFunction,ComponentPad*
%ADD10R,1.700000X1.700000*%
G04 #@! TD*
G04 #@! TA.AperFunction,ComponentPad*
%ADD11C,1.700000*%
G04 #@! TD*
G04 #@! TA.AperFunction,HeatsinkPad*
%ADD12O,1.000000X2.100000*%
G04 #@! TD*
G04 #@! TA.AperFunction,HeatsinkPad*
%ADD13O,1.000000X1.600000*%
G04 #@! TD*
G04 #@! TA.AperFunction,ViaPad*
%ADD14C,0.600000*%
G04 #@! TD*
G04 #@! TA.AperFunction,Conductor*
%ADD15C,0.200000*%
G04 #@! TD*
G04 APERTURE END LIST*
D10*
G04 #@! TO.P,J4,1,Pin_1*
G04 #@! TO.N,SWCLK*
X165460000Y-126390000D03*
D11*
G04 #@! TO.P,J4,2,Pin_2*
G04 #@! TO.N,GND*
X168000000Y-126390000D03*
G04 #@! TO.P,J4,3,Pin_3*
G04 #@! TO.N,SWD*
X170540000Y-126390000D03*
G04 #@! TD*
D10*
G04 #@! TO.P,J2,1,Pin_1*
G04 #@! TO.N,GPI0*
X159110000Y-78370000D03*
D11*
G04 #@! TO.P,J2,2,Pin_2*
G04 #@! TO.N,GPI1*
X159110000Y-80910000D03*
G04 #@! TO.P,J2,3,Pin_3*
G04 #@! TO.N,GND*
X159110000Y-83450000D03*
G04 #@! TO.P,J2,4,Pin_4*
G04 #@! TO.N,GPI2*
X159110000Y-85990000D03*
G04 #@! TO.P,J2,5,Pin_5*
G04 #@! TO.N,GPI3*
X159110000Y-88530000D03*
G04 #@! TO.P,J2,6,Pin_6*
G04 #@! TO.N,GPI4*
X159110000Y-91070000D03*
G04 #@! TO.P,J2,7,Pin_7*
G04 #@! TO.N,GPI5*
X159110000Y-93610000D03*
G04 #@! TO.P,J2,8,Pin_8*
G04 #@! TO.N,GND*
X159110000Y-96150000D03*
G04 #@! TO.P,J2,9,Pin_9*
G04 #@! TO.N,GPI6*
X159110000Y-98690000D03*
G04 #@! TO.P,J2,10,Pin_10*
G04 #@! TO.N,GPI7*
X159110000Y-101230000D03*
G04 #@! TO.P,J2,11,Pin_11*
G04 #@! TO.N,GPI8*
X159110000Y-103770000D03*
G04 #@! TO.P,J2,12,Pin_12*
G04 #@! TO.N,GPI9*
X159110000Y-106310000D03*
G04 #@! TO.P,J2,13,Pin_13*
G04 #@! TO.N,GND*
X159110000Y-108850000D03*
G04 #@! TO.P,J2,14,Pin_14*
G04 #@! TO.N,GPI10*
X159110000Y-111390000D03*
G04 #@! TO.P,J2,15,Pin_15*
G04 #@! TO.N,GPI11*
X159110000Y-113930000D03*
G04 #@! TO.P,J2,16,Pin_16*
G04 #@! TO.N,GPI12*
X159110000Y-116470000D03*
G04 #@! TO.P,J2,17,Pin_17*
G04 #@! TO.N,GPI13*
X159110000Y-119010000D03*
G04 #@! TO.P,J2,18,Pin_18*
G04 #@! TO.N,GND*
X159110000Y-121550000D03*
G04 #@! TO.P,J2,19,Pin_19*
G04 #@! TO.N,GPI14*
X159110000Y-124090000D03*
G04 #@! TO.P,J2,20,Pin_20*
G04 #@! TO.N,GPI15*
X159110000Y-126630000D03*
G04 #@! TD*
D12*
G04 #@! TO.P,J1,S1,SHIELD*
G04 #@! TO.N,GND*
X172320000Y-82630000D03*
D13*
X172320000Y-78450000D03*
D12*
X163680000Y-82630000D03*
D13*
X163680000Y-78450000D03*
G04 #@! TD*
D10*
G04 #@! TO.P,J3,1,Pin_1*
G04 #@! TO.N,VBUS*
X176890000Y-78370000D03*
D11*
G04 #@! TO.P,J3,2,Pin_2*
G04 #@! TO.N,GPI29_ADC3*
X176890000Y-80910000D03*
G04 #@! TO.P,J3,3,Pin_3*
G04 #@! TO.N,GND*
X176890000Y-83450000D03*
G04 #@! TO.P,J3,4,Pin_4*
G04 #@! TO.N,GPI28_ADC2*
X176890000Y-85990000D03*
G04 #@! TO.P,J3,5,Pin_5*
G04 #@! TO.N,+3V3*
X176890000Y-88530000D03*
G04 #@! TO.P,J3,6,Pin_6*
G04 #@! TO.N,GPI27_ADC1*
X176890000Y-91070000D03*
G04 #@! TO.P,J3,7,Pin_7*
G04 #@! TO.N,GPI26_ADC0*
X176890000Y-93610000D03*
G04 #@! TO.P,J3,8,Pin_8*
G04 #@! TO.N,GND*
X176890000Y-96150000D03*
G04 #@! TO.P,J3,9,Pin_9*
G04 #@! TO.N,GPI24*
X176890000Y-98690000D03*
G04 #@! TO.P,J3,10,Pin_10*
G04 #@! TO.N,GPI23*
X176890000Y-101230000D03*
G04 #@! TO.P,J3,11,Pin_11*
G04 #@! TO.N,RUN*
X176890000Y-103770000D03*
G04 #@! TO.P,J3,12,Pin_12*
G04 #@! TO.N,GPI22*
X176890000Y-106310000D03*
G04 #@! TO.P,J3,13,Pin_13*
G04 #@! TO.N,GND*
X176890000Y-108850000D03*
G04 #@! TO.P,J3,14,Pin_14*
G04 #@! TO.N,GPI21*
X176890000Y-111390000D03*
G04 #@! TO.P,J3,15,Pin_15*
G04 #@! TO.N,GPI20*
X176890000Y-113930000D03*
G04 #@! TO.P,J3,16,Pin_16*
G04 #@! TO.N,GPI19*
X176890000Y-116470000D03*
G04 #@! TO.P,J3,17,Pin_17*
G04 #@! TO.N,GPI18*
X176890000Y-119010000D03*
G04 #@! TO.P,J3,18,Pin_18*
G04 #@! TO.N,GND*
X176890000Y-121550000D03*
G04 #@! TO.P,J3,19,Pin_19*
G04 #@! TO.N,GPI17*
X176890000Y-124090000D03*
G04 #@! TO.P,J3,20,Pin_20*
G04 #@! TO.N,GPI16*
X176890000Y-126630000D03*
G04 #@! TD*
D14*
G04 #@! TO.N,GND*
X164700000Y-113300000D03*
X169500000Y-87100000D03*
X168200000Y-117000000D03*
X161400000Y-107700000D03*
X165600000Y-105900000D03*
X167550000Y-96250000D03*
X165800000Y-96250000D03*
X164000000Y-103100000D03*
X163550000Y-100450000D03*
X171150000Y-100050000D03*
X167500000Y-87100000D03*
G04 #@! TO.N,+3V3*
X169400000Y-96200000D03*
X165700000Y-107300000D03*
X169200000Y-108800000D03*
X168750000Y-99650000D03*
X164800000Y-102750000D03*
X167500000Y-89500000D03*
X171800000Y-99400000D03*
G04 #@! TO.N,GPI1*
X163100000Y-103400000D03*
G04 #@! TO.N,GPI0*
X165550000Y-104100000D03*
G04 #@! TO.N,GPI2*
X162200000Y-101500000D03*
G04 #@! TO.N,RUN*
X170200000Y-109000000D03*
G04 #@! TO.N,GPI29_ADC3*
X174500000Y-90700000D03*
X173100000Y-104100000D03*
G04 #@! TO.N,QSPI_SS*
X171300000Y-92200000D03*
X163200000Y-96200000D03*
G04 #@! TO.N,+1V1*
X168200000Y-108600000D03*
X167800000Y-104000000D03*
G04 #@! TD*
D15*
G04 #@! TO.N,GND*
X165300000Y-113900000D02*
X165099000Y-113699000D01*
X164700000Y-113300000D02*
X165300000Y-113900000D01*
X159110000Y-96150000D02*
X157959000Y-97301000D01*
X163550000Y-100450000D02*
X163550000Y-102650000D01*
X171150000Y-100050000D02*
X171999943Y-100050000D01*
X165099000Y-106401000D02*
X165600000Y-105900000D01*
X169500000Y-87100000D02*
X167500000Y-87100000D01*
X168200000Y-116800000D02*
X168200000Y-117000000D01*
X160129000Y-100079000D02*
X160250000Y-100200000D01*
X172550000Y-99499943D02*
X172550000Y-99200000D01*
X165099000Y-113699000D02*
X165099000Y-106401000D01*
X160260000Y-107700000D02*
X161400000Y-107700000D01*
X158871240Y-100079000D02*
X160129000Y-100079000D01*
X164250000Y-103350000D02*
X164250000Y-103450000D01*
X157959000Y-99166760D02*
X158871240Y-100079000D01*
X157959000Y-97301000D02*
X157959000Y-99166760D01*
X167550000Y-96250000D02*
X165800000Y-96250000D01*
X163550000Y-102650000D02*
X164000000Y-103100000D01*
X164000000Y-103100000D02*
X164250000Y-103350000D01*
X165300000Y-113900000D02*
X168200000Y-116800000D01*
X171999943Y-100050000D02*
X172550000Y-99499943D01*
X159110000Y-108850000D02*
X160260000Y-107700000D01*
G04 #@! TO.N,+3V3*
X165800000Y-107400000D02*
X165700000Y-107300000D01*
X169400000Y-97000000D02*
X169400000Y-96200000D01*
X165650000Y-102750000D02*
X166000000Y-102400000D01*
X165800000Y-108700000D02*
X165800000Y-107400000D01*
X168799000Y-109201000D02*
X166301000Y-109201000D01*
X166301000Y-109201000D02*
X165800000Y-108700000D01*
X166000000Y-102400000D02*
X168750000Y-99650000D01*
X169200000Y-108800000D02*
X168799000Y-109201000D01*
X171800000Y-99400000D02*
X169400000Y-97000000D01*
X176890000Y-88530000D02*
X175920000Y-89500000D01*
X175920000Y-89500000D02*
X167500000Y-89500000D01*
X164800000Y-102750000D02*
X165650000Y-102750000D01*
G04 #@! TO.N,GPI1*
X160901000Y-82701000D02*
X159110000Y-80910000D01*
X160901000Y-99000000D02*
X160901000Y-82701000D01*
X163100000Y-103400000D02*
X163100000Y-101199000D01*
X163100000Y-101199000D02*
X160901000Y-99000000D01*
G04 #@! TO.N,GPI0*
X169351000Y-98401000D02*
X167900000Y-96950000D01*
X165550000Y-104100000D02*
X169351000Y-100299000D01*
X167900000Y-96950000D02*
X162350000Y-96950000D01*
X159110000Y-78370000D02*
X161302000Y-80562000D01*
X169351000Y-100299000D02*
X169351000Y-98401000D01*
X161302000Y-80562000D02*
X161302000Y-95902000D01*
X162350000Y-96950000D02*
X161302000Y-95902000D01*
G04 #@! TO.N,GPI2*
X162200000Y-100900000D02*
X160500000Y-99200000D01*
X160500000Y-87380000D02*
X159110000Y-85990000D01*
X160500000Y-99200000D02*
X160500000Y-87380000D01*
X162200000Y-101500000D02*
X162200000Y-100900000D01*
G04 #@! TO.N,RUN*
X174400000Y-109000000D02*
X175600000Y-107800000D01*
X170200000Y-109000000D02*
X174400000Y-109000000D01*
X175600000Y-107800000D02*
X175600000Y-105060000D01*
X175600000Y-105060000D02*
X176890000Y-103770000D01*
G04 #@! TO.N,GPI29_ADC3*
X173100000Y-104100000D02*
X174500000Y-102700000D01*
X174500000Y-102700000D02*
X174500000Y-90700000D01*
G04 #@! TO.N,QSPI_SS*
X171300000Y-92300000D02*
X171300000Y-92200000D01*
X168000000Y-95600000D02*
X171300000Y-92300000D01*
X163200000Y-96200000D02*
X163800000Y-95600000D01*
X163800000Y-95600000D02*
X168000000Y-95600000D01*
G04 #@! TO.N,+1V1*
X168200000Y-108600000D02*
X167800000Y-108200000D01*
X167800000Y-108200000D02*
X167800000Y-104000000D01*
G04 #@! TD*
G04 #@! TA.AperFunction,Conductor*
G04 #@! TO.N,GND*
G36*
X175802206Y-77120185D02*
G01*
X175847961Y-77172989D01*
X175857905Y-77242147D01*
X175828880Y-77305703D01*
X175822848Y-77312181D01*
X175787794Y-77347234D01*
X175742415Y-77450006D01*
X175742415Y-77450008D01*
X175739500Y-77475131D01*
X175739500Y-79264856D01*
X175739502Y-79264882D01*
X175742413Y-79289987D01*
X175742415Y-79289991D01*
X175787793Y-79392764D01*
X175787794Y-79392765D01*
X175867235Y-79472206D01*
X175970009Y-79517585D01*
X175995135Y-79520500D01*
X176732873Y-79520499D01*
X176799910Y-79540183D01*
X176845665Y-79592987D01*
X176855609Y-79662146D01*
X176826584Y-79725702D01*
X176767806Y-79763476D01*
X176752270Y-79766972D01*
X176620589Y-79787829D01*
X176448363Y-79843787D01*
X176448360Y-79843788D01*
X176287002Y-79926006D01*
X176140505Y-80032441D01*
X176140500Y-80032445D01*
X176012445Y-80160500D01*
X176012441Y-80160505D01*
X175906006Y-80307002D01*
X175823788Y-80468360D01*
X175823787Y-80468363D01*
X175767829Y-80640589D01*
X175739500Y-80819448D01*
X175739500Y-81000551D01*
X175767829Y-81179410D01*
X175823787Y-81351636D01*
X175823788Y-81351639D01*
X175906006Y-81512997D01*
X176012441Y-81659494D01*
X176012445Y-81659499D01*
X176140500Y-81787554D01*
X176140505Y-81787558D01*
X176264801Y-81877863D01*
X176287006Y-81893996D01*
X176356604Y-81929458D01*
X176448360Y-81976211D01*
X176448363Y-81976212D01*
X176525277Y-82001202D01*
X176620591Y-82032171D01*
X176740038Y-82051089D01*
X176782279Y-82057780D01*
X176845414Y-82087709D01*
X176882345Y-82147021D01*
X176881347Y-82216883D01*
X176842737Y-82275116D01*
X176782279Y-82302726D01*
X176620706Y-82328317D01*
X176448555Y-82384251D01*
X176448547Y-82384254D01*
X176287269Y-82466432D01*
X176271466Y-82477912D01*
X176271466Y-82477913D01*
X176760591Y-82967037D01*
X176697007Y-82984075D01*
X176582993Y-83049901D01*
X176489901Y-83142993D01*
X176424075Y-83257007D01*
X176407037Y-83320590D01*
X175917913Y-82831466D01*
X175917912Y-82831466D01*
X175906432Y-82847269D01*
X175824254Y-83008547D01*
X175824251Y-83008555D01*
X175768317Y-83180706D01*
X175740000Y-83359493D01*
X175740000Y-83540506D01*
X175768317Y-83719293D01*
X175824251Y-83891444D01*
X175824252Y-83891447D01*
X175906431Y-84052730D01*
X175917913Y-84068532D01*
X175917913Y-84068533D01*
X176407037Y-83579409D01*
X176424075Y-83642993D01*
X176489901Y-83757007D01*
X176582993Y-83850099D01*
X176697007Y-83915925D01*
X176760590Y-83932962D01*
X176271466Y-84422085D01*
X176271466Y-84422086D01*
X176287267Y-84433566D01*
X176287275Y-84433571D01*
X176448552Y-84515747D01*
X176448555Y-84515748D01*
X176620706Y-84571682D01*
X176782279Y-84597273D01*
X176845413Y-84627202D01*
X176882345Y-84686513D01*
X176881347Y-84756376D01*
X176842738Y-84814609D01*
X176782280Y-84842219D01*
X176620589Y-84867829D01*
X176448363Y-84923787D01*
X176448360Y-84923788D01*
X176287002Y-85006006D01*
X176140505Y-85112441D01*
X176140500Y-85112445D01*
X176012445Y-85240500D01*
X176012441Y-85240505D01*
X175906006Y-85387002D01*
X175823788Y-85548360D01*
X175823787Y-85548363D01*
X175767829Y-85720589D01*
X175739500Y-85899448D01*
X175739500Y-86080551D01*
X175767829Y-86259410D01*
X175823787Y-86431636D01*
X175823788Y-86431639D01*
X175866134Y-86514745D01*
X175900292Y-86581784D01*
X175906006Y-86592997D01*
X176012441Y-86739494D01*
X176012445Y-86739499D01*
X176140500Y-86867554D01*
X176140505Y-86867558D01*
X176268287Y-86960396D01*
X176287006Y-86973996D01*
X176392484Y-87027740D01*
X176448360Y-87056211D01*
X176448363Y-87056212D01*
X176534476Y-87084191D01*
X176620591Y-87112171D01*
X176693639Y-87123740D01*
X176780678Y-87137527D01*
X176843813Y-87167456D01*
X176880744Y-87226768D01*
X176879746Y-87296631D01*
X176841136Y-87354863D01*
X176780678Y-87382473D01*
X176620589Y-87407829D01*
X176448363Y-87463787D01*
X176448360Y-87463788D01*
X176287002Y-87546006D01*
X176140505Y-87652441D01*
X176140500Y-87652445D01*
X176012445Y-87780500D01*
X176012441Y-87780505D01*
X175906006Y-87927002D01*
X175823788Y-88088360D01*
X175823787Y-88088363D01*
X175767829Y-88260589D01*
X175739500Y-88439448D01*
X175739500Y-88620551D01*
X175767829Y-88799412D01*
X175812593Y-88937183D01*
X175814588Y-89007024D01*
X175778507Y-89066856D01*
X175715806Y-89097684D01*
X175694662Y-89099500D01*
X168000098Y-89099500D01*
X167933059Y-89079815D01*
X167912417Y-89063181D01*
X167868717Y-89019481D01*
X167868709Y-89019475D01*
X167731790Y-88940426D01*
X167731786Y-88940424D01*
X167731784Y-88940423D01*
X167579057Y-88899500D01*
X167420943Y-88899500D01*
X167268216Y-88940423D01*
X167268209Y-88940426D01*
X167131290Y-89019475D01*
X167131282Y-89019481D01*
X167019481Y-89131282D01*
X167019475Y-89131290D01*
X166940426Y-89268209D01*
X166940423Y-89268216D01*
X166899500Y-89420943D01*
X166899500Y-89579057D01*
X166933905Y-89707456D01*
X166940423Y-89731783D01*
X166940426Y-89731790D01*
X167019475Y-89868709D01*
X167019479Y-89868714D01*
X167019480Y-89868716D01*
X167131284Y-89980520D01*
X167131286Y-89980521D01*
X167131290Y-89980524D01*
X167238026Y-90042147D01*
X167268216Y-90059577D01*
X167420943Y-90100500D01*
X167420945Y-90100500D01*
X167579055Y-90100500D01*
X167579057Y-90100500D01*
X167731784Y-90059577D01*
X167868716Y-89980520D01*
X167912417Y-89936819D01*
X167973740Y-89903334D01*
X168000098Y-89900500D01*
X174224052Y-89900500D01*
X174291091Y-89920185D01*
X174336846Y-89972989D01*
X174346790Y-90042147D01*
X174317765Y-90105703D01*
X174275252Y-90136357D01*
X174275254Y-90136359D01*
X174275236Y-90136368D01*
X174271502Y-90139062D01*
X174268211Y-90140424D01*
X174131290Y-90219475D01*
X174131282Y-90219481D01*
X174019481Y-90331282D01*
X174019475Y-90331290D01*
X173940426Y-90468209D01*
X173940423Y-90468216D01*
X173899500Y-90620943D01*
X173899500Y-90779057D01*
X173905270Y-90800589D01*
X173940423Y-90931783D01*
X173940426Y-90931790D01*
X174019475Y-91068709D01*
X174019481Y-91068717D01*
X174063181Y-91112417D01*
X174096666Y-91173740D01*
X174099500Y-91200098D01*
X174099500Y-102482745D01*
X174079815Y-102549784D01*
X174063181Y-102570426D01*
X173170426Y-103463181D01*
X173109103Y-103496666D01*
X173082745Y-103499500D01*
X173020943Y-103499500D01*
X172868216Y-103540423D01*
X172868209Y-103540426D01*
X172731290Y-103619475D01*
X172731282Y-103619481D01*
X172619481Y-103731282D01*
X172619475Y-103731290D01*
X172540426Y-103868209D01*
X172540423Y-103868216D01*
X172499500Y-104020943D01*
X172499500Y-104179057D01*
X172534394Y-104309281D01*
X172540423Y-104331783D01*
X172540426Y-104331790D01*
X172619475Y-104468709D01*
X172619479Y-104468714D01*
X172619480Y-104468716D01*
X172731284Y-104580520D01*
X172731286Y-104580521D01*
X172731290Y-104580524D01*
X172847391Y-104647554D01*
X172868216Y-104659577D01*
X173020943Y-104700500D01*
X173020945Y-104700500D01*
X173179055Y-104700500D01*
X173179057Y-104700500D01*
X173331784Y-104659577D01*
X173468716Y-104580520D01*
X173580520Y-104468716D01*
X173659577Y-104331784D01*
X173700500Y-104179057D01*
X173700500Y-104117255D01*
X173720185Y-104050216D01*
X173736819Y-104029574D01*
X174269727Y-103496666D01*
X174820480Y-102945913D01*
X174873207Y-102854588D01*
X174900500Y-102752727D01*
X174900500Y-102647273D01*
X174900500Y-91200098D01*
X174920185Y-91133059D01*
X174936819Y-91112417D01*
X174980520Y-91068716D01*
X175059577Y-90931784D01*
X175100500Y-90779057D01*
X175100500Y-90620943D01*
X175059577Y-90468216D01*
X175058876Y-90467002D01*
X174980524Y-90331290D01*
X174980518Y-90331282D01*
X174868717Y-90219481D01*
X174868709Y-90219475D01*
X174731788Y-90140424D01*
X174728498Y-90139062D01*
X174726148Y-90137168D01*
X174724746Y-90136359D01*
X174724872Y-90136140D01*
X174674093Y-90095222D01*
X174652027Y-90028928D01*
X174669305Y-89961229D01*
X174720441Y-89913617D01*
X174775948Y-89900500D01*
X175972725Y-89900500D01*
X175972727Y-89900500D01*
X176074588Y-89873207D01*
X176165913Y-89820480D01*
X176350720Y-89635671D01*
X176412039Y-89602189D01*
X176476716Y-89605424D01*
X176620591Y-89652171D01*
X176693639Y-89663740D01*
X176780678Y-89677527D01*
X176843813Y-89707456D01*
X176880744Y-89766768D01*
X176879746Y-89836631D01*
X176841136Y-89894863D01*
X176780678Y-89922473D01*
X176620589Y-89947829D01*
X176448363Y-90003787D01*
X176448360Y-90003788D01*
X176287002Y-90086006D01*
X176140505Y-90192441D01*
X176140500Y-90192445D01*
X176012445Y-90320500D01*
X176012441Y-90320505D01*
X175906006Y-90467002D01*
X175823788Y-90628360D01*
X175823787Y-90628363D01*
X175767829Y-90800589D01*
X175739500Y-90979448D01*
X175739500Y-91160551D01*
X175767829Y-91339410D01*
X175823787Y-91511636D01*
X175823788Y-91511639D01*
X175906006Y-91672997D01*
X176012441Y-91819494D01*
X176012445Y-91819499D01*
X176140500Y-91947554D01*
X176140505Y-91947558D01*
X176268287Y-92040396D01*
X176287006Y-92053996D01*
X176392484Y-92107740D01*
X176448360Y-92136211D01*
X176448363Y-92136212D01*
X176534476Y-92164191D01*
X176620591Y-92192171D01*
X176693639Y-92203740D01*
X176780678Y-92217527D01*
X176843813Y-92247456D01*
X176880744Y-92306768D01*
X176879746Y-92376631D01*
X176841136Y-92434863D01*
X176780678Y-92462473D01*
X176620589Y-92487829D01*
X176448363Y-92543787D01*
X176448360Y-92543788D01*
X176287002Y-92626006D01*
X176140505Y-92732441D01*
X176140500Y-92732445D01*
X176012445Y-92860500D01*
X176012441Y-92860505D01*
X175906006Y-93007002D01*
X175823788Y-93168360D01*
X175823787Y-93168363D01*
X175767829Y-93340589D01*
X175739500Y-93519448D01*
X175739500Y-93700551D01*
X175767829Y-93879410D01*
X175823787Y-94051636D01*
X175823788Y-94051639D01*
X175906006Y-94212997D01*
X176012441Y-94359494D01*
X176012445Y-94359499D01*
X176140500Y-94487554D01*
X176140505Y-94487558D01*
X176268287Y-94580396D01*
X176287006Y-94593996D01*
X176392484Y-94647740D01*
X176448360Y-94676211D01*
X176448363Y-94676212D01*
X176534476Y-94704191D01*
X176620591Y-94732171D01*
X176740038Y-94751089D01*
X176782279Y-94757780D01*
X176845414Y-94787709D01*
X176882345Y-94847021D01*
X176881347Y-94916883D01*
X176842737Y-94975116D01*
X176782279Y-95002726D01*
X176620706Y-95028317D01*
X176448555Y-95084251D01*
X176448547Y-95084254D01*
X176287269Y-95166432D01*
X176271466Y-95177912D01*
X176271466Y-95177913D01*
X176760591Y-95667037D01*
X176697007Y-95684075D01*
X176582993Y-95749901D01*
X176489901Y-95842993D01*
X176424075Y-95957007D01*
X176407037Y-96020590D01*
X175917913Y-95531466D01*
X175917912Y-95531466D01*
X175906432Y-95547269D01*
X175824254Y-95708547D01*
X175824251Y-95708555D01*
X175768317Y-95880706D01*
X175740000Y-96059493D01*
X175740000Y-96240506D01*
X175768317Y-96419293D01*
X175824251Y-96591444D01*
X175824252Y-96591447D01*
X175906431Y-96752730D01*
X175917913Y-96768532D01*
X175917913Y-96768533D01*
X176407037Y-96279409D01*
X176424075Y-96342993D01*
X176489901Y-96457007D01*
X176582993Y-96550099D01*
X176697007Y-96615925D01*
X176760590Y-96632962D01*
X176271466Y-97122085D01*
X176271466Y-97122086D01*
X176287267Y-97133566D01*
X176287275Y-97133571D01*
X176448552Y-97215747D01*
X176448555Y-97215748D01*
X176620706Y-97271682D01*
X176782279Y-97297273D01*
X176845413Y-97327202D01*
X176882345Y-97386513D01*
X176881347Y-97456376D01*
X176842738Y-97514609D01*
X176782280Y-97542219D01*
X176620589Y-97567829D01*
X176448363Y-97623787D01*
X176448360Y-97623788D01*
X176287002Y-97706006D01*
X176140505Y-97812441D01*
X176140500Y-97812445D01*
X176012445Y-97940500D01*
X176012441Y-97940505D01*
X175906006Y-98087002D01*
X175823788Y-98248360D01*
X175823787Y-98248363D01*
X175767829Y-98420589D01*
X175739500Y-98599448D01*
X175739500Y-98780551D01*
X175767829Y-98959410D01*
X175823787Y-99131636D01*
X175823788Y-99131639D01*
X175879664Y-99241300D01*
X175900040Y-99281290D01*
X175906006Y-99292997D01*
X176012441Y-99439494D01*
X176012445Y-99439499D01*
X176140500Y-99567554D01*
X176140505Y-99567558D01*
X176268287Y-99660396D01*
X176287006Y-99673996D01*
X176392484Y-99727740D01*
X176448360Y-99756211D01*
X176448363Y-99756212D01*
X176486851Y-99768717D01*
X176620591Y-99812171D01*
X176693639Y-99823740D01*
X176780678Y-99837527D01*
X176843813Y-99867456D01*
X176880744Y-99926768D01*
X176879746Y-99996631D01*
X176841136Y-100054863D01*
X176780678Y-100082473D01*
X176620589Y-100107829D01*
X176448363Y-100163787D01*
X176448360Y-100163788D01*
X176287002Y-100246006D01*
X176140505Y-100352441D01*
X176140500Y-100352445D01*
X176012445Y-100480500D01*
X176012441Y-100480505D01*
X175906006Y-100627002D01*
X175823788Y-100788360D01*
X175823787Y-100788363D01*
X175767829Y-100960589D01*
X175739500Y-101139448D01*
X175739500Y-101320551D01*
X175767829Y-101499410D01*
X175823787Y-101671636D01*
X175823788Y-101671639D01*
X175906006Y-101832997D01*
X176012441Y-101979494D01*
X176012445Y-101979499D01*
X176140500Y-102107554D01*
X176140505Y-102107558D01*
X176268287Y-102200396D01*
X176287006Y-102213996D01*
X176392484Y-102267740D01*
X176448360Y-102296211D01*
X176448363Y-102296212D01*
X176500590Y-102313181D01*
X176620591Y-102352171D01*
X176693639Y-102363740D01*
X176780678Y-102377527D01*
X176843813Y-102407456D01*
X176880744Y-102466768D01*
X176879746Y-102536631D01*
X176841136Y-102594863D01*
X176780678Y-102622473D01*
X176620589Y-102647829D01*
X176448363Y-102703787D01*
X176448360Y-102703788D01*
X176287002Y-102786006D01*
X176140505Y-102892441D01*
X176140500Y-102892445D01*
X176012445Y-103020500D01*
X176012441Y-103020505D01*
X175906006Y-103167002D01*
X175823788Y-103328360D01*
X175823787Y-103328363D01*
X175767829Y-103500589D01*
X175739500Y-103679448D01*
X175739500Y-103860551D01*
X175767829Y-104039412D01*
X175814575Y-104183283D01*
X175816570Y-104253124D01*
X175784325Y-104309281D01*
X175279522Y-104814084D01*
X175279518Y-104814090D01*
X175226792Y-104905412D01*
X175226793Y-104905413D01*
X175199500Y-105007273D01*
X175199500Y-107582745D01*
X175179815Y-107649784D01*
X175163181Y-107670426D01*
X174270426Y-108563181D01*
X174209103Y-108596666D01*
X174182745Y-108599500D01*
X170700098Y-108599500D01*
X170633059Y-108579815D01*
X170612417Y-108563181D01*
X170568717Y-108519481D01*
X170568709Y-108519475D01*
X170431790Y-108440426D01*
X170431786Y-108440424D01*
X170431784Y-108440423D01*
X170279057Y-108399500D01*
X170120943Y-108399500D01*
X169968216Y-108440423D01*
X169968215Y-108440423D01*
X169863787Y-108500714D01*
X169795887Y-108517185D01*
X169729860Y-108494333D01*
X169694401Y-108455326D01*
X169680522Y-108431287D01*
X169680518Y-108431282D01*
X169568717Y-108319481D01*
X169568709Y-108319475D01*
X169431790Y-108240426D01*
X169431786Y-108240424D01*
X169431784Y-108240423D01*
X169279057Y-108199500D01*
X169120943Y-108199500D01*
X168968216Y-108240423D01*
X168968215Y-108240423D01*
X168863787Y-108300714D01*
X168795887Y-108317185D01*
X168729860Y-108294333D01*
X168694401Y-108255326D01*
X168680522Y-108231287D01*
X168680518Y-108231282D01*
X168568717Y-108119481D01*
X168568709Y-108119475D01*
X168431790Y-108040426D01*
X168431785Y-108040423D01*
X168343044Y-108016645D01*
X168292405Y-108003076D01*
X168232746Y-107966712D01*
X168202217Y-107903865D01*
X168200500Y-107883302D01*
X168200500Y-104500098D01*
X168220185Y-104433059D01*
X168236819Y-104412417D01*
X168280520Y-104368716D01*
X168359577Y-104231784D01*
X168400500Y-104079057D01*
X168400500Y-103920943D01*
X168359577Y-103768216D01*
X168338258Y-103731290D01*
X168280524Y-103631290D01*
X168280518Y-103631282D01*
X168168717Y-103519481D01*
X168168709Y-103519475D01*
X168031790Y-103440426D01*
X168031786Y-103440424D01*
X168031784Y-103440423D01*
X167879057Y-103399500D01*
X167720943Y-103399500D01*
X167568216Y-103440423D01*
X167568209Y-103440426D01*
X167431290Y-103519475D01*
X167431282Y-103519481D01*
X167319481Y-103631282D01*
X167319475Y-103631290D01*
X167240426Y-103768209D01*
X167240423Y-103768216D01*
X167199500Y-103920943D01*
X167199500Y-104079057D01*
X167235026Y-104211640D01*
X167240423Y-104231783D01*
X167240426Y-104231790D01*
X167319475Y-104368709D01*
X167319481Y-104368717D01*
X167363181Y-104412417D01*
X167396666Y-104473740D01*
X167399500Y-104500098D01*
X167399500Y-108147273D01*
X167399500Y-108252727D01*
X167410648Y-108294333D01*
X167426793Y-108354589D01*
X167448683Y-108392503D01*
X167479520Y-108445913D01*
X167479522Y-108445915D01*
X167563181Y-108529574D01*
X167577884Y-108556501D01*
X167594477Y-108582320D01*
X167595368Y-108588520D01*
X167596666Y-108590897D01*
X167599500Y-108617255D01*
X167599500Y-108676500D01*
X167579815Y-108743539D01*
X167527011Y-108789294D01*
X167475500Y-108800500D01*
X166518255Y-108800500D01*
X166451216Y-108780815D01*
X166430574Y-108764181D01*
X166236819Y-108570426D01*
X166203334Y-108509103D01*
X166200500Y-108482745D01*
X166200500Y-107667334D01*
X166217113Y-107605334D01*
X166259577Y-107531784D01*
X166300500Y-107379057D01*
X166300500Y-107220943D01*
X166259577Y-107068216D01*
X166259573Y-107068209D01*
X166180524Y-106931290D01*
X166180518Y-106931282D01*
X166068717Y-106819481D01*
X166068709Y-106819475D01*
X165931790Y-106740426D01*
X165931786Y-106740424D01*
X165931784Y-106740423D01*
X165779057Y-106699500D01*
X165620943Y-106699500D01*
X165468216Y-106740423D01*
X165468209Y-106740426D01*
X165331290Y-106819475D01*
X165331282Y-106819481D01*
X165219481Y-106931282D01*
X165219475Y-106931290D01*
X165140426Y-107068209D01*
X165140423Y-107068216D01*
X165099500Y-107220943D01*
X165099500Y-107379056D01*
X165140423Y-107531783D01*
X165140426Y-107531790D01*
X165219475Y-107668709D01*
X165219481Y-107668717D01*
X165331284Y-107780520D01*
X165337499Y-107784108D01*
X165385715Y-107834675D01*
X165399500Y-107891496D01*
X165399500Y-108752726D01*
X165426793Y-108854589D01*
X165453156Y-108900250D01*
X165479520Y-108945913D01*
X166055087Y-109521480D01*
X166146412Y-109574207D01*
X166248273Y-109601500D01*
X166248275Y-109601500D01*
X168851725Y-109601500D01*
X168851727Y-109601500D01*
X168953588Y-109574207D01*
X169044913Y-109521480D01*
X169129574Y-109436819D01*
X169190897Y-109403334D01*
X169217255Y-109400500D01*
X169279055Y-109400500D01*
X169279057Y-109400500D01*
X169431784Y-109359577D01*
X169536212Y-109299285D01*
X169604111Y-109282813D01*
X169670138Y-109305666D01*
X169705598Y-109344672D01*
X169719480Y-109368716D01*
X169831284Y-109480520D01*
X169831286Y-109480521D01*
X169831290Y-109480524D01*
X169902229Y-109521480D01*
X169968216Y-109559577D01*
X170120943Y-109600500D01*
X170120945Y-109600500D01*
X170279055Y-109600500D01*
X170279057Y-109600500D01*
X170431784Y-109559577D01*
X170568716Y-109480520D01*
X170612417Y-109436819D01*
X170673740Y-109403334D01*
X170700098Y-109400500D01*
X174452725Y-109400500D01*
X174452727Y-109400500D01*
X174554588Y-109373207D01*
X174645913Y-109320480D01*
X175587262Y-108379130D01*
X175648583Y-108345647D01*
X175718274Y-108350631D01*
X175774208Y-108392503D01*
X175798625Y-108457967D01*
X175792872Y-108505130D01*
X175768317Y-108580704D01*
X175740000Y-108759493D01*
X175740000Y-108940506D01*
X175768317Y-109119293D01*
X175824251Y-109291444D01*
X175824252Y-109291447D01*
X175906431Y-109452730D01*
X175917913Y-109468532D01*
X175917913Y-109468533D01*
X176407037Y-108979408D01*
X176424075Y-109042993D01*
X176489901Y-109157007D01*
X176582993Y-109250099D01*
X176697007Y-109315925D01*
X176760590Y-109332962D01*
X176271466Y-109822085D01*
X176271466Y-109822086D01*
X176287267Y-109833566D01*
X176287275Y-109833571D01*
X176448552Y-109915747D01*
X176448555Y-109915748D01*
X176620706Y-109971682D01*
X176782279Y-109997273D01*
X176845413Y-110027202D01*
X176882345Y-110086513D01*
X176881347Y-110156376D01*
X176842738Y-110214609D01*
X176782280Y-110242219D01*
X176620589Y-110267829D01*
X176448363Y-110323787D01*
X176448360Y-110323788D01*
X176287002Y-110406006D01*
X176140505Y-110512441D01*
X176140500Y-110512445D01*
X176012445Y-110640500D01*
X176012441Y-110640505D01*
X175906006Y-110787002D01*
X175823788Y-110948360D01*
X175823787Y-110948363D01*
X175767829Y-111120589D01*
X175739500Y-111299448D01*
X175739500Y-111480551D01*
X175767829Y-111659410D01*
X175823787Y-111831636D01*
X175823788Y-111831639D01*
X175906006Y-111992997D01*
X176012441Y-112139494D01*
X176012445Y-112139499D01*
X176140500Y-112267554D01*
X176140505Y-112267558D01*
X176268287Y-112360396D01*
X176287006Y-112373996D01*
X176392484Y-112427740D01*
X176448360Y-112456211D01*
X176448363Y-112456212D01*
X176534476Y-112484191D01*
X176620591Y-112512171D01*
X176693639Y-112523740D01*
X176780678Y-112537527D01*
X176843813Y-112567456D01*
X176880744Y-112626768D01*
X176879746Y-112696631D01*
X176841136Y-112754863D01*
X176780678Y-112782473D01*
X176620589Y-112807829D01*
X176448363Y-112863787D01*
X176448360Y-112863788D01*
X176287002Y-112946006D01*
X176140505Y-113052441D01*
X176140500Y-113052445D01*
X176012445Y-113180500D01*
X176012441Y-113180505D01*
X175906006Y-113327002D01*
X175823788Y-113488360D01*
X175823787Y-113488363D01*
X175767829Y-113660589D01*
X175739500Y-113839448D01*
X175739500Y-114020551D01*
X175767829Y-114199410D01*
X175823787Y-114371636D01*
X175823788Y-114371639D01*
X175906006Y-114532997D01*
X176012441Y-114679494D01*
X176012445Y-114679499D01*
X176140500Y-114807554D01*
X176140505Y-114807558D01*
X176268287Y-114900396D01*
X176287006Y-114913996D01*
X176392484Y-114967740D01*
X176448360Y-114996211D01*
X176448363Y-114996212D01*
X176534476Y-115024191D01*
X176620591Y-115052171D01*
X176693639Y-115063740D01*
X176780678Y-115077527D01*
X176843813Y-115107456D01*
X176880744Y-115166768D01*
X176879746Y-115236631D01*
X176841136Y-115294863D01*
X176780678Y-115322473D01*
X176620589Y-115347829D01*
X176448363Y-115403787D01*
X176448360Y-115403788D01*
X176287002Y-115486006D01*
X176140505Y-115592441D01*
X176140500Y-115592445D01*
X176012445Y-115720500D01*
X176012441Y-115720505D01*
X175906006Y-115867002D01*
X175823788Y-116028360D01*
X175823787Y-116028363D01*
X175767829Y-116200589D01*
X175739500Y-116379448D01*
X175739500Y-116560551D01*
X175767829Y-116739410D01*
X175823787Y-116911636D01*
X175823788Y-116911639D01*
X175906006Y-117072997D01*
X176012441Y-117219494D01*
X176012445Y-117219499D01*
X176140500Y-117347554D01*
X176140505Y-117347558D01*
X176268287Y-117440396D01*
X176287006Y-117453996D01*
X176392484Y-117507740D01*
X176448360Y-117536211D01*
X176448363Y-117536212D01*
X176534476Y-117564191D01*
X176620591Y-117592171D01*
X176693639Y-117603740D01*
X176780678Y-117617527D01*
X176843813Y-117647456D01*
X176880744Y-117706768D01*
X176879746Y-117776631D01*
X176841136Y-117834863D01*
X176780678Y-117862473D01*
X176620589Y-117887829D01*
X176448363Y-117943787D01*
X176448360Y-117943788D01*
X176287002Y-118026006D01*
X176140505Y-118132441D01*
X176140500Y-118132445D01*
X176012445Y-118260500D01*
X176012441Y-118260505D01*
X175906006Y-118407002D01*
X175823788Y-118568360D01*
X175823787Y-118568363D01*
X175767829Y-118740589D01*
X175739500Y-118919448D01*
X175739500Y-119100551D01*
X175767829Y-119279410D01*
X175823787Y-119451636D01*
X175823788Y-119451639D01*
X175906006Y-119612997D01*
X176012441Y-119759494D01*
X176012445Y-119759499D01*
X176140500Y-119887554D01*
X176140505Y-119887558D01*
X176268287Y-119980396D01*
X176287006Y-119993996D01*
X176392484Y-120047740D01*
X176448360Y-120076211D01*
X176448363Y-120076212D01*
X176534476Y-120104191D01*
X176620591Y-120132171D01*
X176740038Y-120151089D01*
X176782279Y-120157780D01*
X176845414Y-120187709D01*
X176882345Y-120247021D01*
X176881347Y-120316883D01*
X176842737Y-120375116D01*
X176782279Y-120402726D01*
X176620706Y-120428317D01*
X176448555Y-120484251D01*
X176448547Y-120484254D01*
X176287269Y-120566432D01*
X176271466Y-120577912D01*
X176271466Y-120577913D01*
X176760591Y-121067037D01*
X176697007Y-121084075D01*
X176582993Y-121149901D01*
X176489901Y-121242993D01*
X176424075Y-121357007D01*
X176407037Y-121420590D01*
X175917913Y-120931466D01*
X175917912Y-120931466D01*
X175906432Y-120947269D01*
X175824254Y-121108547D01*
X175824251Y-121108555D01*
X175768317Y-121280706D01*
X175740000Y-121459493D01*
X175740000Y-121640506D01*
X175768317Y-121819293D01*
X175824251Y-121991444D01*
X175824252Y-121991447D01*
X175906431Y-122152730D01*
X175917913Y-122168532D01*
X175917913Y-122168533D01*
X176407037Y-121679409D01*
X176424075Y-121742993D01*
X176489901Y-121857007D01*
X176582993Y-121950099D01*
X176697007Y-122015925D01*
X176760590Y-122032962D01*
X176271466Y-122522085D01*
X176271466Y-122522086D01*
X176287267Y-122533566D01*
X176287275Y-122533571D01*
X176448552Y-122615747D01*
X176448555Y-122615748D01*
X176620706Y-122671682D01*
X176782279Y-122697273D01*
X176845413Y-122727202D01*
X176882345Y-122786513D01*
X176881347Y-122856376D01*
X176842738Y-122914609D01*
X176782280Y-122942219D01*
X176620589Y-122967829D01*
X176448363Y-123023787D01*
X176448360Y-123023788D01*
X176287002Y-123106006D01*
X176140505Y-123212441D01*
X176140500Y-123212445D01*
X176012445Y-123340500D01*
X176012441Y-123340505D01*
X175906006Y-123487002D01*
X175823788Y-123648360D01*
X175823787Y-123648363D01*
X175767829Y-123820589D01*
X175739500Y-123999448D01*
X175739500Y-124180551D01*
X175767829Y-124359410D01*
X175823787Y-124531636D01*
X175823788Y-124531639D01*
X175906006Y-124692997D01*
X176012441Y-124839494D01*
X176012445Y-124839499D01*
X176140500Y-124967554D01*
X176140505Y-124967558D01*
X176268287Y-125060396D01*
X176287006Y-125073996D01*
X176392484Y-125127740D01*
X176448360Y-125156211D01*
X176448363Y-125156212D01*
X176534476Y-125184191D01*
X176620591Y-125212171D01*
X176693639Y-125223740D01*
X176780678Y-125237527D01*
X176843813Y-125267456D01*
X176880744Y-125326768D01*
X176879746Y-125396631D01*
X176841136Y-125454863D01*
X176780678Y-125482473D01*
X176620589Y-125507829D01*
X176448363Y-125563787D01*
X176448360Y-125563788D01*
X176287002Y-125646006D01*
X176140505Y-125752441D01*
X176140500Y-125752445D01*
X176012445Y-125880500D01*
X176012441Y-125880505D01*
X175906006Y-126027002D01*
X175823788Y-126188360D01*
X175823787Y-126188363D01*
X175767829Y-126360589D01*
X175739500Y-126539448D01*
X175739500Y-126720551D01*
X175767829Y-126899410D01*
X175823787Y-127071636D01*
X175823788Y-127071639D01*
X175906006Y-127232997D01*
X176012441Y-127379494D01*
X176012445Y-127379499D01*
X176140500Y-127507554D01*
X176140505Y-127507558D01*
X176268287Y-127600396D01*
X176287006Y-127613996D01*
X176387136Y-127665015D01*
X176437932Y-127712990D01*
X176454727Y-127780811D01*
X176432189Y-127846946D01*
X176377474Y-127890397D01*
X176330841Y-127899500D01*
X159669159Y-127899500D01*
X159602120Y-127879815D01*
X159556365Y-127827011D01*
X159546421Y-127757853D01*
X159575446Y-127694297D01*
X159612864Y-127665015D01*
X159712994Y-127613996D01*
X159859501Y-127507553D01*
X159987553Y-127379501D01*
X160093996Y-127232994D01*
X160176211Y-127071639D01*
X160232171Y-126899409D01*
X160249484Y-126790099D01*
X160260500Y-126720551D01*
X160260500Y-126539448D01*
X160238041Y-126397654D01*
X160232171Y-126360591D01*
X160191713Y-126236073D01*
X160176212Y-126188363D01*
X160176211Y-126188360D01*
X160122523Y-126082993D01*
X160093996Y-126027006D01*
X160067038Y-125989901D01*
X159987558Y-125880505D01*
X159987554Y-125880500D01*
X159859499Y-125752445D01*
X159859494Y-125752441D01*
X159712997Y-125646006D01*
X159712996Y-125646005D01*
X159712994Y-125646004D01*
X159626707Y-125602038D01*
X159626705Y-125602036D01*
X159551649Y-125563793D01*
X159551636Y-125563787D01*
X159379410Y-125507829D01*
X159299239Y-125495131D01*
X164309500Y-125495131D01*
X164309500Y-127284856D01*
X164309502Y-127284882D01*
X164312413Y-127309987D01*
X164312415Y-127309991D01*
X164357793Y-127412764D01*
X164357794Y-127412765D01*
X164437235Y-127492206D01*
X164540009Y-127537585D01*
X164565135Y-127540500D01*
X166354864Y-127540499D01*
X166354879Y-127540497D01*
X166354882Y-127540497D01*
X166379987Y-127537586D01*
X166379988Y-127537585D01*
X166379991Y-127537585D01*
X166482765Y-127492206D01*
X166562206Y-127412765D01*
X166607585Y-127309991D01*
X166610500Y-127284865D01*
X166610499Y-126543925D01*
X166630183Y-126476888D01*
X166682987Y-126431133D01*
X166752146Y-126421189D01*
X166815702Y-126450214D01*
X166853476Y-126508992D01*
X166856972Y-126524529D01*
X166878317Y-126659293D01*
X166934251Y-126831444D01*
X166934252Y-126831447D01*
X167016431Y-126992730D01*
X167027913Y-127008532D01*
X167027913Y-127008533D01*
X167517037Y-126519408D01*
X167534075Y-126582993D01*
X167599901Y-126697007D01*
X167692993Y-126790099D01*
X167807007Y-126855925D01*
X167870590Y-126872962D01*
X167381466Y-127362085D01*
X167381466Y-127362086D01*
X167397267Y-127373566D01*
X167397275Y-127373571D01*
X167558552Y-127455747D01*
X167558555Y-127455748D01*
X167730706Y-127511682D01*
X167909494Y-127540000D01*
X168090506Y-127540000D01*
X168269293Y-127511682D01*
X168441444Y-127455748D01*
X168441452Y-127455745D01*
X168602730Y-127373568D01*
X168618532Y-127362085D01*
X168618533Y-127362085D01*
X168129410Y-126872962D01*
X168192993Y-126855925D01*
X168307007Y-126790099D01*
X168400099Y-126697007D01*
X168465925Y-126582993D01*
X168482962Y-126519409D01*
X168972085Y-127008532D01*
X168983568Y-126992730D01*
X169065745Y-126831452D01*
X169065748Y-126831444D01*
X169121683Y-126659292D01*
X169147273Y-126497721D01*
X169177202Y-126434586D01*
X169236513Y-126397654D01*
X169306376Y-126398652D01*
X169364609Y-126437261D01*
X169392219Y-126497720D01*
X169417828Y-126659410D01*
X169473787Y-126831636D01*
X169473788Y-126831639D01*
X169508320Y-126899410D01*
X169555869Y-126992730D01*
X169556006Y-126992997D01*
X169662441Y-127139494D01*
X169662445Y-127139499D01*
X169790500Y-127267554D01*
X169790505Y-127267558D01*
X169918287Y-127360396D01*
X169937006Y-127373996D01*
X170013094Y-127412765D01*
X170098360Y-127456211D01*
X170098363Y-127456212D01*
X170184476Y-127484191D01*
X170270591Y-127512171D01*
X170353429Y-127525291D01*
X170449449Y-127540500D01*
X170449454Y-127540500D01*
X170630551Y-127540500D01*
X170717259Y-127526765D01*
X170809409Y-127512171D01*
X170981639Y-127456211D01*
X171142994Y-127373996D01*
X171289501Y-127267553D01*
X171417553Y-127139501D01*
X171523996Y-126992994D01*
X171606211Y-126831639D01*
X171662171Y-126659409D01*
X171676765Y-126567259D01*
X171690500Y-126480551D01*
X171690500Y-126299448D01*
X171672905Y-126188361D01*
X171662171Y-126120591D01*
X171606273Y-125948552D01*
X171606212Y-125948363D01*
X171606211Y-125948360D01*
X171571633Y-125880499D01*
X171523996Y-125787006D01*
X171498883Y-125752441D01*
X171417558Y-125640505D01*
X171417554Y-125640500D01*
X171289499Y-125512445D01*
X171289494Y-125512441D01*
X171142997Y-125406006D01*
X171142996Y-125406005D01*
X171142994Y-125406004D01*
X171066906Y-125367235D01*
X170981639Y-125323788D01*
X170981636Y-125323787D01*
X170809410Y-125267829D01*
X170630551Y-125239500D01*
X170630546Y-125239500D01*
X170449454Y-125239500D01*
X170449449Y-125239500D01*
X170270589Y-125267829D01*
X170098363Y-125323787D01*
X170098360Y-125323788D01*
X169937002Y-125406006D01*
X169790505Y-125512441D01*
X169790500Y-125512445D01*
X169662445Y-125640500D01*
X169662441Y-125640505D01*
X169556006Y-125787002D01*
X169473788Y-125948360D01*
X169473787Y-125948363D01*
X169417829Y-126120589D01*
X169392219Y-126282280D01*
X169362289Y-126345414D01*
X169302978Y-126382345D01*
X169233115Y-126381347D01*
X169174883Y-126342737D01*
X169147273Y-126282279D01*
X169121682Y-126120706D01*
X169065748Y-125948555D01*
X169065747Y-125948552D01*
X168983571Y-125787275D01*
X168983566Y-125787267D01*
X168972085Y-125771466D01*
X168482962Y-126260589D01*
X168465925Y-126197007D01*
X168400099Y-126082993D01*
X168307007Y-125989901D01*
X168192993Y-125924075D01*
X168129409Y-125907037D01*
X168618533Y-125417913D01*
X168602730Y-125406431D01*
X168441447Y-125324252D01*
X168441444Y-125324251D01*
X168269293Y-125268317D01*
X168090506Y-125240000D01*
X167909494Y-125240000D01*
X167730706Y-125268317D01*
X167558555Y-125324251D01*
X167558547Y-125324254D01*
X167397269Y-125406432D01*
X167381466Y-125417912D01*
X167381466Y-125417913D01*
X167870591Y-125907037D01*
X167807007Y-125924075D01*
X167692993Y-125989901D01*
X167599901Y-126082993D01*
X167534075Y-126197007D01*
X167517037Y-126260590D01*
X167027912Y-125771466D01*
X167016432Y-125787269D01*
X166934254Y-125948547D01*
X166934251Y-125948555D01*
X166878317Y-126120706D01*
X166856972Y-126255471D01*
X166827043Y-126318606D01*
X166767731Y-126355537D01*
X166697868Y-126354539D01*
X166639636Y-126315929D01*
X166611522Y-126251965D01*
X166610499Y-126236073D01*
X166610499Y-125495143D01*
X166610499Y-125495136D01*
X166609292Y-125484735D01*
X166608681Y-125479458D01*
X166608680Y-125479455D01*
X166607585Y-125470009D01*
X166562206Y-125367235D01*
X166482765Y-125287794D01*
X166438654Y-125268317D01*
X166379992Y-125242415D01*
X166354865Y-125239500D01*
X164565143Y-125239500D01*
X164565117Y-125239502D01*
X164540012Y-125242413D01*
X164540008Y-125242415D01*
X164437235Y-125287793D01*
X164357794Y-125367234D01*
X164312415Y-125470006D01*
X164312415Y-125470008D01*
X164309500Y-125495131D01*
X159299239Y-125495131D01*
X159219321Y-125482473D01*
X159156186Y-125452544D01*
X159119255Y-125393232D01*
X159120253Y-125323370D01*
X159158863Y-125265137D01*
X159219321Y-125237527D01*
X159289425Y-125226422D01*
X159379409Y-125212171D01*
X159551639Y-125156211D01*
X159712994Y-125073996D01*
X159859501Y-124967553D01*
X159987553Y-124839501D01*
X160093996Y-124692994D01*
X160176211Y-124531639D01*
X160232171Y-124359409D01*
X160246765Y-124267259D01*
X160260500Y-124180551D01*
X160260500Y-123999448D01*
X160244019Y-123895397D01*
X160232171Y-123820591D01*
X160196309Y-123710216D01*
X160176212Y-123648363D01*
X160176211Y-123648360D01*
X160147740Y-123592484D01*
X160093996Y-123487006D01*
X160080396Y-123468287D01*
X159987558Y-123340505D01*
X159987554Y-123340500D01*
X159859499Y-123212445D01*
X159859494Y-123212441D01*
X159712997Y-123106006D01*
X159712996Y-123106005D01*
X159712994Y-123106004D01*
X159661300Y-123079664D01*
X159551639Y-123023788D01*
X159551636Y-123023787D01*
X159379410Y-122967828D01*
X159217720Y-122942219D01*
X159154585Y-122912289D01*
X159117654Y-122852978D01*
X159118652Y-122783115D01*
X159157262Y-122724883D01*
X159217721Y-122697273D01*
X159379292Y-122671683D01*
X159551444Y-122615748D01*
X159551452Y-122615745D01*
X159712730Y-122533568D01*
X159728532Y-122522085D01*
X159728533Y-122522085D01*
X159239410Y-122032962D01*
X159302993Y-122015925D01*
X159417007Y-121950099D01*
X159510099Y-121857007D01*
X159575925Y-121742993D01*
X159592962Y-121679409D01*
X160082085Y-122168532D01*
X160093568Y-122152730D01*
X160175745Y-121991452D01*
X160175748Y-121991444D01*
X160231682Y-121819293D01*
X160260000Y-121640506D01*
X160260000Y-121459493D01*
X160231682Y-121280706D01*
X160175748Y-121108555D01*
X160175747Y-121108552D01*
X160093571Y-120947275D01*
X160093566Y-120947267D01*
X160082085Y-120931466D01*
X159592962Y-121420589D01*
X159575925Y-121357007D01*
X159510099Y-121242993D01*
X159417007Y-121149901D01*
X159302993Y-121084075D01*
X159239409Y-121067037D01*
X159728533Y-120577913D01*
X159712730Y-120566431D01*
X159551447Y-120484252D01*
X159551444Y-120484251D01*
X159379293Y-120428317D01*
X159217720Y-120402726D01*
X159154585Y-120372797D01*
X159117654Y-120313485D01*
X159118652Y-120243623D01*
X159157262Y-120185390D01*
X159217720Y-120157780D01*
X159232270Y-120155475D01*
X159379409Y-120132171D01*
X159551639Y-120076211D01*
X159712994Y-119993996D01*
X159859501Y-119887553D01*
X159987553Y-119759501D01*
X160093996Y-119612994D01*
X160176211Y-119451639D01*
X160232171Y-119279409D01*
X160246765Y-119187259D01*
X160260500Y-119100551D01*
X160260500Y-118919448D01*
X160244019Y-118815397D01*
X160232171Y-118740591D01*
X160196309Y-118630216D01*
X160176212Y-118568363D01*
X160176211Y-118568360D01*
X160147740Y-118512484D01*
X160093996Y-118407006D01*
X160080396Y-118388287D01*
X159987558Y-118260505D01*
X159987554Y-118260500D01*
X159859499Y-118132445D01*
X159859494Y-118132441D01*
X159712997Y-118026006D01*
X159712996Y-118026005D01*
X159712994Y-118026004D01*
X159661300Y-117999664D01*
X159551639Y-117943788D01*
X159551636Y-117943787D01*
X159379410Y-117887829D01*
X159219321Y-117862473D01*
X159156186Y-117832544D01*
X159119255Y-117773232D01*
X159120253Y-117703370D01*
X159158863Y-117645137D01*
X159219321Y-117617527D01*
X159289425Y-117606422D01*
X159379409Y-117592171D01*
X159551639Y-117536211D01*
X159712994Y-117453996D01*
X159859501Y-117347553D01*
X159987553Y-117219501D01*
X160093996Y-117072994D01*
X160176211Y-116911639D01*
X160232171Y-116739409D01*
X160246765Y-116647259D01*
X160260500Y-116560551D01*
X160260500Y-116379448D01*
X160244019Y-116275397D01*
X160232171Y-116200591D01*
X160196309Y-116090216D01*
X160176212Y-116028363D01*
X160176211Y-116028360D01*
X160147740Y-115972484D01*
X160093996Y-115867006D01*
X160080396Y-115848287D01*
X159987558Y-115720505D01*
X159987554Y-115720500D01*
X159859499Y-115592445D01*
X159859494Y-115592441D01*
X159712997Y-115486006D01*
X159712996Y-115486005D01*
X159712994Y-115486004D01*
X159661300Y-115459664D01*
X159551639Y-115403788D01*
X159551636Y-115403787D01*
X159379410Y-115347829D01*
X159219321Y-115322473D01*
X159156186Y-115292544D01*
X159119255Y-115233232D01*
X159120253Y-115163370D01*
X159158863Y-115105137D01*
X159219321Y-115077527D01*
X159289425Y-115066422D01*
X159379409Y-115052171D01*
X159551639Y-114996211D01*
X159712994Y-114913996D01*
X159859501Y-114807553D01*
X159987553Y-114679501D01*
X160093996Y-114532994D01*
X160176211Y-114371639D01*
X160232171Y-114199409D01*
X160246765Y-114107259D01*
X160260500Y-114020551D01*
X160260500Y-113839448D01*
X160244019Y-113735397D01*
X160232171Y-113660591D01*
X160196309Y-113550216D01*
X160176212Y-113488363D01*
X160176211Y-113488360D01*
X160147740Y-113432484D01*
X160093996Y-113327006D01*
X160080396Y-113308287D01*
X159987558Y-113180505D01*
X159987554Y-113180500D01*
X159859499Y-113052445D01*
X159859494Y-113052441D01*
X159712997Y-112946006D01*
X159712996Y-112946005D01*
X159712994Y-112946004D01*
X159661300Y-112919664D01*
X159551639Y-112863788D01*
X159551636Y-112863787D01*
X159379410Y-112807829D01*
X159219321Y-112782473D01*
X159156186Y-112752544D01*
X159119255Y-112693232D01*
X159120253Y-112623370D01*
X159158863Y-112565137D01*
X159219321Y-112537527D01*
X159289425Y-112526422D01*
X159379409Y-112512171D01*
X159551639Y-112456211D01*
X159712994Y-112373996D01*
X159859501Y-112267553D01*
X159987553Y-112139501D01*
X160093996Y-111992994D01*
X160176211Y-111831639D01*
X160232171Y-111659409D01*
X160246765Y-111567259D01*
X160260500Y-111480551D01*
X160260500Y-111299448D01*
X160244019Y-111195397D01*
X160232171Y-111120591D01*
X160196309Y-111010216D01*
X160176212Y-110948363D01*
X160176211Y-110948360D01*
X160147740Y-110892484D01*
X160093996Y-110787006D01*
X160080396Y-110768287D01*
X159987558Y-110640505D01*
X159987554Y-110640500D01*
X159859499Y-110512445D01*
X159859494Y-110512441D01*
X159712997Y-110406006D01*
X159712996Y-110406005D01*
X159712994Y-110406004D01*
X159661300Y-110379664D01*
X159551639Y-110323788D01*
X159551636Y-110323787D01*
X159379410Y-110267828D01*
X159217720Y-110242219D01*
X159154585Y-110212289D01*
X159117654Y-110152978D01*
X159118652Y-110083115D01*
X159157262Y-110024883D01*
X159217721Y-109997273D01*
X159379292Y-109971683D01*
X159551444Y-109915748D01*
X159551452Y-109915745D01*
X159712730Y-109833568D01*
X159728532Y-109822085D01*
X159728533Y-109822085D01*
X159239410Y-109332962D01*
X159302993Y-109315925D01*
X159417007Y-109250099D01*
X159510099Y-109157007D01*
X159575925Y-109042993D01*
X159592962Y-108979409D01*
X160082085Y-109468532D01*
X160093568Y-109452730D01*
X160175745Y-109291452D01*
X160175748Y-109291444D01*
X160231682Y-109119293D01*
X160260000Y-108940506D01*
X160260000Y-108759493D01*
X160231682Y-108580706D01*
X160175748Y-108408555D01*
X160175747Y-108408552D01*
X160093571Y-108247275D01*
X160093566Y-108247267D01*
X160082085Y-108231466D01*
X159592962Y-108720589D01*
X159575925Y-108657007D01*
X159510099Y-108542993D01*
X159417007Y-108449901D01*
X159302993Y-108384075D01*
X159239409Y-108367037D01*
X159728533Y-107877913D01*
X159712730Y-107866431D01*
X159551447Y-107784252D01*
X159551444Y-107784251D01*
X159379293Y-107728317D01*
X159217720Y-107702726D01*
X159154585Y-107672797D01*
X159117654Y-107613485D01*
X159118652Y-107543623D01*
X159157262Y-107485390D01*
X159217720Y-107457780D01*
X159232270Y-107455475D01*
X159379409Y-107432171D01*
X159551639Y-107376211D01*
X159712994Y-107293996D01*
X159859501Y-107187553D01*
X159987553Y-107059501D01*
X160093996Y-106912994D01*
X160176211Y-106751639D01*
X160232171Y-106579409D01*
X160246765Y-106487259D01*
X160260500Y-106400551D01*
X160260500Y-106219448D01*
X160244019Y-106115397D01*
X160232171Y-106040591D01*
X160196309Y-105930216D01*
X160176212Y-105868363D01*
X160176211Y-105868360D01*
X160147740Y-105812484D01*
X160093996Y-105707006D01*
X160080396Y-105688287D01*
X159987558Y-105560505D01*
X159987554Y-105560500D01*
X159859499Y-105432445D01*
X159859494Y-105432441D01*
X159712997Y-105326006D01*
X159712996Y-105326005D01*
X159712994Y-105326004D01*
X159643899Y-105290798D01*
X159551639Y-105243788D01*
X159551636Y-105243787D01*
X159379410Y-105187829D01*
X159219321Y-105162473D01*
X159156186Y-105132544D01*
X159119255Y-105073232D01*
X159120253Y-105003370D01*
X159158863Y-104945137D01*
X159219321Y-104917527D01*
X159295808Y-104905412D01*
X159379409Y-104892171D01*
X159551639Y-104836211D01*
X159712994Y-104753996D01*
X159859501Y-104647553D01*
X159987553Y-104519501D01*
X160093996Y-104372994D01*
X160176211Y-104211639D01*
X160232171Y-104039409D01*
X160257336Y-103880524D01*
X160260500Y-103860551D01*
X160260500Y-103679448D01*
X160238480Y-103540426D01*
X160232171Y-103500591D01*
X160187200Y-103362181D01*
X160176212Y-103328363D01*
X160176211Y-103328360D01*
X160126357Y-103230518D01*
X160093996Y-103167006D01*
X160058912Y-103118717D01*
X159987558Y-103020505D01*
X159987554Y-103020500D01*
X159859499Y-102892445D01*
X159859494Y-102892441D01*
X159712997Y-102786006D01*
X159712996Y-102786005D01*
X159712994Y-102786004D01*
X159647681Y-102752725D01*
X159551639Y-102703788D01*
X159551636Y-102703787D01*
X159379410Y-102647829D01*
X159219321Y-102622473D01*
X159156186Y-102592544D01*
X159119255Y-102533232D01*
X159120253Y-102463370D01*
X159158863Y-102405137D01*
X159219321Y-102377527D01*
X159289425Y-102366422D01*
X159379409Y-102352171D01*
X159551639Y-102296211D01*
X159712994Y-102213996D01*
X159859501Y-102107553D01*
X159987553Y-101979501D01*
X160093996Y-101832994D01*
X160176211Y-101671639D01*
X160232171Y-101499409D01*
X160246765Y-101407259D01*
X160260500Y-101320551D01*
X160260500Y-101139448D01*
X160234043Y-100972411D01*
X160232171Y-100960591D01*
X160196309Y-100850216D01*
X160176212Y-100788363D01*
X160176211Y-100788360D01*
X160147740Y-100732484D01*
X160093996Y-100627006D01*
X160080396Y-100608287D01*
X159987558Y-100480505D01*
X159987554Y-100480500D01*
X159859499Y-100352445D01*
X159859494Y-100352441D01*
X159712997Y-100246006D01*
X159712996Y-100246005D01*
X159712994Y-100246004D01*
X159661300Y-100219664D01*
X159551639Y-100163788D01*
X159551636Y-100163787D01*
X159379410Y-100107829D01*
X159219321Y-100082473D01*
X159156186Y-100052544D01*
X159119255Y-99993232D01*
X159120253Y-99923370D01*
X159158863Y-99865137D01*
X159219321Y-99837527D01*
X159289425Y-99826422D01*
X159379409Y-99812171D01*
X159551639Y-99756211D01*
X159712994Y-99673996D01*
X159859501Y-99567553D01*
X159987553Y-99439501D01*
X159987553Y-99439500D01*
X159990998Y-99436056D01*
X159992012Y-99437070D01*
X160045121Y-99402391D01*
X160114989Y-99401881D01*
X160174041Y-99439227D01*
X160179294Y-99445619D01*
X160179518Y-99445911D01*
X161705719Y-100972112D01*
X161739204Y-101033435D01*
X161734220Y-101103127D01*
X161722772Y-101123800D01*
X161723543Y-101124245D01*
X161640426Y-101268209D01*
X161640423Y-101268216D01*
X161599500Y-101420943D01*
X161599500Y-101579057D01*
X161624308Y-101671640D01*
X161640423Y-101731783D01*
X161640426Y-101731790D01*
X161719475Y-101868709D01*
X161719479Y-101868714D01*
X161719480Y-101868716D01*
X161831284Y-101980520D01*
X161831286Y-101980521D01*
X161831290Y-101980524D01*
X161968209Y-102059573D01*
X161968216Y-102059577D01*
X162120943Y-102100500D01*
X162120945Y-102100500D01*
X162279055Y-102100500D01*
X162279057Y-102100500D01*
X162431784Y-102059577D01*
X162513502Y-102012397D01*
X162581400Y-101995925D01*
X162647427Y-102018777D01*
X162690618Y-102073699D01*
X162699500Y-102119785D01*
X162699500Y-102899902D01*
X162679815Y-102966941D01*
X162663181Y-102987583D01*
X162619481Y-103031282D01*
X162619475Y-103031290D01*
X162540426Y-103168209D01*
X162540423Y-103168216D01*
X162499500Y-103320943D01*
X162499500Y-103479057D01*
X162540289Y-103631282D01*
X162540423Y-103631783D01*
X162540426Y-103631790D01*
X162619475Y-103768709D01*
X162619479Y-103768714D01*
X162619480Y-103768716D01*
X162731284Y-103880520D01*
X162731286Y-103880521D01*
X162731290Y-103880524D01*
X162868209Y-103959573D01*
X162868216Y-103959577D01*
X163020943Y-104000500D01*
X163020945Y-104000500D01*
X163179055Y-104000500D01*
X163179057Y-104000500D01*
X163331784Y-103959577D01*
X163468716Y-103880520D01*
X163580520Y-103768716D01*
X163659577Y-103631784D01*
X163700500Y-103479057D01*
X163700500Y-103320943D01*
X163659577Y-103168216D01*
X163658523Y-103166390D01*
X163580524Y-103031290D01*
X163580518Y-103031282D01*
X163536819Y-102987583D01*
X163503334Y-102926260D01*
X163500500Y-102899902D01*
X163500500Y-101261729D01*
X163500501Y-101261716D01*
X163500501Y-101146274D01*
X163498672Y-101139448D01*
X163473207Y-101044413D01*
X163424812Y-100960591D01*
X163420480Y-100953087D01*
X163345913Y-100878520D01*
X163345910Y-100878518D01*
X162347910Y-99880518D01*
X161337819Y-98870426D01*
X161304334Y-98809103D01*
X161301500Y-98782745D01*
X161301500Y-96767255D01*
X161321185Y-96700216D01*
X161373989Y-96654461D01*
X161443147Y-96644517D01*
X161506703Y-96673542D01*
X161513181Y-96679574D01*
X162104087Y-97270480D01*
X162195412Y-97323207D01*
X162297273Y-97350500D01*
X162402727Y-97350500D01*
X167682745Y-97350500D01*
X167749784Y-97370185D01*
X167770426Y-97386819D01*
X168914181Y-98530574D01*
X168947666Y-98591897D01*
X168950500Y-98618255D01*
X168950500Y-98925500D01*
X168930815Y-98992539D01*
X168878011Y-99038294D01*
X168826500Y-99049500D01*
X168670943Y-99049500D01*
X168518216Y-99090423D01*
X168518209Y-99090426D01*
X168381290Y-99169475D01*
X168381282Y-99169481D01*
X168269481Y-99281282D01*
X168269475Y-99281290D01*
X168190426Y-99418209D01*
X168190423Y-99418216D01*
X168149500Y-99570943D01*
X168149500Y-99632745D01*
X168129815Y-99699784D01*
X168113181Y-99720426D01*
X165686589Y-102147017D01*
X165686586Y-102147019D01*
X165686587Y-102147020D01*
X165679520Y-102154087D01*
X165679518Y-102154088D01*
X165520424Y-102313182D01*
X165493495Y-102327886D01*
X165467680Y-102344477D01*
X165461479Y-102345368D01*
X165459103Y-102346666D01*
X165432745Y-102349500D01*
X165300098Y-102349500D01*
X165233059Y-102329815D01*
X165212417Y-102313181D01*
X165168717Y-102269481D01*
X165168709Y-102269475D01*
X165031790Y-102190426D01*
X165031786Y-102190424D01*
X165031784Y-102190423D01*
X164879057Y-102149500D01*
X164720943Y-102149500D01*
X164568216Y-102190423D01*
X164568209Y-102190426D01*
X164431290Y-102269475D01*
X164431282Y-102269481D01*
X164319481Y-102381282D01*
X164319475Y-102381290D01*
X164240426Y-102518209D01*
X164240423Y-102518216D01*
X164199500Y-102670943D01*
X164199500Y-102829057D01*
X164230812Y-102945913D01*
X164240423Y-102981783D01*
X164240426Y-102981790D01*
X164319475Y-103118709D01*
X164319479Y-103118714D01*
X164319480Y-103118716D01*
X164431284Y-103230520D01*
X164431286Y-103230521D01*
X164431290Y-103230524D01*
X164492138Y-103265654D01*
X164568216Y-103309577D01*
X164720943Y-103350500D01*
X164720945Y-103350500D01*
X164879055Y-103350500D01*
X164879057Y-103350500D01*
X165031784Y-103309577D01*
X165168716Y-103230520D01*
X165212417Y-103186819D01*
X165273740Y-103153334D01*
X165300098Y-103150500D01*
X165633745Y-103150500D01*
X165654990Y-103156738D01*
X165677079Y-103158318D01*
X165687862Y-103166390D01*
X165700784Y-103170185D01*
X165715283Y-103186918D01*
X165733012Y-103200190D01*
X165737719Y-103212810D01*
X165746539Y-103222989D01*
X165749690Y-103244906D01*
X165757429Y-103265654D01*
X165754566Y-103278814D01*
X165756483Y-103292147D01*
X165747283Y-103312290D01*
X165742577Y-103333927D01*
X165729308Y-103351652D01*
X165727458Y-103355703D01*
X165721426Y-103362181D01*
X165620426Y-103463181D01*
X165559103Y-103496666D01*
X165532745Y-103499500D01*
X165470943Y-103499500D01*
X165318216Y-103540423D01*
X165318209Y-103540426D01*
X165181290Y-103619475D01*
X165181282Y-103619481D01*
X165069481Y-103731282D01*
X165069475Y-103731290D01*
X164990426Y-103868209D01*
X164990423Y-103868216D01*
X164949500Y-104020943D01*
X164949500Y-104179057D01*
X164984394Y-104309281D01*
X164990423Y-104331783D01*
X164990426Y-104331790D01*
X165069475Y-104468709D01*
X165069479Y-104468714D01*
X165069480Y-104468716D01*
X165181284Y-104580520D01*
X165181286Y-104580521D01*
X165181290Y-104580524D01*
X165297391Y-104647554D01*
X165318216Y-104659577D01*
X165470943Y-104700500D01*
X165470945Y-104700500D01*
X165629055Y-104700500D01*
X165629057Y-104700500D01*
X165781784Y-104659577D01*
X165918716Y-104580520D01*
X166030520Y-104468716D01*
X166109577Y-104331784D01*
X166150500Y-104179057D01*
X166150500Y-104117253D01*
X166170185Y-104050214D01*
X166186814Y-104029577D01*
X169596910Y-100619481D01*
X169596913Y-100619480D01*
X169671480Y-100544913D01*
X169697843Y-100499250D01*
X169724207Y-100453588D01*
X169751501Y-100351727D01*
X169751501Y-100246273D01*
X169751501Y-100238678D01*
X169751500Y-100238660D01*
X169751500Y-98348275D01*
X169751500Y-98348273D01*
X169724207Y-98246413D01*
X169724207Y-98246412D01*
X169709093Y-98220235D01*
X169692620Y-98152336D01*
X169715472Y-98086309D01*
X169770392Y-98043118D01*
X169839946Y-98036476D01*
X169902049Y-98068491D01*
X169904161Y-98070554D01*
X171163181Y-99329573D01*
X171196666Y-99390896D01*
X171199500Y-99417254D01*
X171199500Y-99479057D01*
X171223213Y-99567553D01*
X171240423Y-99631783D01*
X171240426Y-99631790D01*
X171319475Y-99768709D01*
X171319479Y-99768714D01*
X171319480Y-99768716D01*
X171431284Y-99880520D01*
X171431286Y-99880521D01*
X171431290Y-99880524D01*
X171568209Y-99959573D01*
X171568216Y-99959577D01*
X171720943Y-100000500D01*
X171720945Y-100000500D01*
X171879055Y-100000500D01*
X171879057Y-100000500D01*
X172031784Y-99959577D01*
X172168716Y-99880520D01*
X172280520Y-99768716D01*
X172359577Y-99631784D01*
X172400500Y-99479057D01*
X172400500Y-99320943D01*
X172359577Y-99168216D01*
X172338460Y-99131640D01*
X172280524Y-99031290D01*
X172280518Y-99031282D01*
X172168717Y-98919481D01*
X172168709Y-98919475D01*
X172031790Y-98840426D01*
X172031786Y-98840424D01*
X172031784Y-98840423D01*
X171879057Y-98799500D01*
X171879056Y-98799500D01*
X171817254Y-98799500D01*
X171750215Y-98779815D01*
X171729573Y-98763181D01*
X169836819Y-96870426D01*
X169822115Y-96843498D01*
X169805523Y-96817680D01*
X169804631Y-96811479D01*
X169803334Y-96809103D01*
X169800500Y-96782745D01*
X169800500Y-96700098D01*
X169820185Y-96633059D01*
X169836819Y-96612417D01*
X169857792Y-96591444D01*
X169880520Y-96568716D01*
X169959577Y-96431784D01*
X170000500Y-96279057D01*
X170000500Y-96120943D01*
X169959577Y-95968216D01*
X169909054Y-95880706D01*
X169880524Y-95831290D01*
X169880518Y-95831282D01*
X169768717Y-95719481D01*
X169768709Y-95719475D01*
X169631790Y-95640426D01*
X169631786Y-95640424D01*
X169631784Y-95640423D01*
X169479057Y-95599500D01*
X169320943Y-95599500D01*
X169168216Y-95640423D01*
X169168209Y-95640426D01*
X169031290Y-95719475D01*
X169031282Y-95719481D01*
X168919481Y-95831282D01*
X168919475Y-95831290D01*
X168840426Y-95968209D01*
X168840423Y-95968216D01*
X168799500Y-96120943D01*
X168799500Y-96279056D01*
X168840423Y-96431783D01*
X168840426Y-96431790D01*
X168919475Y-96568709D01*
X168919481Y-96568717D01*
X168963181Y-96612417D01*
X168996666Y-96673740D01*
X168999500Y-96700098D01*
X168999500Y-96947273D01*
X168999500Y-97052727D01*
X169021161Y-97133568D01*
X169026794Y-97154591D01*
X169041904Y-97180762D01*
X169058377Y-97248662D01*
X169035524Y-97314689D01*
X168980603Y-97357880D01*
X168911050Y-97364521D01*
X168848947Y-97332505D01*
X168846836Y-97330443D01*
X168145915Y-96629522D01*
X168145913Y-96629520D01*
X168079971Y-96591448D01*
X168054589Y-96576793D01*
X167981162Y-96557119D01*
X167952727Y-96549500D01*
X167952726Y-96549500D01*
X163889635Y-96549500D01*
X163871186Y-96544082D01*
X163851963Y-96543639D01*
X163838353Y-96534441D01*
X163822596Y-96529815D01*
X163810005Y-96515285D01*
X163794073Y-96504518D01*
X163787596Y-96489423D01*
X163776841Y-96477011D01*
X163774104Y-96457978D01*
X163766523Y-96440309D01*
X163768191Y-96416856D01*
X163766897Y-96407853D01*
X163767337Y-96405025D01*
X163768319Y-96399156D01*
X163800500Y-96279057D01*
X163800500Y-96206945D01*
X163802202Y-96196780D01*
X163813129Y-96174242D01*
X163820185Y-96150216D01*
X163831721Y-96135899D01*
X163832686Y-96133911D01*
X163833942Y-96133144D01*
X163836819Y-96129574D01*
X163929574Y-96036819D01*
X163990897Y-96003334D01*
X164017255Y-96000500D01*
X168052725Y-96000500D01*
X168052727Y-96000500D01*
X168154588Y-95973207D01*
X168245913Y-95920480D01*
X171337581Y-92828810D01*
X171393162Y-92796720D01*
X171531784Y-92759577D01*
X171668716Y-92680520D01*
X171780520Y-92568716D01*
X171859577Y-92431784D01*
X171900500Y-92279057D01*
X171900500Y-92120943D01*
X171859577Y-91968216D01*
X171811966Y-91885750D01*
X171780524Y-91831290D01*
X171780518Y-91831282D01*
X171668717Y-91719481D01*
X171668709Y-91719475D01*
X171531790Y-91640426D01*
X171531786Y-91640424D01*
X171531784Y-91640423D01*
X171379057Y-91599500D01*
X171220943Y-91599500D01*
X171068216Y-91640423D01*
X171068209Y-91640426D01*
X170931290Y-91719475D01*
X170931282Y-91719481D01*
X170819481Y-91831282D01*
X170819475Y-91831290D01*
X170740426Y-91968209D01*
X170740423Y-91968216D01*
X170699500Y-92120943D01*
X170699500Y-92282745D01*
X170679815Y-92349784D01*
X170663181Y-92370426D01*
X167870426Y-95163181D01*
X167809103Y-95196666D01*
X167782745Y-95199500D01*
X163747273Y-95199500D01*
X163645410Y-95226793D01*
X163554087Y-95279520D01*
X163554084Y-95279522D01*
X163270426Y-95563181D01*
X163209103Y-95596666D01*
X163182745Y-95599500D01*
X163120943Y-95599500D01*
X162968216Y-95640423D01*
X162968209Y-95640426D01*
X162831290Y-95719475D01*
X162831282Y-95719481D01*
X162719481Y-95831282D01*
X162719475Y-95831290D01*
X162640426Y-95968209D01*
X162640423Y-95968216D01*
X162599500Y-96120943D01*
X162599500Y-96279056D01*
X162609317Y-96315694D01*
X162607654Y-96385544D01*
X162568491Y-96443406D01*
X162504263Y-96470910D01*
X162435360Y-96459323D01*
X162401861Y-96435468D01*
X161738819Y-95772426D01*
X161705334Y-95711103D01*
X161702500Y-95684745D01*
X161702500Y-82001202D01*
X162880000Y-82001202D01*
X162880000Y-82380000D01*
X163380000Y-82380000D01*
X163380000Y-82880000D01*
X162880000Y-82880000D01*
X162880000Y-83258797D01*
X162910741Y-83413343D01*
X162910743Y-83413351D01*
X162971047Y-83558939D01*
X162971052Y-83558948D01*
X163058598Y-83689969D01*
X163058601Y-83689973D01*
X163170026Y-83801398D01*
X163170034Y-83801404D01*
X163301047Y-83888944D01*
X163301065Y-83888954D01*
X163429999Y-83942360D01*
X163430000Y-83942360D01*
X163430000Y-83346988D01*
X163439940Y-83364205D01*
X163495795Y-83420060D01*
X163564204Y-83459556D01*
X163640504Y-83480000D01*
X163719496Y-83480000D01*
X163795796Y-83459556D01*
X163864205Y-83420060D01*
X163920060Y-83364205D01*
X163930000Y-83346988D01*
X163930000Y-83942360D01*
X164058934Y-83888954D01*
X164058952Y-83888944D01*
X164189965Y-83801404D01*
X164189973Y-83801398D01*
X164301398Y-83689973D01*
X164301401Y-83689969D01*
X164388947Y-83558948D01*
X164388952Y-83558939D01*
X164449256Y-83413351D01*
X164449258Y-83413343D01*
X164479999Y-83258797D01*
X164480000Y-83258794D01*
X164480000Y-82880000D01*
X163980000Y-82880000D01*
X163980000Y-82380000D01*
X164531362Y-82380000D01*
X164531362Y-82381884D01*
X164577320Y-82385163D01*
X164633261Y-82427024D01*
X164641391Y-82439346D01*
X164649485Y-82453365D01*
X164756635Y-82560515D01*
X164887865Y-82636281D01*
X165034234Y-82675500D01*
X165034236Y-82675500D01*
X165185764Y-82675500D01*
X165185766Y-82675500D01*
X165332135Y-82636281D01*
X165463365Y-82560515D01*
X165570515Y-82453365D01*
X165646281Y-82322135D01*
X165685500Y-82175766D01*
X165685500Y-82024234D01*
X170314500Y-82024234D01*
X170314500Y-82175765D01*
X170353719Y-82322136D01*
X170388215Y-82381884D01*
X170429485Y-82453365D01*
X170536635Y-82560515D01*
X170667865Y-82636281D01*
X170814234Y-82675500D01*
X170814236Y-82675500D01*
X170965764Y-82675500D01*
X170965766Y-82675500D01*
X171112135Y-82636281D01*
X171243365Y-82560515D01*
X171350515Y-82453365D01*
X171358604Y-82439353D01*
X171409168Y-82391139D01*
X171477774Y-82377914D01*
X171482985Y-82380000D01*
X172020000Y-82380000D01*
X172020000Y-82880000D01*
X171520000Y-82880000D01*
X171520000Y-83258797D01*
X171550741Y-83413343D01*
X171550743Y-83413351D01*
X171611047Y-83558939D01*
X171611052Y-83558948D01*
X171698598Y-83689969D01*
X171698601Y-83689973D01*
X171810026Y-83801398D01*
X171810034Y-83801404D01*
X171941047Y-83888944D01*
X171941065Y-83888954D01*
X172069999Y-83942360D01*
X172070000Y-83942360D01*
X172070000Y-83346988D01*
X172079940Y-83364205D01*
X172135795Y-83420060D01*
X172204204Y-83459556D01*
X172280504Y-83480000D01*
X172359496Y-83480000D01*
X172435796Y-83459556D01*
X172504205Y-83420060D01*
X172560060Y-83364205D01*
X172570000Y-83346988D01*
X172570000Y-83942360D01*
X172698934Y-83888954D01*
X172698952Y-83888944D01*
X172829965Y-83801404D01*
X172829973Y-83801398D01*
X172941398Y-83689973D01*
X172941401Y-83689969D01*
X173028947Y-83558948D01*
X173028952Y-83558939D01*
X173089256Y-83413352D01*
X173105750Y-83330430D01*
X173105751Y-83330426D01*
X173119999Y-83258796D01*
X173120000Y-83258794D01*
X173120000Y-82880000D01*
X172620000Y-82880000D01*
X172620000Y-82380000D01*
X173120000Y-82380000D01*
X173120000Y-82001206D01*
X173119999Y-82001202D01*
X173089258Y-81846656D01*
X173089256Y-81846648D01*
X173028952Y-81701060D01*
X173028947Y-81701051D01*
X172941401Y-81570030D01*
X172941398Y-81570026D01*
X172829973Y-81458601D01*
X172829969Y-81458598D01*
X172698948Y-81371052D01*
X172698938Y-81371047D01*
X172570000Y-81317639D01*
X172570000Y-81913011D01*
X172560060Y-81895795D01*
X172504205Y-81839940D01*
X172435796Y-81800444D01*
X172359496Y-81780000D01*
X172280504Y-81780000D01*
X172204204Y-81800444D01*
X172135795Y-81839940D01*
X172079940Y-81895795D01*
X172070000Y-81913011D01*
X172070000Y-81317639D01*
X172069999Y-81317639D01*
X171941061Y-81371047D01*
X171941051Y-81371052D01*
X171810030Y-81458598D01*
X171810026Y-81458601D01*
X171698601Y-81570026D01*
X171698598Y-81570030D01*
X171611052Y-81701051D01*
X171611049Y-81701057D01*
X171587446Y-81758040D01*
X171543604Y-81812443D01*
X171477310Y-81834507D01*
X171409611Y-81817227D01*
X171365498Y-81772587D01*
X171350515Y-81746635D01*
X171243365Y-81639485D01*
X171177750Y-81601602D01*
X171112136Y-81563719D01*
X171038950Y-81544109D01*
X170965766Y-81524500D01*
X170814234Y-81524500D01*
X170667863Y-81563719D01*
X170536635Y-81639485D01*
X170536632Y-81639487D01*
X170429487Y-81746632D01*
X170429485Y-81746635D01*
X170353719Y-81877863D01*
X170314500Y-82024234D01*
X165685500Y-82024234D01*
X165646281Y-81877865D01*
X165570515Y-81746635D01*
X165463365Y-81639485D01*
X165397750Y-81601602D01*
X165332136Y-81563719D01*
X165258950Y-81544109D01*
X165185766Y-81524500D01*
X165034234Y-81524500D01*
X164887863Y-81563719D01*
X164756635Y-81639485D01*
X164756632Y-81639487D01*
X164649487Y-81746632D01*
X164649481Y-81746641D01*
X164634499Y-81772589D01*
X164583931Y-81820803D01*
X164515324Y-81834024D01*
X164450460Y-81808054D01*
X164412553Y-81758038D01*
X164388954Y-81701064D01*
X164388947Y-81701051D01*
X164301401Y-81570030D01*
X164301398Y-81570026D01*
X164189973Y-81458601D01*
X164189969Y-81458598D01*
X164058948Y-81371052D01*
X164058938Y-81371047D01*
X163930000Y-81317639D01*
X163930000Y-81913011D01*
X163920060Y-81895795D01*
X163864205Y-81839940D01*
X163795796Y-81800444D01*
X163719496Y-81780000D01*
X163640504Y-81780000D01*
X163564204Y-81800444D01*
X163495795Y-81839940D01*
X163439940Y-81895795D01*
X163430000Y-81913011D01*
X163430000Y-81317639D01*
X163429999Y-81317639D01*
X163301061Y-81371047D01*
X163301051Y-81371052D01*
X163170030Y-81458598D01*
X163170026Y-81458601D01*
X163058601Y-81570026D01*
X163058598Y-81570030D01*
X162971052Y-81701051D01*
X162971047Y-81701060D01*
X162910743Y-81846648D01*
X162910741Y-81846656D01*
X162880000Y-82001202D01*
X161702500Y-82001202D01*
X161702500Y-80509275D01*
X161702500Y-80509273D01*
X161675207Y-80407413D01*
X161675207Y-80407412D01*
X161622480Y-80316087D01*
X160296818Y-78990425D01*
X160263333Y-78929102D01*
X160260499Y-78902744D01*
X160260499Y-78071202D01*
X162880000Y-78071202D01*
X162880000Y-78200000D01*
X163380000Y-78200000D01*
X163380000Y-78700000D01*
X162880000Y-78700000D01*
X162880000Y-78828797D01*
X162910741Y-78983343D01*
X162910743Y-78983351D01*
X162971047Y-79128939D01*
X162971052Y-79128948D01*
X163058598Y-79259969D01*
X163058601Y-79259973D01*
X163170026Y-79371398D01*
X163170034Y-79371404D01*
X163301047Y-79458944D01*
X163301065Y-79458954D01*
X163429999Y-79512360D01*
X163430000Y-79512360D01*
X163430000Y-78916988D01*
X163439940Y-78934205D01*
X163495795Y-78990060D01*
X163564204Y-79029556D01*
X163640504Y-79050000D01*
X163719496Y-79050000D01*
X163795796Y-79029556D01*
X163864205Y-78990060D01*
X163920060Y-78934205D01*
X163930000Y-78916988D01*
X163930000Y-79512360D01*
X164058934Y-79458954D01*
X164058952Y-79458944D01*
X164189965Y-79371404D01*
X164189973Y-79371398D01*
X164301398Y-79259973D01*
X164301401Y-79259969D01*
X164388947Y-79128948D01*
X164388952Y-79128939D01*
X164449256Y-78983351D01*
X164449258Y-78983343D01*
X164479999Y-78828797D01*
X164480000Y-78828794D01*
X164480000Y-78700000D01*
X163980000Y-78700000D01*
X163980000Y-78200000D01*
X164480000Y-78200000D01*
X164480000Y-78071206D01*
X164479999Y-78071202D01*
X171520000Y-78071202D01*
X171520000Y-78200000D01*
X172020000Y-78200000D01*
X172020000Y-78700000D01*
X171520000Y-78700000D01*
X171520000Y-78828797D01*
X171550741Y-78983343D01*
X171550743Y-78983351D01*
X171611047Y-79128939D01*
X171611052Y-79128948D01*
X171698598Y-79259969D01*
X171698601Y-79259973D01*
X171810026Y-79371398D01*
X171810034Y-79371404D01*
X171941047Y-79458944D01*
X171941065Y-79458954D01*
X172069999Y-79512360D01*
X172070000Y-79512360D01*
X172070000Y-78916988D01*
X172079940Y-78934205D01*
X172135795Y-78990060D01*
X172204204Y-79029556D01*
X172280504Y-79050000D01*
X172359496Y-79050000D01*
X172435796Y-79029556D01*
X172504205Y-78990060D01*
X172560060Y-78934205D01*
X172570000Y-78916988D01*
X172570000Y-79512360D01*
X172698934Y-79458954D01*
X172698952Y-79458944D01*
X172829965Y-79371404D01*
X172829973Y-79371398D01*
X172941398Y-79259973D01*
X172941401Y-79259969D01*
X173028947Y-79128948D01*
X173028952Y-79128939D01*
X173089256Y-78983351D01*
X173089258Y-78983343D01*
X173119999Y-78828797D01*
X173120000Y-78828794D01*
X173120000Y-78700000D01*
X172620000Y-78700000D01*
X172620000Y-78200000D01*
X173120000Y-78200000D01*
X173120000Y-78071206D01*
X173119999Y-78071202D01*
X173089258Y-77916656D01*
X173089256Y-77916648D01*
X173028952Y-77771060D01*
X173028947Y-77771051D01*
X172941401Y-77640030D01*
X172941398Y-77640026D01*
X172829973Y-77528601D01*
X172829969Y-77528598D01*
X172698948Y-77441052D01*
X172698938Y-77441047D01*
X172570000Y-77387639D01*
X172570000Y-77983011D01*
X172560060Y-77965795D01*
X172504205Y-77909940D01*
X172435796Y-77870444D01*
X172359496Y-77850000D01*
X172280504Y-77850000D01*
X172204204Y-77870444D01*
X172135795Y-77909940D01*
X172079940Y-77965795D01*
X172070000Y-77983011D01*
X172070000Y-77387639D01*
X172069999Y-77387639D01*
X171941061Y-77441047D01*
X171941051Y-77441052D01*
X171810030Y-77528598D01*
X171810026Y-77528601D01*
X171698601Y-77640026D01*
X171698598Y-77640030D01*
X171611052Y-77771051D01*
X171611047Y-77771060D01*
X171550743Y-77916648D01*
X171550741Y-77916656D01*
X171520000Y-78071202D01*
X164479999Y-78071202D01*
X164449258Y-77916656D01*
X164449256Y-77916648D01*
X164388952Y-77771060D01*
X164388947Y-77771051D01*
X164301401Y-77640030D01*
X164301398Y-77640026D01*
X164189973Y-77528601D01*
X164189969Y-77528598D01*
X164058948Y-77441052D01*
X164058938Y-77441047D01*
X163930000Y-77387639D01*
X163930000Y-77983011D01*
X163920060Y-77965795D01*
X163864205Y-77909940D01*
X163795796Y-77870444D01*
X163719496Y-77850000D01*
X163640504Y-77850000D01*
X163564204Y-77870444D01*
X163495795Y-77909940D01*
X163439940Y-77965795D01*
X163430000Y-77983011D01*
X163430000Y-77387639D01*
X163429999Y-77387639D01*
X163301061Y-77441047D01*
X163301051Y-77441052D01*
X163170030Y-77528598D01*
X163170026Y-77528601D01*
X163058601Y-77640026D01*
X163058598Y-77640030D01*
X162971052Y-77771051D01*
X162971047Y-77771060D01*
X162910743Y-77916648D01*
X162910741Y-77916656D01*
X162880000Y-78071202D01*
X160260499Y-78071202D01*
X160260499Y-77475143D01*
X160260499Y-77475136D01*
X160260497Y-77475117D01*
X160257586Y-77450012D01*
X160257585Y-77450010D01*
X160257585Y-77450009D01*
X160212206Y-77347235D01*
X160177152Y-77312181D01*
X160143667Y-77250858D01*
X160148651Y-77181166D01*
X160190523Y-77125233D01*
X160255987Y-77100816D01*
X160264833Y-77100500D01*
X175735167Y-77100500D01*
X175802206Y-77120185D01*
G37*
G04 #@! TD.AperFunction*
G04 #@! TA.AperFunction,Conductor*
G36*
X178242539Y-77120185D02*
G01*
X178288294Y-77172989D01*
X178299500Y-77224500D01*
X178299500Y-127775500D01*
X178279815Y-127842539D01*
X178227011Y-127888294D01*
X178175500Y-127899500D01*
X177449159Y-127899500D01*
X177382120Y-127879815D01*
X177336365Y-127827011D01*
X177326421Y-127757853D01*
X177355446Y-127694297D01*
X177392864Y-127665015D01*
X177492994Y-127613996D01*
X177639501Y-127507553D01*
X177767553Y-127379501D01*
X177873996Y-127232994D01*
X177956211Y-127071639D01*
X178012171Y-126899409D01*
X178029484Y-126790099D01*
X178040500Y-126720551D01*
X178040500Y-126539448D01*
X178018041Y-126397654D01*
X178012171Y-126360591D01*
X177971713Y-126236073D01*
X177956212Y-126188363D01*
X177956211Y-126188360D01*
X177902523Y-126082993D01*
X177873996Y-126027006D01*
X177847038Y-125989901D01*
X177767558Y-125880505D01*
X177767554Y-125880500D01*
X177639499Y-125752445D01*
X177639494Y-125752441D01*
X177492997Y-125646006D01*
X177492996Y-125646005D01*
X177492994Y-125646004D01*
X177441300Y-125619664D01*
X177331639Y-125563788D01*
X177331636Y-125563787D01*
X177159410Y-125507829D01*
X176999321Y-125482473D01*
X176936186Y-125452544D01*
X176899255Y-125393232D01*
X176900253Y-125323370D01*
X176938863Y-125265137D01*
X176999321Y-125237527D01*
X177069425Y-125226422D01*
X177159409Y-125212171D01*
X177331639Y-125156211D01*
X177492994Y-125073996D01*
X177639501Y-124967553D01*
X177767553Y-124839501D01*
X177873996Y-124692994D01*
X177956211Y-124531639D01*
X178012171Y-124359409D01*
X178026765Y-124267259D01*
X178040500Y-124180551D01*
X178040500Y-123999448D01*
X178024019Y-123895397D01*
X178012171Y-123820591D01*
X177976309Y-123710216D01*
X177956212Y-123648363D01*
X177956211Y-123648360D01*
X177927740Y-123592484D01*
X177873996Y-123487006D01*
X177860396Y-123468287D01*
X177767558Y-123340505D01*
X177767554Y-123340500D01*
X177639499Y-123212445D01*
X177639494Y-123212441D01*
X177492997Y-123106006D01*
X177492996Y-123106005D01*
X177492994Y-123106004D01*
X177441300Y-123079664D01*
X177331639Y-123023788D01*
X177331636Y-123023787D01*
X177159410Y-122967828D01*
X176997720Y-122942219D01*
X176934585Y-122912289D01*
X176897654Y-122852978D01*
X176898652Y-122783115D01*
X176937262Y-122724883D01*
X176997721Y-122697273D01*
X177159292Y-122671683D01*
X177331444Y-122615748D01*
X177331452Y-122615745D01*
X177492730Y-122533568D01*
X177508532Y-122522085D01*
X177508533Y-122522085D01*
X177019410Y-122032962D01*
X177082993Y-122015925D01*
X177197007Y-121950099D01*
X177290099Y-121857007D01*
X177355925Y-121742993D01*
X177372962Y-121679409D01*
X177862085Y-122168532D01*
X177873568Y-122152730D01*
X177955745Y-121991452D01*
X177955748Y-121991444D01*
X178011682Y-121819293D01*
X178040000Y-121640506D01*
X178040000Y-121459493D01*
X178011682Y-121280706D01*
X177955748Y-121108555D01*
X177955747Y-121108552D01*
X177873571Y-120947275D01*
X177873566Y-120947267D01*
X177862085Y-120931466D01*
X177372962Y-121420589D01*
X177355925Y-121357007D01*
X177290099Y-121242993D01*
X177197007Y-121149901D01*
X177082993Y-121084075D01*
X177019409Y-121067037D01*
X177508533Y-120577913D01*
X177492730Y-120566431D01*
X177331447Y-120484252D01*
X177331444Y-120484251D01*
X177159293Y-120428317D01*
X176997720Y-120402726D01*
X176934585Y-120372797D01*
X176897654Y-120313485D01*
X176898652Y-120243623D01*
X176937262Y-120185390D01*
X176997720Y-120157780D01*
X177012270Y-120155475D01*
X177159409Y-120132171D01*
X177331639Y-120076211D01*
X177492994Y-119993996D01*
X177639501Y-119887553D01*
X177767553Y-119759501D01*
X177873996Y-119612994D01*
X177956211Y-119451639D01*
X178012171Y-119279409D01*
X178026765Y-119187259D01*
X178040500Y-119100551D01*
X178040500Y-118919448D01*
X178024019Y-118815397D01*
X178012171Y-118740591D01*
X177976309Y-118630216D01*
X177956212Y-118568363D01*
X177956211Y-118568360D01*
X177927740Y-118512484D01*
X177873996Y-118407006D01*
X177860396Y-118388287D01*
X177767558Y-118260505D01*
X177767554Y-118260500D01*
X177639499Y-118132445D01*
X177639494Y-118132441D01*
X177492997Y-118026006D01*
X177492996Y-118026005D01*
X177492994Y-118026004D01*
X177441300Y-117999664D01*
X177331639Y-117943788D01*
X177331636Y-117943787D01*
X177159410Y-117887829D01*
X176999321Y-117862473D01*
X176936186Y-117832544D01*
X176899255Y-117773232D01*
X176900253Y-117703370D01*
X176938863Y-117645137D01*
X176999321Y-117617527D01*
X177069425Y-117606422D01*
X177159409Y-117592171D01*
X177331639Y-117536211D01*
X177492994Y-117453996D01*
X177639501Y-117347553D01*
X177767553Y-117219501D01*
X177873996Y-117072994D01*
X177956211Y-116911639D01*
X178012171Y-116739409D01*
X178026765Y-116647259D01*
X178040500Y-116560551D01*
X178040500Y-116379448D01*
X178024019Y-116275397D01*
X178012171Y-116200591D01*
X177976309Y-116090216D01*
X177956212Y-116028363D01*
X177956211Y-116028360D01*
X177927740Y-115972484D01*
X177873996Y-115867006D01*
X177860396Y-115848287D01*
X177767558Y-115720505D01*
X177767554Y-115720500D01*
X177639499Y-115592445D01*
X177639494Y-115592441D01*
X177492997Y-115486006D01*
X177492996Y-115486005D01*
X177492994Y-115486004D01*
X177441300Y-115459664D01*
X177331639Y-115403788D01*
X177331636Y-115403787D01*
X177159410Y-115347829D01*
X176999321Y-115322473D01*
X176936186Y-115292544D01*
X176899255Y-115233232D01*
X176900253Y-115163370D01*
X176938863Y-115105137D01*
X176999321Y-115077527D01*
X177069425Y-115066422D01*
X177159409Y-115052171D01*
X177331639Y-114996211D01*
X177492994Y-114913996D01*
X177639501Y-114807553D01*
X177767553Y-114679501D01*
X177873996Y-114532994D01*
X177956211Y-114371639D01*
X178012171Y-114199409D01*
X178026765Y-114107259D01*
X178040500Y-114020551D01*
X178040500Y-113839448D01*
X178024019Y-113735397D01*
X178012171Y-113660591D01*
X177976309Y-113550216D01*
X177956212Y-113488363D01*
X177956211Y-113488360D01*
X177927740Y-113432484D01*
X177873996Y-113327006D01*
X177860396Y-113308287D01*
X177767558Y-113180505D01*
X177767554Y-113180500D01*
X177639499Y-113052445D01*
X177639494Y-113052441D01*
X177492997Y-112946006D01*
X177492996Y-112946005D01*
X177492994Y-112946004D01*
X177441300Y-112919664D01*
X177331639Y-112863788D01*
X177331636Y-112863787D01*
X177159410Y-112807829D01*
X176999321Y-112782473D01*
X176936186Y-112752544D01*
X176899255Y-112693232D01*
X176900253Y-112623370D01*
X176938863Y-112565137D01*
X176999321Y-112537527D01*
X177069425Y-112526422D01*
X177159409Y-112512171D01*
X177331639Y-112456211D01*
X177492994Y-112373996D01*
X177639501Y-112267553D01*
X177767553Y-112139501D01*
X177873996Y-111992994D01*
X177956211Y-111831639D01*
X178012171Y-111659409D01*
X178026765Y-111567259D01*
X178040500Y-111480551D01*
X178040500Y-111299448D01*
X178024019Y-111195397D01*
X178012171Y-111120591D01*
X177976309Y-111010216D01*
X177956212Y-110948363D01*
X177956211Y-110948360D01*
X177927740Y-110892484D01*
X177873996Y-110787006D01*
X177860396Y-110768287D01*
X177767558Y-110640505D01*
X177767554Y-110640500D01*
X177639499Y-110512445D01*
X177639494Y-110512441D01*
X177492997Y-110406006D01*
X177492996Y-110406005D01*
X177492994Y-110406004D01*
X177441300Y-110379664D01*
X177331639Y-110323788D01*
X177331636Y-110323787D01*
X177159410Y-110267828D01*
X176997720Y-110242219D01*
X176934585Y-110212289D01*
X176897654Y-110152978D01*
X176898652Y-110083115D01*
X176937262Y-110024883D01*
X176997721Y-109997273D01*
X177159292Y-109971683D01*
X177331444Y-109915748D01*
X177331452Y-109915745D01*
X177492730Y-109833568D01*
X177508532Y-109822085D01*
X177508533Y-109822085D01*
X177019410Y-109332962D01*
X177082993Y-109315925D01*
X177197007Y-109250099D01*
X177290099Y-109157007D01*
X177355925Y-109042993D01*
X177372962Y-108979409D01*
X177862085Y-109468532D01*
X177873568Y-109452730D01*
X177955745Y-109291452D01*
X177955748Y-109291444D01*
X178011682Y-109119293D01*
X178040000Y-108940506D01*
X178040000Y-108759493D01*
X178011682Y-108580706D01*
X177955748Y-108408555D01*
X177955747Y-108408552D01*
X177873571Y-108247275D01*
X177873566Y-108247267D01*
X177862085Y-108231466D01*
X177372962Y-108720589D01*
X177355925Y-108657007D01*
X177290099Y-108542993D01*
X177197007Y-108449901D01*
X177082993Y-108384075D01*
X177019408Y-108367037D01*
X177508533Y-107877913D01*
X177492730Y-107866431D01*
X177331447Y-107784252D01*
X177331444Y-107784251D01*
X177159293Y-107728317D01*
X176997720Y-107702726D01*
X176934585Y-107672797D01*
X176897654Y-107613485D01*
X176898652Y-107543623D01*
X176937262Y-107485390D01*
X176997720Y-107457780D01*
X177012270Y-107455475D01*
X177159409Y-107432171D01*
X177331639Y-107376211D01*
X177492994Y-107293996D01*
X177639501Y-107187553D01*
X177767553Y-107059501D01*
X177873996Y-106912994D01*
X177956211Y-106751639D01*
X178012171Y-106579409D01*
X178026765Y-106487259D01*
X178040500Y-106400551D01*
X178040500Y-106219448D01*
X178024019Y-106115397D01*
X178012171Y-106040591D01*
X177976309Y-105930216D01*
X177956212Y-105868363D01*
X177956211Y-105868360D01*
X177927740Y-105812484D01*
X177873996Y-105707006D01*
X177860396Y-105688287D01*
X177767558Y-105560505D01*
X177767554Y-105560500D01*
X177639499Y-105432445D01*
X177639494Y-105432441D01*
X177492997Y-105326006D01*
X177492996Y-105326005D01*
X177492994Y-105326004D01*
X177423899Y-105290798D01*
X177331639Y-105243788D01*
X177331636Y-105243787D01*
X177159410Y-105187829D01*
X176999321Y-105162473D01*
X176936186Y-105132544D01*
X176899255Y-105073232D01*
X176900253Y-105003370D01*
X176938863Y-104945137D01*
X176999321Y-104917527D01*
X177075808Y-104905412D01*
X177159409Y-104892171D01*
X177331639Y-104836211D01*
X177492994Y-104753996D01*
X177639501Y-104647553D01*
X177767553Y-104519501D01*
X177873996Y-104372994D01*
X177956211Y-104211639D01*
X178012171Y-104039409D01*
X178037336Y-103880524D01*
X178040500Y-103860551D01*
X178040500Y-103679448D01*
X178018480Y-103540426D01*
X178012171Y-103500591D01*
X177967200Y-103362181D01*
X177956212Y-103328363D01*
X177956211Y-103328360D01*
X177906357Y-103230518D01*
X177873996Y-103167006D01*
X177838912Y-103118717D01*
X177767558Y-103020505D01*
X177767554Y-103020500D01*
X177639499Y-102892445D01*
X177639494Y-102892441D01*
X177492997Y-102786006D01*
X177492996Y-102786005D01*
X177492994Y-102786004D01*
X177427681Y-102752725D01*
X177331639Y-102703788D01*
X177331636Y-102703787D01*
X177159410Y-102647829D01*
X176999321Y-102622473D01*
X176936186Y-102592544D01*
X176899255Y-102533232D01*
X176900253Y-102463370D01*
X176938863Y-102405137D01*
X176999321Y-102377527D01*
X177069425Y-102366422D01*
X177159409Y-102352171D01*
X177331639Y-102296211D01*
X177492994Y-102213996D01*
X177639501Y-102107553D01*
X177767553Y-101979501D01*
X177873996Y-101832994D01*
X177956211Y-101671639D01*
X178012171Y-101499409D01*
X178026765Y-101407259D01*
X178040500Y-101320551D01*
X178040500Y-101139448D01*
X178014043Y-100972411D01*
X178012171Y-100960591D01*
X177976309Y-100850216D01*
X177956212Y-100788363D01*
X177956211Y-100788360D01*
X177927740Y-100732484D01*
X177873996Y-100627006D01*
X177860396Y-100608287D01*
X177767558Y-100480505D01*
X177767554Y-100480500D01*
X177639499Y-100352445D01*
X177639494Y-100352441D01*
X177492997Y-100246006D01*
X177492996Y-100246005D01*
X177492994Y-100246004D01*
X177441300Y-100219664D01*
X177331639Y-100163788D01*
X177331636Y-100163787D01*
X177159410Y-100107829D01*
X176999321Y-100082473D01*
X176936186Y-100052544D01*
X176899255Y-99993232D01*
X176900253Y-99923370D01*
X176938863Y-99865137D01*
X176999321Y-99837527D01*
X177069425Y-99826422D01*
X177159409Y-99812171D01*
X177331639Y-99756211D01*
X177492994Y-99673996D01*
X177639501Y-99567553D01*
X177767553Y-99439501D01*
X177873996Y-99292994D01*
X177956211Y-99131639D01*
X178012171Y-98959409D01*
X178031016Y-98840426D01*
X178040500Y-98780551D01*
X178040500Y-98599448D01*
X178024019Y-98495397D01*
X178012171Y-98420591D01*
X177976309Y-98310216D01*
X177956212Y-98248363D01*
X177956211Y-98248360D01*
X177908685Y-98155087D01*
X177873996Y-98087006D01*
X177837284Y-98036476D01*
X177767558Y-97940505D01*
X177767554Y-97940500D01*
X177639499Y-97812445D01*
X177639494Y-97812441D01*
X177492997Y-97706006D01*
X177492996Y-97706005D01*
X177492994Y-97706004D01*
X177441300Y-97679664D01*
X177331639Y-97623788D01*
X177331636Y-97623787D01*
X177159410Y-97567828D01*
X176997720Y-97542219D01*
X176934585Y-97512289D01*
X176897654Y-97452978D01*
X176898652Y-97383115D01*
X176937262Y-97324883D01*
X176997721Y-97297273D01*
X177159292Y-97271683D01*
X177331444Y-97215748D01*
X177331452Y-97215745D01*
X177492730Y-97133568D01*
X177508532Y-97122085D01*
X177508533Y-97122085D01*
X177019410Y-96632962D01*
X177082993Y-96615925D01*
X177197007Y-96550099D01*
X177290099Y-96457007D01*
X177355925Y-96342993D01*
X177372962Y-96279409D01*
X177862085Y-96768532D01*
X177873568Y-96752730D01*
X177955745Y-96591452D01*
X177955748Y-96591444D01*
X178011682Y-96419293D01*
X178040000Y-96240506D01*
X178040000Y-96059493D01*
X178011682Y-95880706D01*
X177955748Y-95708555D01*
X177955747Y-95708552D01*
X177873571Y-95547275D01*
X177873566Y-95547267D01*
X177862085Y-95531466D01*
X177372962Y-96020589D01*
X177355925Y-95957007D01*
X177290099Y-95842993D01*
X177197007Y-95749901D01*
X177082993Y-95684075D01*
X177019409Y-95667037D01*
X177508533Y-95177913D01*
X177492730Y-95166431D01*
X177331447Y-95084252D01*
X177331444Y-95084251D01*
X177159293Y-95028317D01*
X176997720Y-95002726D01*
X176934585Y-94972797D01*
X176897654Y-94913485D01*
X176898652Y-94843623D01*
X176937262Y-94785390D01*
X176997720Y-94757780D01*
X177012270Y-94755475D01*
X177159409Y-94732171D01*
X177331639Y-94676211D01*
X177492994Y-94593996D01*
X177639501Y-94487553D01*
X177767553Y-94359501D01*
X177873996Y-94212994D01*
X177956211Y-94051639D01*
X178012171Y-93879409D01*
X178026765Y-93787259D01*
X178040500Y-93700551D01*
X178040500Y-93519448D01*
X178024019Y-93415397D01*
X178012171Y-93340591D01*
X177976309Y-93230216D01*
X177956212Y-93168363D01*
X177956211Y-93168360D01*
X177927740Y-93112484D01*
X177873996Y-93007006D01*
X177860396Y-92988287D01*
X177767558Y-92860505D01*
X177767554Y-92860500D01*
X177639499Y-92732445D01*
X177639494Y-92732441D01*
X177492997Y-92626006D01*
X177492996Y-92626005D01*
X177492994Y-92626004D01*
X177441300Y-92599664D01*
X177331639Y-92543788D01*
X177331636Y-92543787D01*
X177159410Y-92487829D01*
X176999321Y-92462473D01*
X176936186Y-92432544D01*
X176899255Y-92373232D01*
X176900253Y-92303370D01*
X176938863Y-92245137D01*
X176999321Y-92217527D01*
X177069425Y-92206422D01*
X177159409Y-92192171D01*
X177331639Y-92136211D01*
X177492994Y-92053996D01*
X177639501Y-91947553D01*
X177767553Y-91819501D01*
X177873996Y-91672994D01*
X177956211Y-91511639D01*
X178012171Y-91339409D01*
X178034236Y-91200098D01*
X178040500Y-91160551D01*
X178040500Y-90979448D01*
X178024019Y-90875397D01*
X178012171Y-90800591D01*
X177976309Y-90690216D01*
X177956212Y-90628363D01*
X177956211Y-90628360D01*
X177927740Y-90572484D01*
X177873996Y-90467006D01*
X177860396Y-90448287D01*
X177767558Y-90320505D01*
X177767554Y-90320500D01*
X177639499Y-90192445D01*
X177639494Y-90192441D01*
X177492997Y-90086006D01*
X177492996Y-90086005D01*
X177492994Y-90086004D01*
X177441121Y-90059573D01*
X177331639Y-90003788D01*
X177331636Y-90003787D01*
X177159410Y-89947829D01*
X176999321Y-89922473D01*
X176936186Y-89892544D01*
X176899255Y-89833232D01*
X176900253Y-89763370D01*
X176938863Y-89705137D01*
X176999321Y-89677527D01*
X177069425Y-89666422D01*
X177159409Y-89652171D01*
X177331639Y-89596211D01*
X177492994Y-89513996D01*
X177639501Y-89407553D01*
X177767553Y-89279501D01*
X177873996Y-89132994D01*
X177956211Y-88971639D01*
X178012171Y-88799409D01*
X178026765Y-88707259D01*
X178040500Y-88620551D01*
X178040500Y-88439448D01*
X178024019Y-88335397D01*
X178012171Y-88260591D01*
X177976309Y-88150216D01*
X177956212Y-88088363D01*
X177956211Y-88088360D01*
X177927740Y-88032484D01*
X177873996Y-87927006D01*
X177860396Y-87908287D01*
X177767558Y-87780505D01*
X177767554Y-87780500D01*
X177639499Y-87652445D01*
X177639494Y-87652441D01*
X177492997Y-87546006D01*
X177492996Y-87546005D01*
X177492994Y-87546004D01*
X177441300Y-87519664D01*
X177331639Y-87463788D01*
X177331636Y-87463787D01*
X177159410Y-87407829D01*
X176999321Y-87382473D01*
X176936186Y-87352544D01*
X176899255Y-87293232D01*
X176900253Y-87223370D01*
X176938863Y-87165137D01*
X176999321Y-87137527D01*
X177069425Y-87126422D01*
X177159409Y-87112171D01*
X177331639Y-87056211D01*
X177492994Y-86973996D01*
X177639501Y-86867553D01*
X177767553Y-86739501D01*
X177873996Y-86592994D01*
X177956211Y-86431639D01*
X178012171Y-86259409D01*
X178033471Y-86124925D01*
X178040500Y-86080551D01*
X178040500Y-85899448D01*
X178024019Y-85795397D01*
X178012171Y-85720591D01*
X177976309Y-85610216D01*
X177956212Y-85548363D01*
X177956211Y-85548360D01*
X177927740Y-85492484D01*
X177873996Y-85387006D01*
X177860396Y-85368287D01*
X177767558Y-85240505D01*
X177767554Y-85240500D01*
X177639499Y-85112445D01*
X177639494Y-85112441D01*
X177492997Y-85006006D01*
X177492996Y-85006005D01*
X177492994Y-85006004D01*
X177441300Y-84979664D01*
X177331639Y-84923788D01*
X177331636Y-84923787D01*
X177159410Y-84867828D01*
X176997720Y-84842219D01*
X176934585Y-84812289D01*
X176897654Y-84752978D01*
X176898652Y-84683115D01*
X176937262Y-84624883D01*
X176997721Y-84597273D01*
X177159292Y-84571683D01*
X177331444Y-84515748D01*
X177331452Y-84515745D01*
X177492730Y-84433568D01*
X177508532Y-84422085D01*
X177508533Y-84422085D01*
X177019410Y-83932962D01*
X177082993Y-83915925D01*
X177197007Y-83850099D01*
X177290099Y-83757007D01*
X177355925Y-83642993D01*
X177372962Y-83579409D01*
X177862085Y-84068532D01*
X177873568Y-84052730D01*
X177955745Y-83891452D01*
X177955748Y-83891444D01*
X178011682Y-83719293D01*
X178040000Y-83540506D01*
X178040000Y-83359493D01*
X178011682Y-83180706D01*
X177955748Y-83008555D01*
X177955747Y-83008552D01*
X177873571Y-82847275D01*
X177873566Y-82847267D01*
X177862085Y-82831466D01*
X177372962Y-83320589D01*
X177355925Y-83257007D01*
X177290099Y-83142993D01*
X177197007Y-83049901D01*
X177082993Y-82984075D01*
X177019409Y-82967037D01*
X177508533Y-82477913D01*
X177492730Y-82466431D01*
X177331447Y-82384252D01*
X177331444Y-82384251D01*
X177159293Y-82328317D01*
X176997720Y-82302726D01*
X176934585Y-82272797D01*
X176897654Y-82213485D01*
X176898652Y-82143623D01*
X176937262Y-82085390D01*
X176997720Y-82057780D01*
X177012270Y-82055475D01*
X177159409Y-82032171D01*
X177331639Y-81976211D01*
X177492994Y-81893996D01*
X177639501Y-81787553D01*
X177767553Y-81659501D01*
X177873996Y-81512994D01*
X177956211Y-81351639D01*
X178012171Y-81179409D01*
X178026765Y-81087259D01*
X178040500Y-81000551D01*
X178040500Y-80819448D01*
X178020246Y-80691574D01*
X178012171Y-80640591D01*
X177969504Y-80509273D01*
X177956212Y-80468363D01*
X177956211Y-80468360D01*
X177925156Y-80407412D01*
X177873996Y-80307006D01*
X177860396Y-80288287D01*
X177767558Y-80160505D01*
X177767554Y-80160500D01*
X177639499Y-80032445D01*
X177639494Y-80032441D01*
X177492997Y-79926006D01*
X177492996Y-79926005D01*
X177492994Y-79926004D01*
X177441300Y-79899664D01*
X177331639Y-79843788D01*
X177331636Y-79843787D01*
X177159410Y-79787829D01*
X177027728Y-79766972D01*
X176964594Y-79737042D01*
X176927663Y-79677731D01*
X176928661Y-79607868D01*
X176967271Y-79549636D01*
X177031235Y-79521522D01*
X177047120Y-79520499D01*
X177784864Y-79520499D01*
X177784879Y-79520497D01*
X177784882Y-79520497D01*
X177809987Y-79517586D01*
X177809988Y-79517585D01*
X177809991Y-79517585D01*
X177912765Y-79472206D01*
X177992206Y-79392765D01*
X178037585Y-79289991D01*
X178040500Y-79264865D01*
X178040499Y-77475136D01*
X178040497Y-77475117D01*
X178037586Y-77450012D01*
X178037585Y-77450010D01*
X178037585Y-77450009D01*
X177992206Y-77347235D01*
X177957152Y-77312181D01*
X177923667Y-77250858D01*
X177928651Y-77181166D01*
X177970523Y-77125233D01*
X178035987Y-77100816D01*
X178044833Y-77100500D01*
X178175500Y-77100500D01*
X178242539Y-77120185D01*
G37*
G04 #@! TD.AperFunction*
G04 #@! TA.AperFunction,Conductor*
G36*
X158644075Y-121742993D02*
G01*
X158709901Y-121857007D01*
X158802993Y-121950099D01*
X158917007Y-122015925D01*
X158980590Y-122032962D01*
X158491466Y-122522085D01*
X158491466Y-122522086D01*
X158507267Y-122533566D01*
X158507275Y-122533571D01*
X158668552Y-122615747D01*
X158668555Y-122615748D01*
X158840706Y-122671682D01*
X159002279Y-122697273D01*
X159065413Y-122727202D01*
X159102345Y-122786513D01*
X159101347Y-122856376D01*
X159062738Y-122914609D01*
X159002280Y-122942219D01*
X158840589Y-122967829D01*
X158668363Y-123023787D01*
X158668360Y-123023788D01*
X158507002Y-123106006D01*
X158360505Y-123212441D01*
X158360500Y-123212445D01*
X158232445Y-123340500D01*
X158232441Y-123340505D01*
X158126006Y-123487002D01*
X158043788Y-123648360D01*
X158043785Y-123648368D01*
X158042430Y-123652541D01*
X158002992Y-123710216D01*
X157938633Y-123737413D01*
X157869787Y-123725498D01*
X157818312Y-123678253D01*
X157800500Y-123614221D01*
X157800500Y-122024158D01*
X157820185Y-121957119D01*
X157872989Y-121911364D01*
X157942147Y-121901420D01*
X158005703Y-121930445D01*
X158042432Y-121985842D01*
X158044253Y-121991448D01*
X158126431Y-122152730D01*
X158137913Y-122168532D01*
X158137913Y-122168533D01*
X158627037Y-121679408D01*
X158644075Y-121742993D01*
G37*
G04 #@! TD.AperFunction*
G04 #@! TA.AperFunction,Conductor*
G36*
X158005703Y-119392065D02*
G01*
X158042432Y-119447462D01*
X158043789Y-119451640D01*
X158126006Y-119612997D01*
X158232441Y-119759494D01*
X158232445Y-119759499D01*
X158360500Y-119887554D01*
X158360505Y-119887558D01*
X158488287Y-119980396D01*
X158507006Y-119993996D01*
X158612484Y-120047740D01*
X158668360Y-120076211D01*
X158668363Y-120076212D01*
X158754476Y-120104191D01*
X158840591Y-120132171D01*
X158960038Y-120151089D01*
X159002279Y-120157780D01*
X159065414Y-120187709D01*
X159102345Y-120247021D01*
X159101347Y-120316883D01*
X159062737Y-120375116D01*
X159002279Y-120402726D01*
X158840706Y-120428317D01*
X158668555Y-120484251D01*
X158668547Y-120484254D01*
X158507269Y-120566432D01*
X158491466Y-120577912D01*
X158491466Y-120577913D01*
X158980591Y-121067037D01*
X158917007Y-121084075D01*
X158802993Y-121149901D01*
X158709901Y-121242993D01*
X158644075Y-121357007D01*
X158627037Y-121420590D01*
X158137913Y-120931466D01*
X158137912Y-120931466D01*
X158126432Y-120947269D01*
X158044254Y-121108547D01*
X158044254Y-121108549D01*
X158042431Y-121114161D01*
X158002992Y-121171836D01*
X157938633Y-121199033D01*
X157869787Y-121187118D01*
X157818312Y-121139873D01*
X157800500Y-121075841D01*
X157800500Y-119485778D01*
X157820185Y-119418739D01*
X157872989Y-119372984D01*
X157942147Y-119363040D01*
X158005703Y-119392065D01*
G37*
G04 #@! TD.AperFunction*
G04 #@! TA.AperFunction,Conductor*
G36*
X158644075Y-109042993D02*
G01*
X158709901Y-109157007D01*
X158802993Y-109250099D01*
X158917007Y-109315925D01*
X158980590Y-109332962D01*
X158491466Y-109822085D01*
X158491466Y-109822086D01*
X158507267Y-109833566D01*
X158507275Y-109833571D01*
X158668552Y-109915747D01*
X158668555Y-109915748D01*
X158840706Y-109971682D01*
X159002279Y-109997273D01*
X159065413Y-110027202D01*
X159102345Y-110086513D01*
X159101347Y-110156376D01*
X159062738Y-110214609D01*
X159002280Y-110242219D01*
X158840589Y-110267829D01*
X158668363Y-110323787D01*
X158668360Y-110323788D01*
X158507002Y-110406006D01*
X158360505Y-110512441D01*
X158360500Y-110512445D01*
X158232445Y-110640500D01*
X158232441Y-110640505D01*
X158126006Y-110787002D01*
X158043788Y-110948360D01*
X158043785Y-110948368D01*
X158042430Y-110952541D01*
X158002992Y-111010216D01*
X157938633Y-111037413D01*
X157869787Y-111025498D01*
X157818312Y-110978253D01*
X157800500Y-110914221D01*
X157800500Y-109324158D01*
X157820185Y-109257119D01*
X157872989Y-109211364D01*
X157942147Y-109201420D01*
X158005703Y-109230445D01*
X158042432Y-109285842D01*
X158044253Y-109291448D01*
X158126431Y-109452730D01*
X158137913Y-109468532D01*
X158137913Y-109468533D01*
X158627037Y-108979408D01*
X158644075Y-109042993D01*
G37*
G04 #@! TD.AperFunction*
G04 #@! TA.AperFunction,Conductor*
G36*
X158005703Y-106692065D02*
G01*
X158042432Y-106747462D01*
X158043789Y-106751640D01*
X158126006Y-106912997D01*
X158232441Y-107059494D01*
X158232445Y-107059499D01*
X158360500Y-107187554D01*
X158360505Y-107187558D01*
X158463190Y-107262162D01*
X158507006Y-107293996D01*
X158612484Y-107347740D01*
X158668360Y-107376211D01*
X158668363Y-107376212D01*
X158754476Y-107404191D01*
X158840591Y-107432171D01*
X158960038Y-107451089D01*
X159002279Y-107457780D01*
X159065414Y-107487709D01*
X159102345Y-107547021D01*
X159101347Y-107616883D01*
X159062737Y-107675116D01*
X159002279Y-107702726D01*
X158840706Y-107728317D01*
X158668555Y-107784251D01*
X158668547Y-107784254D01*
X158507269Y-107866432D01*
X158491466Y-107877912D01*
X158491466Y-107877913D01*
X158980591Y-108367037D01*
X158917007Y-108384075D01*
X158802993Y-108449901D01*
X158709901Y-108542993D01*
X158644075Y-108657007D01*
X158627037Y-108720590D01*
X158137913Y-108231466D01*
X158137912Y-108231466D01*
X158126432Y-108247269D01*
X158044254Y-108408547D01*
X158044254Y-108408549D01*
X158042431Y-108414161D01*
X158002992Y-108471836D01*
X157938633Y-108499033D01*
X157869787Y-108487118D01*
X157818312Y-108439873D01*
X157800500Y-108375841D01*
X157800500Y-106785778D01*
X157820185Y-106718739D01*
X157872989Y-106672984D01*
X157942147Y-106663040D01*
X158005703Y-106692065D01*
G37*
G04 #@! TD.AperFunction*
G04 #@! TA.AperFunction,Conductor*
G36*
X158005703Y-99072065D02*
G01*
X158042432Y-99127462D01*
X158043789Y-99131640D01*
X158086494Y-99215453D01*
X158120040Y-99281290D01*
X158126006Y-99292997D01*
X158232441Y-99439494D01*
X158232445Y-99439499D01*
X158360500Y-99567554D01*
X158360505Y-99567558D01*
X158488287Y-99660396D01*
X158507006Y-99673996D01*
X158612484Y-99727740D01*
X158668360Y-99756211D01*
X158668363Y-99756212D01*
X158706851Y-99768717D01*
X158840591Y-99812171D01*
X158913639Y-99823740D01*
X159000678Y-99837527D01*
X159063813Y-99867456D01*
X159100744Y-99926768D01*
X159099746Y-99996631D01*
X159061136Y-100054863D01*
X159000678Y-100082473D01*
X158840589Y-100107829D01*
X158668363Y-100163787D01*
X158668360Y-100163788D01*
X158507002Y-100246006D01*
X158360505Y-100352441D01*
X158360500Y-100352445D01*
X158232445Y-100480500D01*
X158232441Y-100480505D01*
X158126006Y-100627002D01*
X158043788Y-100788360D01*
X158043785Y-100788368D01*
X158042430Y-100792541D01*
X158002992Y-100850216D01*
X157938633Y-100877413D01*
X157869787Y-100865498D01*
X157818312Y-100818253D01*
X157800500Y-100754221D01*
X157800500Y-99165778D01*
X157820185Y-99098739D01*
X157872989Y-99052984D01*
X157942147Y-99043040D01*
X158005703Y-99072065D01*
G37*
G04 #@! TD.AperFunction*
G04 #@! TA.AperFunction,Conductor*
G36*
X158644075Y-96342993D02*
G01*
X158709901Y-96457007D01*
X158802993Y-96550099D01*
X158917007Y-96615925D01*
X158980590Y-96632962D01*
X158491466Y-97122085D01*
X158491466Y-97122086D01*
X158507267Y-97133566D01*
X158507275Y-97133571D01*
X158668552Y-97215747D01*
X158668555Y-97215748D01*
X158840706Y-97271682D01*
X159002279Y-97297273D01*
X159065413Y-97327202D01*
X159102345Y-97386513D01*
X159101347Y-97456376D01*
X159062738Y-97514609D01*
X159002280Y-97542219D01*
X158840589Y-97567829D01*
X158668363Y-97623787D01*
X158668360Y-97623788D01*
X158507002Y-97706006D01*
X158360505Y-97812441D01*
X158360500Y-97812445D01*
X158232445Y-97940500D01*
X158232441Y-97940505D01*
X158126006Y-98087002D01*
X158043788Y-98248360D01*
X158043785Y-98248368D01*
X158042430Y-98252541D01*
X158002992Y-98310216D01*
X157938633Y-98337413D01*
X157869787Y-98325498D01*
X157818312Y-98278253D01*
X157800500Y-98214221D01*
X157800500Y-96624158D01*
X157820185Y-96557119D01*
X157872989Y-96511364D01*
X157942147Y-96501420D01*
X158005703Y-96530445D01*
X158042432Y-96585842D01*
X158044253Y-96591448D01*
X158126431Y-96752730D01*
X158137913Y-96768532D01*
X158137913Y-96768533D01*
X158627037Y-96279408D01*
X158644075Y-96342993D01*
G37*
G04 #@! TD.AperFunction*
G04 #@! TA.AperFunction,Conductor*
G36*
X160063181Y-96749628D02*
G01*
X160096666Y-96810951D01*
X160099500Y-96837309D01*
X160099500Y-97753084D01*
X160079815Y-97820123D01*
X160027011Y-97865878D01*
X159957853Y-97875822D01*
X159894297Y-97846797D01*
X159887819Y-97840765D01*
X159859499Y-97812445D01*
X159859494Y-97812441D01*
X159712997Y-97706006D01*
X159712996Y-97706005D01*
X159712994Y-97706004D01*
X159661300Y-97679664D01*
X159551639Y-97623788D01*
X159551636Y-97623787D01*
X159379410Y-97567828D01*
X159217720Y-97542219D01*
X159154585Y-97512289D01*
X159117654Y-97452978D01*
X159118652Y-97383115D01*
X159157262Y-97324883D01*
X159217721Y-97297273D01*
X159379292Y-97271683D01*
X159551444Y-97215748D01*
X159551452Y-97215745D01*
X159712730Y-97133568D01*
X159728532Y-97122085D01*
X159728533Y-97122085D01*
X159239410Y-96632962D01*
X159302993Y-96615925D01*
X159417007Y-96550099D01*
X159510099Y-96457007D01*
X159575925Y-96342993D01*
X159592962Y-96279409D01*
X160063181Y-96749628D01*
G37*
G04 #@! TD.AperFunction*
G04 #@! TA.AperFunction,Conductor*
G36*
X158005703Y-93992065D02*
G01*
X158042432Y-94047462D01*
X158043789Y-94051640D01*
X158126006Y-94212997D01*
X158232441Y-94359494D01*
X158232445Y-94359499D01*
X158360500Y-94487554D01*
X158360505Y-94487558D01*
X158488287Y-94580396D01*
X158507006Y-94593996D01*
X158612484Y-94647740D01*
X158668360Y-94676211D01*
X158668363Y-94676212D01*
X158754476Y-94704191D01*
X158840591Y-94732171D01*
X158960038Y-94751089D01*
X159002279Y-94757780D01*
X159065414Y-94787709D01*
X159102345Y-94847021D01*
X159101347Y-94916883D01*
X159062737Y-94975116D01*
X159002279Y-95002726D01*
X158840706Y-95028317D01*
X158668555Y-95084251D01*
X158668547Y-95084254D01*
X158507269Y-95166432D01*
X158491466Y-95177912D01*
X158491466Y-95177913D01*
X158980591Y-95667037D01*
X158917007Y-95684075D01*
X158802993Y-95749901D01*
X158709901Y-95842993D01*
X158644075Y-95957007D01*
X158627037Y-96020590D01*
X158137913Y-95531466D01*
X158137912Y-95531466D01*
X158126432Y-95547269D01*
X158044254Y-95708547D01*
X158044254Y-95708549D01*
X158042431Y-95714161D01*
X158002992Y-95771836D01*
X157938633Y-95799033D01*
X157869787Y-95787118D01*
X157818312Y-95739873D01*
X157800500Y-95675841D01*
X157800500Y-94085778D01*
X157820185Y-94018739D01*
X157872989Y-93972984D01*
X157942147Y-93963040D01*
X158005703Y-93992065D01*
G37*
G04 #@! TD.AperFunction*
G04 #@! TA.AperFunction,Conductor*
G36*
X160018834Y-94430734D02*
G01*
X160074767Y-94472606D01*
X160099184Y-94538070D01*
X160099500Y-94546916D01*
X160099500Y-95462690D01*
X160079815Y-95529729D01*
X160063181Y-95550371D01*
X159592962Y-96020589D01*
X159575925Y-95957007D01*
X159510099Y-95842993D01*
X159417007Y-95749901D01*
X159302993Y-95684075D01*
X159239409Y-95667037D01*
X159728533Y-95177913D01*
X159712730Y-95166431D01*
X159551447Y-95084252D01*
X159551444Y-95084251D01*
X159379293Y-95028317D01*
X159217720Y-95002726D01*
X159154585Y-94972797D01*
X159117654Y-94913485D01*
X159118652Y-94843623D01*
X159157262Y-94785390D01*
X159217720Y-94757780D01*
X159232270Y-94755475D01*
X159379409Y-94732171D01*
X159551639Y-94676211D01*
X159712994Y-94593996D01*
X159859501Y-94487553D01*
X159887819Y-94459235D01*
X159949142Y-94425750D01*
X160018834Y-94430734D01*
G37*
G04 #@! TD.AperFunction*
G04 #@! TA.AperFunction,Conductor*
G36*
X160413130Y-83479150D02*
G01*
X160471363Y-83517760D01*
X160499477Y-83581723D01*
X160500500Y-83597616D01*
X160500500Y-85839182D01*
X160480815Y-85906221D01*
X160428011Y-85951976D01*
X160358853Y-85961920D01*
X160295297Y-85932895D01*
X160257523Y-85874117D01*
X160254027Y-85858580D01*
X160242382Y-85785062D01*
X160232171Y-85720591D01*
X160196309Y-85610216D01*
X160176212Y-85548363D01*
X160176211Y-85548360D01*
X160147740Y-85492484D01*
X160093996Y-85387006D01*
X160080396Y-85368287D01*
X159987558Y-85240505D01*
X159987554Y-85240500D01*
X159859499Y-85112445D01*
X159859494Y-85112441D01*
X159712997Y-85006006D01*
X159712996Y-85006005D01*
X159712994Y-85006004D01*
X159661300Y-84979664D01*
X159551639Y-84923788D01*
X159551636Y-84923787D01*
X159379410Y-84867828D01*
X159217720Y-84842219D01*
X159154585Y-84812289D01*
X159117654Y-84752978D01*
X159118652Y-84683115D01*
X159157262Y-84624883D01*
X159217721Y-84597273D01*
X159379292Y-84571683D01*
X159551444Y-84515748D01*
X159551452Y-84515745D01*
X159712730Y-84433568D01*
X159728532Y-84422085D01*
X159728533Y-84422085D01*
X159239410Y-83932962D01*
X159302993Y-83915925D01*
X159417007Y-83850099D01*
X159510099Y-83757007D01*
X159575925Y-83642993D01*
X159592962Y-83579409D01*
X160082085Y-84068532D01*
X160093568Y-84052730D01*
X160175745Y-83891452D01*
X160175748Y-83891444D01*
X160231682Y-83719293D01*
X160254027Y-83578218D01*
X160283956Y-83515083D01*
X160343268Y-83478152D01*
X160413130Y-83479150D01*
G37*
G04 #@! TD.AperFunction*
G04 #@! TA.AperFunction,Conductor*
G36*
X158644075Y-83642993D02*
G01*
X158709901Y-83757007D01*
X158802993Y-83850099D01*
X158917007Y-83915925D01*
X158980590Y-83932962D01*
X158491466Y-84422085D01*
X158491466Y-84422086D01*
X158507267Y-84433566D01*
X158507275Y-84433571D01*
X158668552Y-84515747D01*
X158668555Y-84515748D01*
X158840706Y-84571682D01*
X159002279Y-84597273D01*
X159065413Y-84627202D01*
X159102345Y-84686513D01*
X159101347Y-84756376D01*
X159062738Y-84814609D01*
X159002280Y-84842219D01*
X158840589Y-84867829D01*
X158668363Y-84923787D01*
X158668360Y-84923788D01*
X158507002Y-85006006D01*
X158360505Y-85112441D01*
X158360500Y-85112445D01*
X158232445Y-85240500D01*
X158232441Y-85240505D01*
X158126006Y-85387002D01*
X158043788Y-85548360D01*
X158043785Y-85548368D01*
X158042430Y-85552541D01*
X158002992Y-85610216D01*
X157938633Y-85637413D01*
X157869787Y-85625498D01*
X157818312Y-85578253D01*
X157800500Y-85514221D01*
X157800500Y-83924158D01*
X157820185Y-83857119D01*
X157872989Y-83811364D01*
X157942147Y-83801420D01*
X158005703Y-83830445D01*
X158042432Y-83885842D01*
X158044253Y-83891448D01*
X158126431Y-84052730D01*
X158137913Y-84068532D01*
X158137913Y-84068533D01*
X158627037Y-83579408D01*
X158644075Y-83642993D01*
G37*
G04 #@! TD.AperFunction*
G04 #@! TA.AperFunction,Conductor*
G36*
X159649281Y-82015674D02*
G01*
X160464181Y-82830574D01*
X160497666Y-82891897D01*
X160500500Y-82918255D01*
X160500500Y-83302383D01*
X160480815Y-83369422D01*
X160428011Y-83415177D01*
X160358853Y-83425121D01*
X160295297Y-83396096D01*
X160257523Y-83337318D01*
X160254027Y-83321781D01*
X160231682Y-83180706D01*
X160175748Y-83008555D01*
X160175747Y-83008552D01*
X160093571Y-82847275D01*
X160093566Y-82847267D01*
X160082085Y-82831466D01*
X159592962Y-83320589D01*
X159575925Y-83257007D01*
X159510099Y-83142993D01*
X159417007Y-83049901D01*
X159302993Y-82984075D01*
X159239409Y-82967037D01*
X159728533Y-82477913D01*
X159712730Y-82466431D01*
X159551447Y-82384252D01*
X159551444Y-82384251D01*
X159379293Y-82328317D01*
X159217720Y-82302726D01*
X159154585Y-82272797D01*
X159117654Y-82213485D01*
X159118652Y-82143623D01*
X159157262Y-82085390D01*
X159217720Y-82057780D01*
X159232270Y-82055475D01*
X159379409Y-82032171D01*
X159523284Y-81985423D01*
X159593123Y-81983429D01*
X159649281Y-82015674D01*
G37*
G04 #@! TD.AperFunction*
G04 #@! TA.AperFunction,Conductor*
G36*
X158005703Y-81292065D02*
G01*
X158042432Y-81347462D01*
X158043789Y-81351640D01*
X158126006Y-81512997D01*
X158232441Y-81659494D01*
X158232445Y-81659499D01*
X158360500Y-81787554D01*
X158360505Y-81787558D01*
X158484801Y-81877863D01*
X158507006Y-81893996D01*
X158576604Y-81929458D01*
X158668360Y-81976211D01*
X158668363Y-81976212D01*
X158745277Y-82001202D01*
X158840591Y-82032171D01*
X158960038Y-82051089D01*
X159002279Y-82057780D01*
X159065414Y-82087709D01*
X159102345Y-82147021D01*
X159101347Y-82216883D01*
X159062737Y-82275116D01*
X159002279Y-82302726D01*
X158840706Y-82328317D01*
X158668555Y-82384251D01*
X158668547Y-82384254D01*
X158507269Y-82466432D01*
X158491466Y-82477912D01*
X158491466Y-82477913D01*
X158980591Y-82967037D01*
X158917007Y-82984075D01*
X158802993Y-83049901D01*
X158709901Y-83142993D01*
X158644075Y-83257007D01*
X158627037Y-83320590D01*
X158137913Y-82831466D01*
X158137912Y-82831466D01*
X158126432Y-82847269D01*
X158044254Y-83008547D01*
X158044254Y-83008549D01*
X158042431Y-83014161D01*
X158002992Y-83071836D01*
X157938633Y-83099033D01*
X157869787Y-83087118D01*
X157818312Y-83039873D01*
X157800500Y-82975841D01*
X157800500Y-81385778D01*
X157820185Y-81318739D01*
X157872989Y-81272984D01*
X157942147Y-81263040D01*
X158005703Y-81292065D01*
G37*
G04 #@! TD.AperFunction*
G04 #@! TD*
M02*
