M48
; DRILL file {KiCad 9.0.7} date 2026-05-07T16:22:57+0100
; FORMAT={-:-/ absolute / metric / decimal}
; #@! TF.CreationDate,2026-05-07T16:22:57+01:00
; #@! TF.GenerationSoftware,Kicad,Pcbnew,9.0.7
; #@! TF.FileFunction,Plated,1,2,PTH
FMAT,2
METRIC
; #@! TA.AperFunction,Plated,PTH,ViaDrill
T1C0.300
; #@! TA.AperFunction,Plated,PTH,ComponentDrill
T2C0.600
; #@! TA.AperFunction,Plated,PTH,ComponentDrill
T3C1.000
%
G90
G05
T1
X161.4Y-107.7
X162.2Y-101.5
X163.1Y-103.4
X163.2Y-96.2
X163.55Y-100.45
X164.0Y-103.1
X164.7Y-113.3
X164.8Y-102.75
X165.55Y-104.1
X165.6Y-105.9
X165.7Y-107.3
X165.8Y-96.25
X167.5Y-87.1
X167.5Y-89.5
X167.55Y-96.25
X167.8Y-104.0
X168.2Y-108.6
X168.2Y-117.0
X168.75Y-99.65
X169.2Y-108.8
X169.4Y-96.2
X169.5Y-87.1
X170.2Y-109.0
X171.15Y-100.05
X171.3Y-92.2
X171.8Y-99.4
X173.1Y-104.1
X174.5Y-90.7
T3
X159.11Y-78.37
X159.11Y-80.91
X159.11Y-83.45
X159.11Y-85.99
X159.11Y-88.53
X159.11Y-91.07
X159.11Y-93.61
X159.11Y-96.15
X159.11Y-98.69
X159.11Y-101.23
X159.11Y-103.77
X159.11Y-106.31
X159.11Y-108.85
X159.11Y-111.39
X159.11Y-113.93
X159.11Y-116.47
X159.11Y-119.01
X159.11Y-121.55
X159.11Y-124.09
X159.11Y-126.63
X165.46Y-126.39
X168.0Y-126.39
X170.54Y-126.39
X176.89Y-78.37
X176.89Y-80.91
X176.89Y-83.45
X176.89Y-85.99
X176.89Y-88.53
X176.89Y-91.07
X176.89Y-93.61
X176.89Y-96.15
X176.89Y-98.69
X176.89Y-101.23
X176.89Y-103.77
X176.89Y-106.31
X176.89Y-108.85
X176.89Y-111.39
X176.89Y-113.93
X176.89Y-116.47
X176.89Y-119.01
X176.89Y-121.55
X176.89Y-124.09
X176.89Y-126.63
T2
G00X163.68Y-78.75
M15
G01X163.68Y-78.15
M16
G05
G00X163.68Y-83.18
M15
G01X163.68Y-82.08
M16
G05
G00X172.32Y-78.75
M15
G01X172.32Y-78.15
M16
G05
G00X172.32Y-83.18
M15
G01X172.32Y-82.08
M16
G05
M30
