G04 #@! TF.GenerationSoftware,KiCad,Pcbnew,9.0.7*
G04 #@! TF.CreationDate,2026-05-08T14:29:24+01:00*
G04 #@! TF.ProjectId,catboard,63617462-6f61-4726-942e-6b696361645f,rev?*
G04 #@! TF.SameCoordinates,Original*
G04 #@! TF.FileFunction,Copper,L1,Top*
G04 #@! TF.FilePolarity,Positive*
%FSLAX46Y46*%
G04 Gerber Fmt 4.6, Leading zero omitted, Abs format (unit mm)*
G04 Created by KiCad (PCBNEW 9.0.7) date 2026-05-08 14:29:24*
%MOMM*%
%LPD*%
G01*
G04 APERTURE LIST*
G04 Aperture macros list*
%AMRoundRect*
0 Rectangle with rounded corners*
0 $1 Rounding radius*
0 $2 $3 $4 $5 $6 $7 $8 $9 X,Y pos of 4 corners*
0 Add a 4 corners polygon primitive as box body*
4,1,4,$2,$3,$4,$5,$6,$7,$8,$9,$2,$3,0*
0 Add four circle primitives for the rounded corners*
1,1,$1+$1,$2,$3*
1,1,$1+$1,$4,$5*
1,1,$1+$1,$6,$7*
1,1,$1+$1,$8,$9*
0 Add four rect primitives between the rounded corners*
20,1,$1+$1,$2,$3,$4,$5,0*
20,1,$1+$1,$4,$5,$6,$7,0*
20,1,$1+$1,$6,$7,$8,$9,0*
20,1,$1+$1,$8,$9,$2,$3,0*%
G04 Aperture macros list end*
G04 #@! TA.AperFunction,SMDPad,CuDef*
%ADD10RoundRect,0.140000X0.170000X-0.140000X0.170000X0.140000X-0.170000X0.140000X-0.170000X-0.140000X0*%
G04 #@! TD*
G04 #@! TA.AperFunction,SMDPad,CuDef*
%ADD11RoundRect,0.140000X-0.140000X-0.170000X0.140000X-0.170000X0.140000X0.170000X-0.140000X0.170000X0*%
G04 #@! TD*
G04 #@! TA.AperFunction,SMDPad,CuDef*
%ADD12RoundRect,0.140000X-0.170000X0.140000X-0.170000X-0.140000X0.170000X-0.140000X0.170000X0.140000X0*%
G04 #@! TD*
G04 #@! TA.AperFunction,ComponentPad*
%ADD13R,1.700000X1.700000*%
G04 #@! TD*
G04 #@! TA.AperFunction,ComponentPad*
%ADD14C,1.700000*%
G04 #@! TD*
G04 #@! TA.AperFunction,SMDPad,CuDef*
%ADD15RoundRect,0.140000X0.140000X0.170000X-0.140000X0.170000X-0.140000X-0.170000X0.140000X-0.170000X0*%
G04 #@! TD*
G04 #@! TA.AperFunction,SMDPad,CuDef*
%ADD16R,0.600000X1.450000*%
G04 #@! TD*
G04 #@! TA.AperFunction,SMDPad,CuDef*
%ADD17R,0.300000X1.450000*%
G04 #@! TD*
G04 #@! TA.AperFunction,HeatsinkPad*
%ADD18O,1.000000X2.100000*%
G04 #@! TD*
G04 #@! TA.AperFunction,HeatsinkPad*
%ADD19O,1.000000X1.600000*%
G04 #@! TD*
G04 #@! TA.AperFunction,SMDPad,CuDef*
%ADD20RoundRect,0.135000X0.185000X-0.135000X0.185000X0.135000X-0.185000X0.135000X-0.185000X-0.135000X0*%
G04 #@! TD*
G04 #@! TA.AperFunction,SMDPad,CuDef*
%ADD21RoundRect,0.135000X-0.135000X-0.185000X0.135000X-0.185000X0.135000X0.185000X-0.135000X0.185000X0*%
G04 #@! TD*
G04 #@! TA.AperFunction,SMDPad,CuDef*
%ADD22RoundRect,0.125000X-0.250000X-0.125000X0.250000X-0.125000X0.250000X0.125000X-0.250000X0.125000X0*%
G04 #@! TD*
G04 #@! TA.AperFunction,HeatsinkPad*
%ADD23R,3.400000X4.300000*%
G04 #@! TD*
G04 #@! TA.AperFunction,SMDPad,CuDef*
%ADD24RoundRect,0.050000X-0.387500X-0.050000X0.387500X-0.050000X0.387500X0.050000X-0.387500X0.050000X0*%
G04 #@! TD*
G04 #@! TA.AperFunction,SMDPad,CuDef*
%ADD25RoundRect,0.050000X-0.050000X-0.387500X0.050000X-0.387500X0.050000X0.387500X-0.050000X0.387500X0*%
G04 #@! TD*
G04 #@! TA.AperFunction,HeatsinkPad*
%ADD26R,3.200000X3.200000*%
G04 #@! TD*
G04 #@! TA.AperFunction,SMDPad,CuDef*
%ADD27RoundRect,0.135000X0.135000X0.185000X-0.135000X0.185000X-0.135000X-0.185000X0.135000X-0.185000X0*%
G04 #@! TD*
G04 #@! TA.AperFunction,SMDPad,CuDef*
%ADD28RoundRect,0.140000X0.021213X-0.219203X0.219203X-0.021213X-0.021213X0.219203X-0.219203X0.021213X0*%
G04 #@! TD*
G04 #@! TA.AperFunction,SMDPad,CuDef*
%ADD29RoundRect,0.225000X0.225000X0.250000X-0.225000X0.250000X-0.225000X-0.250000X0.225000X-0.250000X0*%
G04 #@! TD*
G04 #@! TA.AperFunction,SMDPad,CuDef*
%ADD30RoundRect,0.150000X0.150000X-0.587500X0.150000X0.587500X-0.150000X0.587500X-0.150000X-0.587500X0*%
G04 #@! TD*
G04 #@! TA.AperFunction,SMDPad,CuDef*
%ADD31RoundRect,0.250000X0.450000X0.350000X-0.450000X0.350000X-0.450000X-0.350000X0.450000X-0.350000X0*%
G04 #@! TD*
G04 #@! TA.AperFunction,SMDPad,CuDef*
%ADD32RoundRect,0.200000X-0.800000X0.200000X-0.800000X-0.200000X0.800000X-0.200000X0.800000X0.200000X0*%
G04 #@! TD*
G04 #@! TA.AperFunction,SMDPad,CuDef*
%ADD33RoundRect,0.140000X-0.021213X0.219203X-0.219203X0.021213X0.021213X-0.219203X0.219203X-0.021213X0*%
G04 #@! TD*
G04 #@! TA.AperFunction,ViaPad*
%ADD34C,0.600000*%
G04 #@! TD*
G04 #@! TA.AperFunction,Conductor*
%ADD35C,0.200000*%
G04 #@! TD*
G04 APERTURE END LIST*
D10*
G04 #@! TO.P,C3,1*
G04 #@! TO.N,+3V3*
X170700000Y-101780000D03*
G04 #@! TO.P,C3,2*
G04 #@! TO.N,GND*
X170700000Y-100820000D03*
G04 #@! TD*
G04 #@! TO.P,C6,1*
G04 #@! TO.N,+3V3*
X171000000Y-96000000D03*
G04 #@! TO.P,C6,2*
G04 #@! TO.N,GND*
X171000000Y-95040000D03*
G04 #@! TD*
D11*
G04 #@! TO.P,C8,1*
G04 #@! TO.N,+3V3*
X172320000Y-103000000D03*
G04 #@! TO.P,C8,2*
G04 #@! TO.N,GND*
X173280000Y-103000000D03*
G04 #@! TD*
D12*
G04 #@! TO.P,C15,1*
G04 #@! TO.N,GND*
X164490000Y-114620000D03*
G04 #@! TO.P,C15,2*
G04 #@! TO.N,XIN*
X164490000Y-115580000D03*
G04 #@! TD*
D13*
G04 #@! TO.P,J4,1,Pin_1*
G04 #@! TO.N,SWCLK*
X165460000Y-126390000D03*
D14*
G04 #@! TO.P,J4,2,Pin_2*
G04 #@! TO.N,GND*
X168000000Y-126390000D03*
G04 #@! TO.P,J4,3,Pin_3*
G04 #@! TO.N,SWD*
X170540000Y-126390000D03*
G04 #@! TD*
D13*
G04 #@! TO.P,J2,1,Pin_1*
G04 #@! TO.N,GPI0*
X159110000Y-78370000D03*
D14*
G04 #@! TO.P,J2,2,Pin_2*
G04 #@! TO.N,GPI1*
X159110000Y-80910000D03*
G04 #@! TO.P,J2,3,Pin_3*
G04 #@! TO.N,GND*
X159110000Y-83450000D03*
G04 #@! TO.P,J2,4,Pin_4*
G04 #@! TO.N,GPI2*
X159110000Y-85990000D03*
G04 #@! TO.P,J2,5,Pin_5*
G04 #@! TO.N,GPI3*
X159110000Y-88530000D03*
G04 #@! TO.P,J2,6,Pin_6*
G04 #@! TO.N,GPI4*
X159110000Y-91070000D03*
G04 #@! TO.P,J2,7,Pin_7*
G04 #@! TO.N,GPI5*
X159110000Y-93610000D03*
G04 #@! TO.P,J2,8,Pin_8*
G04 #@! TO.N,GND*
X159110000Y-96150000D03*
G04 #@! TO.P,J2,9,Pin_9*
G04 #@! TO.N,GPI6*
X159110000Y-98690000D03*
G04 #@! TO.P,J2,10,Pin_10*
G04 #@! TO.N,GPI7*
X159110000Y-101230000D03*
G04 #@! TO.P,J2,11,Pin_11*
G04 #@! TO.N,GPI8*
X159110000Y-103770000D03*
G04 #@! TO.P,J2,12,Pin_12*
G04 #@! TO.N,GPI9*
X159110000Y-106310000D03*
G04 #@! TO.P,J2,13,Pin_13*
G04 #@! TO.N,GND*
X159110000Y-108850000D03*
G04 #@! TO.P,J2,14,Pin_14*
G04 #@! TO.N,GPI10*
X159110000Y-111390000D03*
G04 #@! TO.P,J2,15,Pin_15*
G04 #@! TO.N,GPI11*
X159110000Y-113930000D03*
G04 #@! TO.P,J2,16,Pin_16*
G04 #@! TO.N,GPI12*
X159110000Y-116470000D03*
G04 #@! TO.P,J2,17,Pin_17*
G04 #@! TO.N,GPI13*
X159110000Y-119010000D03*
G04 #@! TO.P,J2,18,Pin_18*
G04 #@! TO.N,GND*
X159110000Y-121550000D03*
G04 #@! TO.P,J2,19,Pin_19*
G04 #@! TO.N,GPI14*
X159110000Y-124090000D03*
G04 #@! TO.P,J2,20,Pin_20*
G04 #@! TO.N,GPI15*
X159110000Y-126630000D03*
G04 #@! TD*
D10*
G04 #@! TO.P,C7,1*
G04 #@! TO.N,+3V3*
X172000000Y-95360000D03*
G04 #@! TO.P,C7,2*
G04 #@! TO.N,GND*
X172000000Y-94400000D03*
G04 #@! TD*
D15*
G04 #@! TO.P,C17,1*
G04 #@! TO.N,+3V3*
X166960000Y-92700000D03*
G04 #@! TO.P,C17,2*
G04 #@! TO.N,GND*
X166000000Y-92700000D03*
G04 #@! TD*
G04 #@! TO.P,C4,1*
G04 #@! TO.N,+3V3*
X164160000Y-102200000D03*
G04 #@! TO.P,C4,2*
G04 #@! TO.N,GND*
X163200000Y-102200000D03*
G04 #@! TD*
D16*
G04 #@! TO.P,J1,A1,GND*
G04 #@! TO.N,GND*
X171250000Y-83545000D03*
G04 #@! TO.P,J1,A4,VBUS*
G04 #@! TO.N,VBUS*
X170450000Y-83545000D03*
D17*
G04 #@! TO.P,J1,A5,CC1*
G04 #@! TO.N,Net-(J1-CC1)*
X169250000Y-83545000D03*
G04 #@! TO.P,J1,A6,D+*
G04 #@! TO.N,USB_D+*
X168250000Y-83545000D03*
G04 #@! TO.P,J1,A7,D-*
G04 #@! TO.N,USB_D-*
X167750000Y-83545000D03*
G04 #@! TO.P,J1,A8*
G04 #@! TO.N,N/C*
X166750000Y-83545000D03*
D16*
G04 #@! TO.P,J1,A9,VBUS*
G04 #@! TO.N,VBUS*
X165550000Y-83545000D03*
G04 #@! TO.P,J1,A12,GND*
G04 #@! TO.N,GND*
X164750000Y-83545000D03*
G04 #@! TO.P,J1,B1,GND*
X164750000Y-83545000D03*
G04 #@! TO.P,J1,B4,VBUS*
G04 #@! TO.N,VBUS*
X165550000Y-83545000D03*
D17*
G04 #@! TO.P,J1,B5,CC2*
G04 #@! TO.N,Net-(J1-CC2)*
X166250000Y-83545000D03*
G04 #@! TO.P,J1,B6,D+*
G04 #@! TO.N,USB_D+*
X167250000Y-83545000D03*
G04 #@! TO.P,J1,B7,D-*
G04 #@! TO.N,USB_D-*
X168750000Y-83545000D03*
G04 #@! TO.P,J1,B8*
G04 #@! TO.N,N/C*
X169750000Y-83545000D03*
D16*
G04 #@! TO.P,J1,B9,VBUS*
G04 #@! TO.N,VBUS*
X170450000Y-83545000D03*
G04 #@! TO.P,J1,B12,GND*
G04 #@! TO.N,GND*
X171250000Y-83545000D03*
D18*
G04 #@! TO.P,J1,S1,SHIELD*
X172320000Y-82630000D03*
D19*
X172320000Y-78450000D03*
D18*
X163680000Y-82630000D03*
D19*
X163680000Y-78450000D03*
G04 #@! TD*
D20*
G04 #@! TO.P,R1,1*
G04 #@! TO.N,GND*
X167500000Y-86310000D03*
G04 #@! TO.P,R1,2*
G04 #@! TO.N,Net-(J1-CC2)*
X167500000Y-85290000D03*
G04 #@! TD*
D21*
G04 #@! TO.P,R6,1*
G04 #@! TO.N,+3V3*
X163995000Y-92700000D03*
G04 #@! TO.P,R6,2*
G04 #@! TO.N,QSPI_SS*
X165015000Y-92700000D03*
G04 #@! TD*
G04 #@! TO.P,R5,1*
G04 #@! TO.N,XOUT*
X167790000Y-112800000D03*
G04 #@! TO.P,R5,2*
G04 #@! TO.N,Net-(C16-Pad2)*
X168810000Y-112800000D03*
G04 #@! TD*
D22*
G04 #@! TO.P,U3,1,~{CS}*
G04 #@! TO.N,QSPI_SS*
X163100000Y-94070000D03*
G04 #@! TO.P,U3,2,DO/IO_{1}*
G04 #@! TO.N,QSPI_SD1*
X163100000Y-95340000D03*
G04 #@! TO.P,U3,3,~{WP}/IO_{2}*
G04 #@! TO.N,QSPI_SD2*
X163100000Y-96610000D03*
G04 #@! TO.P,U3,4,GND*
G04 #@! TO.N,GND*
X163100000Y-97880000D03*
G04 #@! TO.P,U3,5,DI/IO_{0}*
G04 #@! TO.N,QSPI_SD0*
X168500000Y-97880000D03*
G04 #@! TO.P,U3,6,CLK*
G04 #@! TO.N,QSPI_SCLK*
X168500000Y-96610000D03*
G04 #@! TO.P,U3,7,~{HOLD}/~{RESET}/IO_{3}*
G04 #@! TO.N,QSPI_SD3*
X168500000Y-95340000D03*
G04 #@! TO.P,U3,8,VCC*
G04 #@! TO.N,+3V3*
X168500000Y-94070000D03*
D23*
G04 #@! TO.P,U3,9,EP*
G04 #@! TO.N,GND*
X165800000Y-95975000D03*
G04 #@! TD*
D20*
G04 #@! TO.P,R4,1*
G04 #@! TO.N,Net-(U1-USB_DP)*
X168700000Y-101800000D03*
G04 #@! TO.P,R4,2*
G04 #@! TO.N,USB_D+*
X168700000Y-100780000D03*
G04 #@! TD*
D10*
G04 #@! TO.P,C16,1*
G04 #@! TO.N,GND*
X169890000Y-115600000D03*
G04 #@! TO.P,C16,2*
G04 #@! TO.N,Net-(C16-Pad2)*
X169890000Y-114640000D03*
G04 #@! TD*
D24*
G04 #@! TO.P,U1,1,IOVDD*
G04 #@! TO.N,+3V3*
X164562500Y-103900000D03*
G04 #@! TO.P,U1,2,GPIO0*
G04 #@! TO.N,GPI0*
X164562500Y-104300000D03*
G04 #@! TO.P,U1,3,GPIO1*
G04 #@! TO.N,GPI1*
X164562500Y-104700000D03*
G04 #@! TO.P,U1,4,GPIO2*
G04 #@! TO.N,GPI2*
X164562500Y-105100000D03*
G04 #@! TO.P,U1,5,GPIO3*
G04 #@! TO.N,GPI3*
X164562500Y-105500000D03*
G04 #@! TO.P,U1,6,GPIO4*
G04 #@! TO.N,GPI4*
X164562500Y-105900000D03*
G04 #@! TO.P,U1,7,GPIO5*
G04 #@! TO.N,GPI5*
X164562500Y-106300000D03*
G04 #@! TO.P,U1,8,GPIO6*
G04 #@! TO.N,GPI6*
X164562500Y-106700000D03*
G04 #@! TO.P,U1,9,GPIO7*
G04 #@! TO.N,GPI7*
X164562500Y-107100000D03*
G04 #@! TO.P,U1,10,IOVDD*
G04 #@! TO.N,+3V3*
X164562500Y-107500000D03*
G04 #@! TO.P,U1,11,GPIO8*
G04 #@! TO.N,GPI8*
X164562500Y-107900000D03*
G04 #@! TO.P,U1,12,GPIO9*
G04 #@! TO.N,GPI9*
X164562500Y-108300000D03*
G04 #@! TO.P,U1,13,GPIO10*
G04 #@! TO.N,GPI10*
X164562500Y-108700000D03*
G04 #@! TO.P,U1,14,GPIO11*
G04 #@! TO.N,GPI11*
X164562500Y-109100000D03*
D25*
G04 #@! TO.P,U1,15,GPIO12*
G04 #@! TO.N,GPI12*
X165400000Y-109937500D03*
G04 #@! TO.P,U1,16,GPIO13*
G04 #@! TO.N,GPI13*
X165800000Y-109937500D03*
G04 #@! TO.P,U1,17,GPIO14*
G04 #@! TO.N,GPI14*
X166200000Y-109937500D03*
G04 #@! TO.P,U1,18,GPIO15*
G04 #@! TO.N,GPI15*
X166600000Y-109937500D03*
G04 #@! TO.P,U1,19,TESTEN*
G04 #@! TO.N,GND*
X167000000Y-109937500D03*
G04 #@! TO.P,U1,20,XIN*
G04 #@! TO.N,XIN*
X167400000Y-109937500D03*
G04 #@! TO.P,U1,21,XOUT*
G04 #@! TO.N,XOUT*
X167800000Y-109937500D03*
G04 #@! TO.P,U1,22,IOVDD*
G04 #@! TO.N,+3V3*
X168200000Y-109937500D03*
G04 #@! TO.P,U1,23,DVDD*
G04 #@! TO.N,+1V1*
X168600000Y-109937500D03*
G04 #@! TO.P,U1,24,SWCLK*
G04 #@! TO.N,SWCLK*
X169000000Y-109937500D03*
G04 #@! TO.P,U1,25,SWDIO*
G04 #@! TO.N,SWD*
X169400000Y-109937500D03*
G04 #@! TO.P,U1,26,RUN*
G04 #@! TO.N,RUN*
X169800000Y-109937500D03*
G04 #@! TO.P,U1,27,GPIO16*
G04 #@! TO.N,GPI16*
X170200000Y-109937500D03*
G04 #@! TO.P,U1,28,GPIO17*
G04 #@! TO.N,GPI17*
X170600000Y-109937500D03*
D24*
G04 #@! TO.P,U1,29,GPIO18*
G04 #@! TO.N,GPI18*
X171437500Y-109100000D03*
G04 #@! TO.P,U1,30,GPIO19*
G04 #@! TO.N,GPI19*
X171437500Y-108700000D03*
G04 #@! TO.P,U1,31,GPIO20*
G04 #@! TO.N,GPI20*
X171437500Y-108300000D03*
G04 #@! TO.P,U1,32,GPIO21*
G04 #@! TO.N,GPI21*
X171437500Y-107900000D03*
G04 #@! TO.P,U1,33,IOVDD*
G04 #@! TO.N,+3V3*
X171437500Y-107500000D03*
G04 #@! TO.P,U1,34,GPIO22*
G04 #@! TO.N,GPI22*
X171437500Y-107100000D03*
G04 #@! TO.P,U1,35,GPIO23*
G04 #@! TO.N,GPI23*
X171437500Y-106700000D03*
G04 #@! TO.P,U1,36,GPIO24*
G04 #@! TO.N,GPI24*
X171437500Y-106300000D03*
G04 #@! TO.P,U1,37,GPIO25*
G04 #@! TO.N,unconnected-(U1-GPIO25-Pad37)*
X171437500Y-105900000D03*
G04 #@! TO.P,U1,38,GPIO26/ADC0*
G04 #@! TO.N,GPI26_ADC0*
X171437500Y-105500000D03*
G04 #@! TO.P,U1,39,GPIO27/ADC1*
G04 #@! TO.N,GPI27_ADC1*
X171437500Y-105100000D03*
G04 #@! TO.P,U1,40,GPIO28/ADC2*
G04 #@! TO.N,GPI28_ADC2*
X171437500Y-104700000D03*
G04 #@! TO.P,U1,41,GPIO29/ADC3*
G04 #@! TO.N,GPI29_ADC3*
X171437500Y-104300000D03*
G04 #@! TO.P,U1,42,IOVDD*
G04 #@! TO.N,+3V3*
X171437500Y-103900000D03*
D25*
G04 #@! TO.P,U1,43,ADC_AVDD*
X170600000Y-103062500D03*
G04 #@! TO.P,U1,44,VREG_VIN*
X170200000Y-103062500D03*
G04 #@! TO.P,U1,45,VREG_VOUT*
G04 #@! TO.N,+1V1*
X169800000Y-103062500D03*
G04 #@! TO.P,U1,46,USB_DM*
G04 #@! TO.N,Net-(U1-USB_DM)*
X169400000Y-103062500D03*
G04 #@! TO.P,U1,47,USB_DP*
G04 #@! TO.N,Net-(U1-USB_DP)*
X169000000Y-103062500D03*
G04 #@! TO.P,U1,48,USB_VDD*
G04 #@! TO.N,+3V3*
X168600000Y-103062500D03*
G04 #@! TO.P,U1,49,IOVDD*
X168200000Y-103062500D03*
G04 #@! TO.P,U1,50,DVDD*
G04 #@! TO.N,+1V1*
X167800000Y-103062500D03*
G04 #@! TO.P,U1,51,QSPI_SD3*
G04 #@! TO.N,QSPI_SD3*
X167400000Y-103062500D03*
G04 #@! TO.P,U1,52,QSPI_SCLK*
G04 #@! TO.N,QSPI_SCLK*
X167000000Y-103062500D03*
G04 #@! TO.P,U1,53,QSPI_SD0*
G04 #@! TO.N,QSPI_SD0*
X166600000Y-103062500D03*
G04 #@! TO.P,U1,54,QSPI_SD2*
G04 #@! TO.N,QSPI_SD2*
X166200000Y-103062500D03*
G04 #@! TO.P,U1,55,QSPI_SD1*
G04 #@! TO.N,QSPI_SD1*
X165800000Y-103062500D03*
G04 #@! TO.P,U1,56,~{QSPI_SS}*
G04 #@! TO.N,QSPI_SS*
X165400000Y-103062500D03*
D26*
G04 #@! TO.P,U1,57,GND*
G04 #@! TO.N,GND*
X168000000Y-106500000D03*
G04 #@! TD*
D27*
G04 #@! TO.P,R7,1*
G04 #@! TO.N,Net-(R7-Pad1)*
X172300000Y-91000000D03*
G04 #@! TO.P,R7,2*
G04 #@! TO.N,QSPI_SS*
X171280000Y-91000000D03*
G04 #@! TD*
D28*
G04 #@! TO.P,C1,1*
G04 #@! TO.N,+3V3*
X172421178Y-100178822D03*
G04 #@! TO.P,C1,2*
G04 #@! TO.N,GND*
X173100000Y-99500000D03*
G04 #@! TD*
D10*
G04 #@! TO.P,C9,1*
G04 #@! TO.N,+3V3*
X170000000Y-96000000D03*
G04 #@! TO.P,C9,2*
G04 #@! TO.N,GND*
X170000000Y-95040000D03*
G04 #@! TD*
D13*
G04 #@! TO.P,J3,1,Pin_1*
G04 #@! TO.N,VBUS*
X176890000Y-78370000D03*
D14*
G04 #@! TO.P,J3,2,Pin_2*
G04 #@! TO.N,GPI29_ADC3*
X176890000Y-80910000D03*
G04 #@! TO.P,J3,3,Pin_3*
G04 #@! TO.N,GND*
X176890000Y-83450000D03*
G04 #@! TO.P,J3,4,Pin_4*
G04 #@! TO.N,GPI28_ADC2*
X176890000Y-85990000D03*
G04 #@! TO.P,J3,5,Pin_5*
G04 #@! TO.N,+3V3*
X176890000Y-88530000D03*
G04 #@! TO.P,J3,6,Pin_6*
G04 #@! TO.N,GPI27_ADC1*
X176890000Y-91070000D03*
G04 #@! TO.P,J3,7,Pin_7*
G04 #@! TO.N,GPI26_ADC0*
X176890000Y-93610000D03*
G04 #@! TO.P,J3,8,Pin_8*
G04 #@! TO.N,GND*
X176890000Y-96150000D03*
G04 #@! TO.P,J3,9,Pin_9*
G04 #@! TO.N,GPI24*
X176890000Y-98690000D03*
G04 #@! TO.P,J3,10,Pin_10*
G04 #@! TO.N,GPI23*
X176890000Y-101230000D03*
G04 #@! TO.P,J3,11,Pin_11*
G04 #@! TO.N,RUN*
X176890000Y-103770000D03*
G04 #@! TO.P,J3,12,Pin_12*
G04 #@! TO.N,GPI22*
X176890000Y-106310000D03*
G04 #@! TO.P,J3,13,Pin_13*
G04 #@! TO.N,GND*
X176890000Y-108850000D03*
G04 #@! TO.P,J3,14,Pin_14*
G04 #@! TO.N,GPI21*
X176890000Y-111390000D03*
G04 #@! TO.P,J3,15,Pin_15*
G04 #@! TO.N,GPI20*
X176890000Y-113930000D03*
G04 #@! TO.P,J3,16,Pin_16*
G04 #@! TO.N,GPI19*
X176890000Y-116470000D03*
G04 #@! TO.P,J3,17,Pin_17*
G04 #@! TO.N,GPI18*
X176890000Y-119010000D03*
G04 #@! TO.P,J3,18,Pin_18*
G04 #@! TO.N,GND*
X176890000Y-121550000D03*
G04 #@! TO.P,J3,19,Pin_19*
G04 #@! TO.N,GPI17*
X176890000Y-124090000D03*
G04 #@! TO.P,J3,20,Pin_20*
G04 #@! TO.N,GPI16*
X176890000Y-126630000D03*
G04 #@! TD*
D29*
G04 #@! TO.P,C13,1*
G04 #@! TO.N,VBUS*
X164975000Y-85600000D03*
G04 #@! TO.P,C13,2*
G04 #@! TO.N,GND*
X163425000Y-85600000D03*
G04 #@! TD*
D10*
G04 #@! TO.P,C5,1*
G04 #@! TO.N,+3V3*
X171700000Y-102100000D03*
G04 #@! TO.P,C5,2*
G04 #@! TO.N,GND*
X171700000Y-101140000D03*
G04 #@! TD*
D30*
G04 #@! TO.P,U2,1,GND*
G04 #@! TO.N,GND*
X164150000Y-89337500D03*
G04 #@! TO.P,U2,2,VO*
G04 #@! TO.N,+3V3*
X166050000Y-89337500D03*
G04 #@! TO.P,U2,3,VI*
G04 #@! TO.N,VBUS*
X165100000Y-87462500D03*
G04 #@! TD*
D31*
G04 #@! TO.P,Y1,1,1*
G04 #@! TO.N,Net-(C16-Pad2)*
X168290000Y-114250000D03*
G04 #@! TO.P,Y1,2,G*
G04 #@! TO.N,GND*
X166090000Y-114250000D03*
G04 #@! TO.P,Y1,3,3*
G04 #@! TO.N,XIN*
X166090000Y-115950000D03*
G04 #@! TO.P,Y1,4,G*
G04 #@! TO.N,GND*
X168290000Y-115950000D03*
G04 #@! TD*
D11*
G04 #@! TO.P,C11,1*
G04 #@! TO.N,+3V3*
X173340000Y-107500000D03*
G04 #@! TO.P,C11,2*
G04 #@! TO.N,GND*
X174300000Y-107500000D03*
G04 #@! TD*
D20*
G04 #@! TO.P,R2,1*
G04 #@! TO.N,GND*
X169500000Y-86310000D03*
G04 #@! TO.P,R2,2*
G04 #@! TO.N,Net-(J1-CC1)*
X169500000Y-85290000D03*
G04 #@! TD*
G04 #@! TO.P,R3,1*
G04 #@! TO.N,Net-(U1-USB_DM)*
X169700000Y-101800000D03*
G04 #@! TO.P,R3,2*
G04 #@! TO.N,USB_D-*
X169700000Y-100780000D03*
G04 #@! TD*
D32*
G04 #@! TO.P,SW1,1,1*
G04 #@! TO.N,GND*
X171800000Y-85600000D03*
G04 #@! TO.P,SW1,2,2*
G04 #@! TO.N,Net-(R7-Pad1)*
X171800000Y-89800000D03*
G04 #@! TD*
D29*
G04 #@! TO.P,C14,1*
G04 #@! TO.N,+3V3*
X165875000Y-91200000D03*
G04 #@! TO.P,C14,2*
G04 #@! TO.N,GND*
X164325000Y-91200000D03*
G04 #@! TD*
D33*
G04 #@! TO.P,C12,1*
G04 #@! TO.N,+3V3*
X162300000Y-108200000D03*
G04 #@! TO.P,C12,2*
G04 #@! TO.N,GND*
X161621178Y-108878822D03*
G04 #@! TD*
D12*
G04 #@! TO.P,C2,1*
G04 #@! TO.N,+3V3*
X169890000Y-112700000D03*
G04 #@! TO.P,C2,2*
G04 #@! TO.N,GND*
X169890000Y-113660000D03*
G04 #@! TD*
G04 #@! TO.P,C10,1*
G04 #@! TO.N,+3V3*
X170890000Y-112700000D03*
G04 #@! TO.P,C10,2*
G04 #@! TO.N,GND*
X170890000Y-113660000D03*
G04 #@! TD*
D34*
G04 #@! TO.N,GND*
X171100000Y-79700000D03*
X164700000Y-113300000D03*
X175700000Y-120200000D03*
X169500000Y-87100000D03*
X165100000Y-93600000D03*
X168200000Y-117000000D03*
X161400000Y-107700000D03*
X162100000Y-93200000D03*
X165600000Y-105900000D03*
X173300000Y-101100000D03*
X172300000Y-80800000D03*
X169600000Y-93500000D03*
X166000000Y-124700000D03*
X163550000Y-100450000D03*
X164000000Y-103100000D03*
X171000000Y-116300000D03*
X171150000Y-100050000D03*
X167500000Y-87100000D03*
G04 #@! TO.N,+3V3*
X165700000Y-107300000D03*
X169200000Y-108800000D03*
X164800000Y-102750000D03*
X167500000Y-89500000D03*
X168750000Y-99650000D03*
X171800000Y-97200000D03*
X171800000Y-99400000D03*
G04 #@! TO.N,GPI1*
X163100000Y-103400000D03*
G04 #@! TO.N,GPI0*
X165550000Y-104100000D03*
G04 #@! TO.N,GPI2*
X162200000Y-101500000D03*
G04 #@! TO.N,RUN*
X170200000Y-109000000D03*
G04 #@! TO.N,GPI29_ADC3*
X174500000Y-90700000D03*
X173100000Y-104100000D03*
G04 #@! TO.N,QSPI_SS*
X171300000Y-92200000D03*
X162900000Y-92400000D03*
G04 #@! TO.N,+1V1*
X168200000Y-108600000D03*
X167800000Y-104000000D03*
G04 #@! TD*
D35*
G04 #@! TO.N,GND*
X170700000Y-100500000D02*
X171150000Y-100050000D01*
X172300000Y-80800000D02*
X172300000Y-82610000D01*
X164490000Y-114620000D02*
X165720000Y-114620000D01*
X161400000Y-108657644D02*
X161621178Y-108878822D01*
X173100000Y-99500000D02*
X173100000Y-100500000D01*
X168200000Y-116040000D02*
X168290000Y-115950000D01*
X170700000Y-100820000D02*
X170700000Y-100500000D01*
X171000000Y-95040000D02*
X171360000Y-95040000D01*
X171700000Y-101140000D02*
X171700000Y-100600000D01*
X171100000Y-79700000D02*
X171100000Y-79670000D01*
X173300000Y-100700000D02*
X173300000Y-101100000D01*
X173100000Y-100500000D02*
X173300000Y-100700000D01*
X163200000Y-102200000D02*
X164000000Y-103000000D01*
X167000000Y-111016760D02*
X167001000Y-111017760D01*
X168200000Y-117000000D02*
X168200000Y-116040000D01*
X164700000Y-113300000D02*
X164800000Y-113300000D01*
X164490000Y-113510000D02*
X164700000Y-113300000D01*
X171700000Y-100600000D02*
X171150000Y-100050000D01*
X167500000Y-87100000D02*
X167500000Y-86310000D01*
X167000000Y-111100000D02*
X167000000Y-111016760D01*
X166000000Y-93400000D02*
X166100000Y-93500000D01*
X171250000Y-83545000D02*
X171250000Y-83550000D01*
X169890000Y-113660000D02*
X170890000Y-113660000D01*
X165600000Y-105900000D02*
X166200000Y-106500000D01*
X171360000Y-95040000D02*
X172000000Y-94400000D01*
X164000000Y-103000000D02*
X164000000Y-103100000D01*
X161400000Y-107700000D02*
X161400000Y-108657644D01*
X158250000Y-97010000D02*
X158250000Y-97100000D01*
X164325000Y-91200000D02*
X163300000Y-91200000D01*
X171100000Y-79670000D02*
X172320000Y-78450000D01*
X169540000Y-115950000D02*
X169890000Y-115600000D01*
X167000000Y-109937500D02*
X167000000Y-111016760D01*
X171250000Y-83550000D02*
X172200000Y-84500000D01*
X166000000Y-93300000D02*
X166000000Y-93400000D01*
X173280000Y-103000000D02*
X173280000Y-101120000D01*
X163100000Y-100000000D02*
X163550000Y-100450000D01*
X164490000Y-114620000D02*
X164490000Y-113510000D01*
X169500000Y-87100000D02*
X169500000Y-86310000D01*
X163100000Y-97880000D02*
X163100000Y-100000000D01*
X159110000Y-96150000D02*
X158250000Y-97010000D01*
X173280000Y-101120000D02*
X173300000Y-101100000D01*
X166200000Y-106500000D02*
X168000000Y-106500000D01*
X164800000Y-113300000D02*
X167000000Y-111100000D01*
X165720000Y-114620000D02*
X166090000Y-114250000D01*
X166000000Y-92700000D02*
X166000000Y-93300000D01*
X172300000Y-82610000D02*
X172320000Y-82630000D01*
X168290000Y-115950000D02*
X169540000Y-115950000D01*
G04 #@! TO.N,+3V3*
X168200000Y-109937500D02*
X168200000Y-109400000D01*
X171020000Y-102100000D02*
X170700000Y-101780000D01*
X171700000Y-102100000D02*
X172421178Y-101378822D01*
X171530000Y-95830000D02*
X172000000Y-95360000D01*
X168845118Y-99650000D02*
X170000000Y-98495118D01*
X166960000Y-92700000D02*
X166960000Y-92285000D01*
X163995000Y-92700000D02*
X164050110Y-92700000D01*
X165301000Y-108901000D02*
X165301000Y-107703226D01*
X171360000Y-96000000D02*
X171435000Y-95925000D01*
X170650000Y-107500000D02*
X170650000Y-104152226D01*
X164562500Y-107500000D02*
X163000000Y-107500000D01*
X168000000Y-109200000D02*
X165600000Y-109200000D01*
X164050110Y-92700000D02*
X165550110Y-91200000D01*
X170902226Y-103227226D02*
X170737500Y-103062500D01*
X168330000Y-94070000D02*
X166960000Y-92700000D01*
X171000000Y-96000000D02*
X171360000Y-96000000D01*
X165875000Y-91200000D02*
X165875000Y-89512500D01*
X169176000Y-94746000D02*
X168500000Y-94070000D01*
X168599000Y-110866100D02*
X168593326Y-110866100D01*
X168200000Y-103062500D02*
X168600000Y-103062500D01*
X172421178Y-101378822D02*
X172421178Y-100178822D01*
X163000000Y-107500000D02*
X162300000Y-108200000D01*
X168750000Y-99650000D02*
X168845118Y-99650000D01*
X171800000Y-99557644D02*
X172421178Y-100178822D01*
X164800000Y-103662500D02*
X164800000Y-102750000D01*
X168200000Y-109937500D02*
X168200000Y-110472774D01*
X165875000Y-89512500D02*
X166050000Y-89337500D01*
X168600000Y-103062500D02*
X168600000Y-102800000D01*
X168200000Y-94070000D02*
X168200000Y-93940000D01*
X164562500Y-103900000D02*
X164800000Y-103662500D01*
X169350000Y-108800000D02*
X170650000Y-107500000D01*
X172320000Y-103017500D02*
X171437500Y-103900000D01*
X170650000Y-104152226D02*
X170902226Y-103900000D01*
X170000000Y-96000000D02*
X169176000Y-95176000D01*
X169890000Y-112700000D02*
X169890000Y-112157100D01*
X170200000Y-103062500D02*
X170600000Y-103062500D01*
X171435000Y-95925000D02*
X171530000Y-95830000D01*
X166960000Y-92285000D02*
X165875000Y-91200000D01*
X170890000Y-112700000D02*
X169890000Y-112700000D01*
X168500000Y-94070000D02*
X168330000Y-94070000D01*
X165700000Y-107304226D02*
X165301000Y-107703226D01*
X168200000Y-103062500D02*
X168200000Y-102400000D01*
X165600000Y-109200000D02*
X165301000Y-108901000D01*
X170600000Y-103062500D02*
X170737500Y-103062500D01*
X169200000Y-108800000D02*
X169350000Y-108800000D01*
X171700000Y-102100000D02*
X171020000Y-102100000D01*
X170902226Y-103900000D02*
X170902226Y-103227226D01*
X167900000Y-100500000D02*
X168700000Y-99700000D01*
X165550110Y-91200000D02*
X165875000Y-91200000D01*
X167900000Y-102100000D02*
X167900000Y-100500000D01*
X168200000Y-102400000D02*
X167900000Y-102100000D01*
X165301000Y-107703226D02*
X165097774Y-107500000D01*
X171800000Y-99400000D02*
X171800000Y-99557644D01*
X169176000Y-95176000D02*
X169176000Y-94746000D01*
X164250000Y-102200000D02*
X164800000Y-102750000D01*
X173340000Y-107500000D02*
X171437500Y-107500000D01*
X168200000Y-109400000D02*
X168000000Y-109200000D01*
X167500000Y-89500000D02*
X166212500Y-89500000D01*
X165700000Y-107300000D02*
X165700000Y-107304226D01*
X171800000Y-96100000D02*
X171530000Y-95830000D01*
X170737500Y-103062500D02*
X171700000Y-102100000D01*
X170902226Y-103900000D02*
X171437500Y-103900000D01*
X172320000Y-103000000D02*
X172320000Y-103017500D01*
X168200000Y-110472774D02*
X168593326Y-110866100D01*
X171800000Y-97200000D02*
X171800000Y-96100000D01*
X166212500Y-89500000D02*
X166050000Y-89337500D01*
X170650000Y-107500000D02*
X171437500Y-107500000D01*
X170000000Y-98495118D02*
X170000000Y-96000000D01*
X169890000Y-112157100D02*
X168599000Y-110866100D01*
X170000000Y-96000000D02*
X171000000Y-96000000D01*
X165097774Y-107500000D02*
X164562500Y-107500000D01*
X164160000Y-102200000D02*
X164250000Y-102200000D01*
G04 #@! TO.N,VBUS*
X165550000Y-83545000D02*
X165550000Y-82620000D01*
X172482992Y-79551000D02*
X170214000Y-81819992D01*
X175709000Y-79551000D02*
X172482992Y-79551000D01*
X164975000Y-87337500D02*
X165100000Y-87462500D01*
X165550000Y-82620000D02*
X166350008Y-81819992D01*
X176890000Y-78370000D02*
X175709000Y-79551000D01*
X166350008Y-81819992D02*
X170214000Y-81819992D01*
X165550000Y-83545000D02*
X165550000Y-84350000D01*
X170214000Y-83309000D02*
X170450000Y-83545000D01*
X164975000Y-84925000D02*
X164975000Y-85600000D01*
X165550000Y-84350000D02*
X164975000Y-84925000D01*
X164975000Y-85600000D02*
X164975000Y-87337500D01*
X170214000Y-81819992D02*
X170214000Y-83309000D01*
G04 #@! TO.N,XIN*
X167090000Y-112044200D02*
X167401000Y-111733200D01*
X166090000Y-115950000D02*
X167090000Y-114950000D01*
X167401000Y-110850660D02*
X167400000Y-110849660D01*
X167400000Y-110849660D02*
X167400000Y-109937500D01*
X164490000Y-115580000D02*
X165720000Y-115580000D01*
X165720000Y-115580000D02*
X166090000Y-115950000D01*
X167090000Y-114950000D02*
X167090000Y-112044200D01*
X167401000Y-111733200D02*
X167401000Y-110850660D01*
G04 #@! TO.N,Net-(C16-Pad2)*
X168290000Y-114250000D02*
X169500000Y-114250000D01*
X168290000Y-113320000D02*
X168810000Y-112800000D01*
X169500000Y-114250000D02*
X169890000Y-114640000D01*
X168800000Y-113740000D02*
X168290000Y-114250000D01*
X168290000Y-114250000D02*
X168290000Y-113320000D01*
G04 #@! TO.N,USB_D-*
X169700000Y-100510001D02*
X169700000Y-100780000D01*
X168750000Y-83545000D02*
X168750000Y-84632501D01*
X168725000Y-88416646D02*
X168725000Y-88459565D01*
X172817100Y-92850000D02*
X173662450Y-93695350D01*
X172280863Y-92850000D02*
X172817100Y-92850000D01*
X172058641Y-92850000D02*
X172280863Y-92850000D01*
X168725000Y-86400788D02*
X168725000Y-85849731D01*
X168725000Y-88459565D02*
X168725000Y-88474288D01*
X168725000Y-90572421D02*
X168725000Y-90706802D01*
X171510001Y-98700000D02*
X169700000Y-100510001D01*
X170868198Y-92850000D02*
X172058641Y-92850000D01*
X169742741Y-91724543D02*
X170868198Y-92850000D01*
X167750000Y-82568000D02*
X167799000Y-82519000D01*
X169508173Y-91489975D02*
X169742741Y-91724543D01*
X168725000Y-88400671D02*
X168725000Y-88305529D01*
X168725000Y-86400788D02*
X168725000Y-87272380D01*
X168725000Y-87861058D02*
X168725000Y-87712901D01*
X168725000Y-90341073D02*
X168725000Y-90572421D01*
X168725000Y-90706802D02*
X169508173Y-91489975D01*
X173662450Y-93695350D02*
X173662450Y-98053650D01*
X173016100Y-98700000D02*
X171510001Y-98700000D01*
X168725000Y-87272380D02*
X168725000Y-87401499D01*
X173662450Y-98053650D02*
X173016100Y-98700000D01*
X168750000Y-82568000D02*
X168750000Y-83545000D01*
X168750000Y-84632501D02*
X168725000Y-84657501D01*
X168725000Y-84657501D02*
X168725000Y-85108997D01*
X168725000Y-88416646D02*
X168725000Y-88400671D01*
X168725000Y-88070947D02*
X168725000Y-87861058D01*
X168701000Y-82519000D02*
X168750000Y-82568000D01*
X168725000Y-85849731D02*
X168725000Y-85382363D01*
X168725000Y-88854077D02*
X168725000Y-89372421D01*
X167799000Y-82519000D02*
X168701000Y-82519000D01*
X168725000Y-88474288D02*
X168725000Y-88563561D01*
X167750000Y-83545000D02*
X167750000Y-82568000D01*
X168725000Y-88563561D02*
X168725000Y-88854077D01*
X168725000Y-85108997D02*
X168725000Y-85382363D01*
X168725000Y-87712901D02*
X168725000Y-87401499D01*
X168725000Y-88305529D02*
X168725000Y-88070947D01*
X169093652Y-89741073D02*
X169093652Y-89972421D01*
X169093652Y-89972421D02*
G75*
G02*
X168909326Y-90156752I-184352J21D01*
G01*
X168909326Y-89556747D02*
G75*
G02*
X169093653Y-89741073I-26J-184353D01*
G01*
X168725000Y-89372421D02*
G75*
G03*
X168909326Y-89556700I184300J21D01*
G01*
X168909326Y-90156747D02*
G75*
G03*
X168724947Y-90341073I-26J-184353D01*
G01*
G04 #@! TO.N,Net-(J1-CC1)*
X169250000Y-83545000D02*
X169250000Y-85040000D01*
X169250000Y-85040000D02*
X169500000Y-85290000D01*
G04 #@! TO.N,USB_D+*
X168275000Y-84657501D02*
X168275000Y-85769132D01*
X172850000Y-98299000D02*
X173261450Y-97887550D01*
X172651000Y-93251000D02*
X170632802Y-93251000D01*
X168250000Y-83545000D02*
X168250000Y-84632501D01*
X170632802Y-93251000D02*
X168275000Y-90893198D01*
X173261450Y-97887550D02*
X173261450Y-93861450D01*
X168275000Y-85769132D02*
X168275000Y-85899474D01*
X167299000Y-84571000D02*
X168229000Y-84571000D01*
X167250000Y-84522000D02*
X167299000Y-84571000D01*
X168250000Y-84632501D02*
X168275000Y-84657501D01*
X171181000Y-98299000D02*
X172850000Y-98299000D01*
X168250000Y-84550000D02*
X168250000Y-83545000D01*
X168275000Y-90893198D02*
X168275000Y-85899474D01*
X173261450Y-93861450D02*
X172651000Y-93251000D01*
X168700000Y-100780000D02*
X171181000Y-98299000D01*
X167250000Y-83545000D02*
X167250000Y-84522000D01*
X168229000Y-84571000D02*
X168250000Y-84550000D01*
G04 #@! TO.N,Net-(J1-CC2)*
X166890000Y-85290000D02*
X166250000Y-84650000D01*
X166250000Y-84650000D02*
X166250000Y-83545000D01*
X167500000Y-85290000D02*
X166890000Y-85290000D01*
G04 #@! TO.N,GPI12*
X165162500Y-109937500D02*
X162400000Y-112700000D01*
X162030000Y-116470000D02*
X159110000Y-116470000D01*
X165400000Y-109937500D02*
X165162500Y-109937500D01*
X162400000Y-112700000D02*
X162400000Y-116100000D01*
X162400000Y-116100000D02*
X162030000Y-116470000D01*
G04 #@! TO.N,GPI13*
X165800000Y-109937500D02*
X165800000Y-110500000D01*
X165102000Y-111198000D02*
X164550250Y-111198000D01*
X164550250Y-111198000D02*
X162887000Y-112861250D01*
X162377000Y-119010000D02*
X159110000Y-119010000D01*
X162887000Y-112861250D02*
X162887000Y-118500000D01*
X165800000Y-110500000D02*
X165102000Y-111198000D01*
X162887000Y-118500000D02*
X162377000Y-119010000D01*
G04 #@! TO.N,GPI9*
X161000000Y-110800000D02*
X160399000Y-110199000D01*
X161300000Y-110800000D02*
X161000000Y-110800000D01*
X160399000Y-108199000D02*
X159110000Y-106910000D01*
X164562500Y-108300000D02*
X163800000Y-108300000D01*
X163800000Y-108300000D02*
X161300000Y-110800000D01*
X159110000Y-106910000D02*
X159110000Y-106310000D01*
X160399000Y-110199000D02*
X160399000Y-108199000D01*
G04 #@! TO.N,GPI3*
X162405000Y-105141740D02*
X162004000Y-104740740D01*
X160734550Y-90154550D02*
X159110000Y-88530000D01*
X164562500Y-105500000D02*
X162600000Y-105500000D01*
X162004000Y-104740740D02*
X162004000Y-102535600D01*
X160734550Y-94067450D02*
X160734550Y-90154550D01*
X161503000Y-94835900D02*
X160734550Y-94067450D01*
X162004000Y-102535600D02*
X161503000Y-102034600D01*
X161503000Y-102034600D02*
X161503000Y-94835900D01*
X162600000Y-105500000D02*
X162405000Y-105305000D01*
X162405000Y-105305000D02*
X162405000Y-105141740D01*
G04 #@! TO.N,GPI1*
X162900000Y-104100000D02*
X163000000Y-104000000D01*
X162900000Y-104400000D02*
X162900000Y-104100000D01*
X163200000Y-104700000D02*
X162900000Y-104400000D01*
X163000000Y-104000000D02*
X163100000Y-103900000D01*
X163100000Y-103900000D02*
X163100000Y-103400000D01*
X164562500Y-104700000D02*
X163200000Y-104700000D01*
G04 #@! TO.N,GPI15*
X165500000Y-112000000D02*
X166600000Y-110900000D01*
X163689000Y-113193450D02*
X164882450Y-112000000D01*
X164882450Y-112000000D02*
X165500000Y-112000000D01*
X159110000Y-126630000D02*
X163689000Y-122051000D01*
X163689000Y-122051000D02*
X163689000Y-113193450D01*
X166600000Y-110900000D02*
X166600000Y-109937500D01*
G04 #@! TO.N,GPI14*
X161082900Y-124090000D02*
X163288000Y-121884900D01*
X159110000Y-124090000D02*
X161082900Y-124090000D01*
X163288000Y-121884900D02*
X163288000Y-113027350D01*
X165301000Y-111599000D02*
X166200000Y-110700000D01*
X163288000Y-113027350D02*
X164716350Y-111599000D01*
X164716350Y-111599000D02*
X165301000Y-111599000D01*
X166200000Y-110700000D02*
X166200000Y-109937500D01*
G04 #@! TO.N,GPI5*
X160701000Y-95201000D02*
X160701000Y-102366800D01*
X161603000Y-105473940D02*
X161603000Y-106103000D01*
X160701000Y-102366800D02*
X161202000Y-102867800D01*
X161603000Y-106103000D02*
X161800000Y-106300000D01*
X161800000Y-106300000D02*
X164562500Y-106300000D01*
X161202000Y-105072940D02*
X161603000Y-105473940D01*
X161202000Y-102867800D02*
X161202000Y-105072940D01*
X159110000Y-93610000D02*
X160701000Y-95201000D01*
G04 #@! TO.N,GPI8*
X160400000Y-107632900D02*
X160400000Y-105972240D01*
X159427760Y-105000000D02*
X159427760Y-104087760D01*
X159427760Y-104087760D02*
X159110000Y-103770000D01*
X160400000Y-105972240D02*
X159427760Y-105000000D01*
X164562500Y-107900000D02*
X163600000Y-107900000D01*
X160800000Y-108032900D02*
X160800000Y-109500000D01*
X161200000Y-109900000D02*
X161600000Y-109900000D01*
X160800000Y-109500000D02*
X161200000Y-109900000D01*
X160400000Y-107632900D02*
X160800000Y-108032900D01*
X163600000Y-107900000D02*
X161600000Y-109900000D01*
G04 #@! TO.N,GPI4*
X161102000Y-102200700D02*
X161102000Y-95002000D01*
X161102000Y-95002000D02*
X160333550Y-94233550D01*
X161603000Y-104906840D02*
X161603000Y-102701700D01*
X160333550Y-94233550D02*
X160333550Y-92293550D01*
X162004000Y-105604000D02*
X162004000Y-105307840D01*
X164562500Y-105900000D02*
X162300000Y-105900000D01*
X162300000Y-105900000D02*
X162004000Y-105604000D01*
X161603000Y-102701700D02*
X161102000Y-102200700D01*
X160333550Y-92293550D02*
X159110000Y-91070000D01*
X162004000Y-105307840D02*
X161603000Y-104906840D01*
G04 #@! TO.N,GPI0*
X165100000Y-104300000D02*
X165350000Y-104300000D01*
X165350000Y-104300000D02*
X165550000Y-104100000D01*
X164562500Y-104300000D02*
X165100000Y-104300000D01*
G04 #@! TO.N,GPI2*
X162200000Y-101500000D02*
X162405000Y-101705000D01*
X162405000Y-101705000D02*
X162405000Y-104574640D01*
X162930360Y-105100000D02*
X164562500Y-105100000D01*
X162200000Y-101600000D02*
X162400000Y-101800000D01*
X162405000Y-104574640D02*
X162930360Y-105100000D01*
X162200000Y-101500000D02*
X162200000Y-101600000D01*
G04 #@! TO.N,GPI10*
X160600000Y-111400000D02*
X160590000Y-111390000D01*
X164000000Y-108700000D02*
X161300000Y-111400000D01*
X160590000Y-111390000D02*
X159110000Y-111390000D01*
X164562500Y-108700000D02*
X164000000Y-108700000D01*
X161300000Y-111400000D02*
X160600000Y-111400000D01*
G04 #@! TO.N,GPI11*
X159732500Y-113930000D02*
X164562500Y-109100000D01*
X159110000Y-113930000D02*
X159732500Y-113930000D01*
G04 #@! TO.N,GPI6*
X160300000Y-102532900D02*
X160801000Y-103033900D01*
X159110000Y-98690000D02*
X160300000Y-99880000D01*
X160801000Y-105239040D02*
X161202000Y-105640040D01*
X161202000Y-106502000D02*
X161400000Y-106700000D01*
X160300000Y-99880000D02*
X160300000Y-102532900D01*
X160801000Y-103033900D02*
X160801000Y-105239040D01*
X161202000Y-105640040D02*
X161202000Y-106502000D01*
X161400000Y-106700000D02*
X164562500Y-106700000D01*
G04 #@! TO.N,GPI7*
X160801000Y-105806140D02*
X160400000Y-105405140D01*
X160801000Y-106701000D02*
X160801000Y-105806140D01*
X161200000Y-107100000D02*
X160801000Y-106701000D01*
X164562500Y-107100000D02*
X161200000Y-107100000D01*
X159110000Y-101910000D02*
X159110000Y-101230000D01*
X160400000Y-103200000D02*
X159110000Y-101910000D01*
X160400000Y-105405140D02*
X160400000Y-103200000D01*
G04 #@! TO.N,GPI23*
X171437500Y-106700000D02*
X172300000Y-106700000D01*
X174899000Y-106301000D02*
X175700000Y-105500000D01*
X175700000Y-102420000D02*
X176890000Y-101230000D01*
X172300000Y-106700000D02*
X172699000Y-106301000D01*
X172699000Y-106301000D02*
X174899000Y-106301000D01*
X175700000Y-105500000D02*
X175700000Y-102420000D01*
G04 #@! TO.N,GPI18*
X173503000Y-111868800D02*
X173503000Y-118300000D01*
X171437500Y-109100000D02*
X171634200Y-109296700D01*
X173503000Y-118300000D02*
X174213000Y-119010000D01*
X171634200Y-109296700D02*
X171634200Y-110000000D01*
X174213000Y-119010000D02*
X176890000Y-119010000D01*
X171634200Y-110000000D02*
X173503000Y-111868800D01*
G04 #@! TO.N,RUN*
X169800000Y-109937500D02*
X169800000Y-109400000D01*
X169800000Y-109400000D02*
X170000000Y-109200000D01*
X170000000Y-109200000D02*
X170200000Y-109000000D01*
G04 #@! TO.N,GPI27_ADC1*
X174464450Y-93495550D02*
X176890000Y-91070000D01*
X174000000Y-105100000D02*
X174464450Y-104635550D01*
X174464450Y-104635550D02*
X174464450Y-93495550D01*
X171437500Y-105100000D02*
X174000000Y-105100000D01*
G04 #@! TO.N,GPI17*
X171100000Y-110700000D02*
X171767100Y-110700000D01*
X173102000Y-112034900D02*
X171767100Y-110700000D01*
X170600000Y-110200000D02*
X171100000Y-110700000D01*
X173102000Y-122900000D02*
X173102000Y-112034900D01*
X176890000Y-124090000D02*
X174292000Y-124090000D01*
X174292000Y-124090000D02*
X173102000Y-122900000D01*
X170600000Y-109937500D02*
X170600000Y-110200000D01*
G04 #@! TO.N,GPI22*
X171437500Y-107100000D02*
X172500000Y-107100000D01*
X172500000Y-107100000D02*
X172799000Y-106801000D01*
X175590000Y-106310000D02*
X176890000Y-106310000D01*
X172799000Y-106801000D02*
X175099000Y-106801000D01*
X175099000Y-106801000D02*
X175590000Y-106310000D01*
G04 #@! TO.N,GPI24*
X174731900Y-105901000D02*
X175266450Y-105366450D01*
X175266450Y-100313550D02*
X176890000Y-98690000D01*
X172132900Y-106300000D02*
X172531900Y-105901000D01*
X172531900Y-105901000D02*
X174731900Y-105901000D01*
X175266450Y-105366450D02*
X175266450Y-100313550D01*
X171437500Y-106300000D02*
X172132900Y-106300000D01*
G04 #@! TO.N,GPI29_ADC3*
X174500000Y-90700000D02*
X174500000Y-83300000D01*
X172900000Y-104300000D02*
X173100000Y-104100000D01*
X171437500Y-104300000D02*
X172900000Y-104300000D01*
X174500000Y-83300000D02*
X176890000Y-80910000D01*
G04 #@! TO.N,GPI21*
X173001000Y-108533900D02*
X173001000Y-109665500D01*
X174725500Y-111390000D02*
X176890000Y-111390000D01*
X171437500Y-107900000D02*
X172367100Y-107900000D01*
X173001000Y-109665500D02*
X174725500Y-111390000D01*
X172367100Y-107900000D02*
X173001000Y-108533900D01*
G04 #@! TO.N,GPI19*
X172200000Y-108900000D02*
X172200000Y-110000000D01*
X174374000Y-116470000D02*
X173904000Y-116000000D01*
X172000000Y-108700000D02*
X172200000Y-108900000D01*
X172200000Y-110000000D02*
X173904000Y-111704000D01*
X173904000Y-111704000D02*
X173904000Y-116000000D01*
X171437500Y-108700000D02*
X172000000Y-108700000D01*
X176890000Y-116470000D02*
X174374000Y-116470000D01*
G04 #@! TO.N,GPI16*
X173530000Y-126630000D02*
X172700000Y-125800000D01*
X170200000Y-110500000D02*
X170200000Y-109937500D01*
X172701000Y-125799000D02*
X172701000Y-112201000D01*
X172701000Y-112201000D02*
X171600000Y-111100000D01*
X172700000Y-125800000D02*
X172701000Y-125799000D01*
X171600000Y-111100000D02*
X170800000Y-111100000D01*
X176890000Y-126630000D02*
X173530000Y-126630000D01*
X170800000Y-111100000D02*
X170200000Y-110500000D01*
G04 #@! TO.N,GPI26_ADC0*
X171437500Y-105500000D02*
X174565800Y-105500000D01*
X174865450Y-105200350D02*
X174865450Y-95634550D01*
X174865450Y-95634550D02*
X176890000Y-93610000D01*
X174565800Y-105500000D02*
X174865450Y-105200350D01*
G04 #@! TO.N,GPI20*
X174730000Y-113930000D02*
X174305000Y-113505000D01*
X172200000Y-108300000D02*
X171437500Y-108300000D01*
X172600000Y-108700000D02*
X172200000Y-108300000D01*
X172633550Y-109866450D02*
X172600000Y-109832900D01*
X172600000Y-109832900D02*
X172600000Y-108700000D01*
X172634850Y-109866450D02*
X172633550Y-109866450D01*
X174305000Y-111536600D02*
X172634850Y-109866450D01*
X174305000Y-113505000D02*
X174305000Y-111536600D01*
X176890000Y-113930000D02*
X174730000Y-113930000D01*
G04 #@! TO.N,GPI28_ADC2*
X174063450Y-104336550D02*
X174063450Y-92036550D01*
X173700000Y-104700000D02*
X174063450Y-104336550D01*
X175300000Y-90800000D02*
X175300000Y-87580000D01*
X175300000Y-87580000D02*
X176890000Y-85990000D01*
X171437500Y-104700000D02*
X173700000Y-104700000D01*
X174063450Y-92036550D02*
X175300000Y-90800000D01*
G04 #@! TO.N,SWCLK*
X171899000Y-112566100D02*
X171332900Y-112000000D01*
X170300000Y-112000000D02*
X169000000Y-110700000D01*
X171599000Y-124300000D02*
X171899000Y-124000000D01*
X165460000Y-126390000D02*
X167550000Y-124300000D01*
X171332900Y-112000000D02*
X170300000Y-112000000D01*
X171899000Y-124000000D02*
X171899000Y-112566100D01*
X169000000Y-110700000D02*
X169000000Y-109937500D01*
X167550000Y-124300000D02*
X171599000Y-124300000D01*
G04 #@! TO.N,SWD*
X172300000Y-112400000D02*
X172300000Y-124630000D01*
X171400000Y-111500000D02*
X172300000Y-112400000D01*
X169400000Y-109937500D02*
X169400000Y-110500000D01*
X169400000Y-110500000D02*
X170400000Y-111500000D01*
X170400000Y-111500000D02*
X171400000Y-111500000D01*
X172300000Y-124630000D02*
X170540000Y-126390000D01*
G04 #@! TO.N,Net-(U1-USB_DM)*
X169400000Y-103062500D02*
X169400000Y-102100000D01*
X169400000Y-102100000D02*
X169700000Y-101800000D01*
G04 #@! TO.N,Net-(U1-USB_DP)*
X169000000Y-102100000D02*
X168700000Y-101800000D01*
X169000000Y-103062500D02*
X169000000Y-102100000D01*
G04 #@! TO.N,XOUT*
X167790000Y-112800000D02*
X168130063Y-112459937D01*
X167800000Y-110639874D02*
X167800000Y-109937500D01*
X168130063Y-110969937D02*
X167800000Y-110639874D01*
X168130063Y-112459937D02*
X168130063Y-110969937D01*
G04 #@! TO.N,QSPI_SS*
X163049943Y-101500000D02*
X162448943Y-100899000D01*
X165100000Y-101500000D02*
X164100000Y-101500000D01*
X162900000Y-92700000D02*
X163685000Y-93485000D01*
X161949000Y-100899000D02*
X161904000Y-100854000D01*
X161904000Y-98550000D02*
X161904000Y-94966000D01*
X161904000Y-94966000D02*
X162800000Y-94070000D01*
X165400000Y-103062500D02*
X165400000Y-101800000D01*
X165015000Y-92700000D02*
X164394000Y-93321000D01*
X164394000Y-93321000D02*
X163849000Y-93321000D01*
X165400000Y-101800000D02*
X165100000Y-101500000D01*
X163849000Y-93321000D02*
X163685000Y-93485000D01*
X162900000Y-92400000D02*
X162900000Y-92700000D01*
X162448943Y-100899000D02*
X162150000Y-100899000D01*
X162150000Y-100899000D02*
X161949000Y-100899000D01*
X171300000Y-92200000D02*
X171300000Y-91020000D01*
X171300000Y-91020000D02*
X171280000Y-91000000D01*
X161904000Y-100854000D02*
X161904000Y-98600000D01*
X163685000Y-93485000D02*
X163100000Y-94070000D01*
X164100000Y-101500000D02*
X163049943Y-101500000D01*
G04 #@! TO.N,Net-(R7-Pad1)*
X172300000Y-91000000D02*
X172300000Y-90300000D01*
X172300000Y-90300000D02*
X171800000Y-89800000D01*
G04 #@! TO.N,QSPI_SD1*
X162305000Y-100455000D02*
X162305000Y-96135000D01*
X165800000Y-101500000D02*
X165399000Y-101099000D01*
X165800000Y-103062500D02*
X165800000Y-101500000D01*
X165399000Y-101099000D02*
X163216043Y-101099000D01*
X162615043Y-100498000D02*
X162348000Y-100498000D01*
X162305000Y-96135000D02*
X163100000Y-95340000D01*
X162348000Y-100498000D02*
X162305000Y-100455000D01*
X163216043Y-101099000D02*
X162615043Y-100498000D01*
G04 #@! TO.N,QSPI_SCLK*
X168500000Y-96610000D02*
X169176000Y-97286000D01*
X167001000Y-99946100D02*
X167001000Y-101700000D01*
X167000000Y-101701000D02*
X167001000Y-101700000D01*
X167000000Y-103062500D02*
X167000000Y-101701000D01*
X169176000Y-97286000D02*
X169176000Y-98184918D01*
X168737368Y-98623550D02*
X168323550Y-98623550D01*
X169176000Y-98184918D02*
X168737368Y-98623550D01*
X168323550Y-98623550D02*
X167001000Y-99946100D01*
G04 #@! TO.N,QSPI_SD2*
X166200000Y-103062500D02*
X166200000Y-100900000D01*
X164550000Y-100500000D02*
X165800000Y-100500000D01*
X166200000Y-100900000D02*
X165800000Y-100500000D01*
X163799000Y-97309000D02*
X163799000Y-99749000D01*
X163799000Y-99749000D02*
X164550000Y-100500000D01*
X163100000Y-96610000D02*
X163799000Y-97309000D01*
G04 #@! TO.N,+1V1*
X167800000Y-104000000D02*
X169397774Y-104000000D01*
X169397774Y-104000000D02*
X169801000Y-103596774D01*
X169800000Y-103062500D02*
X169800000Y-103595774D01*
X169800000Y-103595774D02*
X169801000Y-103596774D01*
X168600000Y-109000000D02*
X168200000Y-108600000D01*
X167800000Y-104000000D02*
X167800000Y-103062500D01*
X168600000Y-109937500D02*
X168600000Y-109000000D01*
G04 #@! TO.N,QSPI_SD0*
X168500000Y-97880000D02*
X166600000Y-99780000D01*
X166600000Y-99780000D02*
X166600000Y-103062500D01*
G04 #@! TO.N,QSPI_SD3*
X167400000Y-103062500D02*
X167400000Y-101868100D01*
X169577000Y-97119900D02*
X169342100Y-96885000D01*
X168489650Y-99024550D02*
X168903468Y-99024550D01*
X169577000Y-98351018D02*
X169577000Y-97119900D01*
X167400000Y-101868100D02*
X167402000Y-101866100D01*
X167402000Y-101866100D02*
X167402000Y-100112200D01*
X169342100Y-96885000D02*
X169342100Y-96182100D01*
X169342100Y-96182100D02*
X168500000Y-95340000D01*
X167402000Y-100112200D02*
X168489650Y-99024550D01*
X168903468Y-99024550D02*
X169577000Y-98351018D01*
G04 #@! TD*
G04 #@! TA.AperFunction,Conductor*
G04 #@! TO.N,GND*
G36*
X170833039Y-113429685D02*
G01*
X170878794Y-113482489D01*
X170890000Y-113534000D01*
X170890000Y-113660000D01*
X171016000Y-113660000D01*
X171083039Y-113679685D01*
X171128794Y-113732489D01*
X171140000Y-113784000D01*
X171140000Y-114438789D01*
X171160910Y-114437145D01*
X171316195Y-114392031D01*
X171323353Y-114388934D01*
X171324489Y-114391560D01*
X171379058Y-114377695D01*
X171445328Y-114399830D01*
X171489111Y-114454280D01*
X171498500Y-114501611D01*
X171498500Y-123775500D01*
X171478815Y-123842539D01*
X171426011Y-123888294D01*
X171374500Y-123899500D01*
X167497273Y-123899500D01*
X167395411Y-123926793D01*
X167380483Y-123935413D01*
X167380482Y-123935413D01*
X167304090Y-123979517D01*
X167304085Y-123979521D01*
X166080424Y-125203181D01*
X166019101Y-125236666D01*
X165992743Y-125239500D01*
X164565143Y-125239500D01*
X164565117Y-125239502D01*
X164540012Y-125242413D01*
X164540008Y-125242415D01*
X164437235Y-125287793D01*
X164357794Y-125367234D01*
X164312415Y-125470006D01*
X164312415Y-125470008D01*
X164309500Y-125495131D01*
X164309500Y-127284856D01*
X164309502Y-127284882D01*
X164312413Y-127309987D01*
X164312415Y-127309991D01*
X164357793Y-127412764D01*
X164357794Y-127412765D01*
X164437235Y-127492206D01*
X164540009Y-127537585D01*
X164565135Y-127540500D01*
X166354864Y-127540499D01*
X166354879Y-127540497D01*
X166354882Y-127540497D01*
X166379987Y-127537586D01*
X166379988Y-127537585D01*
X166379991Y-127537585D01*
X166482765Y-127492206D01*
X166562206Y-127412765D01*
X166607585Y-127309991D01*
X166610500Y-127284865D01*
X166610499Y-127153076D01*
X166630183Y-127086040D01*
X166682987Y-127040285D01*
X166752145Y-127030341D01*
X166815701Y-127059365D01*
X166842495Y-127093600D01*
X166842829Y-127093396D01*
X166844607Y-127096297D01*
X166844977Y-127096770D01*
X166845373Y-127097547D01*
X166884728Y-127151716D01*
X167517037Y-126519408D01*
X167534075Y-126582993D01*
X167599901Y-126697007D01*
X167692993Y-126790099D01*
X167807007Y-126855925D01*
X167870590Y-126872962D01*
X167238282Y-127505269D01*
X167238282Y-127505270D01*
X167292449Y-127544624D01*
X167481782Y-127641095D01*
X167532483Y-127657569D01*
X167590158Y-127697006D01*
X167617357Y-127761365D01*
X167605442Y-127830211D01*
X167558198Y-127881687D01*
X167494165Y-127899500D01*
X159669159Y-127899500D01*
X159602120Y-127879815D01*
X159556365Y-127827011D01*
X159546421Y-127757853D01*
X159575446Y-127694297D01*
X159612864Y-127665015D01*
X159712994Y-127613996D01*
X159859501Y-127507553D01*
X159987553Y-127379501D01*
X160093996Y-127232994D01*
X160176211Y-127071639D01*
X160232171Y-126899409D01*
X160256856Y-126743554D01*
X160260500Y-126720551D01*
X160260500Y-126539448D01*
X160244019Y-126435397D01*
X160232171Y-126360591D01*
X160185424Y-126216716D01*
X160183429Y-126146875D01*
X160215672Y-126090719D01*
X164009480Y-122296913D01*
X164062207Y-122205588D01*
X164089500Y-122103727D01*
X164089500Y-121998273D01*
X164089500Y-116279461D01*
X164109185Y-116212422D01*
X164161989Y-116166667D01*
X164231147Y-116156723D01*
X164235988Y-116157598D01*
X164237180Y-116157709D01*
X164237181Y-116157710D01*
X164243948Y-116158344D01*
X164266930Y-116160500D01*
X164266934Y-116160500D01*
X164713070Y-116160500D01*
X164726289Y-116159260D01*
X164742819Y-116157710D01*
X164742823Y-116157708D01*
X164742826Y-116157708D01*
X164857980Y-116117413D01*
X164868157Y-116113852D01*
X164891866Y-116096353D01*
X164957493Y-116072382D01*
X165025664Y-116087697D01*
X165074733Y-116137436D01*
X165089500Y-116196123D01*
X165089500Y-116343102D01*
X165095126Y-116389954D01*
X165100122Y-116431561D01*
X165155639Y-116572343D01*
X165247077Y-116692922D01*
X165367656Y-116784360D01*
X165367657Y-116784360D01*
X165367658Y-116784361D01*
X165508436Y-116839877D01*
X165596898Y-116850500D01*
X165596903Y-116850500D01*
X166583097Y-116850500D01*
X166583102Y-116850500D01*
X166671564Y-116839877D01*
X166812342Y-116784361D01*
X166932922Y-116692922D01*
X166971502Y-116642046D01*
X167027692Y-116600524D01*
X167097413Y-116595971D01*
X167158528Y-116629836D01*
X167175843Y-116651875D01*
X167247680Y-116768340D01*
X167247683Y-116768344D01*
X167371654Y-116892315D01*
X167520875Y-116984356D01*
X167520880Y-116984358D01*
X167687302Y-117039505D01*
X167687309Y-117039506D01*
X167790019Y-117049999D01*
X168039999Y-117049999D01*
X168040000Y-117049998D01*
X168040000Y-116074000D01*
X168059685Y-116006961D01*
X168112489Y-115961206D01*
X168164000Y-115950000D01*
X168416000Y-115950000D01*
X168483039Y-115969685D01*
X168528794Y-116022489D01*
X168540000Y-116074000D01*
X168540000Y-117049999D01*
X168789972Y-117049999D01*
X168789986Y-117049998D01*
X168892697Y-117039505D01*
X169059119Y-116984358D01*
X169059124Y-116984356D01*
X169208345Y-116892315D01*
X169332315Y-116768345D01*
X169424356Y-116619124D01*
X169424359Y-116619117D01*
X169477161Y-116459769D01*
X169516933Y-116402324D01*
X169581449Y-116375500D01*
X169617151Y-116376791D01*
X169619090Y-116377145D01*
X169640000Y-116378789D01*
X170140000Y-116378789D01*
X170160910Y-116377145D01*
X170316195Y-116332031D01*
X170455374Y-116249721D01*
X170455383Y-116249714D01*
X170569714Y-116135383D01*
X170569721Y-116135374D01*
X170652031Y-115996195D01*
X170694504Y-115850000D01*
X170140000Y-115850000D01*
X170140000Y-116378789D01*
X169640000Y-116378789D01*
X169640000Y-115724000D01*
X169659685Y-115656961D01*
X169712489Y-115611206D01*
X169764000Y-115600000D01*
X169890000Y-115600000D01*
X169890000Y-115474000D01*
X169909685Y-115406961D01*
X169962489Y-115361206D01*
X170014000Y-115350000D01*
X170694504Y-115350000D01*
X170652031Y-115203804D01*
X170569721Y-115064625D01*
X170569714Y-115064616D01*
X170519159Y-115014061D01*
X170485674Y-114952738D01*
X170489798Y-114885428D01*
X170497710Y-114862819D01*
X170500500Y-114833066D01*
X170500500Y-114561953D01*
X170520185Y-114494914D01*
X170572989Y-114449159D01*
X170634225Y-114438335D01*
X170640000Y-114438789D01*
X170640000Y-113910000D01*
X170014000Y-113910000D01*
X169946961Y-113890315D01*
X169901206Y-113837511D01*
X169890000Y-113786000D01*
X169890000Y-113534000D01*
X169909685Y-113466961D01*
X169962489Y-113421206D01*
X170014000Y-113410000D01*
X170766000Y-113410000D01*
X170833039Y-113429685D01*
G37*
G04 #@! TD.AperFunction*
G04 #@! TA.AperFunction,Conductor*
G36*
X172206398Y-125378111D02*
G01*
X172219834Y-125379072D01*
X172237560Y-125392342D01*
X172257703Y-125401541D01*
X172264985Y-125412872D01*
X172275767Y-125420944D01*
X172283504Y-125441689D01*
X172295477Y-125460319D01*
X172298628Y-125482237D01*
X172300184Y-125486408D01*
X172300500Y-125495254D01*
X172300500Y-125731551D01*
X172299500Y-125746817D01*
X172299500Y-125852726D01*
X172326793Y-125954589D01*
X172347181Y-125989901D01*
X172379520Y-126045913D01*
X173284087Y-126950480D01*
X173375412Y-127003207D01*
X173477273Y-127030500D01*
X175726840Y-127030500D01*
X175793879Y-127050185D01*
X175837325Y-127098205D01*
X175906006Y-127232997D01*
X176012441Y-127379494D01*
X176012445Y-127379499D01*
X176140500Y-127507554D01*
X176140505Y-127507558D01*
X176191520Y-127544622D01*
X176287006Y-127613996D01*
X176387136Y-127665015D01*
X176437932Y-127712990D01*
X176454727Y-127780811D01*
X176432189Y-127846946D01*
X176377474Y-127890397D01*
X176330841Y-127899500D01*
X168505835Y-127899500D01*
X168438796Y-127879815D01*
X168393041Y-127827011D01*
X168383097Y-127757853D01*
X168412122Y-127694297D01*
X168467517Y-127657569D01*
X168518217Y-127641095D01*
X168707554Y-127544622D01*
X168761716Y-127505270D01*
X168761717Y-127505270D01*
X168129408Y-126872962D01*
X168192993Y-126855925D01*
X168307007Y-126790099D01*
X168400099Y-126697007D01*
X168465925Y-126582993D01*
X168482962Y-126519408D01*
X169115270Y-127151717D01*
X169115270Y-127151716D01*
X169154622Y-127097554D01*
X169251095Y-126908217D01*
X169260492Y-126879295D01*
X169299928Y-126821618D01*
X169364286Y-126794419D01*
X169433133Y-126806331D01*
X169484610Y-126853574D01*
X169488908Y-126861314D01*
X169556004Y-126992995D01*
X169662441Y-127139494D01*
X169662445Y-127139499D01*
X169790500Y-127267554D01*
X169790505Y-127267558D01*
X169918287Y-127360396D01*
X169937006Y-127373996D01*
X170013094Y-127412765D01*
X170098360Y-127456211D01*
X170098363Y-127456212D01*
X170184476Y-127484191D01*
X170270591Y-127512171D01*
X170353429Y-127525291D01*
X170449449Y-127540500D01*
X170449454Y-127540500D01*
X170630551Y-127540500D01*
X170717259Y-127526765D01*
X170809409Y-127512171D01*
X170981639Y-127456211D01*
X171142994Y-127373996D01*
X171289501Y-127267553D01*
X171417553Y-127139501D01*
X171523996Y-126992994D01*
X171606211Y-126831639D01*
X171662171Y-126659409D01*
X171681171Y-126539448D01*
X171690500Y-126480551D01*
X171690500Y-126299448D01*
X171672905Y-126188361D01*
X171662171Y-126120591D01*
X171615424Y-125976716D01*
X171613429Y-125906875D01*
X171645672Y-125850719D01*
X172088820Y-125407572D01*
X172108255Y-125396960D01*
X172124989Y-125382460D01*
X172138320Y-125380543D01*
X172150142Y-125374088D01*
X172172228Y-125375667D01*
X172194147Y-125372516D01*
X172206398Y-125378111D01*
G37*
G04 #@! TD.AperFunction*
G04 #@! TA.AperFunction,Conductor*
G36*
X178005270Y-122311717D02*
G01*
X178005270Y-122311716D01*
X178044622Y-122257554D01*
X178065015Y-122217532D01*
X178112989Y-122166736D01*
X178180810Y-122149941D01*
X178246945Y-122172478D01*
X178290397Y-122227193D01*
X178299500Y-122273827D01*
X178299500Y-127775500D01*
X178279815Y-127842539D01*
X178227011Y-127888294D01*
X178175500Y-127899500D01*
X177449159Y-127899500D01*
X177382120Y-127879815D01*
X177336365Y-127827011D01*
X177326421Y-127757853D01*
X177355446Y-127694297D01*
X177392864Y-127665015D01*
X177492994Y-127613996D01*
X177639501Y-127507553D01*
X177767553Y-127379501D01*
X177873996Y-127232994D01*
X177956211Y-127071639D01*
X178012171Y-126899409D01*
X178036856Y-126743554D01*
X178040500Y-126720551D01*
X178040500Y-126539448D01*
X178024019Y-126435397D01*
X178012171Y-126360591D01*
X177969578Y-126229500D01*
X177956212Y-126188363D01*
X177956211Y-126188360D01*
X177921679Y-126120589D01*
X177873996Y-126027006D01*
X177844403Y-125986275D01*
X177767558Y-125880505D01*
X177767554Y-125880500D01*
X177639499Y-125752445D01*
X177639494Y-125752441D01*
X177492997Y-125646006D01*
X177492996Y-125646005D01*
X177492994Y-125646004D01*
X177422535Y-125610103D01*
X177331639Y-125563788D01*
X177331636Y-125563787D01*
X177159410Y-125507829D01*
X176999321Y-125482473D01*
X176936186Y-125452544D01*
X176899255Y-125393232D01*
X176900253Y-125323370D01*
X176938863Y-125265137D01*
X176999321Y-125237527D01*
X177069425Y-125226422D01*
X177159409Y-125212171D01*
X177331639Y-125156211D01*
X177492994Y-125073996D01*
X177639501Y-124967553D01*
X177767553Y-124839501D01*
X177873996Y-124692994D01*
X177956211Y-124531639D01*
X178012171Y-124359409D01*
X178026765Y-124267259D01*
X178040500Y-124180551D01*
X178040500Y-123999448D01*
X178015647Y-123842539D01*
X178012171Y-123820591D01*
X177968657Y-123686666D01*
X177956212Y-123648363D01*
X177956211Y-123648360D01*
X177927740Y-123592484D01*
X177873996Y-123487006D01*
X177858657Y-123465893D01*
X177767558Y-123340505D01*
X177767554Y-123340500D01*
X177639499Y-123212445D01*
X177639494Y-123212441D01*
X177492995Y-123106004D01*
X177361314Y-123038908D01*
X177310519Y-122990934D01*
X177293724Y-122923113D01*
X177316262Y-122856978D01*
X177370977Y-122813527D01*
X177379295Y-122810492D01*
X177408217Y-122801095D01*
X177597554Y-122704622D01*
X177651716Y-122665270D01*
X177651717Y-122665270D01*
X177019408Y-122032962D01*
X177082993Y-122015925D01*
X177197007Y-121950099D01*
X177290099Y-121857007D01*
X177355925Y-121742993D01*
X177372962Y-121679408D01*
X178005270Y-122311717D01*
G37*
G04 #@! TD.AperFunction*
G04 #@! TA.AperFunction,Conductor*
G36*
X171430783Y-124720185D02*
G01*
X171476538Y-124772989D01*
X171486482Y-124842147D01*
X171457457Y-124905703D01*
X171451425Y-124912181D01*
X171079280Y-125284325D01*
X171017957Y-125317810D01*
X170953281Y-125314575D01*
X170809410Y-125267829D01*
X170630551Y-125239500D01*
X170630546Y-125239500D01*
X170449454Y-125239500D01*
X170449449Y-125239500D01*
X170270589Y-125267829D01*
X170098363Y-125323787D01*
X170098360Y-125323788D01*
X169937002Y-125406006D01*
X169790505Y-125512441D01*
X169790500Y-125512445D01*
X169662445Y-125640500D01*
X169662441Y-125640505D01*
X169556004Y-125787004D01*
X169488908Y-125918685D01*
X169440933Y-125969480D01*
X169373112Y-125986275D01*
X169306977Y-125963737D01*
X169263527Y-125909021D01*
X169260492Y-125900705D01*
X169251094Y-125871780D01*
X169154624Y-125682449D01*
X169115270Y-125628282D01*
X169115269Y-125628282D01*
X168482962Y-126260590D01*
X168465925Y-126197007D01*
X168400099Y-126082993D01*
X168307007Y-125989901D01*
X168192993Y-125924075D01*
X168129408Y-125907037D01*
X168761716Y-125274728D01*
X168707550Y-125235375D01*
X168518217Y-125138904D01*
X168316129Y-125073242D01*
X168106246Y-125040000D01*
X167893754Y-125040000D01*
X167683872Y-125073242D01*
X167683871Y-125073242D01*
X167670372Y-125077628D01*
X167600531Y-125079620D01*
X167540700Y-125043537D01*
X167509874Y-124980835D01*
X167517842Y-124911421D01*
X167544374Y-124872018D01*
X167679576Y-124736816D01*
X167740897Y-124703334D01*
X167767255Y-124700500D01*
X171363744Y-124700500D01*
X171430783Y-124720185D01*
G37*
G04 #@! TD.AperFunction*
G04 #@! TA.AperFunction,Conductor*
G36*
X158644075Y-121742993D02*
G01*
X158709901Y-121857007D01*
X158802993Y-121950099D01*
X158917007Y-122015925D01*
X158980590Y-122032962D01*
X158348282Y-122665269D01*
X158348282Y-122665270D01*
X158402449Y-122704624D01*
X158591780Y-122801094D01*
X158620705Y-122810492D01*
X158678381Y-122849929D01*
X158705580Y-122914287D01*
X158693667Y-122983134D01*
X158646424Y-123034610D01*
X158638685Y-123038908D01*
X158507004Y-123106004D01*
X158360505Y-123212441D01*
X158360500Y-123212445D01*
X158232445Y-123340500D01*
X158232441Y-123340505D01*
X158126006Y-123487002D01*
X158043788Y-123648360D01*
X158043785Y-123648368D01*
X158042430Y-123652541D01*
X158002992Y-123710216D01*
X157938633Y-123737413D01*
X157869787Y-123725498D01*
X157818312Y-123678253D01*
X157800500Y-123614221D01*
X157800500Y-122426017D01*
X157820185Y-122358978D01*
X157872989Y-122313223D01*
X157942147Y-122303279D01*
X157953520Y-122308473D01*
X157994728Y-122311716D01*
X158627036Y-121679407D01*
X158644075Y-121742993D01*
G37*
G04 #@! TD.AperFunction*
G04 #@! TA.AperFunction,Conductor*
G36*
X162806834Y-119249073D02*
G01*
X162862767Y-119290945D01*
X162887184Y-119356409D01*
X162887500Y-119365255D01*
X162887500Y-121667645D01*
X162867815Y-121734684D01*
X162851181Y-121755326D01*
X160953326Y-123653181D01*
X160892003Y-123686666D01*
X160865645Y-123689500D01*
X160273160Y-123689500D01*
X160206121Y-123669815D01*
X160162675Y-123621795D01*
X160154009Y-123604787D01*
X160093996Y-123487006D01*
X160078657Y-123465893D01*
X159987558Y-123340505D01*
X159987554Y-123340500D01*
X159859499Y-123212445D01*
X159859494Y-123212441D01*
X159712995Y-123106004D01*
X159581314Y-123038908D01*
X159530519Y-122990934D01*
X159513724Y-122923113D01*
X159536262Y-122856978D01*
X159590977Y-122813527D01*
X159599295Y-122810492D01*
X159628217Y-122801095D01*
X159817554Y-122704622D01*
X159871716Y-122665270D01*
X159871717Y-122665270D01*
X159239408Y-122032962D01*
X159302993Y-122015925D01*
X159417007Y-121950099D01*
X159510099Y-121857007D01*
X159575925Y-121742993D01*
X159592962Y-121679408D01*
X160225270Y-122311717D01*
X160225270Y-122311716D01*
X160264622Y-122257554D01*
X160361095Y-122068217D01*
X160426757Y-121866130D01*
X160426757Y-121866127D01*
X160460000Y-121656246D01*
X160460000Y-121443753D01*
X160426757Y-121233872D01*
X160426757Y-121233869D01*
X160361095Y-121031782D01*
X160264624Y-120842449D01*
X160225270Y-120788282D01*
X160225269Y-120788282D01*
X159592962Y-121420590D01*
X159575925Y-121357007D01*
X159510099Y-121242993D01*
X159417007Y-121149901D01*
X159302993Y-121084075D01*
X159239409Y-121067037D01*
X159871716Y-120434728D01*
X159817550Y-120395375D01*
X159628217Y-120298904D01*
X159599292Y-120289506D01*
X159541616Y-120250068D01*
X159514418Y-120185710D01*
X159526333Y-120116863D01*
X159573577Y-120065388D01*
X159581315Y-120061090D01*
X159712994Y-119993996D01*
X159859501Y-119887553D01*
X159987553Y-119759501D01*
X160093996Y-119612994D01*
X160162675Y-119478205D01*
X160210650Y-119427409D01*
X160273160Y-119410500D01*
X162429725Y-119410500D01*
X162429727Y-119410500D01*
X162531588Y-119383207D01*
X162622913Y-119330480D01*
X162675819Y-119277574D01*
X162737142Y-119244089D01*
X162806834Y-119249073D01*
G37*
G04 #@! TD.AperFunction*
G04 #@! TA.AperFunction,Conductor*
G36*
X173630814Y-119044432D02*
G01*
X173644147Y-119042516D01*
X173664290Y-119051715D01*
X173685927Y-119056422D01*
X173703652Y-119069690D01*
X173707703Y-119071541D01*
X173714181Y-119077573D01*
X173888179Y-119251571D01*
X173888189Y-119251582D01*
X173892519Y-119255912D01*
X173892520Y-119255913D01*
X173967087Y-119330480D01*
X174058413Y-119383207D01*
X174160273Y-119410501D01*
X174160275Y-119410501D01*
X174273323Y-119410501D01*
X174273339Y-119410500D01*
X175726840Y-119410500D01*
X175793879Y-119430185D01*
X175837325Y-119478205D01*
X175906006Y-119612997D01*
X176012441Y-119759494D01*
X176012445Y-119759499D01*
X176140500Y-119887554D01*
X176140505Y-119887558D01*
X176268287Y-119980396D01*
X176287006Y-119993996D01*
X176388780Y-120045853D01*
X176418684Y-120061090D01*
X176469480Y-120109065D01*
X176486275Y-120176886D01*
X176463737Y-120243021D01*
X176409022Y-120286472D01*
X176400708Y-120289506D01*
X176371781Y-120298905D01*
X176182439Y-120395380D01*
X176128282Y-120434727D01*
X176128282Y-120434728D01*
X176760591Y-121067037D01*
X176697007Y-121084075D01*
X176582993Y-121149901D01*
X176489901Y-121242993D01*
X176424075Y-121357007D01*
X176407037Y-121420591D01*
X175774728Y-120788282D01*
X175774727Y-120788282D01*
X175735380Y-120842439D01*
X175638904Y-121031782D01*
X175573242Y-121233869D01*
X175573242Y-121233872D01*
X175540000Y-121443753D01*
X175540000Y-121656246D01*
X175573242Y-121866127D01*
X175573242Y-121866130D01*
X175638904Y-122068217D01*
X175735375Y-122257550D01*
X175774728Y-122311716D01*
X176407037Y-121679408D01*
X176424075Y-121742993D01*
X176489901Y-121857007D01*
X176582993Y-121950099D01*
X176697007Y-122015925D01*
X176760590Y-122032962D01*
X176128282Y-122665269D01*
X176128282Y-122665270D01*
X176182449Y-122704624D01*
X176371780Y-122801094D01*
X176400705Y-122810492D01*
X176458381Y-122849929D01*
X176485580Y-122914287D01*
X176473667Y-122983134D01*
X176426424Y-123034610D01*
X176418685Y-123038908D01*
X176287004Y-123106004D01*
X176140505Y-123212441D01*
X176140500Y-123212445D01*
X176012445Y-123340500D01*
X176012441Y-123340505D01*
X175906006Y-123487002D01*
X175837325Y-123621795D01*
X175789350Y-123672591D01*
X175726840Y-123689500D01*
X174509255Y-123689500D01*
X174442216Y-123669815D01*
X174421574Y-123653181D01*
X173538819Y-122770426D01*
X173505334Y-122709103D01*
X173502500Y-122682745D01*
X173502500Y-119165254D01*
X173508738Y-119144008D01*
X173510318Y-119121920D01*
X173518390Y-119111136D01*
X173522185Y-119098215D01*
X173538918Y-119083715D01*
X173552190Y-119065987D01*
X173564810Y-119061279D01*
X173574989Y-119052460D01*
X173596906Y-119049308D01*
X173617654Y-119041570D01*
X173630814Y-119044432D01*
G37*
G04 #@! TD.AperFunction*
G04 #@! TA.AperFunction,Conductor*
G36*
X158005703Y-119392065D02*
G01*
X158042432Y-119447462D01*
X158043789Y-119451640D01*
X158126006Y-119612997D01*
X158232441Y-119759494D01*
X158232445Y-119759499D01*
X158360500Y-119887554D01*
X158360505Y-119887558D01*
X158488287Y-119980396D01*
X158507006Y-119993996D01*
X158608780Y-120045853D01*
X158638684Y-120061090D01*
X158689480Y-120109065D01*
X158706275Y-120176886D01*
X158683737Y-120243021D01*
X158629022Y-120286472D01*
X158620708Y-120289506D01*
X158591781Y-120298905D01*
X158402439Y-120395380D01*
X158348282Y-120434727D01*
X158348282Y-120434728D01*
X158980591Y-121067037D01*
X158917007Y-121084075D01*
X158802993Y-121149901D01*
X158709901Y-121242993D01*
X158644075Y-121357007D01*
X158627037Y-121420591D01*
X157994728Y-120788282D01*
X157937739Y-120792768D01*
X157937699Y-120792260D01*
X157899866Y-120795507D01*
X157838073Y-120762897D01*
X157803721Y-120702056D01*
X157800500Y-120673979D01*
X157800500Y-119485778D01*
X157820185Y-119418739D01*
X157872989Y-119372984D01*
X157942147Y-119363040D01*
X158005703Y-119392065D01*
G37*
G04 #@! TD.AperFunction*
G04 #@! TA.AperFunction,Conductor*
G36*
X178005270Y-109611717D02*
G01*
X178005270Y-109611716D01*
X178044622Y-109557554D01*
X178065015Y-109517532D01*
X178112989Y-109466736D01*
X178180810Y-109449941D01*
X178246945Y-109472478D01*
X178290397Y-109527193D01*
X178299500Y-109573827D01*
X178299500Y-120826172D01*
X178279815Y-120893211D01*
X178227011Y-120938966D01*
X178157853Y-120948910D01*
X178094297Y-120919885D01*
X178065016Y-120882468D01*
X178044626Y-120842452D01*
X178005270Y-120788282D01*
X178005269Y-120788282D01*
X177372962Y-121420590D01*
X177355925Y-121357007D01*
X177290099Y-121242993D01*
X177197007Y-121149901D01*
X177082993Y-121084075D01*
X177019409Y-121067037D01*
X177651716Y-120434728D01*
X177597550Y-120395375D01*
X177408217Y-120298904D01*
X177379292Y-120289506D01*
X177321616Y-120250068D01*
X177294418Y-120185710D01*
X177306333Y-120116863D01*
X177353577Y-120065388D01*
X177361315Y-120061090D01*
X177492994Y-119993996D01*
X177639501Y-119887553D01*
X177767553Y-119759501D01*
X177873996Y-119612994D01*
X177956211Y-119451639D01*
X178012171Y-119279409D01*
X178026765Y-119187259D01*
X178040500Y-119100551D01*
X178040500Y-118919448D01*
X178024019Y-118815397D01*
X178012171Y-118740591D01*
X177968657Y-118606666D01*
X177956212Y-118568363D01*
X177956211Y-118568360D01*
X177927740Y-118512484D01*
X177873996Y-118407006D01*
X177783716Y-118282745D01*
X177767558Y-118260505D01*
X177767554Y-118260500D01*
X177639499Y-118132445D01*
X177639494Y-118132441D01*
X177492997Y-118026006D01*
X177492996Y-118026005D01*
X177492994Y-118026004D01*
X177441300Y-117999664D01*
X177331639Y-117943788D01*
X177331636Y-117943787D01*
X177159410Y-117887829D01*
X176999321Y-117862473D01*
X176936186Y-117832544D01*
X176899255Y-117773232D01*
X176900253Y-117703370D01*
X176938863Y-117645137D01*
X176999321Y-117617527D01*
X177069425Y-117606422D01*
X177159409Y-117592171D01*
X177331639Y-117536211D01*
X177492994Y-117453996D01*
X177639501Y-117347553D01*
X177767553Y-117219501D01*
X177873996Y-117072994D01*
X177956211Y-116911639D01*
X178012171Y-116739409D01*
X178031222Y-116619124D01*
X178040500Y-116560551D01*
X178040500Y-116379448D01*
X178019951Y-116249714D01*
X178012171Y-116200591D01*
X177966769Y-116060855D01*
X177956212Y-116028363D01*
X177956211Y-116028360D01*
X177926314Y-115969685D01*
X177873996Y-115867006D01*
X177770097Y-115724000D01*
X177767558Y-115720505D01*
X177767554Y-115720500D01*
X177639499Y-115592445D01*
X177639494Y-115592441D01*
X177492997Y-115486006D01*
X177492996Y-115486005D01*
X177492994Y-115486004D01*
X177441300Y-115459664D01*
X177331639Y-115403788D01*
X177331636Y-115403787D01*
X177159410Y-115347829D01*
X176999321Y-115322473D01*
X176936186Y-115292544D01*
X176899255Y-115233232D01*
X176900253Y-115163370D01*
X176938863Y-115105137D01*
X176999321Y-115077527D01*
X177080777Y-115064625D01*
X177159409Y-115052171D01*
X177331639Y-114996211D01*
X177492994Y-114913996D01*
X177639501Y-114807553D01*
X177767553Y-114679501D01*
X177873996Y-114532994D01*
X177956211Y-114371639D01*
X178012171Y-114199409D01*
X178032526Y-114070892D01*
X178040500Y-114020551D01*
X178040500Y-113839448D01*
X178015195Y-113679685D01*
X178012171Y-113660591D01*
X177969578Y-113529500D01*
X177956212Y-113488363D01*
X177956211Y-113488360D01*
X177926314Y-113429685D01*
X177873996Y-113327006D01*
X177806316Y-113233852D01*
X177767558Y-113180505D01*
X177767554Y-113180500D01*
X177639499Y-113052445D01*
X177639494Y-113052441D01*
X177492997Y-112946006D01*
X177492996Y-112946005D01*
X177492994Y-112946004D01*
X177430956Y-112914394D01*
X177331639Y-112863788D01*
X177331636Y-112863787D01*
X177159410Y-112807829D01*
X176999321Y-112782473D01*
X176936186Y-112752544D01*
X176899255Y-112693232D01*
X176900253Y-112623370D01*
X176938863Y-112565137D01*
X176999321Y-112537527D01*
X177069425Y-112526422D01*
X177159409Y-112512171D01*
X177331639Y-112456211D01*
X177492994Y-112373996D01*
X177639501Y-112267553D01*
X177767553Y-112139501D01*
X177873996Y-111992994D01*
X177956211Y-111831639D01*
X178012171Y-111659409D01*
X178030976Y-111540679D01*
X178040500Y-111480551D01*
X178040500Y-111299448D01*
X178024019Y-111195397D01*
X178012171Y-111120591D01*
X177969578Y-110989500D01*
X177956212Y-110948363D01*
X177956211Y-110948360D01*
X177927740Y-110892484D01*
X177873996Y-110787006D01*
X177860396Y-110768287D01*
X177767558Y-110640505D01*
X177767554Y-110640500D01*
X177639499Y-110512445D01*
X177639494Y-110512441D01*
X177492995Y-110406004D01*
X177361314Y-110338908D01*
X177310519Y-110290934D01*
X177293724Y-110223113D01*
X177316262Y-110156978D01*
X177370977Y-110113527D01*
X177379295Y-110110492D01*
X177408217Y-110101095D01*
X177597554Y-110004622D01*
X177651716Y-109965270D01*
X177651717Y-109965270D01*
X177019408Y-109332962D01*
X177082993Y-109315925D01*
X177197007Y-109250099D01*
X177290099Y-109157007D01*
X177355925Y-109042993D01*
X177372962Y-108979408D01*
X178005270Y-109611717D01*
G37*
G04 #@! TD.AperFunction*
G04 #@! TA.AperFunction,Conductor*
G36*
X166919834Y-111249073D02*
G01*
X166975767Y-111290945D01*
X167000184Y-111356409D01*
X167000500Y-111365255D01*
X167000500Y-111515945D01*
X166980815Y-111582984D01*
X166964181Y-111603626D01*
X166769522Y-111798284D01*
X166769520Y-111798287D01*
X166716791Y-111889614D01*
X166711382Y-111909805D01*
X166711382Y-111909807D01*
X166689500Y-111991473D01*
X166689500Y-113026000D01*
X166669815Y-113093039D01*
X166617011Y-113138794D01*
X166565500Y-113150000D01*
X166340000Y-113150000D01*
X166340000Y-114126000D01*
X166320315Y-114193039D01*
X166267511Y-114238794D01*
X166216000Y-114250000D01*
X165964000Y-114250000D01*
X165896961Y-114230315D01*
X165851206Y-114177511D01*
X165840000Y-114126000D01*
X165840000Y-113150000D01*
X165590029Y-113150000D01*
X165590012Y-113150001D01*
X165487302Y-113160494D01*
X165320880Y-113215641D01*
X165320875Y-113215643D01*
X165171654Y-113307684D01*
X165047684Y-113431654D01*
X164955643Y-113580875D01*
X164955641Y-113580880D01*
X164898365Y-113753730D01*
X164896903Y-113753245D01*
X164867439Y-113807605D01*
X164806220Y-113841279D01*
X164767337Y-113841996D01*
X164767231Y-113843352D01*
X164740000Y-113841209D01*
X164740000Y-114496000D01*
X164720315Y-114563039D01*
X164667511Y-114608794D01*
X164616000Y-114620000D01*
X164364000Y-114620000D01*
X164296961Y-114600315D01*
X164251206Y-114547511D01*
X164240000Y-114496000D01*
X164240000Y-113841210D01*
X164239998Y-113841208D01*
X164223227Y-113842528D01*
X164154850Y-113828163D01*
X164105094Y-113779110D01*
X164089500Y-113718910D01*
X164089500Y-113410705D01*
X164109185Y-113343666D01*
X164125819Y-113323024D01*
X165012024Y-112436819D01*
X165073347Y-112403334D01*
X165099705Y-112400500D01*
X165552725Y-112400500D01*
X165552727Y-112400500D01*
X165654588Y-112373207D01*
X165745913Y-112320480D01*
X166788819Y-111277574D01*
X166850142Y-111244089D01*
X166919834Y-111249073D01*
G37*
G04 #@! TD.AperFunction*
G04 #@! TA.AperFunction,Conductor*
G36*
X158644075Y-109042993D02*
G01*
X158709901Y-109157007D01*
X158802993Y-109250099D01*
X158917007Y-109315925D01*
X158980589Y-109332962D01*
X158348282Y-109965269D01*
X158348282Y-109965270D01*
X158402449Y-110004624D01*
X158591780Y-110101094D01*
X158620705Y-110110492D01*
X158678381Y-110149929D01*
X158705580Y-110214287D01*
X158693667Y-110283134D01*
X158646424Y-110334610D01*
X158638685Y-110338908D01*
X158507004Y-110406004D01*
X158360505Y-110512441D01*
X158360500Y-110512445D01*
X158232445Y-110640500D01*
X158232441Y-110640505D01*
X158126006Y-110787002D01*
X158043788Y-110948360D01*
X158043785Y-110948368D01*
X158042430Y-110952541D01*
X158002992Y-111010216D01*
X157938633Y-111037413D01*
X157869787Y-111025498D01*
X157818312Y-110978253D01*
X157800500Y-110914221D01*
X157800500Y-109726017D01*
X157820185Y-109658978D01*
X157872989Y-109613223D01*
X157942147Y-109603279D01*
X157953520Y-109608473D01*
X157994728Y-109611716D01*
X158627036Y-108979407D01*
X158644075Y-109042993D01*
G37*
G04 #@! TD.AperFunction*
G04 #@! TA.AperFunction,Conductor*
G36*
X175797316Y-106771589D02*
G01*
X175853250Y-106813460D01*
X175864467Y-106831476D01*
X175906002Y-106912992D01*
X175906003Y-106912993D01*
X176012441Y-107059494D01*
X176012445Y-107059499D01*
X176140500Y-107187554D01*
X176140505Y-107187558D01*
X176186459Y-107220945D01*
X176287006Y-107293996D01*
X176365728Y-107334107D01*
X176418684Y-107361090D01*
X176469480Y-107409065D01*
X176486275Y-107476886D01*
X176463737Y-107543021D01*
X176409022Y-107586472D01*
X176400708Y-107589506D01*
X176371781Y-107598905D01*
X176182439Y-107695380D01*
X176128282Y-107734727D01*
X176128282Y-107734728D01*
X176760591Y-108367037D01*
X176697007Y-108384075D01*
X176582993Y-108449901D01*
X176489901Y-108542993D01*
X176424075Y-108657007D01*
X176407037Y-108720591D01*
X175774728Y-108088282D01*
X175774727Y-108088282D01*
X175735380Y-108142439D01*
X175638904Y-108331782D01*
X175573242Y-108533869D01*
X175573242Y-108533872D01*
X175540000Y-108743753D01*
X175540000Y-108956246D01*
X175573242Y-109166127D01*
X175573242Y-109166130D01*
X175638904Y-109368217D01*
X175735375Y-109557550D01*
X175774728Y-109611716D01*
X176407037Y-108979408D01*
X176424075Y-109042993D01*
X176489901Y-109157007D01*
X176582993Y-109250099D01*
X176697007Y-109315925D01*
X176760590Y-109332962D01*
X176128282Y-109965269D01*
X176128282Y-109965270D01*
X176182449Y-110004624D01*
X176371780Y-110101094D01*
X176400705Y-110110492D01*
X176458381Y-110149929D01*
X176485580Y-110214287D01*
X176473667Y-110283134D01*
X176426424Y-110334610D01*
X176418685Y-110338908D01*
X176287004Y-110406004D01*
X176140505Y-110512441D01*
X176140500Y-110512445D01*
X176012445Y-110640500D01*
X176012441Y-110640505D01*
X175906006Y-110787002D01*
X175837325Y-110921795D01*
X175789350Y-110972591D01*
X175726840Y-110989500D01*
X174942755Y-110989500D01*
X174875716Y-110969815D01*
X174855074Y-110953181D01*
X173437819Y-109535926D01*
X173404334Y-109474603D01*
X173401500Y-109448245D01*
X173401500Y-108481176D01*
X173401499Y-108481169D01*
X173390337Y-108439511D01*
X173374207Y-108379312D01*
X173326394Y-108296499D01*
X173326337Y-108296264D01*
X173326162Y-108296096D01*
X173318130Y-108262433D01*
X173309922Y-108228601D01*
X173310002Y-108228369D01*
X173309946Y-108228134D01*
X173321391Y-108195461D01*
X173332774Y-108162574D01*
X173332965Y-108162423D01*
X173333046Y-108162193D01*
X173360487Y-108140779D01*
X173387695Y-108119383D01*
X173388001Y-108119309D01*
X173388129Y-108119210D01*
X173389504Y-108118947D01*
X173422459Y-108111018D01*
X173428108Y-108110500D01*
X173533066Y-108110500D01*
X173562819Y-108107710D01*
X173599849Y-108094752D01*
X173615057Y-108093358D01*
X173634951Y-108097270D01*
X173655202Y-108096236D01*
X173669031Y-108103971D01*
X173683614Y-108106839D01*
X173696793Y-108119500D01*
X173714061Y-108129159D01*
X173764616Y-108179714D01*
X173764625Y-108179721D01*
X173903804Y-108262031D01*
X174050000Y-108304504D01*
X174050000Y-108304503D01*
X174550000Y-108304503D01*
X174696195Y-108262031D01*
X174835374Y-108179721D01*
X174835383Y-108179714D01*
X174949714Y-108065383D01*
X174949721Y-108065374D01*
X175032031Y-107926195D01*
X175032033Y-107926190D01*
X175077144Y-107770918D01*
X175077145Y-107770912D01*
X175078790Y-107750000D01*
X174550000Y-107750000D01*
X174550000Y-108304503D01*
X174050000Y-108304503D01*
X174050000Y-107624000D01*
X174069685Y-107556961D01*
X174122489Y-107511206D01*
X174174000Y-107500000D01*
X174300000Y-107500000D01*
X174300000Y-107374000D01*
X174319685Y-107306961D01*
X174372489Y-107261206D01*
X174424000Y-107250000D01*
X175078789Y-107250000D01*
X175090037Y-107237832D01*
X175149000Y-107202230D01*
X175151724Y-107201500D01*
X175151727Y-107201500D01*
X175253588Y-107174207D01*
X175344913Y-107121480D01*
X175666304Y-106800088D01*
X175727625Y-106766605D01*
X175797316Y-106771589D01*
G37*
G04 #@! TD.AperFunction*
G04 #@! TA.AperFunction,Conductor*
G36*
X166818518Y-103782885D02*
G01*
X166820891Y-103782608D01*
X166839165Y-103788503D01*
X166839404Y-103787730D01*
X166848600Y-103790571D01*
X166848604Y-103790571D01*
X166848607Y-103790573D01*
X166916740Y-103800500D01*
X166916745Y-103800500D01*
X167075500Y-103800500D01*
X167142539Y-103820185D01*
X167188294Y-103872989D01*
X167199500Y-103924500D01*
X167199500Y-104079057D01*
X167235026Y-104211640D01*
X167240423Y-104231783D01*
X167240426Y-104231790D01*
X167319475Y-104368709D01*
X167319479Y-104368714D01*
X167319480Y-104368716D01*
X167431284Y-104480520D01*
X167431286Y-104480521D01*
X167431290Y-104480524D01*
X167568209Y-104559573D01*
X167568216Y-104559577D01*
X167720943Y-104600500D01*
X167720945Y-104600500D01*
X167879055Y-104600500D01*
X167879057Y-104600500D01*
X168031784Y-104559577D01*
X168168716Y-104480520D01*
X168212417Y-104436819D01*
X168273740Y-104403334D01*
X168300098Y-104400500D01*
X169450499Y-104400500D01*
X169450501Y-104400500D01*
X169552362Y-104373207D01*
X169643687Y-104320480D01*
X170063128Y-103901037D01*
X170124449Y-103867554D01*
X170194140Y-103872538D01*
X170250074Y-103914409D01*
X170274491Y-103979874D01*
X170270583Y-104020810D01*
X170257040Y-104071357D01*
X170249500Y-104099499D01*
X170249500Y-104099501D01*
X170249500Y-107282744D01*
X170229815Y-107349783D01*
X170213181Y-107370425D01*
X169412529Y-108171076D01*
X169351206Y-108204561D01*
X169292760Y-108203171D01*
X169279060Y-108199500D01*
X169279057Y-108199500D01*
X169120943Y-108199500D01*
X168968216Y-108240423D01*
X168968215Y-108240423D01*
X168863787Y-108300714D01*
X168795887Y-108317185D01*
X168729860Y-108294333D01*
X168694401Y-108255326D01*
X168680522Y-108231287D01*
X168680518Y-108231282D01*
X168568717Y-108119481D01*
X168568709Y-108119475D01*
X168431790Y-108040426D01*
X168431786Y-108040424D01*
X168431784Y-108040423D01*
X168279057Y-107999500D01*
X168120943Y-107999500D01*
X167968216Y-108040423D01*
X167968209Y-108040426D01*
X167831290Y-108119475D01*
X167831282Y-108119481D01*
X167719481Y-108231282D01*
X167719475Y-108231290D01*
X167640426Y-108368209D01*
X167640423Y-108368216D01*
X167599500Y-108520943D01*
X167599500Y-108675500D01*
X167579815Y-108742539D01*
X167527011Y-108788294D01*
X167475500Y-108799500D01*
X165825500Y-108799500D01*
X165758461Y-108779815D01*
X165712706Y-108727011D01*
X165701500Y-108675500D01*
X165701500Y-108016429D01*
X165721185Y-107949390D01*
X165773989Y-107903635D01*
X165793396Y-107896657D01*
X165931784Y-107859577D01*
X166068716Y-107780520D01*
X166180520Y-107668716D01*
X166259577Y-107531784D01*
X166300500Y-107379057D01*
X166300500Y-107220943D01*
X166259577Y-107068216D01*
X166259573Y-107068209D01*
X166180524Y-106931290D01*
X166180518Y-106931282D01*
X166068717Y-106819481D01*
X166068709Y-106819475D01*
X165931790Y-106740426D01*
X165931786Y-106740424D01*
X165931784Y-106740423D01*
X165779057Y-106699500D01*
X165620943Y-106699500D01*
X165468216Y-106740423D01*
X165468214Y-106740423D01*
X165460365Y-106742527D01*
X165459739Y-106740190D01*
X165402472Y-106746342D01*
X165339996Y-106715061D01*
X165304349Y-106654969D01*
X165302023Y-106643688D01*
X165300500Y-106634060D01*
X165300500Y-106616740D01*
X165290573Y-106548607D01*
X165285264Y-106537748D01*
X165282358Y-106519374D01*
X165284549Y-106502440D01*
X165281673Y-106485610D01*
X165288910Y-106460960D01*
X165287730Y-106460596D01*
X165290571Y-106451399D01*
X165290571Y-106451396D01*
X165290573Y-106451393D01*
X165300500Y-106383260D01*
X165300500Y-106216740D01*
X165290573Y-106148607D01*
X165290571Y-106148604D01*
X165290571Y-106148600D01*
X165287730Y-106139404D01*
X165290709Y-106138483D01*
X165281673Y-106085610D01*
X165288910Y-106060960D01*
X165287730Y-106060596D01*
X165290571Y-106051399D01*
X165290571Y-106051396D01*
X165290573Y-106051393D01*
X165300500Y-105983260D01*
X165300500Y-105816740D01*
X165290573Y-105748607D01*
X165290571Y-105748604D01*
X165290571Y-105748600D01*
X165287730Y-105739404D01*
X165290709Y-105738483D01*
X165281673Y-105685610D01*
X165288910Y-105660960D01*
X165287730Y-105660596D01*
X165290571Y-105651399D01*
X165290571Y-105651396D01*
X165290573Y-105651393D01*
X165300500Y-105583260D01*
X165300500Y-105416740D01*
X165290573Y-105348607D01*
X165290571Y-105348604D01*
X165290571Y-105348600D01*
X165287730Y-105339404D01*
X165290709Y-105338483D01*
X165281673Y-105285610D01*
X165288910Y-105260960D01*
X165287730Y-105260596D01*
X165290571Y-105251399D01*
X165290571Y-105251396D01*
X165290573Y-105251393D01*
X165300500Y-105183260D01*
X165300500Y-105016740D01*
X165290573Y-104948607D01*
X165290571Y-104948604D01*
X165290571Y-104948600D01*
X165287730Y-104939404D01*
X165290709Y-104938483D01*
X165281673Y-104885610D01*
X165283182Y-104875987D01*
X165286319Y-104860094D01*
X165290573Y-104851393D01*
X165297722Y-104802323D01*
X165298322Y-104799286D01*
X165313084Y-104770963D01*
X165326414Y-104741921D01*
X165329128Y-104740183D01*
X165330617Y-104737328D01*
X165358353Y-104721479D01*
X165385263Y-104704257D01*
X165390376Y-104703181D01*
X165391282Y-104702664D01*
X165392527Y-104702728D01*
X165401274Y-104700888D01*
X165402723Y-104700500D01*
X165402727Y-104700500D01*
X165404731Y-104699963D01*
X165406801Y-104699963D01*
X165410790Y-104699438D01*
X165410859Y-104699963D01*
X165462815Y-104699963D01*
X165462884Y-104699439D01*
X165466864Y-104699963D01*
X165468939Y-104699963D01*
X165470943Y-104700500D01*
X165470945Y-104700500D01*
X165629055Y-104700500D01*
X165629057Y-104700500D01*
X165781784Y-104659577D01*
X165918716Y-104580520D01*
X166030520Y-104468716D01*
X166109577Y-104331784D01*
X166150500Y-104179057D01*
X166150500Y-104020943D01*
X166133257Y-103956591D01*
X166133661Y-103939621D01*
X166129038Y-103923287D01*
X166134475Y-103905417D01*
X166134920Y-103886744D01*
X166144436Y-103872683D01*
X166149378Y-103856443D01*
X166163611Y-103844351D01*
X166174082Y-103828881D01*
X166190004Y-103821930D01*
X166202627Y-103811207D01*
X166225886Y-103806266D01*
X166236587Y-103801595D01*
X166244771Y-103800500D01*
X166283260Y-103800500D01*
X166351393Y-103790573D01*
X166363614Y-103784598D01*
X166383555Y-103781930D01*
X166398994Y-103784304D01*
X166414390Y-103781673D01*
X166439039Y-103788910D01*
X166439404Y-103787730D01*
X166448600Y-103790571D01*
X166448604Y-103790571D01*
X166448607Y-103790573D01*
X166516740Y-103800500D01*
X166516745Y-103800500D01*
X166683255Y-103800500D01*
X166683260Y-103800500D01*
X166751393Y-103790573D01*
X166751396Y-103790571D01*
X166751399Y-103790571D01*
X166760596Y-103787730D01*
X166761169Y-103789585D01*
X166783055Y-103787028D01*
X166814390Y-103781673D01*
X166818518Y-103782885D01*
G37*
G04 #@! TD.AperFunction*
G04 #@! TA.AperFunction,Conductor*
G36*
X158005703Y-106692065D02*
G01*
X158042432Y-106747462D01*
X158043789Y-106751640D01*
X158078353Y-106819475D01*
X158126003Y-106912993D01*
X158126006Y-106912997D01*
X158232441Y-107059494D01*
X158232445Y-107059499D01*
X158360500Y-107187554D01*
X158360505Y-107187558D01*
X158406459Y-107220945D01*
X158507006Y-107293996D01*
X158585728Y-107334107D01*
X158638684Y-107361090D01*
X158689480Y-107409065D01*
X158706275Y-107476886D01*
X158683737Y-107543021D01*
X158629022Y-107586472D01*
X158620708Y-107589506D01*
X158591781Y-107598905D01*
X158402439Y-107695380D01*
X158348282Y-107734727D01*
X158348282Y-107734728D01*
X158980591Y-108367037D01*
X158917007Y-108384075D01*
X158802993Y-108449901D01*
X158709901Y-108542993D01*
X158644075Y-108657007D01*
X158627037Y-108720591D01*
X157994728Y-108088282D01*
X157937739Y-108092768D01*
X157937699Y-108092260D01*
X157899866Y-108095507D01*
X157838073Y-108062897D01*
X157803721Y-108002056D01*
X157800500Y-107973979D01*
X157800500Y-106785778D01*
X157820185Y-106718739D01*
X157872989Y-106672984D01*
X157942147Y-106663040D01*
X158005703Y-106692065D01*
G37*
G04 #@! TD.AperFunction*
G04 #@! TA.AperFunction,Conductor*
G36*
X178005270Y-96911717D02*
G01*
X178005270Y-96911716D01*
X178044622Y-96857554D01*
X178065015Y-96817532D01*
X178112989Y-96766736D01*
X178180810Y-96749941D01*
X178246945Y-96772478D01*
X178290397Y-96827193D01*
X178299500Y-96873827D01*
X178299500Y-108126172D01*
X178279815Y-108193211D01*
X178227011Y-108238966D01*
X178157853Y-108248910D01*
X178094297Y-108219885D01*
X178065016Y-108182468D01*
X178044626Y-108142452D01*
X178005270Y-108088282D01*
X178005269Y-108088282D01*
X177372962Y-108720590D01*
X177355925Y-108657007D01*
X177290099Y-108542993D01*
X177197007Y-108449901D01*
X177082993Y-108384075D01*
X177019409Y-108367037D01*
X177651716Y-107734728D01*
X177597550Y-107695375D01*
X177408217Y-107598904D01*
X177379292Y-107589506D01*
X177321616Y-107550068D01*
X177294418Y-107485710D01*
X177306333Y-107416863D01*
X177353577Y-107365388D01*
X177361315Y-107361090D01*
X177492994Y-107293996D01*
X177639501Y-107187553D01*
X177767553Y-107059501D01*
X177873996Y-106912994D01*
X177956211Y-106751639D01*
X178012171Y-106579409D01*
X178027027Y-106485610D01*
X178040500Y-106400551D01*
X178040500Y-106219448D01*
X178015339Y-106060596D01*
X178012171Y-106040591D01*
X177976309Y-105930216D01*
X177956212Y-105868363D01*
X177956211Y-105868360D01*
X177927740Y-105812484D01*
X177873996Y-105707006D01*
X177840277Y-105660596D01*
X177767558Y-105560505D01*
X177767554Y-105560500D01*
X177639499Y-105432445D01*
X177639494Y-105432441D01*
X177492997Y-105326006D01*
X177492996Y-105326005D01*
X177492994Y-105326004D01*
X177413717Y-105285610D01*
X177331639Y-105243788D01*
X177331636Y-105243787D01*
X177159410Y-105187829D01*
X176999321Y-105162473D01*
X176936186Y-105132544D01*
X176899255Y-105073232D01*
X176900253Y-105003370D01*
X176938863Y-104945137D01*
X176999321Y-104917527D01*
X177069425Y-104906422D01*
X177159409Y-104892171D01*
X177331639Y-104836211D01*
X177492994Y-104753996D01*
X177639501Y-104647553D01*
X177767553Y-104519501D01*
X177873996Y-104372994D01*
X177956211Y-104211639D01*
X178012171Y-104039409D01*
X178031969Y-103914409D01*
X178040500Y-103860551D01*
X178040500Y-103679448D01*
X178024019Y-103575397D01*
X178012171Y-103500591D01*
X177976309Y-103390216D01*
X177956212Y-103328363D01*
X177956211Y-103328360D01*
X177916334Y-103250098D01*
X177873996Y-103167006D01*
X177838912Y-103118717D01*
X177767558Y-103020505D01*
X177767554Y-103020500D01*
X177639499Y-102892445D01*
X177639494Y-102892441D01*
X177492997Y-102786006D01*
X177492996Y-102786005D01*
X177492994Y-102786004D01*
X177441300Y-102759664D01*
X177331639Y-102703788D01*
X177331636Y-102703787D01*
X177159410Y-102647829D01*
X176999321Y-102622473D01*
X176936186Y-102592544D01*
X176899255Y-102533232D01*
X176900253Y-102463370D01*
X176938863Y-102405137D01*
X176999321Y-102377527D01*
X177079129Y-102364886D01*
X177159409Y-102352171D01*
X177331639Y-102296211D01*
X177492994Y-102213996D01*
X177639501Y-102107553D01*
X177767553Y-101979501D01*
X177873996Y-101832994D01*
X177956211Y-101671639D01*
X178012171Y-101499409D01*
X178034501Y-101358423D01*
X178040500Y-101320551D01*
X178040500Y-101139448D01*
X178013258Y-100967457D01*
X178012171Y-100960591D01*
X177976309Y-100850216D01*
X177956212Y-100788363D01*
X177956211Y-100788360D01*
X177897822Y-100673767D01*
X177873996Y-100627006D01*
X177827581Y-100563121D01*
X177767558Y-100480505D01*
X177767554Y-100480500D01*
X177639499Y-100352445D01*
X177639494Y-100352441D01*
X177492997Y-100246006D01*
X177492996Y-100246005D01*
X177492994Y-100246004D01*
X177441300Y-100219664D01*
X177331639Y-100163788D01*
X177331636Y-100163787D01*
X177159410Y-100107829D01*
X176999321Y-100082473D01*
X176936186Y-100052544D01*
X176899255Y-99993232D01*
X176900253Y-99923370D01*
X176938863Y-99865137D01*
X176999321Y-99837527D01*
X177069425Y-99826422D01*
X177159409Y-99812171D01*
X177331639Y-99756211D01*
X177492994Y-99673996D01*
X177639501Y-99567553D01*
X177767553Y-99439501D01*
X177873996Y-99292994D01*
X177956211Y-99131639D01*
X178012171Y-98959409D01*
X178026765Y-98867259D01*
X178040500Y-98780551D01*
X178040500Y-98599448D01*
X178024019Y-98495397D01*
X178012171Y-98420591D01*
X177969108Y-98288055D01*
X177956212Y-98248363D01*
X177956211Y-98248360D01*
X177886903Y-98112338D01*
X177873996Y-98087006D01*
X177802869Y-97989107D01*
X177767558Y-97940505D01*
X177767554Y-97940500D01*
X177639499Y-97812445D01*
X177639494Y-97812441D01*
X177492995Y-97706004D01*
X177361314Y-97638908D01*
X177310519Y-97590934D01*
X177293724Y-97523113D01*
X177316262Y-97456978D01*
X177370977Y-97413527D01*
X177379295Y-97410492D01*
X177408217Y-97401095D01*
X177597554Y-97304622D01*
X177651716Y-97265270D01*
X177651717Y-97265270D01*
X177019408Y-96632962D01*
X177082993Y-96615925D01*
X177197007Y-96550099D01*
X177290099Y-96457007D01*
X177355925Y-96342993D01*
X177372962Y-96279408D01*
X178005270Y-96911717D01*
G37*
G04 #@! TD.AperFunction*
G04 #@! TA.AperFunction,Conductor*
G36*
X161142507Y-107500500D02*
G01*
X161147273Y-107500500D01*
X161836760Y-107500500D01*
X161903799Y-107520185D01*
X161949554Y-107572989D01*
X161959498Y-107642147D01*
X161930473Y-107705703D01*
X161924441Y-107712181D01*
X161731797Y-107904824D01*
X161731785Y-107904838D01*
X161712729Y-107927836D01*
X161712726Y-107927840D01*
X161702335Y-107949420D01*
X161655513Y-108001280D01*
X161590615Y-108019619D01*
X161519108Y-108019619D01*
X161354937Y-108061772D01*
X161354453Y-108059889D01*
X161295136Y-108065316D01*
X161233162Y-108033053D01*
X161199313Y-107975744D01*
X161198840Y-107973979D01*
X161173207Y-107878313D01*
X161120480Y-107786987D01*
X161045913Y-107712420D01*
X161044795Y-107711302D01*
X161011310Y-107649979D01*
X161016294Y-107580287D01*
X161058166Y-107524354D01*
X161123630Y-107499937D01*
X161142507Y-107500500D01*
G37*
G04 #@! TD.AperFunction*
G04 #@! TA.AperFunction,Conductor*
G36*
X163899358Y-102794475D02*
G01*
X163937181Y-102807710D01*
X163966934Y-102810500D01*
X164104217Y-102810500D01*
X164109049Y-102810878D01*
X164137358Y-102821652D01*
X164166418Y-102830185D01*
X164169684Y-102833954D01*
X164174349Y-102835730D01*
X164192342Y-102860103D01*
X164212173Y-102882989D01*
X164212883Y-102887927D01*
X164215847Y-102891942D01*
X164219154Y-102902406D01*
X164240423Y-102981785D01*
X164240426Y-102981790D01*
X164319475Y-103118709D01*
X164319481Y-103118717D01*
X164363181Y-103162417D01*
X164377884Y-103189344D01*
X164394477Y-103215163D01*
X164395368Y-103221363D01*
X164396666Y-103223740D01*
X164399500Y-103250098D01*
X164399500Y-103375500D01*
X164379815Y-103442539D01*
X164327011Y-103488294D01*
X164275500Y-103499500D01*
X164141739Y-103499500D01*
X164073608Y-103509426D01*
X163968516Y-103560802D01*
X163899708Y-103629610D01*
X163838384Y-103663094D01*
X163768693Y-103658109D01*
X163712759Y-103616238D01*
X163688343Y-103550773D01*
X163692252Y-103509836D01*
X163700500Y-103479057D01*
X163700500Y-103320943D01*
X163659577Y-103168216D01*
X163616057Y-103092836D01*
X163599586Y-103024936D01*
X163622438Y-102958909D01*
X163660325Y-102924104D01*
X163735375Y-102879720D01*
X163735380Y-102879716D01*
X163785936Y-102829160D01*
X163786313Y-102828953D01*
X163786523Y-102828576D01*
X163816989Y-102812203D01*
X163847259Y-102795674D01*
X163847696Y-102795700D01*
X163848068Y-102795501D01*
X163883288Y-102793218D01*
X163899358Y-102794475D01*
G37*
G04 #@! TD.AperFunction*
G04 #@! TA.AperFunction,Conductor*
G36*
X173612976Y-100261913D02*
G01*
X173655007Y-100317726D01*
X173662950Y-100361392D01*
X173662950Y-102068967D01*
X173643265Y-102136006D01*
X173590461Y-102181761D01*
X173538302Y-102189260D01*
X173530000Y-102195494D01*
X173530000Y-102876000D01*
X173510315Y-102943039D01*
X173457511Y-102988794D01*
X173406000Y-103000000D01*
X173154000Y-103000000D01*
X173086961Y-102980315D01*
X173041206Y-102927511D01*
X173030000Y-102876000D01*
X173030000Y-102195494D01*
X173029998Y-102195493D01*
X172883809Y-102237965D01*
X172883806Y-102237967D01*
X172744625Y-102320278D01*
X172744619Y-102320283D01*
X172694060Y-102370841D01*
X172632736Y-102404325D01*
X172593708Y-102406509D01*
X172579192Y-102405017D01*
X172542819Y-102392290D01*
X172513066Y-102389500D01*
X172428145Y-102389500D01*
X172421828Y-102388851D01*
X172395128Y-102377939D01*
X172367461Y-102369815D01*
X172363190Y-102364886D01*
X172357151Y-102362418D01*
X172340588Y-102338802D01*
X172321706Y-102317011D01*
X172320087Y-102309571D01*
X172317032Y-102305215D01*
X172316550Y-102293312D01*
X172310500Y-102265500D01*
X172310500Y-102107253D01*
X172330185Y-102040214D01*
X172346815Y-102019576D01*
X172656881Y-101709509D01*
X172656886Y-101709506D01*
X172667089Y-101699302D01*
X172667091Y-101699302D01*
X172741658Y-101624735D01*
X172794385Y-101533409D01*
X172796382Y-101525953D01*
X172798113Y-101519498D01*
X172821600Y-101431843D01*
X172821679Y-101431549D01*
X172821679Y-101326095D01*
X172821679Y-101318500D01*
X172821678Y-101318482D01*
X172821678Y-100693061D01*
X172841363Y-100626022D01*
X172857992Y-100605384D01*
X172989385Y-100473992D01*
X173008451Y-100450981D01*
X173018843Y-100429402D01*
X173065665Y-100377542D01*
X173130563Y-100359203D01*
X173202064Y-100359203D01*
X173202069Y-100359202D01*
X173358687Y-100318989D01*
X173479212Y-100252730D01*
X173547442Y-100237683D01*
X173612976Y-100261913D01*
G37*
G04 #@! TD.AperFunction*
G04 #@! TA.AperFunction,Conductor*
G36*
X171222098Y-99656807D02*
G01*
X171278031Y-99698679D01*
X171286151Y-99710989D01*
X171319477Y-99768712D01*
X171319479Y-99768715D01*
X171319480Y-99768716D01*
X171431284Y-99880520D01*
X171431286Y-99880521D01*
X171431290Y-99880524D01*
X171511870Y-99927046D01*
X171568216Y-99959577D01*
X171628089Y-99975619D01*
X171641975Y-99983636D01*
X171655422Y-99986562D01*
X171683676Y-100007713D01*
X171722330Y-100046367D01*
X171755815Y-100107690D01*
X171757265Y-100152523D01*
X171756499Y-100157606D01*
X171756499Y-100157609D01*
X171776289Y-100288913D01*
X171776290Y-100288917D01*
X171833904Y-100408555D01*
X171833907Y-100408559D01*
X171852963Y-100431557D01*
X171852965Y-100431560D01*
X171852970Y-100431565D01*
X171852971Y-100431566D01*
X171913682Y-100492277D01*
X171947166Y-100553598D01*
X171950000Y-100579957D01*
X171950000Y-101016000D01*
X171930315Y-101083039D01*
X171877511Y-101128794D01*
X171826000Y-101140000D01*
X171574000Y-101140000D01*
X171506961Y-101120315D01*
X171461206Y-101067511D01*
X171450000Y-101016000D01*
X171450000Y-100361210D01*
X171410171Y-100324393D01*
X171412818Y-100321528D01*
X171386758Y-100296524D01*
X171379720Y-100284625D01*
X171379714Y-100284616D01*
X171265383Y-100170285D01*
X171265374Y-100170278D01*
X171126195Y-100087968D01*
X171126190Y-100087966D01*
X170988322Y-100047912D01*
X170984320Y-100045356D01*
X170979583Y-100045018D01*
X170955153Y-100026729D01*
X170929436Y-100010306D01*
X170927450Y-100005991D01*
X170923650Y-100003146D01*
X170912988Y-99974560D01*
X170900230Y-99946834D01*
X170900892Y-99942131D01*
X170899233Y-99937682D01*
X170905719Y-99907864D01*
X170909976Y-99877647D01*
X170913354Y-99872765D01*
X170914085Y-99869409D01*
X170935230Y-99841162D01*
X171091087Y-99685305D01*
X171152406Y-99651823D01*
X171222098Y-99656807D01*
G37*
G04 #@! TD.AperFunction*
G04 #@! TA.AperFunction,Conductor*
G36*
X163293039Y-97899685D02*
G01*
X163338794Y-97952489D01*
X163350000Y-98004000D01*
X163350000Y-98630000D01*
X163362181Y-98642181D01*
X163395666Y-98703504D01*
X163398500Y-98729862D01*
X163398500Y-99696273D01*
X163398500Y-99801727D01*
X163412130Y-99852595D01*
X163425793Y-99903589D01*
X163445477Y-99937682D01*
X163478520Y-99994913D01*
X163478522Y-99994915D01*
X163970426Y-100486819D01*
X164003911Y-100548142D01*
X163998927Y-100617834D01*
X163957055Y-100673767D01*
X163891591Y-100698184D01*
X163882745Y-100698500D01*
X163433298Y-100698500D01*
X163366259Y-100678815D01*
X163345617Y-100662181D01*
X162860958Y-100177522D01*
X162860956Y-100177520D01*
X162769631Y-100124793D01*
X162767499Y-100123562D01*
X162719284Y-100072994D01*
X162705500Y-100016175D01*
X162705500Y-98754000D01*
X162725185Y-98686961D01*
X162777989Y-98641206D01*
X162829500Y-98630000D01*
X162850000Y-98630000D01*
X162850000Y-98004000D01*
X162869685Y-97936961D01*
X162922489Y-97891206D01*
X162974000Y-97880000D01*
X163226000Y-97880000D01*
X163293039Y-97899685D01*
G37*
G04 #@! TD.AperFunction*
G04 #@! TA.AperFunction,Conductor*
G36*
X166193039Y-92719685D02*
G01*
X166238794Y-92772489D01*
X166250000Y-92824000D01*
X166250000Y-93504503D01*
X166396195Y-93462031D01*
X166535372Y-93379722D01*
X166535380Y-93379716D01*
X166585936Y-93329160D01*
X166647259Y-93295674D01*
X166714569Y-93299797D01*
X166737181Y-93307710D01*
X166737189Y-93307710D01*
X166737190Y-93307711D01*
X166766930Y-93310500D01*
X166766934Y-93310500D01*
X166952745Y-93310500D01*
X167019784Y-93330185D01*
X167040426Y-93346819D01*
X167769843Y-94076235D01*
X167777859Y-94090119D01*
X167788043Y-94099377D01*
X167801936Y-94131821D01*
X167820275Y-94200262D01*
X167823360Y-94223697D01*
X167824118Y-94223638D01*
X167824499Y-94228491D01*
X167840279Y-94328121D01*
X167840280Y-94328124D01*
X167840281Y-94328126D01*
X167901472Y-94448220D01*
X167901473Y-94448221D01*
X167901476Y-94448225D01*
X167996774Y-94543523D01*
X167996778Y-94543526D01*
X167996780Y-94543528D01*
X168096850Y-94594516D01*
X168147645Y-94642490D01*
X168164440Y-94710310D01*
X168141903Y-94776445D01*
X168096851Y-94815483D01*
X168028975Y-94850068D01*
X167996778Y-94866473D01*
X167996774Y-94866476D01*
X167901476Y-94961774D01*
X167901473Y-94961778D01*
X167840279Y-95081878D01*
X167824500Y-95181506D01*
X167824500Y-95498493D01*
X167840279Y-95598121D01*
X167840280Y-95598124D01*
X167840281Y-95598126D01*
X167889324Y-95694378D01*
X167901473Y-95718221D01*
X167901476Y-95718225D01*
X167996774Y-95813523D01*
X167996778Y-95813526D01*
X167996780Y-95813528D01*
X168096850Y-95864516D01*
X168147645Y-95912490D01*
X168164440Y-95980310D01*
X168141903Y-96046445D01*
X168096851Y-96085483D01*
X167999275Y-96135200D01*
X167996778Y-96136473D01*
X167996774Y-96136476D01*
X167901476Y-96231774D01*
X167901473Y-96231778D01*
X167840279Y-96351878D01*
X167824500Y-96451506D01*
X167824500Y-96768493D01*
X167840279Y-96868121D01*
X167840280Y-96868124D01*
X167840281Y-96868126D01*
X167901472Y-96988220D01*
X167901473Y-96988221D01*
X167901476Y-96988225D01*
X167996774Y-97083523D01*
X167996778Y-97083526D01*
X167996780Y-97083528D01*
X168096850Y-97134516D01*
X168147645Y-97182490D01*
X168164440Y-97250310D01*
X168141903Y-97316445D01*
X168096851Y-97355483D01*
X168007335Y-97401094D01*
X167996778Y-97406473D01*
X167996774Y-97406476D01*
X167901476Y-97501774D01*
X167901473Y-97501778D01*
X167840279Y-97621878D01*
X167824500Y-97721506D01*
X167824500Y-97937745D01*
X167804815Y-98004784D01*
X167788181Y-98025426D01*
X166279522Y-99534084D01*
X166279520Y-99534087D01*
X166226793Y-99625412D01*
X166213775Y-99673996D01*
X166213775Y-99673997D01*
X166213774Y-99673996D01*
X166199500Y-99727269D01*
X166199500Y-100053418D01*
X166179815Y-100120457D01*
X166127011Y-100166212D01*
X166057853Y-100176156D01*
X166013500Y-100160805D01*
X165954591Y-100126794D01*
X165954588Y-100126793D01*
X165852727Y-100099500D01*
X165852726Y-100099500D01*
X164767255Y-100099500D01*
X164700216Y-100079815D01*
X164679574Y-100063181D01*
X164235819Y-99619426D01*
X164202334Y-99558103D01*
X164199500Y-99531745D01*
X164199500Y-97256275D01*
X164199499Y-97256271D01*
X164185893Y-97205491D01*
X164185892Y-97205490D01*
X164185890Y-97205480D01*
X164172207Y-97154412D01*
X164119480Y-97063087D01*
X163811819Y-96755426D01*
X163778334Y-96694103D01*
X163775500Y-96667745D01*
X163775500Y-96451506D01*
X163759720Y-96351878D01*
X163759719Y-96351876D01*
X163759719Y-96351874D01*
X163698528Y-96231780D01*
X163698526Y-96231778D01*
X163698523Y-96231774D01*
X163603225Y-96136476D01*
X163603221Y-96136473D01*
X163603220Y-96136472D01*
X163503149Y-96085483D01*
X163452354Y-96037511D01*
X163435559Y-95969690D01*
X163458096Y-95903555D01*
X163503148Y-95864516D01*
X163603220Y-95813528D01*
X163698528Y-95718220D01*
X163759719Y-95598126D01*
X163759720Y-95598121D01*
X163775500Y-95498493D01*
X163775500Y-95181506D01*
X163759720Y-95081878D01*
X163759719Y-95081876D01*
X163759719Y-95081874D01*
X163698528Y-94961780D01*
X163698526Y-94961778D01*
X163698523Y-94961774D01*
X163603225Y-94866476D01*
X163603221Y-94866473D01*
X163603220Y-94866472D01*
X163503149Y-94815483D01*
X163452354Y-94767511D01*
X163435559Y-94699690D01*
X163458096Y-94633555D01*
X163503148Y-94594516D01*
X163603220Y-94543528D01*
X163698528Y-94448220D01*
X163759719Y-94328126D01*
X163770057Y-94262855D01*
X163775500Y-94228493D01*
X163775500Y-94012255D01*
X163784144Y-93982814D01*
X163790668Y-93952828D01*
X163794422Y-93947812D01*
X163795185Y-93945216D01*
X163811819Y-93924574D01*
X163978574Y-93757819D01*
X164039897Y-93724334D01*
X164066255Y-93721500D01*
X164446725Y-93721500D01*
X164446727Y-93721500D01*
X164548588Y-93694207D01*
X164639913Y-93641480D01*
X164924573Y-93356817D01*
X164985896Y-93323333D01*
X165012255Y-93320499D01*
X165202454Y-93320499D01*
X165202456Y-93320499D01*
X165231879Y-93317741D01*
X165284837Y-93299209D01*
X165354613Y-93295647D01*
X165413472Y-93328570D01*
X165464616Y-93379714D01*
X165464625Y-93379721D01*
X165603804Y-93462031D01*
X165750000Y-93504504D01*
X165750000Y-92824000D01*
X165769685Y-92756961D01*
X165822489Y-92711206D01*
X165874000Y-92700000D01*
X166126000Y-92700000D01*
X166193039Y-92719685D01*
G37*
G04 #@! TD.AperFunction*
G04 #@! TA.AperFunction,Conductor*
G36*
X175503029Y-95665877D02*
G01*
X175558962Y-95707749D01*
X175583379Y-95773213D01*
X175577628Y-95820372D01*
X175573242Y-95833871D01*
X175573242Y-95833872D01*
X175540000Y-96043753D01*
X175540000Y-96256246D01*
X175573242Y-96466127D01*
X175573242Y-96466130D01*
X175638904Y-96668217D01*
X175735375Y-96857550D01*
X175774728Y-96911716D01*
X176407037Y-96279408D01*
X176424075Y-96342993D01*
X176489901Y-96457007D01*
X176582993Y-96550099D01*
X176697007Y-96615925D01*
X176760590Y-96632962D01*
X176128282Y-97265269D01*
X176128282Y-97265270D01*
X176182449Y-97304624D01*
X176371780Y-97401094D01*
X176400705Y-97410492D01*
X176458381Y-97449929D01*
X176485580Y-97514287D01*
X176473667Y-97583134D01*
X176426424Y-97634610D01*
X176418685Y-97638908D01*
X176287004Y-97706004D01*
X176140505Y-97812441D01*
X176140500Y-97812445D01*
X176012445Y-97940500D01*
X176012441Y-97940505D01*
X175906006Y-98087002D01*
X175823788Y-98248360D01*
X175823787Y-98248363D01*
X175767829Y-98420589D01*
X175739500Y-98599448D01*
X175739500Y-98780551D01*
X175767829Y-98959412D01*
X175814575Y-99103283D01*
X175816570Y-99173124D01*
X175784325Y-99229281D01*
X175477631Y-99535975D01*
X175416308Y-99569460D01*
X175346616Y-99564476D01*
X175290683Y-99522604D01*
X175266266Y-99457140D01*
X175265950Y-99448294D01*
X175265950Y-95851804D01*
X175285635Y-95784765D01*
X175302264Y-95764127D01*
X175372015Y-95694376D01*
X175433337Y-95660893D01*
X175503029Y-95665877D01*
G37*
G04 #@! TD.AperFunction*
G04 #@! TA.AperFunction,Conductor*
G36*
X158644075Y-96342993D02*
G01*
X158709901Y-96457007D01*
X158802993Y-96550099D01*
X158917007Y-96615925D01*
X158980590Y-96632962D01*
X158348282Y-97265269D01*
X158348282Y-97265270D01*
X158402449Y-97304624D01*
X158591780Y-97401094D01*
X158620705Y-97410492D01*
X158678381Y-97449929D01*
X158705580Y-97514287D01*
X158693667Y-97583134D01*
X158646424Y-97634610D01*
X158638685Y-97638908D01*
X158507004Y-97706004D01*
X158360505Y-97812441D01*
X158360500Y-97812445D01*
X158232445Y-97940500D01*
X158232441Y-97940505D01*
X158126006Y-98087002D01*
X158043788Y-98248360D01*
X158043785Y-98248368D01*
X158042430Y-98252541D01*
X158002992Y-98310216D01*
X157938633Y-98337413D01*
X157869787Y-98325498D01*
X157818312Y-98278253D01*
X157800500Y-98214221D01*
X157800500Y-97026017D01*
X157820185Y-96958978D01*
X157872989Y-96913223D01*
X157942147Y-96903279D01*
X157953520Y-96908473D01*
X157994728Y-96911716D01*
X158627036Y-96279407D01*
X158644075Y-96342993D01*
G37*
G04 #@! TD.AperFunction*
G04 #@! TA.AperFunction,Conductor*
G36*
X160264181Y-96950627D02*
G01*
X160297666Y-97011950D01*
X160300500Y-97038308D01*
X160300500Y-97989600D01*
X160280815Y-98056639D01*
X160228011Y-98102394D01*
X160158853Y-98112338D01*
X160095297Y-98083313D01*
X160076182Y-98062485D01*
X159987558Y-97940505D01*
X159987554Y-97940500D01*
X159859499Y-97812445D01*
X159859494Y-97812441D01*
X159712995Y-97706004D01*
X159581314Y-97638908D01*
X159530519Y-97590934D01*
X159513724Y-97523113D01*
X159536262Y-97456978D01*
X159590977Y-97413527D01*
X159599295Y-97410492D01*
X159628217Y-97401095D01*
X159817554Y-97304622D01*
X159871716Y-97265270D01*
X159871717Y-97265270D01*
X159239408Y-96632962D01*
X159302993Y-96615925D01*
X159417007Y-96550099D01*
X159510099Y-96457007D01*
X159575925Y-96342993D01*
X159592962Y-96279408D01*
X160264181Y-96950627D01*
G37*
G04 #@! TD.AperFunction*
G04 #@! TA.AperFunction,Conductor*
G36*
X158005703Y-93992065D02*
G01*
X158042432Y-94047462D01*
X158043789Y-94051640D01*
X158064926Y-94093122D01*
X158119515Y-94200259D01*
X158126006Y-94212997D01*
X158232441Y-94359494D01*
X158232445Y-94359499D01*
X158360500Y-94487554D01*
X158360505Y-94487558D01*
X158437542Y-94543528D01*
X158507006Y-94593996D01*
X158602180Y-94642490D01*
X158638684Y-94661090D01*
X158689480Y-94709065D01*
X158706275Y-94776886D01*
X158683737Y-94843021D01*
X158629022Y-94886472D01*
X158620708Y-94889506D01*
X158591781Y-94898905D01*
X158402439Y-94995380D01*
X158348282Y-95034727D01*
X158348282Y-95034728D01*
X158980591Y-95667037D01*
X158917007Y-95684075D01*
X158802993Y-95749901D01*
X158709901Y-95842993D01*
X158644075Y-95957007D01*
X158627037Y-96020591D01*
X157994728Y-95388282D01*
X157937739Y-95392768D01*
X157937699Y-95392260D01*
X157899866Y-95395507D01*
X157838073Y-95362897D01*
X157803721Y-95302056D01*
X157800500Y-95273979D01*
X157800500Y-94085778D01*
X157820185Y-94018739D01*
X157872989Y-93972984D01*
X157942147Y-93963040D01*
X158005703Y-93992065D01*
G37*
G04 #@! TD.AperFunction*
G04 #@! TA.AperFunction,Conductor*
G36*
X178005270Y-84211717D02*
G01*
X178005270Y-84211716D01*
X178044622Y-84157554D01*
X178065015Y-84117532D01*
X178112989Y-84066736D01*
X178180810Y-84049941D01*
X178246945Y-84072478D01*
X178290397Y-84127193D01*
X178299500Y-84173827D01*
X178299500Y-95426172D01*
X178279815Y-95493211D01*
X178227011Y-95538966D01*
X178157853Y-95548910D01*
X178094297Y-95519885D01*
X178065016Y-95482468D01*
X178044626Y-95442452D01*
X178005270Y-95388282D01*
X178005269Y-95388282D01*
X177372962Y-96020590D01*
X177355925Y-95957007D01*
X177290099Y-95842993D01*
X177197007Y-95749901D01*
X177082993Y-95684075D01*
X177019408Y-95667037D01*
X177651716Y-95034728D01*
X177597550Y-94995375D01*
X177408217Y-94898904D01*
X177379292Y-94889506D01*
X177321616Y-94850068D01*
X177294418Y-94785710D01*
X177306333Y-94716863D01*
X177353577Y-94665388D01*
X177361315Y-94661090D01*
X177492994Y-94593996D01*
X177639501Y-94487553D01*
X177767553Y-94359501D01*
X177873996Y-94212994D01*
X177956211Y-94051639D01*
X178012171Y-93879409D01*
X178031429Y-93757819D01*
X178040500Y-93700551D01*
X178040500Y-93519448D01*
X178024019Y-93415397D01*
X178012171Y-93340591D01*
X177976309Y-93230216D01*
X177956212Y-93168363D01*
X177956211Y-93168360D01*
X177910249Y-93078157D01*
X177873996Y-93007006D01*
X177817799Y-92929657D01*
X177767558Y-92860505D01*
X177767554Y-92860500D01*
X177639499Y-92732445D01*
X177639494Y-92732441D01*
X177492997Y-92626006D01*
X177492996Y-92626005D01*
X177492994Y-92626004D01*
X177441300Y-92599664D01*
X177331639Y-92543788D01*
X177331636Y-92543787D01*
X177159410Y-92487829D01*
X176999321Y-92462473D01*
X176936186Y-92432544D01*
X176899255Y-92373232D01*
X176900253Y-92303370D01*
X176938863Y-92245137D01*
X176999321Y-92217527D01*
X177069425Y-92206422D01*
X177159409Y-92192171D01*
X177331639Y-92136211D01*
X177492994Y-92053996D01*
X177639501Y-91947553D01*
X177767553Y-91819501D01*
X177873996Y-91672994D01*
X177956211Y-91511639D01*
X178012171Y-91339409D01*
X178029267Y-91231467D01*
X178040500Y-91160551D01*
X178040500Y-90979448D01*
X178018487Y-90840471D01*
X178012171Y-90800591D01*
X177974716Y-90685315D01*
X177956212Y-90628363D01*
X177956211Y-90628360D01*
X177923128Y-90563432D01*
X177873996Y-90467006D01*
X177833723Y-90411574D01*
X177767558Y-90320505D01*
X177767554Y-90320500D01*
X177639499Y-90192445D01*
X177639494Y-90192441D01*
X177492997Y-90086006D01*
X177492996Y-90086005D01*
X177492994Y-90086004D01*
X177418164Y-90047876D01*
X177331639Y-90003788D01*
X177331636Y-90003787D01*
X177159410Y-89947829D01*
X176999321Y-89922473D01*
X176936186Y-89892544D01*
X176899255Y-89833232D01*
X176900253Y-89763370D01*
X176938863Y-89705137D01*
X176999321Y-89677527D01*
X177069425Y-89666422D01*
X177159409Y-89652171D01*
X177331639Y-89596211D01*
X177492994Y-89513996D01*
X177639501Y-89407553D01*
X177767553Y-89279501D01*
X177873996Y-89132994D01*
X177956211Y-88971639D01*
X178012171Y-88799409D01*
X178026765Y-88707259D01*
X178040500Y-88620551D01*
X178040500Y-88439448D01*
X178024019Y-88335397D01*
X178012171Y-88260591D01*
X177971267Y-88134699D01*
X177956212Y-88088363D01*
X177956211Y-88088360D01*
X177899152Y-87976378D01*
X177873996Y-87927006D01*
X177860396Y-87908287D01*
X177767558Y-87780505D01*
X177767554Y-87780500D01*
X177639499Y-87652445D01*
X177639494Y-87652441D01*
X177492997Y-87546006D01*
X177492996Y-87546005D01*
X177492994Y-87546004D01*
X177441300Y-87519664D01*
X177331639Y-87463788D01*
X177331636Y-87463787D01*
X177159410Y-87407829D01*
X176999321Y-87382473D01*
X176936186Y-87352544D01*
X176899255Y-87293232D01*
X176900253Y-87223370D01*
X176938863Y-87165137D01*
X176999321Y-87137527D01*
X177069425Y-87126422D01*
X177159409Y-87112171D01*
X177331639Y-87056211D01*
X177492994Y-86973996D01*
X177639501Y-86867553D01*
X177767553Y-86739501D01*
X177873996Y-86592994D01*
X177956211Y-86431639D01*
X178012171Y-86259409D01*
X178032273Y-86132489D01*
X178040500Y-86080551D01*
X178040500Y-85899448D01*
X178017700Y-85755502D01*
X178012171Y-85720591D01*
X177972989Y-85600000D01*
X177956212Y-85548363D01*
X177956211Y-85548360D01*
X177918322Y-85474000D01*
X177873996Y-85387006D01*
X177842327Y-85343417D01*
X177767558Y-85240505D01*
X177767554Y-85240500D01*
X177639499Y-85112445D01*
X177639494Y-85112441D01*
X177492995Y-85006004D01*
X177361314Y-84938908D01*
X177310519Y-84890934D01*
X177293724Y-84823113D01*
X177316262Y-84756978D01*
X177370977Y-84713527D01*
X177379295Y-84710492D01*
X177408217Y-84701095D01*
X177597554Y-84604622D01*
X177651716Y-84565270D01*
X177651717Y-84565270D01*
X177019408Y-83932962D01*
X177082993Y-83915925D01*
X177197007Y-83850099D01*
X177290099Y-83757007D01*
X177355925Y-83642993D01*
X177372962Y-83579408D01*
X178005270Y-84211717D01*
G37*
G04 #@! TD.AperFunction*
G04 #@! TA.AperFunction,Conductor*
G36*
X167029342Y-89909144D02*
G01*
X167059329Y-89915668D01*
X167064344Y-89919422D01*
X167066941Y-89920185D01*
X167087583Y-89936819D01*
X167131284Y-89980520D01*
X167131286Y-89980521D01*
X167131290Y-89980524D01*
X167247942Y-90047872D01*
X167268216Y-90059577D01*
X167420943Y-90100500D01*
X167420945Y-90100500D01*
X167579055Y-90100500D01*
X167579057Y-90100500D01*
X167718408Y-90063161D01*
X167788256Y-90064824D01*
X167846119Y-90103986D01*
X167873623Y-90168215D01*
X167874500Y-90182936D01*
X167874500Y-90945924D01*
X167901793Y-91047787D01*
X167928156Y-91093448D01*
X167954520Y-91139111D01*
X167954521Y-91139112D01*
X167954522Y-91139113D01*
X170307981Y-93492571D01*
X170307991Y-93492582D01*
X170312321Y-93496912D01*
X170312322Y-93496913D01*
X170386889Y-93571480D01*
X170463198Y-93615537D01*
X170478215Y-93624207D01*
X170580075Y-93651501D01*
X170580077Y-93651501D01*
X170693125Y-93651501D01*
X170693141Y-93651500D01*
X171234040Y-93651500D01*
X171301079Y-93671185D01*
X171346834Y-93723989D01*
X171356778Y-93793147D01*
X171327753Y-93856703D01*
X171321721Y-93863181D01*
X171320285Y-93864616D01*
X171320278Y-93864625D01*
X171237967Y-94003805D01*
X171201305Y-94129999D01*
X171225161Y-94161772D01*
X171249671Y-94227201D01*
X171250000Y-94236224D01*
X171250000Y-94916000D01*
X171230315Y-94983039D01*
X171177511Y-95028794D01*
X171126000Y-95040000D01*
X171000000Y-95040000D01*
X171000000Y-95166000D01*
X170980315Y-95233039D01*
X170927511Y-95278794D01*
X170876000Y-95290000D01*
X170124000Y-95290000D01*
X170056961Y-95270315D01*
X170011206Y-95217511D01*
X170000000Y-95166000D01*
X170000000Y-95040000D01*
X169874000Y-95040000D01*
X169806961Y-95020315D01*
X169761206Y-94967511D01*
X169750000Y-94916000D01*
X169750000Y-94261210D01*
X169749999Y-94261209D01*
X170250000Y-94261209D01*
X170250000Y-94790000D01*
X170750000Y-94790000D01*
X170750000Y-94261210D01*
X170749999Y-94261209D01*
X170729087Y-94262854D01*
X170729081Y-94262855D01*
X170573809Y-94307966D01*
X170573803Y-94307968D01*
X170563118Y-94314288D01*
X170495393Y-94331468D01*
X170436882Y-94314288D01*
X170426196Y-94307968D01*
X170426190Y-94307966D01*
X170270918Y-94262855D01*
X170270912Y-94262854D01*
X170250000Y-94261209D01*
X169749999Y-94261209D01*
X169729087Y-94262854D01*
X169729081Y-94262855D01*
X169573809Y-94307966D01*
X169573806Y-94307967D01*
X169487280Y-94359138D01*
X169459681Y-94366139D01*
X169433006Y-94376089D01*
X169426253Y-94374619D01*
X169419556Y-94376319D01*
X169392556Y-94367289D01*
X169364733Y-94361237D01*
X169356880Y-94355358D01*
X169353293Y-94354159D01*
X169336479Y-94340086D01*
X169211819Y-94215426D01*
X169178334Y-94154103D01*
X169175500Y-94127745D01*
X169175500Y-93911506D01*
X169159720Y-93811878D01*
X169159719Y-93811876D01*
X169159719Y-93811874D01*
X169098528Y-93691780D01*
X169098526Y-93691778D01*
X169098523Y-93691774D01*
X169003225Y-93596476D01*
X169003221Y-93596473D01*
X169003220Y-93596472D01*
X168883126Y-93535281D01*
X168883124Y-93535280D01*
X168883121Y-93535279D01*
X168783493Y-93519500D01*
X168783488Y-93519500D01*
X168397254Y-93519500D01*
X168330215Y-93499815D01*
X168309573Y-93483181D01*
X167576819Y-92750426D01*
X167543334Y-92689103D01*
X167540500Y-92662745D01*
X167540500Y-92476929D01*
X167537710Y-92447185D01*
X167537710Y-92447181D01*
X167537708Y-92447177D01*
X167537708Y-92447173D01*
X167493852Y-92321844D01*
X167493852Y-92321843D01*
X167414999Y-92215001D01*
X167384066Y-92192171D01*
X167375393Y-92185770D01*
X167337493Y-92137320D01*
X167337269Y-92137450D01*
X167336352Y-92135861D01*
X167334464Y-92133448D01*
X167333207Y-92130414D01*
X167333207Y-92130413D01*
X167330107Y-92125043D01*
X167280480Y-92039087D01*
X167205913Y-91964520D01*
X167205912Y-91964519D01*
X167201582Y-91960189D01*
X167201571Y-91960179D01*
X166661819Y-91420426D01*
X166628334Y-91359103D01*
X166625500Y-91332745D01*
X166625500Y-90908862D01*
X166625500Y-90908856D01*
X166615359Y-90824410D01*
X166562364Y-90690025D01*
X166562363Y-90690024D01*
X166562363Y-90690023D01*
X166475079Y-90574923D01*
X166470187Y-90571213D01*
X166411314Y-90526568D01*
X166369792Y-90470376D01*
X166365241Y-90400655D01*
X166399106Y-90339541D01*
X166412608Y-90327994D01*
X166412878Y-90327794D01*
X166412882Y-90327793D01*
X166522150Y-90247150D01*
X166602793Y-90137882D01*
X166630193Y-90059577D01*
X166647646Y-90009701D01*
X166649256Y-90002330D01*
X166651379Y-90002793D01*
X166673198Y-89948018D01*
X166730041Y-89907391D01*
X166770802Y-89900500D01*
X166999902Y-89900500D01*
X167029342Y-89909144D01*
G37*
G04 #@! TD.AperFunction*
G04 #@! TA.AperFunction,Conductor*
G36*
X163109000Y-77120185D02*
G01*
X163154755Y-77172989D01*
X163164699Y-77242147D01*
X163135674Y-77305703D01*
X163110852Y-77327602D01*
X163042537Y-77373248D01*
X163042533Y-77373251D01*
X162903251Y-77512533D01*
X162903248Y-77512537D01*
X162793814Y-77676315D01*
X162793807Y-77676328D01*
X162718430Y-77858306D01*
X162718427Y-77858318D01*
X162680000Y-78051504D01*
X162680000Y-78200000D01*
X163380000Y-78200000D01*
X163380000Y-78700000D01*
X162680000Y-78700000D01*
X162680000Y-78848495D01*
X162718427Y-79041681D01*
X162718430Y-79041693D01*
X162793807Y-79223671D01*
X162793814Y-79223684D01*
X162903248Y-79387462D01*
X162903251Y-79387466D01*
X163042533Y-79526748D01*
X163042537Y-79526751D01*
X163206315Y-79636185D01*
X163206328Y-79636192D01*
X163388308Y-79711569D01*
X163430000Y-79719862D01*
X163430000Y-78916988D01*
X163439940Y-78934205D01*
X163495795Y-78990060D01*
X163564204Y-79029556D01*
X163640504Y-79050000D01*
X163719496Y-79050000D01*
X163795796Y-79029556D01*
X163864205Y-78990060D01*
X163920060Y-78934205D01*
X163930000Y-78916988D01*
X163930000Y-79719862D01*
X163971690Y-79711569D01*
X163971692Y-79711569D01*
X164153671Y-79636192D01*
X164153684Y-79636185D01*
X164317462Y-79526751D01*
X164317466Y-79526748D01*
X164456748Y-79387466D01*
X164456751Y-79387462D01*
X164566185Y-79223684D01*
X164566192Y-79223671D01*
X164641569Y-79041693D01*
X164641572Y-79041681D01*
X164679999Y-78848495D01*
X164680000Y-78848492D01*
X164680000Y-78700000D01*
X163980000Y-78700000D01*
X163980000Y-78200000D01*
X164680000Y-78200000D01*
X164680000Y-78051508D01*
X164679999Y-78051504D01*
X164641572Y-77858318D01*
X164641569Y-77858306D01*
X164566192Y-77676328D01*
X164566185Y-77676315D01*
X164456751Y-77512537D01*
X164456748Y-77512533D01*
X164317466Y-77373251D01*
X164317462Y-77373248D01*
X164249148Y-77327602D01*
X164204343Y-77273990D01*
X164195636Y-77204665D01*
X164225790Y-77141637D01*
X164285233Y-77104918D01*
X164318039Y-77100500D01*
X171681961Y-77100500D01*
X171749000Y-77120185D01*
X171794755Y-77172989D01*
X171804699Y-77242147D01*
X171775674Y-77305703D01*
X171750852Y-77327602D01*
X171682537Y-77373248D01*
X171682533Y-77373251D01*
X171543251Y-77512533D01*
X171543248Y-77512537D01*
X171433814Y-77676315D01*
X171433807Y-77676328D01*
X171358430Y-77858306D01*
X171358427Y-77858318D01*
X171320000Y-78051504D01*
X171320000Y-78200000D01*
X172020000Y-78200000D01*
X172020000Y-78700000D01*
X171320000Y-78700000D01*
X171320000Y-78848495D01*
X171358427Y-79041681D01*
X171358430Y-79041693D01*
X171433807Y-79223671D01*
X171433814Y-79223684D01*
X171543248Y-79387462D01*
X171543251Y-79387466D01*
X171682533Y-79526748D01*
X171682541Y-79526754D01*
X171711751Y-79546272D01*
X171756557Y-79599884D01*
X171765264Y-79669209D01*
X171735110Y-79732236D01*
X171730542Y-79737055D01*
X170084426Y-81383173D01*
X170023103Y-81416658D01*
X169996745Y-81419492D01*
X166297281Y-81419492D01*
X166195418Y-81446785D01*
X166104096Y-81499511D01*
X165789633Y-81813973D01*
X165728310Y-81847457D01*
X165658618Y-81842473D01*
X165602685Y-81800601D01*
X165594565Y-81788291D01*
X165594142Y-81787558D01*
X165570515Y-81746635D01*
X165463365Y-81639485D01*
X165397750Y-81601602D01*
X165332136Y-81563719D01*
X165258950Y-81544109D01*
X165185766Y-81524500D01*
X165034234Y-81524500D01*
X164887863Y-81563719D01*
X164756635Y-81639485D01*
X164750189Y-81644432D01*
X164748099Y-81641709D01*
X164700217Y-81667466D01*
X164630558Y-81662043D01*
X164574888Y-81619821D01*
X164569299Y-81610976D01*
X164456751Y-81442537D01*
X164456748Y-81442533D01*
X164317466Y-81303251D01*
X164317462Y-81303248D01*
X164153684Y-81193814D01*
X164153671Y-81193807D01*
X163971691Y-81118429D01*
X163971683Y-81118427D01*
X163930000Y-81110135D01*
X163930000Y-81913011D01*
X163920060Y-81895795D01*
X163864205Y-81839940D01*
X163795796Y-81800444D01*
X163719496Y-81780000D01*
X163640504Y-81780000D01*
X163564204Y-81800444D01*
X163495795Y-81839940D01*
X163439940Y-81895795D01*
X163430000Y-81913011D01*
X163430000Y-81110136D01*
X163429999Y-81110135D01*
X163388316Y-81118427D01*
X163388308Y-81118429D01*
X163206328Y-81193807D01*
X163206315Y-81193814D01*
X163042537Y-81303248D01*
X163042533Y-81303251D01*
X162903251Y-81442533D01*
X162903248Y-81442537D01*
X162793814Y-81606315D01*
X162793807Y-81606328D01*
X162718430Y-81788306D01*
X162718427Y-81788318D01*
X162680000Y-81981504D01*
X162680000Y-82380000D01*
X163380000Y-82380000D01*
X163380000Y-82880000D01*
X162680000Y-82880000D01*
X162680000Y-83278495D01*
X162718427Y-83471681D01*
X162718430Y-83471693D01*
X162793807Y-83653671D01*
X162793814Y-83653684D01*
X162903248Y-83817462D01*
X162903251Y-83817466D01*
X163042533Y-83956748D01*
X163042537Y-83956751D01*
X163206315Y-84066185D01*
X163206328Y-84066192D01*
X163388308Y-84141569D01*
X163430000Y-84149862D01*
X163430000Y-83346988D01*
X163439940Y-83364205D01*
X163495795Y-83420060D01*
X163564204Y-83459556D01*
X163640504Y-83480000D01*
X163719496Y-83480000D01*
X163795796Y-83459556D01*
X163864205Y-83420060D01*
X163920060Y-83364205D01*
X163959556Y-83295796D01*
X163959769Y-83295000D01*
X164626000Y-83295000D01*
X164693039Y-83314685D01*
X164738794Y-83367489D01*
X164750000Y-83419000D01*
X164750000Y-83545000D01*
X164825501Y-83545000D01*
X164892540Y-83564685D01*
X164938295Y-83617489D01*
X164949501Y-83669000D01*
X164949501Y-84314870D01*
X164949789Y-84317347D01*
X164949681Y-84317974D01*
X164949708Y-84318439D01*
X164949600Y-84318445D01*
X164937957Y-84386207D01*
X164914295Y-84419310D01*
X164711681Y-84621925D01*
X164650358Y-84655410D01*
X164580667Y-84650426D01*
X164524733Y-84608555D01*
X164500316Y-84543090D01*
X164500000Y-84534244D01*
X164500000Y-83795000D01*
X163930000Y-83795000D01*
X163930000Y-84166262D01*
X163943999Y-84186813D01*
X163950000Y-84224923D01*
X163950000Y-84317844D01*
X163956401Y-84377372D01*
X163956403Y-84377379D01*
X163998076Y-84489110D01*
X164003060Y-84558801D01*
X163969575Y-84620125D01*
X163908252Y-84653609D01*
X163842891Y-84650149D01*
X163797608Y-84635144D01*
X163698322Y-84625000D01*
X163675000Y-84625000D01*
X163675000Y-86574999D01*
X163698308Y-86574999D01*
X163698322Y-86574998D01*
X163797607Y-86564855D01*
X163958481Y-86511547D01*
X163958492Y-86511542D01*
X164102728Y-86422575D01*
X164102732Y-86422572D01*
X164222573Y-86302731D01*
X164232081Y-86287317D01*
X164241112Y-86279193D01*
X164246503Y-86268308D01*
X164266605Y-86256263D01*
X164284029Y-86240592D01*
X164296018Y-86238640D01*
X164306438Y-86232398D01*
X164329859Y-86233133D01*
X164352991Y-86229369D01*
X164365861Y-86234264D01*
X164376273Y-86234591D01*
X164401510Y-86247822D01*
X164407902Y-86250254D01*
X164410265Y-86251879D01*
X164490025Y-86312364D01*
X164509140Y-86319901D01*
X164520782Y-86327911D01*
X164534263Y-86344493D01*
X164551131Y-86357617D01*
X164555863Y-86371063D01*
X164564856Y-86382125D01*
X164567231Y-86403364D01*
X164574327Y-86423524D01*
X164574500Y-86430070D01*
X164574500Y-86584334D01*
X164554815Y-86651373D01*
X164550271Y-86657967D01*
X164547207Y-86662118D01*
X164547206Y-86662119D01*
X164502353Y-86790298D01*
X164502353Y-86790300D01*
X164499500Y-86820730D01*
X164499500Y-87976378D01*
X164479815Y-88043417D01*
X164427011Y-88089172D01*
X164411722Y-88091871D01*
X164400000Y-88102703D01*
X164400000Y-89087500D01*
X164950000Y-89087500D01*
X164950000Y-88684365D01*
X164949999Y-88684350D01*
X164947100Y-88647508D01*
X164946967Y-88646780D01*
X164947010Y-88646368D01*
X164946603Y-88641192D01*
X164947563Y-88641116D01*
X164954286Y-88577295D01*
X164998009Y-88522797D01*
X165064255Y-88500589D01*
X165068949Y-88500500D01*
X165304265Y-88500500D01*
X165304266Y-88500500D01*
X165324532Y-88498599D01*
X165393116Y-88511936D01*
X165443603Y-88560237D01*
X165459962Y-88628164D01*
X165453158Y-88663000D01*
X165452354Y-88665298D01*
X165452353Y-88665300D01*
X165449500Y-88695730D01*
X165449500Y-89979269D01*
X165452352Y-90009689D01*
X165452353Y-90009697D01*
X165452354Y-90009699D01*
X165465711Y-90047872D01*
X165467541Y-90053100D01*
X165474500Y-90094055D01*
X165474500Y-90369928D01*
X165454815Y-90436967D01*
X165420782Y-90472087D01*
X165409134Y-90480100D01*
X165390025Y-90487636D01*
X165310279Y-90548109D01*
X165307902Y-90549745D01*
X165277316Y-90559779D01*
X165247233Y-90571213D01*
X165244331Y-90570600D01*
X165241514Y-90571525D01*
X165210367Y-90563432D01*
X165178869Y-90556785D01*
X165176619Y-90554664D01*
X165173889Y-90553955D01*
X165160647Y-90539609D01*
X165132082Y-90512684D01*
X165122573Y-90497268D01*
X165002731Y-90377426D01*
X164948308Y-90343857D01*
X164901584Y-90291908D01*
X164890363Y-90222946D01*
X164899609Y-90189063D01*
X164901283Y-90185193D01*
X164947099Y-90027495D01*
X164947100Y-90027489D01*
X164949999Y-89990649D01*
X164950000Y-89990634D01*
X164950000Y-89587500D01*
X164400000Y-89587500D01*
X164400000Y-90095000D01*
X164451000Y-90095000D01*
X164518039Y-90114685D01*
X164563794Y-90167489D01*
X164575000Y-90219000D01*
X164575000Y-91076000D01*
X164555315Y-91143039D01*
X164502511Y-91188794D01*
X164451000Y-91200000D01*
X164325000Y-91200000D01*
X164325000Y-91326000D01*
X164305315Y-91393039D01*
X164252511Y-91438794D01*
X164201000Y-91450000D01*
X163375001Y-91450000D01*
X163375001Y-91498322D01*
X163385144Y-91597607D01*
X163440725Y-91765339D01*
X163438948Y-91765927D01*
X163448002Y-91825541D01*
X163419481Y-91889325D01*
X163361003Y-91927563D01*
X163291136Y-91928116D01*
X163263129Y-91916254D01*
X163131784Y-91840423D01*
X163097669Y-91831282D01*
X162979057Y-91799500D01*
X162820943Y-91799500D01*
X162668216Y-91840423D01*
X162668209Y-91840426D01*
X162531290Y-91919475D01*
X162531282Y-91919481D01*
X162419481Y-92031282D01*
X162419475Y-92031290D01*
X162340426Y-92168209D01*
X162340423Y-92168216D01*
X162299500Y-92320943D01*
X162299500Y-92479057D01*
X162338875Y-92626004D01*
X162340423Y-92631783D01*
X162340426Y-92631790D01*
X162419475Y-92768709D01*
X162419478Y-92768713D01*
X162419480Y-92768716D01*
X162480859Y-92830095D01*
X162537032Y-92886268D01*
X162536523Y-92886776D01*
X162562433Y-92916318D01*
X162579520Y-92945913D01*
X162831860Y-93198253D01*
X162941427Y-93307819D01*
X162974912Y-93369142D01*
X162969928Y-93438833D01*
X162928057Y-93494767D01*
X162862592Y-93519184D01*
X162853746Y-93519500D01*
X162816507Y-93519500D01*
X162716878Y-93535279D01*
X162596778Y-93596473D01*
X162596774Y-93596476D01*
X162501476Y-93691774D01*
X162501474Y-93691778D01*
X162501472Y-93691780D01*
X162486329Y-93721500D01*
X162440279Y-93811876D01*
X162436900Y-93833215D01*
X162406970Y-93896350D01*
X162402108Y-93901497D01*
X161856230Y-94447375D01*
X161794907Y-94480860D01*
X161725215Y-94475876D01*
X161680868Y-94447375D01*
X161171369Y-93937876D01*
X161137884Y-93876553D01*
X161135050Y-93850195D01*
X161135050Y-90217279D01*
X161135051Y-90217266D01*
X161135051Y-90101824D01*
X161134696Y-90100499D01*
X161107757Y-89999963D01*
X161102380Y-89990649D01*
X163350000Y-89990649D01*
X163352899Y-90027489D01*
X163352900Y-90027495D01*
X163398716Y-90185193D01*
X163398717Y-90185196D01*
X163482314Y-90326552D01*
X163482317Y-90326556D01*
X163506013Y-90350251D01*
X163539499Y-90411574D01*
X163534516Y-90481266D01*
X163523872Y-90503031D01*
X163438454Y-90641513D01*
X163438452Y-90641518D01*
X163385144Y-90802393D01*
X163375000Y-90901677D01*
X163375000Y-90950000D01*
X164075000Y-90950000D01*
X164075000Y-90705000D01*
X164024000Y-90705000D01*
X163956961Y-90685315D01*
X163911206Y-90632511D01*
X163900000Y-90581000D01*
X163900000Y-89587500D01*
X163350000Y-89587500D01*
X163350000Y-89990649D01*
X161102380Y-89990649D01*
X161055030Y-89908637D01*
X160980463Y-89834070D01*
X160980462Y-89834069D01*
X160976132Y-89829739D01*
X160976121Y-89829729D01*
X160770211Y-89623819D01*
X160553950Y-89407558D01*
X160215674Y-89069281D01*
X160182189Y-89007958D01*
X160185423Y-88943284D01*
X160232171Y-88799409D01*
X160250395Y-88684350D01*
X163350000Y-88684350D01*
X163350000Y-89087500D01*
X163900000Y-89087500D01*
X163900000Y-88102703D01*
X163897503Y-88102900D01*
X163739806Y-88148716D01*
X163739803Y-88148717D01*
X163598447Y-88232314D01*
X163598438Y-88232321D01*
X163482321Y-88348438D01*
X163482314Y-88348447D01*
X163398717Y-88489803D01*
X163398716Y-88489806D01*
X163352900Y-88647504D01*
X163352899Y-88647510D01*
X163350000Y-88684350D01*
X160250395Y-88684350D01*
X160253852Y-88662525D01*
X160260500Y-88620551D01*
X160260500Y-88439448D01*
X160244019Y-88335397D01*
X160232171Y-88260591D01*
X160191267Y-88134699D01*
X160176212Y-88088363D01*
X160176211Y-88088360D01*
X160119152Y-87976378D01*
X160093996Y-87927006D01*
X160080396Y-87908287D01*
X159987558Y-87780505D01*
X159987554Y-87780500D01*
X159859499Y-87652445D01*
X159859494Y-87652441D01*
X159712997Y-87546006D01*
X159712996Y-87546005D01*
X159712994Y-87546004D01*
X159661300Y-87519664D01*
X159551639Y-87463788D01*
X159551636Y-87463787D01*
X159379410Y-87407829D01*
X159219321Y-87382473D01*
X159156186Y-87352544D01*
X159119255Y-87293232D01*
X159120253Y-87223370D01*
X159158863Y-87165137D01*
X159219321Y-87137527D01*
X159289425Y-87126422D01*
X159379409Y-87112171D01*
X159551639Y-87056211D01*
X159712994Y-86973996D01*
X159859501Y-86867553D01*
X159987553Y-86739501D01*
X160093996Y-86592994D01*
X160176211Y-86431639D01*
X160232171Y-86259409D01*
X160252273Y-86132489D01*
X160260500Y-86080551D01*
X160260500Y-85899449D01*
X160260321Y-85898322D01*
X162475001Y-85898322D01*
X162485144Y-85997607D01*
X162538452Y-86158481D01*
X162538457Y-86158492D01*
X162627424Y-86302728D01*
X162627427Y-86302732D01*
X162747267Y-86422572D01*
X162747271Y-86422575D01*
X162891507Y-86511542D01*
X162891518Y-86511547D01*
X163052393Y-86564855D01*
X163151683Y-86574999D01*
X163175000Y-86574998D01*
X163175000Y-85850000D01*
X162475001Y-85850000D01*
X162475001Y-85898322D01*
X160260321Y-85898322D01*
X160247605Y-85818037D01*
X160247605Y-85818036D01*
X160237700Y-85755502D01*
X160232171Y-85720591D01*
X160192989Y-85600000D01*
X160176212Y-85548363D01*
X160176211Y-85548360D01*
X160133505Y-85464546D01*
X160093996Y-85387006D01*
X160093993Y-85387002D01*
X160082667Y-85371412D01*
X160082666Y-85371411D01*
X160032002Y-85301677D01*
X162475000Y-85301677D01*
X162475000Y-85350000D01*
X163175000Y-85350000D01*
X163175000Y-84624999D01*
X163151693Y-84625000D01*
X163151674Y-84625001D01*
X163052392Y-84635144D01*
X162891518Y-84688452D01*
X162891507Y-84688457D01*
X162747271Y-84777424D01*
X162747267Y-84777427D01*
X162627427Y-84897267D01*
X162627424Y-84897271D01*
X162538457Y-85041507D01*
X162538452Y-85041518D01*
X162485144Y-85202393D01*
X162475000Y-85301677D01*
X160032002Y-85301677D01*
X159987558Y-85240505D01*
X159987554Y-85240500D01*
X159859499Y-85112445D01*
X159859494Y-85112441D01*
X159712995Y-85006004D01*
X159581314Y-84938908D01*
X159530519Y-84890934D01*
X159513724Y-84823113D01*
X159536262Y-84756978D01*
X159590977Y-84713527D01*
X159599295Y-84710492D01*
X159628217Y-84701095D01*
X159817554Y-84604622D01*
X159871716Y-84565270D01*
X159871717Y-84565270D01*
X159239408Y-83932962D01*
X159302993Y-83915925D01*
X159417007Y-83850099D01*
X159510099Y-83757007D01*
X159575925Y-83642993D01*
X159592962Y-83579408D01*
X160225270Y-84211717D01*
X160225270Y-84211716D01*
X160264622Y-84157554D01*
X160361095Y-83968217D01*
X160426757Y-83766130D01*
X160426757Y-83766127D01*
X160460000Y-83556246D01*
X160460000Y-83343753D01*
X160426757Y-83133872D01*
X160426757Y-83133869D01*
X160361094Y-82931780D01*
X160337225Y-82884934D01*
X160337224Y-82884933D01*
X160264624Y-82742449D01*
X160225270Y-82688282D01*
X160225269Y-82688282D01*
X159592962Y-83320590D01*
X159575925Y-83257007D01*
X159510099Y-83142993D01*
X159417007Y-83049901D01*
X159302993Y-82984075D01*
X159239409Y-82967037D01*
X159871716Y-82334728D01*
X159817550Y-82295375D01*
X159628217Y-82198904D01*
X159599292Y-82189506D01*
X159582653Y-82178129D01*
X159563735Y-82171167D01*
X159554399Y-82158808D01*
X159541616Y-82150068D01*
X159533769Y-82131500D01*
X159521619Y-82115417D01*
X159520446Y-82099975D01*
X159514418Y-82085710D01*
X159517855Y-82065848D01*
X159516329Y-82045748D01*
X159523692Y-82032121D01*
X159526333Y-82016863D01*
X159539961Y-82002013D01*
X159549545Y-81984279D01*
X159569823Y-81969477D01*
X159573577Y-81965388D01*
X159577707Y-81963004D01*
X159579492Y-81962018D01*
X159712994Y-81893996D01*
X159745239Y-81870568D01*
X159745242Y-81870567D01*
X159858448Y-81788318D01*
X159859501Y-81787553D01*
X159987553Y-81659501D01*
X160093996Y-81512994D01*
X160176211Y-81351639D01*
X160232171Y-81179409D01*
X160246765Y-81087259D01*
X160260500Y-81000551D01*
X160260500Y-80819448D01*
X160244019Y-80715397D01*
X160232171Y-80640591D01*
X160196309Y-80530216D01*
X160176212Y-80468363D01*
X160176211Y-80468360D01*
X160147740Y-80412484D01*
X160093996Y-80307006D01*
X160080396Y-80288287D01*
X159987558Y-80160505D01*
X159987554Y-80160500D01*
X159859499Y-80032445D01*
X159859494Y-80032441D01*
X159712997Y-79926006D01*
X159712996Y-79926005D01*
X159712994Y-79926004D01*
X159661300Y-79899664D01*
X159551639Y-79843788D01*
X159551636Y-79843787D01*
X159379410Y-79787829D01*
X159247728Y-79766972D01*
X159184594Y-79737042D01*
X159147663Y-79677731D01*
X159148661Y-79607868D01*
X159187271Y-79549636D01*
X159251235Y-79521522D01*
X159267120Y-79520499D01*
X160004864Y-79520499D01*
X160004879Y-79520497D01*
X160004882Y-79520497D01*
X160029987Y-79517586D01*
X160029988Y-79517585D01*
X160029991Y-79517585D01*
X160132765Y-79472206D01*
X160212206Y-79392765D01*
X160257585Y-79289991D01*
X160260500Y-79264865D01*
X160260499Y-78200000D01*
X160260499Y-77475143D01*
X160260499Y-77475136D01*
X160260497Y-77475117D01*
X160257586Y-77450012D01*
X160257585Y-77450010D01*
X160257585Y-77450009D01*
X160212206Y-77347235D01*
X160177152Y-77312181D01*
X160143667Y-77250858D01*
X160148651Y-77181166D01*
X160190523Y-77125233D01*
X160255987Y-77100816D01*
X160264833Y-77100500D01*
X163041961Y-77100500D01*
X163109000Y-77120185D01*
G37*
G04 #@! TD.AperFunction*
G04 #@! TA.AperFunction,Conductor*
G36*
X176799914Y-79540184D02*
G01*
X176845669Y-79592988D01*
X176855613Y-79662146D01*
X176826588Y-79725702D01*
X176767810Y-79763476D01*
X176752273Y-79766972D01*
X176620589Y-79787829D01*
X176448363Y-79843787D01*
X176448360Y-79843788D01*
X176287006Y-79926003D01*
X176147859Y-80027099D01*
X176130570Y-80033267D01*
X176130013Y-80035828D01*
X176111989Y-80059906D01*
X176110925Y-80061971D01*
X176108863Y-80064083D01*
X176012440Y-80160506D01*
X175906006Y-80307002D01*
X175823788Y-80468360D01*
X175823787Y-80468363D01*
X175767829Y-80640589D01*
X175739500Y-80819448D01*
X175739500Y-81000551D01*
X175767829Y-81179410D01*
X175814575Y-81323281D01*
X175816570Y-81393122D01*
X175784325Y-81449280D01*
X174179522Y-83054084D01*
X174179520Y-83054087D01*
X174126791Y-83145414D01*
X174105598Y-83224516D01*
X174105597Y-83224521D01*
X174099500Y-83247272D01*
X174099500Y-90199902D01*
X174079815Y-90266941D01*
X174063181Y-90287583D01*
X174019481Y-90331282D01*
X174019475Y-90331290D01*
X173940426Y-90468209D01*
X173940423Y-90468216D01*
X173899500Y-90620943D01*
X173899500Y-90779057D01*
X173934280Y-90908856D01*
X173940423Y-90931783D01*
X173940426Y-90931790D01*
X174019475Y-91068709D01*
X174019481Y-91068717D01*
X174131284Y-91180520D01*
X174131946Y-91180902D01*
X174132392Y-91181370D01*
X174137735Y-91185470D01*
X174137096Y-91186302D01*
X174180164Y-91231467D01*
X174193390Y-91300073D01*
X174167425Y-91364939D01*
X174157632Y-91375973D01*
X173742972Y-91790634D01*
X173742970Y-91790637D01*
X173690243Y-91881960D01*
X173662950Y-91983823D01*
X173662950Y-92830095D01*
X173643265Y-92897134D01*
X173590461Y-92942889D01*
X173521303Y-92952833D01*
X173457747Y-92923808D01*
X173451269Y-92917776D01*
X173063015Y-92529522D01*
X173063013Y-92529520D01*
X172990803Y-92487829D01*
X172971689Y-92476793D01*
X172907148Y-92459500D01*
X172869827Y-92449500D01*
X172869826Y-92449500D01*
X172016430Y-92449500D01*
X171949391Y-92429815D01*
X171903636Y-92377011D01*
X171893692Y-92307853D01*
X171896655Y-92293409D01*
X171900499Y-92279061D01*
X171900500Y-92279055D01*
X171900500Y-92120945D01*
X171900500Y-92120943D01*
X171859577Y-91968216D01*
X171847449Y-91947210D01*
X171780524Y-91831290D01*
X171780518Y-91831282D01*
X171736819Y-91787583D01*
X171722115Y-91760655D01*
X171705523Y-91734837D01*
X171704631Y-91728636D01*
X171703334Y-91726260D01*
X171700500Y-91699902D01*
X171700500Y-91629077D01*
X171720185Y-91562038D01*
X171772989Y-91516283D01*
X171842147Y-91506339D01*
X171898131Y-91529306D01*
X171959206Y-91574381D01*
X172000511Y-91588834D01*
X172083119Y-91617741D01*
X172090796Y-91618460D01*
X172112543Y-91620500D01*
X172487456Y-91620499D01*
X172516879Y-91617741D01*
X172640794Y-91574381D01*
X172746423Y-91496423D01*
X172824381Y-91390794D01*
X172856126Y-91300073D01*
X172867741Y-91266881D01*
X172867741Y-91266879D01*
X172867741Y-91266874D01*
X172870500Y-91237457D01*
X172870499Y-90762544D01*
X172867741Y-90733121D01*
X172862244Y-90717413D01*
X172841543Y-90658253D01*
X172824381Y-90609206D01*
X172824379Y-90609203D01*
X172820039Y-90600990D01*
X172821539Y-90600197D01*
X172801298Y-90544785D01*
X172816611Y-90476614D01*
X172850725Y-90437511D01*
X172957546Y-90357546D01*
X173043796Y-90242331D01*
X173094091Y-90107483D01*
X173100500Y-90047873D01*
X173100499Y-89552128D01*
X173094091Y-89492517D01*
X173062403Y-89407558D01*
X173043797Y-89357671D01*
X173043793Y-89357664D01*
X172957547Y-89242455D01*
X172957544Y-89242452D01*
X172842335Y-89156206D01*
X172842328Y-89156202D01*
X172707482Y-89105908D01*
X172707483Y-89105908D01*
X172647883Y-89099501D01*
X172647881Y-89099500D01*
X172647873Y-89099500D01*
X172647864Y-89099500D01*
X170952129Y-89099500D01*
X170952123Y-89099501D01*
X170892516Y-89105908D01*
X170757671Y-89156202D01*
X170757664Y-89156206D01*
X170642455Y-89242452D01*
X170642452Y-89242455D01*
X170556206Y-89357664D01*
X170556202Y-89357671D01*
X170505910Y-89492513D01*
X170505909Y-89492517D01*
X170499500Y-89552127D01*
X170499500Y-89552134D01*
X170499500Y-89552135D01*
X170499500Y-90047870D01*
X170499501Y-90047876D01*
X170505908Y-90107483D01*
X170556202Y-90242328D01*
X170556206Y-90242335D01*
X170642452Y-90357544D01*
X170642455Y-90357547D01*
X170736388Y-90427866D01*
X170778259Y-90483800D01*
X170783243Y-90553491D01*
X170761851Y-90600761D01*
X170755618Y-90609206D01*
X170712258Y-90733118D01*
X170712258Y-90733120D01*
X170709500Y-90762538D01*
X170709500Y-91237453D01*
X170712258Y-91266874D01*
X170712260Y-91266884D01*
X170750433Y-91375973D01*
X170755619Y-91390794D01*
X170779418Y-91423040D01*
X170833574Y-91496420D01*
X170833576Y-91496422D01*
X170833577Y-91496423D01*
X170849133Y-91507903D01*
X170852154Y-91511882D01*
X170856703Y-91513960D01*
X170873074Y-91539434D01*
X170891383Y-91563547D01*
X170892510Y-91569678D01*
X170894477Y-91572738D01*
X170899500Y-91607673D01*
X170899500Y-91699902D01*
X170879815Y-91766941D01*
X170863181Y-91787583D01*
X170819481Y-91831282D01*
X170819477Y-91831287D01*
X170752550Y-91947210D01*
X170701983Y-91995425D01*
X170633376Y-92008649D01*
X170568511Y-91982681D01*
X170557482Y-91972891D01*
X169227584Y-90642993D01*
X169194099Y-90581670D01*
X169199083Y-90511978D01*
X169237946Y-90458370D01*
X169325475Y-90388564D01*
X169407635Y-90285540D01*
X169464814Y-90166820D01*
X169494146Y-90038353D01*
X169494147Y-90025165D01*
X169494152Y-90025148D01*
X169494152Y-89967866D01*
X169494158Y-89914883D01*
X169494157Y-89914880D01*
X169494158Y-89906303D01*
X169494152Y-89906201D01*
X169494152Y-89807534D01*
X169494156Y-89798610D01*
X169494160Y-89798597D01*
X169494156Y-89766768D01*
X169494152Y-89731785D01*
X169494152Y-89679765D01*
X169494145Y-89679667D01*
X169494145Y-89677527D01*
X169494145Y-89675129D01*
X169464810Y-89546666D01*
X169407629Y-89427949D01*
X169325469Y-89324928D01*
X169268499Y-89279494D01*
X169222450Y-89242769D01*
X169222448Y-89242768D01*
X169195689Y-89229879D01*
X169143833Y-89183052D01*
X169125500Y-89118164D01*
X169125500Y-87204275D01*
X169145185Y-87137236D01*
X169197989Y-87091481D01*
X169246848Y-87082845D01*
X169250000Y-87079931D01*
X169250000Y-87079930D01*
X169750000Y-87079930D01*
X169785122Y-87077167D01*
X169785128Y-87077166D01*
X169939188Y-87032407D01*
X169939191Y-87032406D01*
X170077285Y-86950738D01*
X170077294Y-86950731D01*
X170190731Y-86837294D01*
X170190738Y-86837285D01*
X170272404Y-86699194D01*
X170312844Y-86560000D01*
X169750000Y-86560000D01*
X169750000Y-87079930D01*
X169250000Y-87079930D01*
X169250000Y-86434000D01*
X169269685Y-86366961D01*
X169322489Y-86321206D01*
X169374000Y-86310000D01*
X169500000Y-86310000D01*
X169500000Y-86184000D01*
X169519685Y-86116961D01*
X169572489Y-86071206D01*
X169624000Y-86060000D01*
X170326000Y-86060000D01*
X170393039Y-86079685D01*
X170438794Y-86132489D01*
X170450000Y-86184000D01*
X170450000Y-86239948D01*
X170565124Y-86355073D01*
X170710604Y-86443019D01*
X170710603Y-86443019D01*
X170872894Y-86493590D01*
X170872893Y-86493590D01*
X170943427Y-86499999D01*
X171549999Y-86499999D01*
X172050000Y-86499999D01*
X172656581Y-86499999D01*
X172727102Y-86493591D01*
X172727107Y-86493590D01*
X172889396Y-86443018D01*
X173034877Y-86355072D01*
X173155072Y-86234877D01*
X173243019Y-86089395D01*
X173293590Y-85927106D01*
X173300000Y-85856572D01*
X173300000Y-85850000D01*
X172050000Y-85850000D01*
X172050000Y-86499999D01*
X171549999Y-86499999D01*
X171550000Y-86499998D01*
X171550000Y-85724000D01*
X171569685Y-85656961D01*
X171622489Y-85611206D01*
X171674000Y-85600000D01*
X171800000Y-85600000D01*
X171800000Y-85474000D01*
X171819685Y-85406961D01*
X171872489Y-85361206D01*
X171924000Y-85350000D01*
X173299999Y-85350000D01*
X173299999Y-85343417D01*
X173293591Y-85272897D01*
X173293590Y-85272892D01*
X173243018Y-85110603D01*
X173155072Y-84965122D01*
X173034877Y-84844927D01*
X172889395Y-84756980D01*
X172889396Y-84756980D01*
X172727105Y-84706409D01*
X172727106Y-84706409D01*
X172656572Y-84700000D01*
X172099737Y-84700000D01*
X172032698Y-84680315D01*
X171986943Y-84627511D01*
X171976999Y-84558353D01*
X171990905Y-84516572D01*
X171993354Y-84512086D01*
X172043596Y-84377379D01*
X172043598Y-84377372D01*
X172049999Y-84317844D01*
X172050000Y-84317827D01*
X172050000Y-84224923D01*
X172069685Y-84157884D01*
X172070000Y-84157530D01*
X172070000Y-83346988D01*
X172079940Y-83364205D01*
X172135795Y-83420060D01*
X172204204Y-83459556D01*
X172280504Y-83480000D01*
X172359496Y-83480000D01*
X172435796Y-83459556D01*
X172504205Y-83420060D01*
X172560060Y-83364205D01*
X172570000Y-83346988D01*
X172570000Y-84149862D01*
X172611690Y-84141569D01*
X172611692Y-84141569D01*
X172793671Y-84066192D01*
X172793684Y-84066185D01*
X172957462Y-83956751D01*
X172957466Y-83956748D01*
X173096748Y-83817466D01*
X173096751Y-83817462D01*
X173206185Y-83653684D01*
X173206192Y-83653671D01*
X173281569Y-83471693D01*
X173281572Y-83471681D01*
X173319999Y-83278495D01*
X173320000Y-83278492D01*
X173320000Y-82880000D01*
X172620000Y-82880000D01*
X172620000Y-82380000D01*
X173320000Y-82380000D01*
X173320000Y-81981508D01*
X173319999Y-81981504D01*
X173281572Y-81788318D01*
X173281569Y-81788306D01*
X173206192Y-81606328D01*
X173206185Y-81606315D01*
X173096751Y-81442537D01*
X173096748Y-81442533D01*
X172957466Y-81303251D01*
X172957462Y-81303248D01*
X172793684Y-81193814D01*
X172793671Y-81193807D01*
X172611691Y-81118429D01*
X172611683Y-81118427D01*
X172570000Y-81110135D01*
X172570000Y-81913011D01*
X172560060Y-81895795D01*
X172504205Y-81839940D01*
X172435796Y-81800444D01*
X172359496Y-81780000D01*
X172280504Y-81780000D01*
X172204204Y-81800444D01*
X172135795Y-81839940D01*
X172079940Y-81895795D01*
X172070000Y-81913011D01*
X172070000Y-81110136D01*
X172069999Y-81110135D01*
X172028316Y-81118427D01*
X172028308Y-81118429D01*
X171846328Y-81193807D01*
X171846315Y-81193814D01*
X171682537Y-81303248D01*
X171682533Y-81303251D01*
X171543248Y-81442536D01*
X171430427Y-81611387D01*
X171429003Y-81610435D01*
X171385742Y-81654451D01*
X171317600Y-81669892D01*
X171251927Y-81646041D01*
X171249907Y-81644306D01*
X171249811Y-81644432D01*
X171243369Y-81639489D01*
X171243365Y-81639485D01*
X171232090Y-81632975D01*
X171204236Y-81616893D01*
X171156021Y-81566325D01*
X171142800Y-81497718D01*
X171168769Y-81432854D01*
X171178548Y-81421835D01*
X172612566Y-79987819D01*
X172673889Y-79954334D01*
X172700247Y-79951500D01*
X175761725Y-79951500D01*
X175761727Y-79951500D01*
X175863588Y-79924207D01*
X175954913Y-79871480D01*
X175954915Y-79871477D01*
X175959179Y-79869016D01*
X175970894Y-79866173D01*
X175976779Y-79851059D01*
X175987286Y-79839106D01*
X176269574Y-79556817D01*
X176330897Y-79523333D01*
X176357255Y-79520499D01*
X176732875Y-79520499D01*
X176799914Y-79540184D01*
G37*
G04 #@! TD.AperFunction*
G04 #@! TA.AperFunction,Conductor*
G36*
X165814848Y-84754059D02*
G01*
X165870782Y-84795930D01*
X165878900Y-84808238D01*
X165929520Y-84895913D01*
X166569518Y-85535910D01*
X166569520Y-85535913D01*
X166644087Y-85610480D01*
X166717261Y-85652727D01*
X166735413Y-85663207D01*
X166737919Y-85663878D01*
X166748487Y-85672050D01*
X166764276Y-85693844D01*
X166782849Y-85713322D01*
X166784466Y-85721711D01*
X166789479Y-85728631D01*
X166790979Y-85755502D01*
X166796073Y-85781929D01*
X166792984Y-85791418D01*
X166793374Y-85798392D01*
X166787125Y-85809421D01*
X166779366Y-85833265D01*
X166727595Y-85920805D01*
X166687156Y-86060000D01*
X167376000Y-86060000D01*
X167443039Y-86079685D01*
X167488794Y-86132489D01*
X167500000Y-86184000D01*
X167500000Y-86310000D01*
X167626000Y-86310000D01*
X167693039Y-86329685D01*
X167738794Y-86382489D01*
X167750000Y-86434000D01*
X167750000Y-87079931D01*
X167753729Y-87083379D01*
X167809149Y-87095022D01*
X167858906Y-87144073D01*
X167874500Y-87204275D01*
X167874500Y-88817063D01*
X167854815Y-88884102D01*
X167802011Y-88929857D01*
X167732853Y-88939801D01*
X167718407Y-88936838D01*
X167619717Y-88910394D01*
X167579057Y-88899500D01*
X167420943Y-88899500D01*
X167268216Y-88940423D01*
X167268209Y-88940426D01*
X167131290Y-89019475D01*
X167131282Y-89019481D01*
X167087583Y-89063181D01*
X167060655Y-89077884D01*
X167034837Y-89094477D01*
X167028636Y-89095368D01*
X167026260Y-89096666D01*
X166999902Y-89099500D01*
X166774500Y-89099500D01*
X166707461Y-89079815D01*
X166661706Y-89027011D01*
X166650500Y-88975500D01*
X166650500Y-88695730D01*
X166647646Y-88665300D01*
X166647646Y-88665298D01*
X166602793Y-88537119D01*
X166602792Y-88537117D01*
X166522150Y-88427850D01*
X166412882Y-88347207D01*
X166412880Y-88347206D01*
X166284700Y-88302353D01*
X166254270Y-88299500D01*
X166254266Y-88299500D01*
X165845734Y-88299500D01*
X165829852Y-88300989D01*
X165825462Y-88301401D01*
X165756878Y-88288060D01*
X165706394Y-88239757D01*
X165690038Y-88171829D01*
X165696847Y-88136984D01*
X165697646Y-88134699D01*
X165700500Y-88104269D01*
X165700500Y-86820730D01*
X165697646Y-86790300D01*
X165697646Y-86790298D01*
X165652793Y-86662119D01*
X165652790Y-86662113D01*
X165619839Y-86617466D01*
X165619837Y-86617464D01*
X165577427Y-86560000D01*
X166687156Y-86560000D01*
X166727595Y-86699194D01*
X166809261Y-86837285D01*
X166809268Y-86837294D01*
X166922705Y-86950731D01*
X166922714Y-86950738D01*
X167060808Y-87032406D01*
X167060811Y-87032407D01*
X167214871Y-87077166D01*
X167214877Y-87077167D01*
X167250000Y-87079931D01*
X167250000Y-86560000D01*
X166687156Y-86560000D01*
X165577427Y-86560000D01*
X165572150Y-86552850D01*
X165481728Y-86486116D01*
X165476126Y-86480788D01*
X165462336Y-86456975D01*
X165445696Y-86435058D01*
X165445077Y-86427170D01*
X165441113Y-86420324D01*
X165442387Y-86392835D01*
X165440237Y-86365401D01*
X165443981Y-86358430D01*
X165444348Y-86350529D01*
X165460281Y-86328092D01*
X165473305Y-86303852D01*
X165484437Y-86294078D01*
X165484803Y-86293563D01*
X165485210Y-86293399D01*
X165486648Y-86292136D01*
X165575078Y-86225078D01*
X165662364Y-86109975D01*
X165715359Y-85975590D01*
X165725500Y-85891144D01*
X165725500Y-85308856D01*
X165715359Y-85224410D01*
X165662364Y-85090025D01*
X165662363Y-85090024D01*
X165662363Y-85090023D01*
X165604351Y-85013523D01*
X165604208Y-85013148D01*
X165603887Y-85012908D01*
X165591810Y-84980528D01*
X165579528Y-84948212D01*
X165579611Y-84947818D01*
X165579471Y-84947443D01*
X165586819Y-84913661D01*
X165593956Y-84879848D01*
X165594266Y-84879430D01*
X165594323Y-84879170D01*
X165615467Y-84850925D01*
X165683836Y-84782556D01*
X165745157Y-84749074D01*
X165814848Y-84754059D01*
G37*
G04 #@! TD.AperFunction*
G04 #@! TA.AperFunction,Conductor*
G36*
X175503028Y-82965876D02*
G01*
X175558962Y-83007747D01*
X175583379Y-83073212D01*
X175577628Y-83120370D01*
X175573243Y-83133866D01*
X175573242Y-83133872D01*
X175540000Y-83343753D01*
X175540000Y-83556246D01*
X175573242Y-83766127D01*
X175573242Y-83766130D01*
X175638904Y-83968217D01*
X175735375Y-84157550D01*
X175774728Y-84211716D01*
X176407037Y-83579408D01*
X176424075Y-83642993D01*
X176489901Y-83757007D01*
X176582993Y-83850099D01*
X176697007Y-83915925D01*
X176760590Y-83932962D01*
X176128282Y-84565269D01*
X176128282Y-84565270D01*
X176182449Y-84604624D01*
X176371780Y-84701094D01*
X176400705Y-84710492D01*
X176458381Y-84749929D01*
X176485580Y-84814287D01*
X176473667Y-84883134D01*
X176426424Y-84934610D01*
X176418685Y-84938908D01*
X176287004Y-85006004D01*
X176140505Y-85112441D01*
X176140500Y-85112445D01*
X176012445Y-85240500D01*
X176012441Y-85240505D01*
X175906006Y-85387002D01*
X175823788Y-85548360D01*
X175823787Y-85548363D01*
X175767829Y-85720589D01*
X175739500Y-85899448D01*
X175739500Y-86080551D01*
X175767829Y-86259412D01*
X175814575Y-86403283D01*
X175816570Y-86473124D01*
X175784325Y-86529281D01*
X175112181Y-87201426D01*
X175050858Y-87234911D01*
X174981167Y-87229927D01*
X174925233Y-87188056D01*
X174900816Y-87122591D01*
X174900500Y-87113745D01*
X174900500Y-83517254D01*
X174920185Y-83450215D01*
X174936814Y-83429578D01*
X175372017Y-82994374D01*
X175433337Y-82960892D01*
X175503028Y-82965876D01*
G37*
G04 #@! TD.AperFunction*
G04 #@! TA.AperFunction,Conductor*
G36*
X158644075Y-83642993D02*
G01*
X158709901Y-83757007D01*
X158802993Y-83850099D01*
X158917007Y-83915925D01*
X158980590Y-83932962D01*
X158348282Y-84565269D01*
X158348282Y-84565270D01*
X158402449Y-84604624D01*
X158591780Y-84701094D01*
X158620705Y-84710492D01*
X158678381Y-84749929D01*
X158705580Y-84814287D01*
X158693667Y-84883134D01*
X158646424Y-84934610D01*
X158638685Y-84938908D01*
X158507004Y-85006004D01*
X158360505Y-85112441D01*
X158360500Y-85112445D01*
X158232445Y-85240500D01*
X158232441Y-85240505D01*
X158126006Y-85387002D01*
X158043788Y-85548360D01*
X158043785Y-85548368D01*
X158042430Y-85552541D01*
X158002992Y-85610216D01*
X157938633Y-85637413D01*
X157869787Y-85625498D01*
X157818312Y-85578253D01*
X157800500Y-85514221D01*
X157800500Y-84326017D01*
X157820185Y-84258978D01*
X157872989Y-84213223D01*
X157942147Y-84203279D01*
X157953520Y-84208473D01*
X157994728Y-84211716D01*
X158627036Y-83579407D01*
X158644075Y-83642993D01*
G37*
G04 #@! TD.AperFunction*
G04 #@! TA.AperFunction,Conductor*
G36*
X171242240Y-83545000D02*
G01*
X171376000Y-83545000D01*
X171443039Y-83564685D01*
X171488794Y-83617489D01*
X171500000Y-83669000D01*
X171500000Y-84776000D01*
X171480315Y-84843039D01*
X171427511Y-84888794D01*
X171376000Y-84900000D01*
X171124000Y-84900000D01*
X171056961Y-84880315D01*
X171011206Y-84827511D01*
X171000000Y-84776000D01*
X171000000Y-84473917D01*
X171010565Y-84423832D01*
X171047585Y-84339991D01*
X171050500Y-84314865D01*
X171050499Y-83644859D01*
X171070183Y-83577822D01*
X171122987Y-83532067D01*
X171192146Y-83522123D01*
X171242240Y-83545000D01*
G37*
G04 #@! TD.AperFunction*
G04 #@! TA.AperFunction,Conductor*
G36*
X158005703Y-81292065D02*
G01*
X158042432Y-81347462D01*
X158043789Y-81351640D01*
X158064926Y-81393122D01*
X158118220Y-81497718D01*
X158126006Y-81512997D01*
X158232441Y-81659494D01*
X158232445Y-81659499D01*
X158360500Y-81787554D01*
X158360505Y-81787558D01*
X158484803Y-81877865D01*
X158507006Y-81893996D01*
X158608780Y-81945853D01*
X158638684Y-81961090D01*
X158689480Y-82009065D01*
X158706275Y-82076886D01*
X158683737Y-82143021D01*
X158629022Y-82186472D01*
X158620708Y-82189506D01*
X158591781Y-82198905D01*
X158402439Y-82295380D01*
X158348282Y-82334727D01*
X158348282Y-82334728D01*
X158980591Y-82967037D01*
X158917007Y-82984075D01*
X158802993Y-83049901D01*
X158709901Y-83142993D01*
X158644075Y-83257007D01*
X158627037Y-83320591D01*
X157994728Y-82688282D01*
X157937739Y-82692768D01*
X157937699Y-82692260D01*
X157899866Y-82695507D01*
X157838073Y-82662897D01*
X157803721Y-82602056D01*
X157800500Y-82573979D01*
X157800500Y-81385778D01*
X157820185Y-81318739D01*
X157872989Y-81272984D01*
X157942147Y-81263040D01*
X158005703Y-81292065D01*
G37*
G04 #@! TD.AperFunction*
G04 #@! TA.AperFunction,Conductor*
G36*
X178242539Y-77120185D02*
G01*
X178288294Y-77172989D01*
X178299500Y-77224500D01*
X178299500Y-82726172D01*
X178279815Y-82793211D01*
X178227011Y-82838966D01*
X178157853Y-82848910D01*
X178094297Y-82819885D01*
X178065016Y-82782468D01*
X178044626Y-82742452D01*
X178005270Y-82688282D01*
X178005269Y-82688282D01*
X177372962Y-83320590D01*
X177355925Y-83257007D01*
X177290099Y-83142993D01*
X177197007Y-83049901D01*
X177082993Y-82984075D01*
X177019408Y-82967037D01*
X177651716Y-82334728D01*
X177597550Y-82295375D01*
X177408217Y-82198904D01*
X177379292Y-82189506D01*
X177321616Y-82150068D01*
X177294418Y-82085710D01*
X177306333Y-82016863D01*
X177353577Y-81965388D01*
X177361315Y-81961090D01*
X177492994Y-81893996D01*
X177639501Y-81787553D01*
X177767553Y-81659501D01*
X177873996Y-81512994D01*
X177956211Y-81351639D01*
X178012171Y-81179409D01*
X178026765Y-81087259D01*
X178040500Y-81000551D01*
X178040500Y-80819448D01*
X178024019Y-80715397D01*
X178012171Y-80640591D01*
X177976309Y-80530216D01*
X177956212Y-80468363D01*
X177956211Y-80468360D01*
X177927740Y-80412484D01*
X177873996Y-80307006D01*
X177860396Y-80288287D01*
X177767558Y-80160505D01*
X177767554Y-80160500D01*
X177639499Y-80032445D01*
X177639494Y-80032441D01*
X177492997Y-79926006D01*
X177492996Y-79926005D01*
X177492994Y-79926004D01*
X177441300Y-79899664D01*
X177331639Y-79843788D01*
X177331636Y-79843787D01*
X177159410Y-79787829D01*
X177027727Y-79766972D01*
X176964592Y-79737043D01*
X176927661Y-79677731D01*
X176928659Y-79607868D01*
X176967269Y-79549636D01*
X177031233Y-79521522D01*
X177047125Y-79520499D01*
X177784856Y-79520499D01*
X177784864Y-79520499D01*
X177784879Y-79520497D01*
X177784882Y-79520497D01*
X177809987Y-79517586D01*
X177809988Y-79517585D01*
X177809991Y-79517585D01*
X177912765Y-79472206D01*
X177992206Y-79392765D01*
X178037585Y-79289991D01*
X178040500Y-79264865D01*
X178040499Y-77475136D01*
X178040497Y-77475117D01*
X178037586Y-77450012D01*
X178037585Y-77450010D01*
X178037585Y-77450009D01*
X177992206Y-77347235D01*
X177957152Y-77312181D01*
X177923667Y-77250858D01*
X177928651Y-77181166D01*
X177970523Y-77125233D01*
X178035987Y-77100816D01*
X178044833Y-77100500D01*
X178175500Y-77100500D01*
X178242539Y-77120185D01*
G37*
G04 #@! TD.AperFunction*
G04 #@! TA.AperFunction,Conductor*
G36*
X175802206Y-77120185D02*
G01*
X175847961Y-77172989D01*
X175857905Y-77242147D01*
X175828880Y-77305703D01*
X175822848Y-77312181D01*
X175787794Y-77347234D01*
X175742415Y-77450006D01*
X175742415Y-77450008D01*
X175739500Y-77475131D01*
X175739500Y-78902744D01*
X175730854Y-78932187D01*
X175724332Y-78962170D01*
X175720577Y-78967185D01*
X175719815Y-78969783D01*
X175703185Y-78990420D01*
X175579424Y-79114182D01*
X175518104Y-79147666D01*
X175491745Y-79150500D01*
X173411022Y-79150500D01*
X173343983Y-79130815D01*
X173298228Y-79078011D01*
X173288284Y-79008853D01*
X173289405Y-79002309D01*
X173319999Y-78848495D01*
X173320000Y-78848492D01*
X173320000Y-78700000D01*
X172620000Y-78700000D01*
X172620000Y-78200000D01*
X173320000Y-78200000D01*
X173320000Y-78051508D01*
X173319999Y-78051504D01*
X173281572Y-77858318D01*
X173281569Y-77858306D01*
X173206192Y-77676328D01*
X173206185Y-77676315D01*
X173096751Y-77512537D01*
X173096748Y-77512533D01*
X172957466Y-77373251D01*
X172957462Y-77373248D01*
X172889148Y-77327602D01*
X172844343Y-77273990D01*
X172835636Y-77204665D01*
X172865790Y-77141637D01*
X172925233Y-77104918D01*
X172958039Y-77100500D01*
X175735167Y-77100500D01*
X175802206Y-77120185D01*
G37*
G04 #@! TD.AperFunction*
G04 #@! TD*
M02*
