G04 #@! TF.GenerationSoftware,KiCad,Pcbnew,9.0.7*
G04 #@! TF.CreationDate,2026-05-08T14:29:24+01:00*
G04 #@! TF.ProjectId,catboard,63617462-6f61-4726-942e-6b696361645f,rev?*
G04 #@! TF.SameCoordinates,Original*
G04 #@! TF.FileFunction,Paste,Top*
G04 #@! TF.FilePolarity,Positive*
%FSLAX46Y46*%
G04 Gerber Fmt 4.6, Leading zero omitted, Abs format (unit mm)*
G04 Created by KiCad (PCBNEW 9.0.7) date 2026-05-08 14:29:24*
%MOMM*%
%LPD*%
G01*
G04 APERTURE LIST*
G04 Aperture macros list*
%AMRoundRect*
0 Rectangle with rounded corners*
0 $1 Rounding radius*
0 $2 $3 $4 $5 $6 $7 $8 $9 X,Y pos of 4 corners*
0 Add a 4 corners polygon primitive as box body*
4,1,4,$2,$3,$4,$5,$6,$7,$8,$9,$2,$3,0*
0 Add four circle primitives for the rounded corners*
1,1,$1+$1,$2,$3*
1,1,$1+$1,$4,$5*
1,1,$1+$1,$6,$7*
1,1,$1+$1,$8,$9*
0 Add four rect primitives between the rounded corners*
20,1,$1+$1,$2,$3,$4,$5,0*
20,1,$1+$1,$4,$5,$6,$7,0*
20,1,$1+$1,$6,$7,$8,$9,0*
20,1,$1+$1,$8,$9,$2,$3,0*%
G04 Aperture macros list end*
%ADD10RoundRect,0.140000X0.170000X-0.140000X0.170000X0.140000X-0.170000X0.140000X-0.170000X-0.140000X0*%
%ADD11RoundRect,0.140000X-0.140000X-0.170000X0.140000X-0.170000X0.140000X0.170000X-0.140000X0.170000X0*%
%ADD12RoundRect,0.140000X-0.170000X0.140000X-0.170000X-0.140000X0.170000X-0.140000X0.170000X0.140000X0*%
%ADD13RoundRect,0.140000X0.140000X0.170000X-0.140000X0.170000X-0.140000X-0.170000X0.140000X-0.170000X0*%
%ADD14R,0.600000X1.450000*%
%ADD15R,0.300000X1.450000*%
%ADD16RoundRect,0.135000X0.185000X-0.135000X0.185000X0.135000X-0.185000X0.135000X-0.185000X-0.135000X0*%
%ADD17RoundRect,0.135000X-0.135000X-0.185000X0.135000X-0.185000X0.135000X0.185000X-0.135000X0.185000X0*%
%ADD18RoundRect,0.250000X-0.435000X-0.615000X0.435000X-0.615000X0.435000X0.615000X-0.435000X0.615000X0*%
%ADD19RoundRect,0.125000X-0.250000X-0.125000X0.250000X-0.125000X0.250000X0.125000X-0.250000X0.125000X0*%
%ADD20RoundRect,0.249999X-0.395001X-0.395001X0.395001X-0.395001X0.395001X0.395001X-0.395001X0.395001X0*%
%ADD21RoundRect,0.050000X-0.387500X-0.050000X0.387500X-0.050000X0.387500X0.050000X-0.387500X0.050000X0*%
%ADD22RoundRect,0.050000X-0.050000X-0.387500X0.050000X-0.387500X0.050000X0.387500X-0.050000X0.387500X0*%
%ADD23RoundRect,0.135000X0.135000X0.185000X-0.135000X0.185000X-0.135000X-0.185000X0.135000X-0.185000X0*%
%ADD24RoundRect,0.140000X0.021213X-0.219203X0.219203X-0.021213X-0.021213X0.219203X-0.219203X0.021213X0*%
%ADD25RoundRect,0.225000X0.225000X0.250000X-0.225000X0.250000X-0.225000X-0.250000X0.225000X-0.250000X0*%
%ADD26RoundRect,0.150000X0.150000X-0.587500X0.150000X0.587500X-0.150000X0.587500X-0.150000X-0.587500X0*%
%ADD27RoundRect,0.250000X0.450000X0.350000X-0.450000X0.350000X-0.450000X-0.350000X0.450000X-0.350000X0*%
%ADD28RoundRect,0.200000X-0.800000X0.200000X-0.800000X-0.200000X0.800000X-0.200000X0.800000X0.200000X0*%
%ADD29RoundRect,0.140000X-0.021213X0.219203X-0.219203X0.021213X0.021213X-0.219203X0.219203X-0.021213X0*%
G04 APERTURE END LIST*
D10*
G04 #@! TO.C,C3*
X170700000Y-101780000D03*
X170700000Y-100820000D03*
G04 #@! TD*
G04 #@! TO.C,C6*
X171000000Y-96000000D03*
X171000000Y-95040000D03*
G04 #@! TD*
D11*
G04 #@! TO.C,C8*
X172320000Y-103000000D03*
X173280000Y-103000000D03*
G04 #@! TD*
D12*
G04 #@! TO.C,C15*
X164490000Y-114620000D03*
X164490000Y-115580000D03*
G04 #@! TD*
D10*
G04 #@! TO.C,C7*
X172000000Y-95360000D03*
X172000000Y-94400000D03*
G04 #@! TD*
D13*
G04 #@! TO.C,C17*
X166960000Y-92700000D03*
X166000000Y-92700000D03*
G04 #@! TD*
G04 #@! TO.C,C4*
X164160000Y-102200000D03*
X163200000Y-102200000D03*
G04 #@! TD*
D14*
G04 #@! TO.C,J1*
X171250000Y-83545000D03*
X170450000Y-83545000D03*
D15*
X169250000Y-83545000D03*
X168250000Y-83545000D03*
X167750000Y-83545000D03*
X166750000Y-83545000D03*
D14*
X165550000Y-83545000D03*
X164750000Y-83545000D03*
X164750000Y-83545000D03*
X165550000Y-83545000D03*
D15*
X166250000Y-83545000D03*
X167250000Y-83545000D03*
X168750000Y-83545000D03*
X169750000Y-83545000D03*
D14*
X170450000Y-83545000D03*
X171250000Y-83545000D03*
G04 #@! TD*
D16*
G04 #@! TO.C,R1*
X167500000Y-86310000D03*
X167500000Y-85290000D03*
G04 #@! TD*
D17*
G04 #@! TO.C,R6*
X163995000Y-92700000D03*
X165015000Y-92700000D03*
G04 #@! TD*
G04 #@! TO.C,R5*
X167790000Y-112800000D03*
X168810000Y-112800000D03*
G04 #@! TD*
D18*
G04 #@! TO.C,U3*
X164950000Y-94900000D03*
X164950000Y-97050000D03*
X166650000Y-94900000D03*
X166650000Y-97050000D03*
D19*
X163100000Y-94070000D03*
X163100000Y-95340000D03*
X163100000Y-96610000D03*
X163100000Y-97880000D03*
X168500000Y-97880000D03*
X168500000Y-96610000D03*
X168500000Y-95340000D03*
X168500000Y-94070000D03*
G04 #@! TD*
D16*
G04 #@! TO.C,R4*
X168700000Y-101800000D03*
X168700000Y-100780000D03*
G04 #@! TD*
D10*
G04 #@! TO.C,C16*
X169890000Y-115600000D03*
X169890000Y-114640000D03*
G04 #@! TD*
D20*
G04 #@! TO.C,U1*
X167200000Y-105700000D03*
X167200000Y-107300000D03*
X168800000Y-105700000D03*
X168800000Y-107300000D03*
D21*
X164562500Y-103900000D03*
X164562500Y-104300000D03*
X164562500Y-104700000D03*
X164562500Y-105100000D03*
X164562500Y-105500000D03*
X164562500Y-105900000D03*
X164562500Y-106300000D03*
X164562500Y-106700000D03*
X164562500Y-107100000D03*
X164562500Y-107500000D03*
X164562500Y-107900000D03*
X164562500Y-108300000D03*
X164562500Y-108700000D03*
X164562500Y-109100000D03*
D22*
X165400000Y-109937500D03*
X165800000Y-109937500D03*
X166200000Y-109937500D03*
X166600000Y-109937500D03*
X167000000Y-109937500D03*
X167400000Y-109937500D03*
X167800000Y-109937500D03*
X168200000Y-109937500D03*
X168600000Y-109937500D03*
X169000000Y-109937500D03*
X169400000Y-109937500D03*
X169800000Y-109937500D03*
X170200000Y-109937500D03*
X170600000Y-109937500D03*
D21*
X171437500Y-109100000D03*
X171437500Y-108700000D03*
X171437500Y-108300000D03*
X171437500Y-107900000D03*
X171437500Y-107500000D03*
X171437500Y-107100000D03*
X171437500Y-106700000D03*
X171437500Y-106300000D03*
X171437500Y-105900000D03*
X171437500Y-105500000D03*
X171437500Y-105100000D03*
X171437500Y-104700000D03*
X171437500Y-104300000D03*
X171437500Y-103900000D03*
D22*
X170600000Y-103062500D03*
X170200000Y-103062500D03*
X169800000Y-103062500D03*
X169400000Y-103062500D03*
X169000000Y-103062500D03*
X168600000Y-103062500D03*
X168200000Y-103062500D03*
X167800000Y-103062500D03*
X167400000Y-103062500D03*
X167000000Y-103062500D03*
X166600000Y-103062500D03*
X166200000Y-103062500D03*
X165800000Y-103062500D03*
X165400000Y-103062500D03*
G04 #@! TD*
D23*
G04 #@! TO.C,R7*
X172300000Y-91000000D03*
X171280000Y-91000000D03*
G04 #@! TD*
D24*
G04 #@! TO.C,C1*
X172421178Y-100178822D03*
X173100000Y-99500000D03*
G04 #@! TD*
D10*
G04 #@! TO.C,C9*
X170000000Y-96000000D03*
X170000000Y-95040000D03*
G04 #@! TD*
D25*
G04 #@! TO.C,C13*
X164975000Y-85600000D03*
X163425000Y-85600000D03*
G04 #@! TD*
D10*
G04 #@! TO.C,C5*
X171700000Y-102100000D03*
X171700000Y-101140000D03*
G04 #@! TD*
D26*
G04 #@! TO.C,U2*
X164150000Y-89337500D03*
X166050000Y-89337500D03*
X165100000Y-87462500D03*
G04 #@! TD*
D27*
G04 #@! TO.C,Y1*
X168290000Y-114250000D03*
X166090000Y-114250000D03*
X166090000Y-115950000D03*
X168290000Y-115950000D03*
G04 #@! TD*
D11*
G04 #@! TO.C,C11*
X173340000Y-107500000D03*
X174300000Y-107500000D03*
G04 #@! TD*
D16*
G04 #@! TO.C,R2*
X169500000Y-86310000D03*
X169500000Y-85290000D03*
G04 #@! TD*
G04 #@! TO.C,R3*
X169700000Y-101800000D03*
X169700000Y-100780000D03*
G04 #@! TD*
D28*
G04 #@! TO.C,SW1*
X171800000Y-85600000D03*
X171800000Y-89800000D03*
G04 #@! TD*
D25*
G04 #@! TO.C,C14*
X165875000Y-91200000D03*
X164325000Y-91200000D03*
G04 #@! TD*
D29*
G04 #@! TO.C,C12*
X162300000Y-108200000D03*
X161621178Y-108878822D03*
G04 #@! TD*
D12*
G04 #@! TO.C,C2*
X169890000Y-112700000D03*
X169890000Y-113660000D03*
G04 #@! TD*
G04 #@! TO.C,C10*
X170890000Y-112700000D03*
X170890000Y-113660000D03*
G04 #@! TD*
M02*
