G04 #@! TF.GenerationSoftware,KiCad,Pcbnew,9.0.7*
G04 #@! TF.CreationDate,2026-05-08T14:29:24+01:00*
G04 #@! TF.ProjectId,catboard,63617462-6f61-4726-942e-6b696361645f,rev?*
G04 #@! TF.SameCoordinates,Original*
G04 #@! TF.FileFunction,AssemblyDrawing,Top*
%FSLAX46Y46*%
G04 Gerber Fmt 4.6, Leading zero omitted, Abs format (unit mm)*
G04 Created by KiCad (PCBNEW 9.0.7) date 2026-05-08 14:29:24*
%MOMM*%
%LPD*%
G01*
G04 APERTURE LIST*
%ADD10C,0.150000*%
%ADD11C,0.040000*%
%ADD12C,0.060000*%
%ADD13C,0.110000*%
%ADD14C,0.120000*%
%ADD15C,0.100000*%
G04 APERTURE END LIST*
D10*
X170854819Y-102699999D02*
X170854819Y-102604761D01*
X170854819Y-102604761D02*
X170902438Y-102509523D01*
X170902438Y-102509523D02*
X170950057Y-102461904D01*
X170950057Y-102461904D02*
X171045295Y-102414285D01*
X171045295Y-102414285D02*
X171235771Y-102366666D01*
X171235771Y-102366666D02*
X171473866Y-102366666D01*
X171473866Y-102366666D02*
X171664342Y-102414285D01*
X171664342Y-102414285D02*
X171759580Y-102461904D01*
X171759580Y-102461904D02*
X171807200Y-102509523D01*
X171807200Y-102509523D02*
X171854819Y-102604761D01*
X171854819Y-102604761D02*
X171854819Y-102699999D01*
X171854819Y-102699999D02*
X171807200Y-102795237D01*
X171807200Y-102795237D02*
X171759580Y-102842856D01*
X171759580Y-102842856D02*
X171664342Y-102890475D01*
X171664342Y-102890475D02*
X171473866Y-102938094D01*
X171473866Y-102938094D02*
X171235771Y-102938094D01*
X171235771Y-102938094D02*
X171045295Y-102890475D01*
X171045295Y-102890475D02*
X170950057Y-102842856D01*
X170950057Y-102842856D02*
X170902438Y-102795237D01*
X170902438Y-102795237D02*
X170854819Y-102699999D01*
X171759580Y-101938094D02*
X171807200Y-101890475D01*
X171807200Y-101890475D02*
X171854819Y-101938094D01*
X171854819Y-101938094D02*
X171807200Y-101985713D01*
X171807200Y-101985713D02*
X171759580Y-101938094D01*
X171759580Y-101938094D02*
X171854819Y-101938094D01*
X171854819Y-100938095D02*
X171854819Y-101509523D01*
X171854819Y-101223809D02*
X170854819Y-101223809D01*
X170854819Y-101223809D02*
X170997676Y-101319047D01*
X170997676Y-101319047D02*
X171092914Y-101414285D01*
X171092914Y-101414285D02*
X171140533Y-101509523D01*
X171188152Y-100080952D02*
X171854819Y-100080952D01*
X171188152Y-100509523D02*
X171711961Y-100509523D01*
X171711961Y-100509523D02*
X171807200Y-100461904D01*
X171807200Y-100461904D02*
X171854819Y-100366666D01*
X171854819Y-100366666D02*
X171854819Y-100223809D01*
X171854819Y-100223809D02*
X171807200Y-100128571D01*
X171807200Y-100128571D02*
X171759580Y-100080952D01*
X171188152Y-99747618D02*
X171188152Y-99366666D01*
X171854819Y-99604761D02*
X170997676Y-99604761D01*
X170997676Y-99604761D02*
X170902438Y-99557142D01*
X170902438Y-99557142D02*
X170854819Y-99461904D01*
X170854819Y-99461904D02*
X170854819Y-99366666D01*
D11*
X170789765Y-101341666D02*
X170801670Y-101353570D01*
X170801670Y-101353570D02*
X170813574Y-101389285D01*
X170813574Y-101389285D02*
X170813574Y-101413094D01*
X170813574Y-101413094D02*
X170801670Y-101448808D01*
X170801670Y-101448808D02*
X170777860Y-101472618D01*
X170777860Y-101472618D02*
X170754050Y-101484523D01*
X170754050Y-101484523D02*
X170706431Y-101496427D01*
X170706431Y-101496427D02*
X170670717Y-101496427D01*
X170670717Y-101496427D02*
X170623098Y-101484523D01*
X170623098Y-101484523D02*
X170599289Y-101472618D01*
X170599289Y-101472618D02*
X170575479Y-101448808D01*
X170575479Y-101448808D02*
X170563574Y-101413094D01*
X170563574Y-101413094D02*
X170563574Y-101389285D01*
X170563574Y-101389285D02*
X170575479Y-101353570D01*
X170575479Y-101353570D02*
X170587384Y-101341666D01*
X170563574Y-101258332D02*
X170563574Y-101103570D01*
X170563574Y-101103570D02*
X170658812Y-101186904D01*
X170658812Y-101186904D02*
X170658812Y-101151189D01*
X170658812Y-101151189D02*
X170670717Y-101127380D01*
X170670717Y-101127380D02*
X170682622Y-101115475D01*
X170682622Y-101115475D02*
X170706431Y-101103570D01*
X170706431Y-101103570D02*
X170765955Y-101103570D01*
X170765955Y-101103570D02*
X170789765Y-101115475D01*
X170789765Y-101115475D02*
X170801670Y-101127380D01*
X170801670Y-101127380D02*
X170813574Y-101151189D01*
X170813574Y-101151189D02*
X170813574Y-101222618D01*
X170813574Y-101222618D02*
X170801670Y-101246427D01*
X170801670Y-101246427D02*
X170789765Y-101258332D01*
D10*
X171614819Y-97019999D02*
X171614819Y-96924761D01*
X171614819Y-96924761D02*
X171662438Y-96829523D01*
X171662438Y-96829523D02*
X171710057Y-96781904D01*
X171710057Y-96781904D02*
X171805295Y-96734285D01*
X171805295Y-96734285D02*
X171995771Y-96686666D01*
X171995771Y-96686666D02*
X172233866Y-96686666D01*
X172233866Y-96686666D02*
X172424342Y-96734285D01*
X172424342Y-96734285D02*
X172519580Y-96781904D01*
X172519580Y-96781904D02*
X172567200Y-96829523D01*
X172567200Y-96829523D02*
X172614819Y-96924761D01*
X172614819Y-96924761D02*
X172614819Y-97019999D01*
X172614819Y-97019999D02*
X172567200Y-97115237D01*
X172567200Y-97115237D02*
X172519580Y-97162856D01*
X172519580Y-97162856D02*
X172424342Y-97210475D01*
X172424342Y-97210475D02*
X172233866Y-97258094D01*
X172233866Y-97258094D02*
X171995771Y-97258094D01*
X171995771Y-97258094D02*
X171805295Y-97210475D01*
X171805295Y-97210475D02*
X171710057Y-97162856D01*
X171710057Y-97162856D02*
X171662438Y-97115237D01*
X171662438Y-97115237D02*
X171614819Y-97019999D01*
X172519580Y-96258094D02*
X172567200Y-96210475D01*
X172567200Y-96210475D02*
X172614819Y-96258094D01*
X172614819Y-96258094D02*
X172567200Y-96305713D01*
X172567200Y-96305713D02*
X172519580Y-96258094D01*
X172519580Y-96258094D02*
X172614819Y-96258094D01*
X172614819Y-95258095D02*
X172614819Y-95829523D01*
X172614819Y-95543809D02*
X171614819Y-95543809D01*
X171614819Y-95543809D02*
X171757676Y-95639047D01*
X171757676Y-95639047D02*
X171852914Y-95734285D01*
X171852914Y-95734285D02*
X171900533Y-95829523D01*
X171948152Y-94400952D02*
X172614819Y-94400952D01*
X171948152Y-94829523D02*
X172471961Y-94829523D01*
X172471961Y-94829523D02*
X172567200Y-94781904D01*
X172567200Y-94781904D02*
X172614819Y-94686666D01*
X172614819Y-94686666D02*
X172614819Y-94543809D01*
X172614819Y-94543809D02*
X172567200Y-94448571D01*
X172567200Y-94448571D02*
X172519580Y-94400952D01*
X171948152Y-94067618D02*
X171948152Y-93686666D01*
X172614819Y-93924761D02*
X171757676Y-93924761D01*
X171757676Y-93924761D02*
X171662438Y-93877142D01*
X171662438Y-93877142D02*
X171614819Y-93781904D01*
X171614819Y-93781904D02*
X171614819Y-93686666D01*
D11*
X171089765Y-95561666D02*
X171101670Y-95573570D01*
X171101670Y-95573570D02*
X171113574Y-95609285D01*
X171113574Y-95609285D02*
X171113574Y-95633094D01*
X171113574Y-95633094D02*
X171101670Y-95668808D01*
X171101670Y-95668808D02*
X171077860Y-95692618D01*
X171077860Y-95692618D02*
X171054050Y-95704523D01*
X171054050Y-95704523D02*
X171006431Y-95716427D01*
X171006431Y-95716427D02*
X170970717Y-95716427D01*
X170970717Y-95716427D02*
X170923098Y-95704523D01*
X170923098Y-95704523D02*
X170899289Y-95692618D01*
X170899289Y-95692618D02*
X170875479Y-95668808D01*
X170875479Y-95668808D02*
X170863574Y-95633094D01*
X170863574Y-95633094D02*
X170863574Y-95609285D01*
X170863574Y-95609285D02*
X170875479Y-95573570D01*
X170875479Y-95573570D02*
X170887384Y-95561666D01*
X170863574Y-95347380D02*
X170863574Y-95394999D01*
X170863574Y-95394999D02*
X170875479Y-95418808D01*
X170875479Y-95418808D02*
X170887384Y-95430713D01*
X170887384Y-95430713D02*
X170923098Y-95454523D01*
X170923098Y-95454523D02*
X170970717Y-95466427D01*
X170970717Y-95466427D02*
X171065955Y-95466427D01*
X171065955Y-95466427D02*
X171089765Y-95454523D01*
X171089765Y-95454523D02*
X171101670Y-95442618D01*
X171101670Y-95442618D02*
X171113574Y-95418808D01*
X171113574Y-95418808D02*
X171113574Y-95371189D01*
X171113574Y-95371189D02*
X171101670Y-95347380D01*
X171101670Y-95347380D02*
X171089765Y-95335475D01*
X171089765Y-95335475D02*
X171065955Y-95323570D01*
X171065955Y-95323570D02*
X171006431Y-95323570D01*
X171006431Y-95323570D02*
X170982622Y-95335475D01*
X170982622Y-95335475D02*
X170970717Y-95347380D01*
X170970717Y-95347380D02*
X170958812Y-95371189D01*
X170958812Y-95371189D02*
X170958812Y-95418808D01*
X170958812Y-95418808D02*
X170970717Y-95442618D01*
X170970717Y-95442618D02*
X170982622Y-95454523D01*
X170982622Y-95454523D02*
X171006431Y-95466427D01*
D10*
X171300000Y-103614819D02*
X171395238Y-103614819D01*
X171395238Y-103614819D02*
X171490476Y-103662438D01*
X171490476Y-103662438D02*
X171538095Y-103710057D01*
X171538095Y-103710057D02*
X171585714Y-103805295D01*
X171585714Y-103805295D02*
X171633333Y-103995771D01*
X171633333Y-103995771D02*
X171633333Y-104233866D01*
X171633333Y-104233866D02*
X171585714Y-104424342D01*
X171585714Y-104424342D02*
X171538095Y-104519580D01*
X171538095Y-104519580D02*
X171490476Y-104567200D01*
X171490476Y-104567200D02*
X171395238Y-104614819D01*
X171395238Y-104614819D02*
X171300000Y-104614819D01*
X171300000Y-104614819D02*
X171204762Y-104567200D01*
X171204762Y-104567200D02*
X171157143Y-104519580D01*
X171157143Y-104519580D02*
X171109524Y-104424342D01*
X171109524Y-104424342D02*
X171061905Y-104233866D01*
X171061905Y-104233866D02*
X171061905Y-103995771D01*
X171061905Y-103995771D02*
X171109524Y-103805295D01*
X171109524Y-103805295D02*
X171157143Y-103710057D01*
X171157143Y-103710057D02*
X171204762Y-103662438D01*
X171204762Y-103662438D02*
X171300000Y-103614819D01*
X172061905Y-104519580D02*
X172109524Y-104567200D01*
X172109524Y-104567200D02*
X172061905Y-104614819D01*
X172061905Y-104614819D02*
X172014286Y-104567200D01*
X172014286Y-104567200D02*
X172061905Y-104519580D01*
X172061905Y-104519580D02*
X172061905Y-104614819D01*
X173061904Y-104614819D02*
X172490476Y-104614819D01*
X172776190Y-104614819D02*
X172776190Y-103614819D01*
X172776190Y-103614819D02*
X172680952Y-103757676D01*
X172680952Y-103757676D02*
X172585714Y-103852914D01*
X172585714Y-103852914D02*
X172490476Y-103900533D01*
X173919047Y-103948152D02*
X173919047Y-104614819D01*
X173490476Y-103948152D02*
X173490476Y-104471961D01*
X173490476Y-104471961D02*
X173538095Y-104567200D01*
X173538095Y-104567200D02*
X173633333Y-104614819D01*
X173633333Y-104614819D02*
X173776190Y-104614819D01*
X173776190Y-104614819D02*
X173871428Y-104567200D01*
X173871428Y-104567200D02*
X173919047Y-104519580D01*
X174252381Y-103948152D02*
X174633333Y-103948152D01*
X174395238Y-104614819D02*
X174395238Y-103757676D01*
X174395238Y-103757676D02*
X174442857Y-103662438D01*
X174442857Y-103662438D02*
X174538095Y-103614819D01*
X174538095Y-103614819D02*
X174633333Y-103614819D01*
D11*
X172758333Y-103089765D02*
X172746429Y-103101670D01*
X172746429Y-103101670D02*
X172710714Y-103113574D01*
X172710714Y-103113574D02*
X172686905Y-103113574D01*
X172686905Y-103113574D02*
X172651191Y-103101670D01*
X172651191Y-103101670D02*
X172627381Y-103077860D01*
X172627381Y-103077860D02*
X172615476Y-103054050D01*
X172615476Y-103054050D02*
X172603572Y-103006431D01*
X172603572Y-103006431D02*
X172603572Y-102970717D01*
X172603572Y-102970717D02*
X172615476Y-102923098D01*
X172615476Y-102923098D02*
X172627381Y-102899289D01*
X172627381Y-102899289D02*
X172651191Y-102875479D01*
X172651191Y-102875479D02*
X172686905Y-102863574D01*
X172686905Y-102863574D02*
X172710714Y-102863574D01*
X172710714Y-102863574D02*
X172746429Y-102875479D01*
X172746429Y-102875479D02*
X172758333Y-102887384D01*
X172901191Y-102970717D02*
X172877381Y-102958812D01*
X172877381Y-102958812D02*
X172865476Y-102946908D01*
X172865476Y-102946908D02*
X172853572Y-102923098D01*
X172853572Y-102923098D02*
X172853572Y-102911193D01*
X172853572Y-102911193D02*
X172865476Y-102887384D01*
X172865476Y-102887384D02*
X172877381Y-102875479D01*
X172877381Y-102875479D02*
X172901191Y-102863574D01*
X172901191Y-102863574D02*
X172948810Y-102863574D01*
X172948810Y-102863574D02*
X172972619Y-102875479D01*
X172972619Y-102875479D02*
X172984524Y-102887384D01*
X172984524Y-102887384D02*
X172996429Y-102911193D01*
X172996429Y-102911193D02*
X172996429Y-102923098D01*
X172996429Y-102923098D02*
X172984524Y-102946908D01*
X172984524Y-102946908D02*
X172972619Y-102958812D01*
X172972619Y-102958812D02*
X172948810Y-102970717D01*
X172948810Y-102970717D02*
X172901191Y-102970717D01*
X172901191Y-102970717D02*
X172877381Y-102982622D01*
X172877381Y-102982622D02*
X172865476Y-102994527D01*
X172865476Y-102994527D02*
X172853572Y-103018336D01*
X172853572Y-103018336D02*
X172853572Y-103065955D01*
X172853572Y-103065955D02*
X172865476Y-103089765D01*
X172865476Y-103089765D02*
X172877381Y-103101670D01*
X172877381Y-103101670D02*
X172901191Y-103113574D01*
X172901191Y-103113574D02*
X172948810Y-103113574D01*
X172948810Y-103113574D02*
X172972619Y-103101670D01*
X172972619Y-103101670D02*
X172984524Y-103089765D01*
X172984524Y-103089765D02*
X172996429Y-103065955D01*
X172996429Y-103065955D02*
X172996429Y-103018336D01*
X172996429Y-103018336D02*
X172984524Y-102994527D01*
X172984524Y-102994527D02*
X172972619Y-102982622D01*
X172972619Y-102982622D02*
X172948810Y-102970717D01*
D10*
X162784819Y-116790475D02*
X162784819Y-116171428D01*
X162784819Y-116171428D02*
X163165771Y-116504761D01*
X163165771Y-116504761D02*
X163165771Y-116361904D01*
X163165771Y-116361904D02*
X163213390Y-116266666D01*
X163213390Y-116266666D02*
X163261009Y-116219047D01*
X163261009Y-116219047D02*
X163356247Y-116171428D01*
X163356247Y-116171428D02*
X163594342Y-116171428D01*
X163594342Y-116171428D02*
X163689580Y-116219047D01*
X163689580Y-116219047D02*
X163737200Y-116266666D01*
X163737200Y-116266666D02*
X163784819Y-116361904D01*
X163784819Y-116361904D02*
X163784819Y-116647618D01*
X163784819Y-116647618D02*
X163737200Y-116742856D01*
X163737200Y-116742856D02*
X163689580Y-116790475D01*
X162784819Y-115838094D02*
X162784819Y-115219047D01*
X162784819Y-115219047D02*
X163165771Y-115552380D01*
X163165771Y-115552380D02*
X163165771Y-115409523D01*
X163165771Y-115409523D02*
X163213390Y-115314285D01*
X163213390Y-115314285D02*
X163261009Y-115266666D01*
X163261009Y-115266666D02*
X163356247Y-115219047D01*
X163356247Y-115219047D02*
X163594342Y-115219047D01*
X163594342Y-115219047D02*
X163689580Y-115266666D01*
X163689580Y-115266666D02*
X163737200Y-115314285D01*
X163737200Y-115314285D02*
X163784819Y-115409523D01*
X163784819Y-115409523D02*
X163784819Y-115695237D01*
X163784819Y-115695237D02*
X163737200Y-115790475D01*
X163737200Y-115790475D02*
X163689580Y-115838094D01*
X163118152Y-114790475D02*
X164118152Y-114790475D01*
X163165771Y-114790475D02*
X163118152Y-114695237D01*
X163118152Y-114695237D02*
X163118152Y-114504761D01*
X163118152Y-114504761D02*
X163165771Y-114409523D01*
X163165771Y-114409523D02*
X163213390Y-114361904D01*
X163213390Y-114361904D02*
X163308628Y-114314285D01*
X163308628Y-114314285D02*
X163594342Y-114314285D01*
X163594342Y-114314285D02*
X163689580Y-114361904D01*
X163689580Y-114361904D02*
X163737200Y-114409523D01*
X163737200Y-114409523D02*
X163784819Y-114504761D01*
X163784819Y-114504761D02*
X163784819Y-114695237D01*
X163784819Y-114695237D02*
X163737200Y-114790475D01*
X163261009Y-113552380D02*
X163261009Y-113885713D01*
X163784819Y-113885713D02*
X162784819Y-113885713D01*
X162784819Y-113885713D02*
X162784819Y-113409523D01*
D11*
X164579765Y-115260714D02*
X164591670Y-115272618D01*
X164591670Y-115272618D02*
X164603574Y-115308333D01*
X164603574Y-115308333D02*
X164603574Y-115332142D01*
X164603574Y-115332142D02*
X164591670Y-115367856D01*
X164591670Y-115367856D02*
X164567860Y-115391666D01*
X164567860Y-115391666D02*
X164544050Y-115403571D01*
X164544050Y-115403571D02*
X164496431Y-115415475D01*
X164496431Y-115415475D02*
X164460717Y-115415475D01*
X164460717Y-115415475D02*
X164413098Y-115403571D01*
X164413098Y-115403571D02*
X164389289Y-115391666D01*
X164389289Y-115391666D02*
X164365479Y-115367856D01*
X164365479Y-115367856D02*
X164353574Y-115332142D01*
X164353574Y-115332142D02*
X164353574Y-115308333D01*
X164353574Y-115308333D02*
X164365479Y-115272618D01*
X164365479Y-115272618D02*
X164377384Y-115260714D01*
X164603574Y-115022618D02*
X164603574Y-115165475D01*
X164603574Y-115094047D02*
X164353574Y-115094047D01*
X164353574Y-115094047D02*
X164389289Y-115117856D01*
X164389289Y-115117856D02*
X164413098Y-115141666D01*
X164413098Y-115141666D02*
X164425003Y-115165475D01*
X164353574Y-114796428D02*
X164353574Y-114915476D01*
X164353574Y-114915476D02*
X164472622Y-114927380D01*
X164472622Y-114927380D02*
X164460717Y-114915476D01*
X164460717Y-114915476D02*
X164448812Y-114891666D01*
X164448812Y-114891666D02*
X164448812Y-114832142D01*
X164448812Y-114832142D02*
X164460717Y-114808333D01*
X164460717Y-114808333D02*
X164472622Y-114796428D01*
X164472622Y-114796428D02*
X164496431Y-114784523D01*
X164496431Y-114784523D02*
X164555955Y-114784523D01*
X164555955Y-114784523D02*
X164579765Y-114796428D01*
X164579765Y-114796428D02*
X164591670Y-114808333D01*
X164591670Y-114808333D02*
X164603574Y-114832142D01*
X164603574Y-114832142D02*
X164603574Y-114891666D01*
X164603574Y-114891666D02*
X164591670Y-114915476D01*
X164591670Y-114915476D02*
X164579765Y-114927380D01*
D10*
X173359580Y-130238095D02*
X173407200Y-130285714D01*
X173407200Y-130285714D02*
X173454819Y-130428571D01*
X173454819Y-130428571D02*
X173454819Y-130523809D01*
X173454819Y-130523809D02*
X173407200Y-130666666D01*
X173407200Y-130666666D02*
X173311961Y-130761904D01*
X173311961Y-130761904D02*
X173216723Y-130809523D01*
X173216723Y-130809523D02*
X173026247Y-130857142D01*
X173026247Y-130857142D02*
X172883390Y-130857142D01*
X172883390Y-130857142D02*
X172692914Y-130809523D01*
X172692914Y-130809523D02*
X172597676Y-130761904D01*
X172597676Y-130761904D02*
X172502438Y-130666666D01*
X172502438Y-130666666D02*
X172454819Y-130523809D01*
X172454819Y-130523809D02*
X172454819Y-130428571D01*
X172454819Y-130428571D02*
X172502438Y-130285714D01*
X172502438Y-130285714D02*
X172550057Y-130238095D01*
X173454819Y-129666666D02*
X173407200Y-129761904D01*
X173407200Y-129761904D02*
X173359580Y-129809523D01*
X173359580Y-129809523D02*
X173264342Y-129857142D01*
X173264342Y-129857142D02*
X172978628Y-129857142D01*
X172978628Y-129857142D02*
X172883390Y-129809523D01*
X172883390Y-129809523D02*
X172835771Y-129761904D01*
X172835771Y-129761904D02*
X172788152Y-129666666D01*
X172788152Y-129666666D02*
X172788152Y-129523809D01*
X172788152Y-129523809D02*
X172835771Y-129428571D01*
X172835771Y-129428571D02*
X172883390Y-129380952D01*
X172883390Y-129380952D02*
X172978628Y-129333333D01*
X172978628Y-129333333D02*
X173264342Y-129333333D01*
X173264342Y-129333333D02*
X173359580Y-129380952D01*
X173359580Y-129380952D02*
X173407200Y-129428571D01*
X173407200Y-129428571D02*
X173454819Y-129523809D01*
X173454819Y-129523809D02*
X173454819Y-129666666D01*
X172788152Y-128904761D02*
X173454819Y-128904761D01*
X172883390Y-128904761D02*
X172835771Y-128857142D01*
X172835771Y-128857142D02*
X172788152Y-128761904D01*
X172788152Y-128761904D02*
X172788152Y-128619047D01*
X172788152Y-128619047D02*
X172835771Y-128523809D01*
X172835771Y-128523809D02*
X172931009Y-128476190D01*
X172931009Y-128476190D02*
X173454819Y-128476190D01*
X172788152Y-127999999D02*
X173454819Y-127999999D01*
X172883390Y-127999999D02*
X172835771Y-127952380D01*
X172835771Y-127952380D02*
X172788152Y-127857142D01*
X172788152Y-127857142D02*
X172788152Y-127714285D01*
X172788152Y-127714285D02*
X172835771Y-127619047D01*
X172835771Y-127619047D02*
X172931009Y-127571428D01*
X172931009Y-127571428D02*
X173454819Y-127571428D01*
X173550057Y-127333333D02*
X173550057Y-126571428D01*
X172454819Y-126142856D02*
X172454819Y-126047618D01*
X172454819Y-126047618D02*
X172502438Y-125952380D01*
X172502438Y-125952380D02*
X172550057Y-125904761D01*
X172550057Y-125904761D02*
X172645295Y-125857142D01*
X172645295Y-125857142D02*
X172835771Y-125809523D01*
X172835771Y-125809523D02*
X173073866Y-125809523D01*
X173073866Y-125809523D02*
X173264342Y-125857142D01*
X173264342Y-125857142D02*
X173359580Y-125904761D01*
X173359580Y-125904761D02*
X173407200Y-125952380D01*
X173407200Y-125952380D02*
X173454819Y-126047618D01*
X173454819Y-126047618D02*
X173454819Y-126142856D01*
X173454819Y-126142856D02*
X173407200Y-126238094D01*
X173407200Y-126238094D02*
X173359580Y-126285713D01*
X173359580Y-126285713D02*
X173264342Y-126333332D01*
X173264342Y-126333332D02*
X173073866Y-126380951D01*
X173073866Y-126380951D02*
X172835771Y-126380951D01*
X172835771Y-126380951D02*
X172645295Y-126333332D01*
X172645295Y-126333332D02*
X172550057Y-126285713D01*
X172550057Y-126285713D02*
X172502438Y-126238094D01*
X172502438Y-126238094D02*
X172454819Y-126142856D01*
X173454819Y-124857142D02*
X173454819Y-125428570D01*
X173454819Y-125142856D02*
X172454819Y-125142856D01*
X172454819Y-125142856D02*
X172597676Y-125238094D01*
X172597676Y-125238094D02*
X172692914Y-125333332D01*
X172692914Y-125333332D02*
X172740533Y-125428570D01*
X173454819Y-124523808D02*
X172788152Y-123999999D01*
X172788152Y-124523808D02*
X173454819Y-123999999D01*
X172454819Y-123428570D02*
X172454819Y-123333332D01*
X172454819Y-123333332D02*
X172502438Y-123238094D01*
X172502438Y-123238094D02*
X172550057Y-123190475D01*
X172550057Y-123190475D02*
X172645295Y-123142856D01*
X172645295Y-123142856D02*
X172835771Y-123095237D01*
X172835771Y-123095237D02*
X173073866Y-123095237D01*
X173073866Y-123095237D02*
X173264342Y-123142856D01*
X173264342Y-123142856D02*
X173359580Y-123190475D01*
X173359580Y-123190475D02*
X173407200Y-123238094D01*
X173407200Y-123238094D02*
X173454819Y-123333332D01*
X173454819Y-123333332D02*
X173454819Y-123428570D01*
X173454819Y-123428570D02*
X173407200Y-123523808D01*
X173407200Y-123523808D02*
X173359580Y-123571427D01*
X173359580Y-123571427D02*
X173264342Y-123619046D01*
X173264342Y-123619046D02*
X173073866Y-123666665D01*
X173073866Y-123666665D02*
X172835771Y-123666665D01*
X172835771Y-123666665D02*
X172645295Y-123619046D01*
X172645295Y-123619046D02*
X172550057Y-123571427D01*
X172550057Y-123571427D02*
X172502438Y-123523808D01*
X172502438Y-123523808D02*
X172454819Y-123428570D01*
X172454819Y-122761903D02*
X172454819Y-122142856D01*
X172454819Y-122142856D02*
X172835771Y-122476189D01*
X172835771Y-122476189D02*
X172835771Y-122333332D01*
X172835771Y-122333332D02*
X172883390Y-122238094D01*
X172883390Y-122238094D02*
X172931009Y-122190475D01*
X172931009Y-122190475D02*
X173026247Y-122142856D01*
X173026247Y-122142856D02*
X173264342Y-122142856D01*
X173264342Y-122142856D02*
X173359580Y-122190475D01*
X173359580Y-122190475D02*
X173407200Y-122238094D01*
X173407200Y-122238094D02*
X173454819Y-122333332D01*
X173454819Y-122333332D02*
X173454819Y-122619046D01*
X173454819Y-122619046D02*
X173407200Y-122714284D01*
X173407200Y-122714284D02*
X173359580Y-122761903D01*
X167666666Y-125844819D02*
X167666666Y-126559104D01*
X167666666Y-126559104D02*
X167619047Y-126701961D01*
X167619047Y-126701961D02*
X167523809Y-126797200D01*
X167523809Y-126797200D02*
X167380952Y-126844819D01*
X167380952Y-126844819D02*
X167285714Y-126844819D01*
X168571428Y-126178152D02*
X168571428Y-126844819D01*
X168333333Y-125797200D02*
X168095238Y-126511485D01*
X168095238Y-126511485D02*
X168714285Y-126511485D01*
X155371904Y-129369580D02*
X155324285Y-129417200D01*
X155324285Y-129417200D02*
X155181428Y-129464819D01*
X155181428Y-129464819D02*
X155086190Y-129464819D01*
X155086190Y-129464819D02*
X154943333Y-129417200D01*
X154943333Y-129417200D02*
X154848095Y-129321961D01*
X154848095Y-129321961D02*
X154800476Y-129226723D01*
X154800476Y-129226723D02*
X154752857Y-129036247D01*
X154752857Y-129036247D02*
X154752857Y-128893390D01*
X154752857Y-128893390D02*
X154800476Y-128702914D01*
X154800476Y-128702914D02*
X154848095Y-128607676D01*
X154848095Y-128607676D02*
X154943333Y-128512438D01*
X154943333Y-128512438D02*
X155086190Y-128464819D01*
X155086190Y-128464819D02*
X155181428Y-128464819D01*
X155181428Y-128464819D02*
X155324285Y-128512438D01*
X155324285Y-128512438D02*
X155371904Y-128560057D01*
X155943333Y-129464819D02*
X155848095Y-129417200D01*
X155848095Y-129417200D02*
X155800476Y-129369580D01*
X155800476Y-129369580D02*
X155752857Y-129274342D01*
X155752857Y-129274342D02*
X155752857Y-128988628D01*
X155752857Y-128988628D02*
X155800476Y-128893390D01*
X155800476Y-128893390D02*
X155848095Y-128845771D01*
X155848095Y-128845771D02*
X155943333Y-128798152D01*
X155943333Y-128798152D02*
X156086190Y-128798152D01*
X156086190Y-128798152D02*
X156181428Y-128845771D01*
X156181428Y-128845771D02*
X156229047Y-128893390D01*
X156229047Y-128893390D02*
X156276666Y-128988628D01*
X156276666Y-128988628D02*
X156276666Y-129274342D01*
X156276666Y-129274342D02*
X156229047Y-129369580D01*
X156229047Y-129369580D02*
X156181428Y-129417200D01*
X156181428Y-129417200D02*
X156086190Y-129464819D01*
X156086190Y-129464819D02*
X155943333Y-129464819D01*
X156705238Y-128798152D02*
X156705238Y-129464819D01*
X156705238Y-128893390D02*
X156752857Y-128845771D01*
X156752857Y-128845771D02*
X156848095Y-128798152D01*
X156848095Y-128798152D02*
X156990952Y-128798152D01*
X156990952Y-128798152D02*
X157086190Y-128845771D01*
X157086190Y-128845771D02*
X157133809Y-128941009D01*
X157133809Y-128941009D02*
X157133809Y-129464819D01*
X157610000Y-128798152D02*
X157610000Y-129464819D01*
X157610000Y-128893390D02*
X157657619Y-128845771D01*
X157657619Y-128845771D02*
X157752857Y-128798152D01*
X157752857Y-128798152D02*
X157895714Y-128798152D01*
X157895714Y-128798152D02*
X157990952Y-128845771D01*
X157990952Y-128845771D02*
X158038571Y-128941009D01*
X158038571Y-128941009D02*
X158038571Y-129464819D01*
X158276667Y-129560057D02*
X159038571Y-129560057D01*
X159467143Y-128464819D02*
X159562381Y-128464819D01*
X159562381Y-128464819D02*
X159657619Y-128512438D01*
X159657619Y-128512438D02*
X159705238Y-128560057D01*
X159705238Y-128560057D02*
X159752857Y-128655295D01*
X159752857Y-128655295D02*
X159800476Y-128845771D01*
X159800476Y-128845771D02*
X159800476Y-129083866D01*
X159800476Y-129083866D02*
X159752857Y-129274342D01*
X159752857Y-129274342D02*
X159705238Y-129369580D01*
X159705238Y-129369580D02*
X159657619Y-129417200D01*
X159657619Y-129417200D02*
X159562381Y-129464819D01*
X159562381Y-129464819D02*
X159467143Y-129464819D01*
X159467143Y-129464819D02*
X159371905Y-129417200D01*
X159371905Y-129417200D02*
X159324286Y-129369580D01*
X159324286Y-129369580D02*
X159276667Y-129274342D01*
X159276667Y-129274342D02*
X159229048Y-129083866D01*
X159229048Y-129083866D02*
X159229048Y-128845771D01*
X159229048Y-128845771D02*
X159276667Y-128655295D01*
X159276667Y-128655295D02*
X159324286Y-128560057D01*
X159324286Y-128560057D02*
X159371905Y-128512438D01*
X159371905Y-128512438D02*
X159467143Y-128464819D01*
X160752857Y-129464819D02*
X160181429Y-129464819D01*
X160467143Y-129464819D02*
X160467143Y-128464819D01*
X160467143Y-128464819D02*
X160371905Y-128607676D01*
X160371905Y-128607676D02*
X160276667Y-128702914D01*
X160276667Y-128702914D02*
X160181429Y-128750533D01*
X161086191Y-129464819D02*
X161610000Y-128798152D01*
X161086191Y-128798152D02*
X161610000Y-129464819D01*
X161943334Y-128560057D02*
X161990953Y-128512438D01*
X161990953Y-128512438D02*
X162086191Y-128464819D01*
X162086191Y-128464819D02*
X162324286Y-128464819D01*
X162324286Y-128464819D02*
X162419524Y-128512438D01*
X162419524Y-128512438D02*
X162467143Y-128560057D01*
X162467143Y-128560057D02*
X162514762Y-128655295D01*
X162514762Y-128655295D02*
X162514762Y-128750533D01*
X162514762Y-128750533D02*
X162467143Y-128893390D01*
X162467143Y-128893390D02*
X161895715Y-129464819D01*
X161895715Y-129464819D02*
X162514762Y-129464819D01*
X163133810Y-128464819D02*
X163229048Y-128464819D01*
X163229048Y-128464819D02*
X163324286Y-128512438D01*
X163324286Y-128512438D02*
X163371905Y-128560057D01*
X163371905Y-128560057D02*
X163419524Y-128655295D01*
X163419524Y-128655295D02*
X163467143Y-128845771D01*
X163467143Y-128845771D02*
X163467143Y-129083866D01*
X163467143Y-129083866D02*
X163419524Y-129274342D01*
X163419524Y-129274342D02*
X163371905Y-129369580D01*
X163371905Y-129369580D02*
X163324286Y-129417200D01*
X163324286Y-129417200D02*
X163229048Y-129464819D01*
X163229048Y-129464819D02*
X163133810Y-129464819D01*
X163133810Y-129464819D02*
X163038572Y-129417200D01*
X163038572Y-129417200D02*
X162990953Y-129369580D01*
X162990953Y-129369580D02*
X162943334Y-129274342D01*
X162943334Y-129274342D02*
X162895715Y-129083866D01*
X162895715Y-129083866D02*
X162895715Y-128845771D01*
X162895715Y-128845771D02*
X162943334Y-128655295D01*
X162943334Y-128655295D02*
X162990953Y-128560057D01*
X162990953Y-128560057D02*
X163038572Y-128512438D01*
X163038572Y-128512438D02*
X163133810Y-128464819D01*
X158564819Y-102833333D02*
X159279104Y-102833333D01*
X159279104Y-102833333D02*
X159421961Y-102880952D01*
X159421961Y-102880952D02*
X159517200Y-102976190D01*
X159517200Y-102976190D02*
X159564819Y-103119047D01*
X159564819Y-103119047D02*
X159564819Y-103214285D01*
X158660057Y-102404761D02*
X158612438Y-102357142D01*
X158612438Y-102357142D02*
X158564819Y-102261904D01*
X158564819Y-102261904D02*
X158564819Y-102023809D01*
X158564819Y-102023809D02*
X158612438Y-101928571D01*
X158612438Y-101928571D02*
X158660057Y-101880952D01*
X158660057Y-101880952D02*
X158755295Y-101833333D01*
X158755295Y-101833333D02*
X158850533Y-101833333D01*
X158850533Y-101833333D02*
X158993390Y-101880952D01*
X158993390Y-101880952D02*
X159564819Y-102452380D01*
X159564819Y-102452380D02*
X159564819Y-101833333D01*
X172614819Y-96379999D02*
X172614819Y-96284761D01*
X172614819Y-96284761D02*
X172662438Y-96189523D01*
X172662438Y-96189523D02*
X172710057Y-96141904D01*
X172710057Y-96141904D02*
X172805295Y-96094285D01*
X172805295Y-96094285D02*
X172995771Y-96046666D01*
X172995771Y-96046666D02*
X173233866Y-96046666D01*
X173233866Y-96046666D02*
X173424342Y-96094285D01*
X173424342Y-96094285D02*
X173519580Y-96141904D01*
X173519580Y-96141904D02*
X173567200Y-96189523D01*
X173567200Y-96189523D02*
X173614819Y-96284761D01*
X173614819Y-96284761D02*
X173614819Y-96379999D01*
X173614819Y-96379999D02*
X173567200Y-96475237D01*
X173567200Y-96475237D02*
X173519580Y-96522856D01*
X173519580Y-96522856D02*
X173424342Y-96570475D01*
X173424342Y-96570475D02*
X173233866Y-96618094D01*
X173233866Y-96618094D02*
X172995771Y-96618094D01*
X172995771Y-96618094D02*
X172805295Y-96570475D01*
X172805295Y-96570475D02*
X172710057Y-96522856D01*
X172710057Y-96522856D02*
X172662438Y-96475237D01*
X172662438Y-96475237D02*
X172614819Y-96379999D01*
X173519580Y-95618094D02*
X173567200Y-95570475D01*
X173567200Y-95570475D02*
X173614819Y-95618094D01*
X173614819Y-95618094D02*
X173567200Y-95665713D01*
X173567200Y-95665713D02*
X173519580Y-95618094D01*
X173519580Y-95618094D02*
X173614819Y-95618094D01*
X173614819Y-94618095D02*
X173614819Y-95189523D01*
X173614819Y-94903809D02*
X172614819Y-94903809D01*
X172614819Y-94903809D02*
X172757676Y-94999047D01*
X172757676Y-94999047D02*
X172852914Y-95094285D01*
X172852914Y-95094285D02*
X172900533Y-95189523D01*
X172948152Y-93760952D02*
X173614819Y-93760952D01*
X172948152Y-94189523D02*
X173471961Y-94189523D01*
X173471961Y-94189523D02*
X173567200Y-94141904D01*
X173567200Y-94141904D02*
X173614819Y-94046666D01*
X173614819Y-94046666D02*
X173614819Y-93903809D01*
X173614819Y-93903809D02*
X173567200Y-93808571D01*
X173567200Y-93808571D02*
X173519580Y-93760952D01*
X172948152Y-93427618D02*
X172948152Y-93046666D01*
X173614819Y-93284761D02*
X172757676Y-93284761D01*
X172757676Y-93284761D02*
X172662438Y-93237142D01*
X172662438Y-93237142D02*
X172614819Y-93141904D01*
X172614819Y-93141904D02*
X172614819Y-93046666D01*
D11*
X172089765Y-94921666D02*
X172101670Y-94933570D01*
X172101670Y-94933570D02*
X172113574Y-94969285D01*
X172113574Y-94969285D02*
X172113574Y-94993094D01*
X172113574Y-94993094D02*
X172101670Y-95028808D01*
X172101670Y-95028808D02*
X172077860Y-95052618D01*
X172077860Y-95052618D02*
X172054050Y-95064523D01*
X172054050Y-95064523D02*
X172006431Y-95076427D01*
X172006431Y-95076427D02*
X171970717Y-95076427D01*
X171970717Y-95076427D02*
X171923098Y-95064523D01*
X171923098Y-95064523D02*
X171899289Y-95052618D01*
X171899289Y-95052618D02*
X171875479Y-95028808D01*
X171875479Y-95028808D02*
X171863574Y-94993094D01*
X171863574Y-94993094D02*
X171863574Y-94969285D01*
X171863574Y-94969285D02*
X171875479Y-94933570D01*
X171875479Y-94933570D02*
X171887384Y-94921666D01*
X171863574Y-94838332D02*
X171863574Y-94671666D01*
X171863574Y-94671666D02*
X172113574Y-94778808D01*
D10*
X164837143Y-90994819D02*
X164932381Y-90994819D01*
X164932381Y-90994819D02*
X165027619Y-91042438D01*
X165027619Y-91042438D02*
X165075238Y-91090057D01*
X165075238Y-91090057D02*
X165122857Y-91185295D01*
X165122857Y-91185295D02*
X165170476Y-91375771D01*
X165170476Y-91375771D02*
X165170476Y-91613866D01*
X165170476Y-91613866D02*
X165122857Y-91804342D01*
X165122857Y-91804342D02*
X165075238Y-91899580D01*
X165075238Y-91899580D02*
X165027619Y-91947200D01*
X165027619Y-91947200D02*
X164932381Y-91994819D01*
X164932381Y-91994819D02*
X164837143Y-91994819D01*
X164837143Y-91994819D02*
X164741905Y-91947200D01*
X164741905Y-91947200D02*
X164694286Y-91899580D01*
X164694286Y-91899580D02*
X164646667Y-91804342D01*
X164646667Y-91804342D02*
X164599048Y-91613866D01*
X164599048Y-91613866D02*
X164599048Y-91375771D01*
X164599048Y-91375771D02*
X164646667Y-91185295D01*
X164646667Y-91185295D02*
X164694286Y-91090057D01*
X164694286Y-91090057D02*
X164741905Y-91042438D01*
X164741905Y-91042438D02*
X164837143Y-90994819D01*
X165599048Y-91899580D02*
X165646667Y-91947200D01*
X165646667Y-91947200D02*
X165599048Y-91994819D01*
X165599048Y-91994819D02*
X165551429Y-91947200D01*
X165551429Y-91947200D02*
X165599048Y-91899580D01*
X165599048Y-91899580D02*
X165599048Y-91994819D01*
X166599047Y-91994819D02*
X166027619Y-91994819D01*
X166313333Y-91994819D02*
X166313333Y-90994819D01*
X166313333Y-90994819D02*
X166218095Y-91137676D01*
X166218095Y-91137676D02*
X166122857Y-91232914D01*
X166122857Y-91232914D02*
X166027619Y-91280533D01*
X167456190Y-91328152D02*
X167456190Y-91994819D01*
X167027619Y-91328152D02*
X167027619Y-91851961D01*
X167027619Y-91851961D02*
X167075238Y-91947200D01*
X167075238Y-91947200D02*
X167170476Y-91994819D01*
X167170476Y-91994819D02*
X167313333Y-91994819D01*
X167313333Y-91994819D02*
X167408571Y-91947200D01*
X167408571Y-91947200D02*
X167456190Y-91899580D01*
X168265714Y-91471009D02*
X167932381Y-91471009D01*
X167932381Y-91994819D02*
X167932381Y-90994819D01*
X167932381Y-90994819D02*
X168408571Y-90994819D01*
D11*
X166319285Y-92789765D02*
X166307381Y-92801670D01*
X166307381Y-92801670D02*
X166271666Y-92813574D01*
X166271666Y-92813574D02*
X166247857Y-92813574D01*
X166247857Y-92813574D02*
X166212143Y-92801670D01*
X166212143Y-92801670D02*
X166188333Y-92777860D01*
X166188333Y-92777860D02*
X166176428Y-92754050D01*
X166176428Y-92754050D02*
X166164524Y-92706431D01*
X166164524Y-92706431D02*
X166164524Y-92670717D01*
X166164524Y-92670717D02*
X166176428Y-92623098D01*
X166176428Y-92623098D02*
X166188333Y-92599289D01*
X166188333Y-92599289D02*
X166212143Y-92575479D01*
X166212143Y-92575479D02*
X166247857Y-92563574D01*
X166247857Y-92563574D02*
X166271666Y-92563574D01*
X166271666Y-92563574D02*
X166307381Y-92575479D01*
X166307381Y-92575479D02*
X166319285Y-92587384D01*
X166557381Y-92813574D02*
X166414524Y-92813574D01*
X166485952Y-92813574D02*
X166485952Y-92563574D01*
X166485952Y-92563574D02*
X166462143Y-92599289D01*
X166462143Y-92599289D02*
X166438333Y-92623098D01*
X166438333Y-92623098D02*
X166414524Y-92635003D01*
X166640714Y-92563574D02*
X166807380Y-92563574D01*
X166807380Y-92563574D02*
X166700238Y-92813574D01*
D10*
X162180000Y-100494819D02*
X162275238Y-100494819D01*
X162275238Y-100494819D02*
X162370476Y-100542438D01*
X162370476Y-100542438D02*
X162418095Y-100590057D01*
X162418095Y-100590057D02*
X162465714Y-100685295D01*
X162465714Y-100685295D02*
X162513333Y-100875771D01*
X162513333Y-100875771D02*
X162513333Y-101113866D01*
X162513333Y-101113866D02*
X162465714Y-101304342D01*
X162465714Y-101304342D02*
X162418095Y-101399580D01*
X162418095Y-101399580D02*
X162370476Y-101447200D01*
X162370476Y-101447200D02*
X162275238Y-101494819D01*
X162275238Y-101494819D02*
X162180000Y-101494819D01*
X162180000Y-101494819D02*
X162084762Y-101447200D01*
X162084762Y-101447200D02*
X162037143Y-101399580D01*
X162037143Y-101399580D02*
X161989524Y-101304342D01*
X161989524Y-101304342D02*
X161941905Y-101113866D01*
X161941905Y-101113866D02*
X161941905Y-100875771D01*
X161941905Y-100875771D02*
X161989524Y-100685295D01*
X161989524Y-100685295D02*
X162037143Y-100590057D01*
X162037143Y-100590057D02*
X162084762Y-100542438D01*
X162084762Y-100542438D02*
X162180000Y-100494819D01*
X162941905Y-101399580D02*
X162989524Y-101447200D01*
X162989524Y-101447200D02*
X162941905Y-101494819D01*
X162941905Y-101494819D02*
X162894286Y-101447200D01*
X162894286Y-101447200D02*
X162941905Y-101399580D01*
X162941905Y-101399580D02*
X162941905Y-101494819D01*
X163941904Y-101494819D02*
X163370476Y-101494819D01*
X163656190Y-101494819D02*
X163656190Y-100494819D01*
X163656190Y-100494819D02*
X163560952Y-100637676D01*
X163560952Y-100637676D02*
X163465714Y-100732914D01*
X163465714Y-100732914D02*
X163370476Y-100780533D01*
X164799047Y-100828152D02*
X164799047Y-101494819D01*
X164370476Y-100828152D02*
X164370476Y-101351961D01*
X164370476Y-101351961D02*
X164418095Y-101447200D01*
X164418095Y-101447200D02*
X164513333Y-101494819D01*
X164513333Y-101494819D02*
X164656190Y-101494819D01*
X164656190Y-101494819D02*
X164751428Y-101447200D01*
X164751428Y-101447200D02*
X164799047Y-101399580D01*
X165132381Y-100828152D02*
X165513333Y-100828152D01*
X165275238Y-101494819D02*
X165275238Y-100637676D01*
X165275238Y-100637676D02*
X165322857Y-100542438D01*
X165322857Y-100542438D02*
X165418095Y-100494819D01*
X165418095Y-100494819D02*
X165513333Y-100494819D01*
D11*
X163638333Y-102289765D02*
X163626429Y-102301670D01*
X163626429Y-102301670D02*
X163590714Y-102313574D01*
X163590714Y-102313574D02*
X163566905Y-102313574D01*
X163566905Y-102313574D02*
X163531191Y-102301670D01*
X163531191Y-102301670D02*
X163507381Y-102277860D01*
X163507381Y-102277860D02*
X163495476Y-102254050D01*
X163495476Y-102254050D02*
X163483572Y-102206431D01*
X163483572Y-102206431D02*
X163483572Y-102170717D01*
X163483572Y-102170717D02*
X163495476Y-102123098D01*
X163495476Y-102123098D02*
X163507381Y-102099289D01*
X163507381Y-102099289D02*
X163531191Y-102075479D01*
X163531191Y-102075479D02*
X163566905Y-102063574D01*
X163566905Y-102063574D02*
X163590714Y-102063574D01*
X163590714Y-102063574D02*
X163626429Y-102075479D01*
X163626429Y-102075479D02*
X163638333Y-102087384D01*
X163852619Y-102146908D02*
X163852619Y-102313574D01*
X163793095Y-102051670D02*
X163733572Y-102230241D01*
X163733572Y-102230241D02*
X163888333Y-102230241D01*
D10*
X156476189Y-73854819D02*
X156476189Y-74664342D01*
X156476189Y-74664342D02*
X156523808Y-74759580D01*
X156523808Y-74759580D02*
X156571427Y-74807200D01*
X156571427Y-74807200D02*
X156666665Y-74854819D01*
X156666665Y-74854819D02*
X156857141Y-74854819D01*
X156857141Y-74854819D02*
X156952379Y-74807200D01*
X156952379Y-74807200D02*
X156999998Y-74759580D01*
X156999998Y-74759580D02*
X157047617Y-74664342D01*
X157047617Y-74664342D02*
X157047617Y-73854819D01*
X157476189Y-74807200D02*
X157619046Y-74854819D01*
X157619046Y-74854819D02*
X157857141Y-74854819D01*
X157857141Y-74854819D02*
X157952379Y-74807200D01*
X157952379Y-74807200D02*
X157999998Y-74759580D01*
X157999998Y-74759580D02*
X158047617Y-74664342D01*
X158047617Y-74664342D02*
X158047617Y-74569104D01*
X158047617Y-74569104D02*
X157999998Y-74473866D01*
X157999998Y-74473866D02*
X157952379Y-74426247D01*
X157952379Y-74426247D02*
X157857141Y-74378628D01*
X157857141Y-74378628D02*
X157666665Y-74331009D01*
X157666665Y-74331009D02*
X157571427Y-74283390D01*
X157571427Y-74283390D02*
X157523808Y-74235771D01*
X157523808Y-74235771D02*
X157476189Y-74140533D01*
X157476189Y-74140533D02*
X157476189Y-74045295D01*
X157476189Y-74045295D02*
X157523808Y-73950057D01*
X157523808Y-73950057D02*
X157571427Y-73902438D01*
X157571427Y-73902438D02*
X157666665Y-73854819D01*
X157666665Y-73854819D02*
X157904760Y-73854819D01*
X157904760Y-73854819D02*
X158047617Y-73902438D01*
X158809522Y-74331009D02*
X158952379Y-74378628D01*
X158952379Y-74378628D02*
X158999998Y-74426247D01*
X158999998Y-74426247D02*
X159047617Y-74521485D01*
X159047617Y-74521485D02*
X159047617Y-74664342D01*
X159047617Y-74664342D02*
X158999998Y-74759580D01*
X158999998Y-74759580D02*
X158952379Y-74807200D01*
X158952379Y-74807200D02*
X158857141Y-74854819D01*
X158857141Y-74854819D02*
X158476189Y-74854819D01*
X158476189Y-74854819D02*
X158476189Y-73854819D01*
X158476189Y-73854819D02*
X158809522Y-73854819D01*
X158809522Y-73854819D02*
X158904760Y-73902438D01*
X158904760Y-73902438D02*
X158952379Y-73950057D01*
X158952379Y-73950057D02*
X158999998Y-74045295D01*
X158999998Y-74045295D02*
X158999998Y-74140533D01*
X158999998Y-74140533D02*
X158952379Y-74235771D01*
X158952379Y-74235771D02*
X158904760Y-74283390D01*
X158904760Y-74283390D02*
X158809522Y-74331009D01*
X158809522Y-74331009D02*
X158476189Y-74331009D01*
X159238094Y-74950057D02*
X159999998Y-74950057D01*
X160809522Y-74759580D02*
X160761903Y-74807200D01*
X160761903Y-74807200D02*
X160619046Y-74854819D01*
X160619046Y-74854819D02*
X160523808Y-74854819D01*
X160523808Y-74854819D02*
X160380951Y-74807200D01*
X160380951Y-74807200D02*
X160285713Y-74711961D01*
X160285713Y-74711961D02*
X160238094Y-74616723D01*
X160238094Y-74616723D02*
X160190475Y-74426247D01*
X160190475Y-74426247D02*
X160190475Y-74283390D01*
X160190475Y-74283390D02*
X160238094Y-74092914D01*
X160238094Y-74092914D02*
X160285713Y-73997676D01*
X160285713Y-73997676D02*
X160380951Y-73902438D01*
X160380951Y-73902438D02*
X160523808Y-73854819D01*
X160523808Y-73854819D02*
X160619046Y-73854819D01*
X160619046Y-73854819D02*
X160761903Y-73902438D01*
X160761903Y-73902438D02*
X160809522Y-73950057D01*
X160999999Y-74950057D02*
X161761903Y-74950057D01*
X162571427Y-74854819D02*
X162238094Y-74378628D01*
X161999999Y-74854819D02*
X161999999Y-73854819D01*
X161999999Y-73854819D02*
X162380951Y-73854819D01*
X162380951Y-73854819D02*
X162476189Y-73902438D01*
X162476189Y-73902438D02*
X162523808Y-73950057D01*
X162523808Y-73950057D02*
X162571427Y-74045295D01*
X162571427Y-74045295D02*
X162571427Y-74188152D01*
X162571427Y-74188152D02*
X162523808Y-74283390D01*
X162523808Y-74283390D02*
X162476189Y-74331009D01*
X162476189Y-74331009D02*
X162380951Y-74378628D01*
X162380951Y-74378628D02*
X161999999Y-74378628D01*
X163380951Y-74807200D02*
X163285713Y-74854819D01*
X163285713Y-74854819D02*
X163095237Y-74854819D01*
X163095237Y-74854819D02*
X162999999Y-74807200D01*
X162999999Y-74807200D02*
X162952380Y-74711961D01*
X162952380Y-74711961D02*
X162952380Y-74331009D01*
X162952380Y-74331009D02*
X162999999Y-74235771D01*
X162999999Y-74235771D02*
X163095237Y-74188152D01*
X163095237Y-74188152D02*
X163285713Y-74188152D01*
X163285713Y-74188152D02*
X163380951Y-74235771D01*
X163380951Y-74235771D02*
X163428570Y-74331009D01*
X163428570Y-74331009D02*
X163428570Y-74426247D01*
X163428570Y-74426247D02*
X162952380Y-74521485D01*
X164285713Y-74807200D02*
X164190475Y-74854819D01*
X164190475Y-74854819D02*
X163999999Y-74854819D01*
X163999999Y-74854819D02*
X163904761Y-74807200D01*
X163904761Y-74807200D02*
X163857142Y-74759580D01*
X163857142Y-74759580D02*
X163809523Y-74664342D01*
X163809523Y-74664342D02*
X163809523Y-74378628D01*
X163809523Y-74378628D02*
X163857142Y-74283390D01*
X163857142Y-74283390D02*
X163904761Y-74235771D01*
X163904761Y-74235771D02*
X163999999Y-74188152D01*
X163999999Y-74188152D02*
X164190475Y-74188152D01*
X164190475Y-74188152D02*
X164285713Y-74235771D01*
X165095237Y-74807200D02*
X164999999Y-74854819D01*
X164999999Y-74854819D02*
X164809523Y-74854819D01*
X164809523Y-74854819D02*
X164714285Y-74807200D01*
X164714285Y-74807200D02*
X164666666Y-74711961D01*
X164666666Y-74711961D02*
X164666666Y-74331009D01*
X164666666Y-74331009D02*
X164714285Y-74235771D01*
X164714285Y-74235771D02*
X164809523Y-74188152D01*
X164809523Y-74188152D02*
X164999999Y-74188152D01*
X164999999Y-74188152D02*
X165095237Y-74235771D01*
X165095237Y-74235771D02*
X165142856Y-74331009D01*
X165142856Y-74331009D02*
X165142856Y-74426247D01*
X165142856Y-74426247D02*
X164666666Y-74521485D01*
X165571428Y-74188152D02*
X165571428Y-75188152D01*
X165571428Y-74235771D02*
X165666666Y-74188152D01*
X165666666Y-74188152D02*
X165857142Y-74188152D01*
X165857142Y-74188152D02*
X165952380Y-74235771D01*
X165952380Y-74235771D02*
X165999999Y-74283390D01*
X165999999Y-74283390D02*
X166047618Y-74378628D01*
X166047618Y-74378628D02*
X166047618Y-74664342D01*
X166047618Y-74664342D02*
X165999999Y-74759580D01*
X165999999Y-74759580D02*
X165952380Y-74807200D01*
X165952380Y-74807200D02*
X165857142Y-74854819D01*
X165857142Y-74854819D02*
X165666666Y-74854819D01*
X165666666Y-74854819D02*
X165571428Y-74807200D01*
X166333333Y-74188152D02*
X166714285Y-74188152D01*
X166476190Y-73854819D02*
X166476190Y-74711961D01*
X166476190Y-74711961D02*
X166523809Y-74807200D01*
X166523809Y-74807200D02*
X166619047Y-74854819D01*
X166619047Y-74854819D02*
X166714285Y-74854819D01*
X167476190Y-74854819D02*
X167476190Y-74331009D01*
X167476190Y-74331009D02*
X167428571Y-74235771D01*
X167428571Y-74235771D02*
X167333333Y-74188152D01*
X167333333Y-74188152D02*
X167142857Y-74188152D01*
X167142857Y-74188152D02*
X167047619Y-74235771D01*
X167476190Y-74807200D02*
X167380952Y-74854819D01*
X167380952Y-74854819D02*
X167142857Y-74854819D01*
X167142857Y-74854819D02*
X167047619Y-74807200D01*
X167047619Y-74807200D02*
X167000000Y-74711961D01*
X167000000Y-74711961D02*
X167000000Y-74616723D01*
X167000000Y-74616723D02*
X167047619Y-74521485D01*
X167047619Y-74521485D02*
X167142857Y-74473866D01*
X167142857Y-74473866D02*
X167380952Y-74473866D01*
X167380952Y-74473866D02*
X167476190Y-74426247D01*
X168380952Y-74807200D02*
X168285714Y-74854819D01*
X168285714Y-74854819D02*
X168095238Y-74854819D01*
X168095238Y-74854819D02*
X168000000Y-74807200D01*
X168000000Y-74807200D02*
X167952381Y-74759580D01*
X167952381Y-74759580D02*
X167904762Y-74664342D01*
X167904762Y-74664342D02*
X167904762Y-74378628D01*
X167904762Y-74378628D02*
X167952381Y-74283390D01*
X167952381Y-74283390D02*
X168000000Y-74235771D01*
X168000000Y-74235771D02*
X168095238Y-74188152D01*
X168095238Y-74188152D02*
X168285714Y-74188152D01*
X168285714Y-74188152D02*
X168380952Y-74235771D01*
X168952381Y-74854819D02*
X168857143Y-74807200D01*
X168857143Y-74807200D02*
X168809524Y-74711961D01*
X168809524Y-74711961D02*
X168809524Y-73854819D01*
X169714286Y-74807200D02*
X169619048Y-74854819D01*
X169619048Y-74854819D02*
X169428572Y-74854819D01*
X169428572Y-74854819D02*
X169333334Y-74807200D01*
X169333334Y-74807200D02*
X169285715Y-74711961D01*
X169285715Y-74711961D02*
X169285715Y-74331009D01*
X169285715Y-74331009D02*
X169333334Y-74235771D01*
X169333334Y-74235771D02*
X169428572Y-74188152D01*
X169428572Y-74188152D02*
X169619048Y-74188152D01*
X169619048Y-74188152D02*
X169714286Y-74235771D01*
X169714286Y-74235771D02*
X169761905Y-74331009D01*
X169761905Y-74331009D02*
X169761905Y-74426247D01*
X169761905Y-74426247D02*
X169285715Y-74521485D01*
X169952382Y-74950057D02*
X170714286Y-74950057D01*
X170952382Y-73854819D02*
X170952382Y-74664342D01*
X170952382Y-74664342D02*
X171000001Y-74759580D01*
X171000001Y-74759580D02*
X171047620Y-74807200D01*
X171047620Y-74807200D02*
X171142858Y-74854819D01*
X171142858Y-74854819D02*
X171333334Y-74854819D01*
X171333334Y-74854819D02*
X171428572Y-74807200D01*
X171428572Y-74807200D02*
X171476191Y-74759580D01*
X171476191Y-74759580D02*
X171523810Y-74664342D01*
X171523810Y-74664342D02*
X171523810Y-73854819D01*
X171952382Y-74807200D02*
X172095239Y-74854819D01*
X172095239Y-74854819D02*
X172333334Y-74854819D01*
X172333334Y-74854819D02*
X172428572Y-74807200D01*
X172428572Y-74807200D02*
X172476191Y-74759580D01*
X172476191Y-74759580D02*
X172523810Y-74664342D01*
X172523810Y-74664342D02*
X172523810Y-74569104D01*
X172523810Y-74569104D02*
X172476191Y-74473866D01*
X172476191Y-74473866D02*
X172428572Y-74426247D01*
X172428572Y-74426247D02*
X172333334Y-74378628D01*
X172333334Y-74378628D02*
X172142858Y-74331009D01*
X172142858Y-74331009D02*
X172047620Y-74283390D01*
X172047620Y-74283390D02*
X172000001Y-74235771D01*
X172000001Y-74235771D02*
X171952382Y-74140533D01*
X171952382Y-74140533D02*
X171952382Y-74045295D01*
X171952382Y-74045295D02*
X172000001Y-73950057D01*
X172000001Y-73950057D02*
X172047620Y-73902438D01*
X172047620Y-73902438D02*
X172142858Y-73854819D01*
X172142858Y-73854819D02*
X172380953Y-73854819D01*
X172380953Y-73854819D02*
X172523810Y-73902438D01*
X173285715Y-74331009D02*
X173428572Y-74378628D01*
X173428572Y-74378628D02*
X173476191Y-74426247D01*
X173476191Y-74426247D02*
X173523810Y-74521485D01*
X173523810Y-74521485D02*
X173523810Y-74664342D01*
X173523810Y-74664342D02*
X173476191Y-74759580D01*
X173476191Y-74759580D02*
X173428572Y-74807200D01*
X173428572Y-74807200D02*
X173333334Y-74854819D01*
X173333334Y-74854819D02*
X172952382Y-74854819D01*
X172952382Y-74854819D02*
X172952382Y-73854819D01*
X172952382Y-73854819D02*
X173285715Y-73854819D01*
X173285715Y-73854819D02*
X173380953Y-73902438D01*
X173380953Y-73902438D02*
X173428572Y-73950057D01*
X173428572Y-73950057D02*
X173476191Y-74045295D01*
X173476191Y-74045295D02*
X173476191Y-74140533D01*
X173476191Y-74140533D02*
X173428572Y-74235771D01*
X173428572Y-74235771D02*
X173380953Y-74283390D01*
X173380953Y-74283390D02*
X173285715Y-74331009D01*
X173285715Y-74331009D02*
X172952382Y-74331009D01*
X173904763Y-73950057D02*
X173952382Y-73902438D01*
X173952382Y-73902438D02*
X174047620Y-73854819D01*
X174047620Y-73854819D02*
X174285715Y-73854819D01*
X174285715Y-73854819D02*
X174380953Y-73902438D01*
X174380953Y-73902438D02*
X174428572Y-73950057D01*
X174428572Y-73950057D02*
X174476191Y-74045295D01*
X174476191Y-74045295D02*
X174476191Y-74140533D01*
X174476191Y-74140533D02*
X174428572Y-74283390D01*
X174428572Y-74283390D02*
X173857144Y-74854819D01*
X173857144Y-74854819D02*
X174476191Y-74854819D01*
X174904763Y-74759580D02*
X174952382Y-74807200D01*
X174952382Y-74807200D02*
X174904763Y-74854819D01*
X174904763Y-74854819D02*
X174857144Y-74807200D01*
X174857144Y-74807200D02*
X174904763Y-74759580D01*
X174904763Y-74759580D02*
X174904763Y-74854819D01*
X175571429Y-73854819D02*
X175666667Y-73854819D01*
X175666667Y-73854819D02*
X175761905Y-73902438D01*
X175761905Y-73902438D02*
X175809524Y-73950057D01*
X175809524Y-73950057D02*
X175857143Y-74045295D01*
X175857143Y-74045295D02*
X175904762Y-74235771D01*
X175904762Y-74235771D02*
X175904762Y-74473866D01*
X175904762Y-74473866D02*
X175857143Y-74664342D01*
X175857143Y-74664342D02*
X175809524Y-74759580D01*
X175809524Y-74759580D02*
X175761905Y-74807200D01*
X175761905Y-74807200D02*
X175666667Y-74854819D01*
X175666667Y-74854819D02*
X175571429Y-74854819D01*
X175571429Y-74854819D02*
X175476191Y-74807200D01*
X175476191Y-74807200D02*
X175428572Y-74759580D01*
X175428572Y-74759580D02*
X175380953Y-74664342D01*
X175380953Y-74664342D02*
X175333334Y-74473866D01*
X175333334Y-74473866D02*
X175333334Y-74235771D01*
X175333334Y-74235771D02*
X175380953Y-74045295D01*
X175380953Y-74045295D02*
X175428572Y-73950057D01*
X175428572Y-73950057D02*
X175476191Y-73902438D01*
X175476191Y-73902438D02*
X175571429Y-73854819D01*
X176095239Y-74950057D02*
X176857143Y-74950057D01*
X177619048Y-74854819D02*
X177047620Y-74854819D01*
X177333334Y-74854819D02*
X177333334Y-73854819D01*
X177333334Y-73854819D02*
X177238096Y-73997676D01*
X177238096Y-73997676D02*
X177142858Y-74092914D01*
X177142858Y-74092914D02*
X177047620Y-74140533D01*
X178476191Y-74188152D02*
X178476191Y-74854819D01*
X178238096Y-73807200D02*
X178000001Y-74521485D01*
X178000001Y-74521485D02*
X178619048Y-74521485D01*
X179000001Y-74854819D02*
X179000001Y-73854819D01*
X179000001Y-73854819D02*
X179380953Y-73854819D01*
X179380953Y-73854819D02*
X179476191Y-73902438D01*
X179476191Y-73902438D02*
X179523810Y-73950057D01*
X179523810Y-73950057D02*
X179571429Y-74045295D01*
X179571429Y-74045295D02*
X179571429Y-74188152D01*
X179571429Y-74188152D02*
X179523810Y-74283390D01*
X179523810Y-74283390D02*
X179476191Y-74331009D01*
X179476191Y-74331009D02*
X179380953Y-74378628D01*
X179380953Y-74378628D02*
X179000001Y-74378628D01*
X167666666Y-78954819D02*
X167666666Y-79669104D01*
X167666666Y-79669104D02*
X167619047Y-79811961D01*
X167619047Y-79811961D02*
X167523809Y-79907200D01*
X167523809Y-79907200D02*
X167380952Y-79954819D01*
X167380952Y-79954819D02*
X167285714Y-79954819D01*
X168666666Y-79954819D02*
X168095238Y-79954819D01*
X168380952Y-79954819D02*
X168380952Y-78954819D01*
X168380952Y-78954819D02*
X168285714Y-79097676D01*
X168285714Y-79097676D02*
X168190476Y-79192914D01*
X168190476Y-79192914D02*
X168095238Y-79240533D01*
X168124819Y-86680952D02*
X168124819Y-87157142D01*
X168124819Y-87157142D02*
X168601009Y-87204761D01*
X168601009Y-87204761D02*
X168553390Y-87157142D01*
X168553390Y-87157142D02*
X168505771Y-87061904D01*
X168505771Y-87061904D02*
X168505771Y-86823809D01*
X168505771Y-86823809D02*
X168553390Y-86728571D01*
X168553390Y-86728571D02*
X168601009Y-86680952D01*
X168601009Y-86680952D02*
X168696247Y-86633333D01*
X168696247Y-86633333D02*
X168934342Y-86633333D01*
X168934342Y-86633333D02*
X169029580Y-86680952D01*
X169029580Y-86680952D02*
X169077200Y-86728571D01*
X169077200Y-86728571D02*
X169124819Y-86823809D01*
X169124819Y-86823809D02*
X169124819Y-87061904D01*
X169124819Y-87061904D02*
X169077200Y-87157142D01*
X169077200Y-87157142D02*
X169029580Y-87204761D01*
X169029580Y-86204761D02*
X169077200Y-86157142D01*
X169077200Y-86157142D02*
X169124819Y-86204761D01*
X169124819Y-86204761D02*
X169077200Y-86252380D01*
X169077200Y-86252380D02*
X169029580Y-86204761D01*
X169029580Y-86204761D02*
X169124819Y-86204761D01*
X169124819Y-85204762D02*
X169124819Y-85776190D01*
X169124819Y-85490476D02*
X168124819Y-85490476D01*
X168124819Y-85490476D02*
X168267676Y-85585714D01*
X168267676Y-85585714D02*
X168362914Y-85680952D01*
X168362914Y-85680952D02*
X168410533Y-85776190D01*
X169124819Y-84776190D02*
X168124819Y-84776190D01*
X168743866Y-84680952D02*
X169124819Y-84395238D01*
X168458152Y-84395238D02*
X168839104Y-84776190D01*
D11*
X167618200Y-85843332D02*
X167494391Y-85929999D01*
X167618200Y-85991904D02*
X167358200Y-85991904D01*
X167358200Y-85991904D02*
X167358200Y-85892856D01*
X167358200Y-85892856D02*
X167370581Y-85868094D01*
X167370581Y-85868094D02*
X167382962Y-85855713D01*
X167382962Y-85855713D02*
X167407724Y-85843332D01*
X167407724Y-85843332D02*
X167444867Y-85843332D01*
X167444867Y-85843332D02*
X167469629Y-85855713D01*
X167469629Y-85855713D02*
X167482010Y-85868094D01*
X167482010Y-85868094D02*
X167494391Y-85892856D01*
X167494391Y-85892856D02*
X167494391Y-85991904D01*
X167618200Y-85595713D02*
X167618200Y-85744285D01*
X167618200Y-85669999D02*
X167358200Y-85669999D01*
X167358200Y-85669999D02*
X167395343Y-85694761D01*
X167395343Y-85694761D02*
X167420105Y-85719523D01*
X167420105Y-85719523D02*
X167432486Y-85744285D01*
D10*
X163909761Y-94324819D02*
X163338333Y-94324819D01*
X163624047Y-94324819D02*
X163624047Y-93324819D01*
X163624047Y-93324819D02*
X163528809Y-93467676D01*
X163528809Y-93467676D02*
X163433571Y-93562914D01*
X163433571Y-93562914D02*
X163338333Y-93610533D01*
X164528809Y-93324819D02*
X164624047Y-93324819D01*
X164624047Y-93324819D02*
X164719285Y-93372438D01*
X164719285Y-93372438D02*
X164766904Y-93420057D01*
X164766904Y-93420057D02*
X164814523Y-93515295D01*
X164814523Y-93515295D02*
X164862142Y-93705771D01*
X164862142Y-93705771D02*
X164862142Y-93943866D01*
X164862142Y-93943866D02*
X164814523Y-94134342D01*
X164814523Y-94134342D02*
X164766904Y-94229580D01*
X164766904Y-94229580D02*
X164719285Y-94277200D01*
X164719285Y-94277200D02*
X164624047Y-94324819D01*
X164624047Y-94324819D02*
X164528809Y-94324819D01*
X164528809Y-94324819D02*
X164433571Y-94277200D01*
X164433571Y-94277200D02*
X164385952Y-94229580D01*
X164385952Y-94229580D02*
X164338333Y-94134342D01*
X164338333Y-94134342D02*
X164290714Y-93943866D01*
X164290714Y-93943866D02*
X164290714Y-93705771D01*
X164290714Y-93705771D02*
X164338333Y-93515295D01*
X164338333Y-93515295D02*
X164385952Y-93420057D01*
X164385952Y-93420057D02*
X164433571Y-93372438D01*
X164433571Y-93372438D02*
X164528809Y-93324819D01*
X165290714Y-94324819D02*
X165290714Y-93324819D01*
X165385952Y-93943866D02*
X165671666Y-94324819D01*
X165671666Y-93658152D02*
X165290714Y-94039104D01*
D11*
X164461667Y-92818200D02*
X164375000Y-92694391D01*
X164313095Y-92818200D02*
X164313095Y-92558200D01*
X164313095Y-92558200D02*
X164412143Y-92558200D01*
X164412143Y-92558200D02*
X164436905Y-92570581D01*
X164436905Y-92570581D02*
X164449286Y-92582962D01*
X164449286Y-92582962D02*
X164461667Y-92607724D01*
X164461667Y-92607724D02*
X164461667Y-92644867D01*
X164461667Y-92644867D02*
X164449286Y-92669629D01*
X164449286Y-92669629D02*
X164436905Y-92682010D01*
X164436905Y-92682010D02*
X164412143Y-92694391D01*
X164412143Y-92694391D02*
X164313095Y-92694391D01*
X164684524Y-92558200D02*
X164635000Y-92558200D01*
X164635000Y-92558200D02*
X164610238Y-92570581D01*
X164610238Y-92570581D02*
X164597857Y-92582962D01*
X164597857Y-92582962D02*
X164573095Y-92620105D01*
X164573095Y-92620105D02*
X164560714Y-92669629D01*
X164560714Y-92669629D02*
X164560714Y-92768677D01*
X164560714Y-92768677D02*
X164573095Y-92793439D01*
X164573095Y-92793439D02*
X164585476Y-92805820D01*
X164585476Y-92805820D02*
X164610238Y-92818200D01*
X164610238Y-92818200D02*
X164659762Y-92818200D01*
X164659762Y-92818200D02*
X164684524Y-92805820D01*
X164684524Y-92805820D02*
X164696905Y-92793439D01*
X164696905Y-92793439D02*
X164709286Y-92768677D01*
X164709286Y-92768677D02*
X164709286Y-92706772D01*
X164709286Y-92706772D02*
X164696905Y-92682010D01*
X164696905Y-92682010D02*
X164684524Y-92669629D01*
X164684524Y-92669629D02*
X164659762Y-92657248D01*
X164659762Y-92657248D02*
X164610238Y-92657248D01*
X164610238Y-92657248D02*
X164585476Y-92669629D01*
X164585476Y-92669629D02*
X164573095Y-92682010D01*
X164573095Y-92682010D02*
X164560714Y-92706772D01*
D10*
X168085714Y-115564819D02*
X167514286Y-115564819D01*
X167800000Y-115564819D02*
X167800000Y-114564819D01*
X167800000Y-114564819D02*
X167704762Y-114707676D01*
X167704762Y-114707676D02*
X167609524Y-114802914D01*
X167609524Y-114802914D02*
X167514286Y-114850533D01*
X168514286Y-115564819D02*
X168514286Y-114564819D01*
X169085714Y-115564819D02*
X168657143Y-114993390D01*
X169085714Y-114564819D02*
X168514286Y-115136247D01*
D11*
X168256667Y-112918200D02*
X168170000Y-112794391D01*
X168108095Y-112918200D02*
X168108095Y-112658200D01*
X168108095Y-112658200D02*
X168207143Y-112658200D01*
X168207143Y-112658200D02*
X168231905Y-112670581D01*
X168231905Y-112670581D02*
X168244286Y-112682962D01*
X168244286Y-112682962D02*
X168256667Y-112707724D01*
X168256667Y-112707724D02*
X168256667Y-112744867D01*
X168256667Y-112744867D02*
X168244286Y-112769629D01*
X168244286Y-112769629D02*
X168231905Y-112782010D01*
X168231905Y-112782010D02*
X168207143Y-112794391D01*
X168207143Y-112794391D02*
X168108095Y-112794391D01*
X168491905Y-112658200D02*
X168368095Y-112658200D01*
X168368095Y-112658200D02*
X168355714Y-112782010D01*
X168355714Y-112782010D02*
X168368095Y-112769629D01*
X168368095Y-112769629D02*
X168392857Y-112757248D01*
X168392857Y-112757248D02*
X168454762Y-112757248D01*
X168454762Y-112757248D02*
X168479524Y-112769629D01*
X168479524Y-112769629D02*
X168491905Y-112782010D01*
X168491905Y-112782010D02*
X168504286Y-112806772D01*
X168504286Y-112806772D02*
X168504286Y-112868677D01*
X168504286Y-112868677D02*
X168491905Y-112893439D01*
X168491905Y-112893439D02*
X168479524Y-112905820D01*
X168479524Y-112905820D02*
X168454762Y-112918200D01*
X168454762Y-112918200D02*
X168392857Y-112918200D01*
X168392857Y-112918200D02*
X168368095Y-112905820D01*
X168368095Y-112905820D02*
X168355714Y-112893439D01*
D10*
X161157143Y-98879819D02*
X161395238Y-99879819D01*
X161395238Y-99879819D02*
X161585714Y-99165533D01*
X161585714Y-99165533D02*
X161776190Y-99879819D01*
X161776190Y-99879819D02*
X162014286Y-98879819D01*
X162347619Y-98975057D02*
X162395238Y-98927438D01*
X162395238Y-98927438D02*
X162490476Y-98879819D01*
X162490476Y-98879819D02*
X162728571Y-98879819D01*
X162728571Y-98879819D02*
X162823809Y-98927438D01*
X162823809Y-98927438D02*
X162871428Y-98975057D01*
X162871428Y-98975057D02*
X162919047Y-99070295D01*
X162919047Y-99070295D02*
X162919047Y-99165533D01*
X162919047Y-99165533D02*
X162871428Y-99308390D01*
X162871428Y-99308390D02*
X162300000Y-99879819D01*
X162300000Y-99879819D02*
X162919047Y-99879819D01*
X163823809Y-98879819D02*
X163347619Y-98879819D01*
X163347619Y-98879819D02*
X163300000Y-99356009D01*
X163300000Y-99356009D02*
X163347619Y-99308390D01*
X163347619Y-99308390D02*
X163442857Y-99260771D01*
X163442857Y-99260771D02*
X163680952Y-99260771D01*
X163680952Y-99260771D02*
X163776190Y-99308390D01*
X163776190Y-99308390D02*
X163823809Y-99356009D01*
X163823809Y-99356009D02*
X163871428Y-99451247D01*
X163871428Y-99451247D02*
X163871428Y-99689342D01*
X163871428Y-99689342D02*
X163823809Y-99784580D01*
X163823809Y-99784580D02*
X163776190Y-99832200D01*
X163776190Y-99832200D02*
X163680952Y-99879819D01*
X163680952Y-99879819D02*
X163442857Y-99879819D01*
X163442857Y-99879819D02*
X163347619Y-99832200D01*
X163347619Y-99832200D02*
X163300000Y-99784580D01*
X164966666Y-99975057D02*
X164871428Y-99927438D01*
X164871428Y-99927438D02*
X164776190Y-99832200D01*
X164776190Y-99832200D02*
X164633333Y-99689342D01*
X164633333Y-99689342D02*
X164538095Y-99641723D01*
X164538095Y-99641723D02*
X164442857Y-99641723D01*
X164490476Y-99879819D02*
X164395238Y-99832200D01*
X164395238Y-99832200D02*
X164300000Y-99736961D01*
X164300000Y-99736961D02*
X164252381Y-99546485D01*
X164252381Y-99546485D02*
X164252381Y-99213152D01*
X164252381Y-99213152D02*
X164300000Y-99022676D01*
X164300000Y-99022676D02*
X164395238Y-98927438D01*
X164395238Y-98927438D02*
X164490476Y-98879819D01*
X164490476Y-98879819D02*
X164680952Y-98879819D01*
X164680952Y-98879819D02*
X164776190Y-98927438D01*
X164776190Y-98927438D02*
X164871428Y-99022676D01*
X164871428Y-99022676D02*
X164919047Y-99213152D01*
X164919047Y-99213152D02*
X164919047Y-99546485D01*
X164919047Y-99546485D02*
X164871428Y-99736961D01*
X164871428Y-99736961D02*
X164776190Y-99832200D01*
X164776190Y-99832200D02*
X164680952Y-99879819D01*
X164680952Y-99879819D02*
X164490476Y-99879819D01*
X165871428Y-99879819D02*
X165300000Y-99879819D01*
X165585714Y-99879819D02*
X165585714Y-98879819D01*
X165585714Y-98879819D02*
X165490476Y-99022676D01*
X165490476Y-99022676D02*
X165395238Y-99117914D01*
X165395238Y-99117914D02*
X165300000Y-99165533D01*
X166252381Y-98975057D02*
X166300000Y-98927438D01*
X166300000Y-98927438D02*
X166395238Y-98879819D01*
X166395238Y-98879819D02*
X166633333Y-98879819D01*
X166633333Y-98879819D02*
X166728571Y-98927438D01*
X166728571Y-98927438D02*
X166776190Y-98975057D01*
X166776190Y-98975057D02*
X166823809Y-99070295D01*
X166823809Y-99070295D02*
X166823809Y-99165533D01*
X166823809Y-99165533D02*
X166776190Y-99308390D01*
X166776190Y-99308390D02*
X166204762Y-99879819D01*
X166204762Y-99879819D02*
X166823809Y-99879819D01*
X167395238Y-99308390D02*
X167300000Y-99260771D01*
X167300000Y-99260771D02*
X167252381Y-99213152D01*
X167252381Y-99213152D02*
X167204762Y-99117914D01*
X167204762Y-99117914D02*
X167204762Y-99070295D01*
X167204762Y-99070295D02*
X167252381Y-98975057D01*
X167252381Y-98975057D02*
X167300000Y-98927438D01*
X167300000Y-98927438D02*
X167395238Y-98879819D01*
X167395238Y-98879819D02*
X167585714Y-98879819D01*
X167585714Y-98879819D02*
X167680952Y-98927438D01*
X167680952Y-98927438D02*
X167728571Y-98975057D01*
X167728571Y-98975057D02*
X167776190Y-99070295D01*
X167776190Y-99070295D02*
X167776190Y-99117914D01*
X167776190Y-99117914D02*
X167728571Y-99213152D01*
X167728571Y-99213152D02*
X167680952Y-99260771D01*
X167680952Y-99260771D02*
X167585714Y-99308390D01*
X167585714Y-99308390D02*
X167395238Y-99308390D01*
X167395238Y-99308390D02*
X167300000Y-99356009D01*
X167300000Y-99356009D02*
X167252381Y-99403628D01*
X167252381Y-99403628D02*
X167204762Y-99498866D01*
X167204762Y-99498866D02*
X167204762Y-99689342D01*
X167204762Y-99689342D02*
X167252381Y-99784580D01*
X167252381Y-99784580D02*
X167300000Y-99832200D01*
X167300000Y-99832200D02*
X167395238Y-99879819D01*
X167395238Y-99879819D02*
X167585714Y-99879819D01*
X167585714Y-99879819D02*
X167680952Y-99832200D01*
X167680952Y-99832200D02*
X167728571Y-99784580D01*
X167728571Y-99784580D02*
X167776190Y-99689342D01*
X167776190Y-99689342D02*
X167776190Y-99498866D01*
X167776190Y-99498866D02*
X167728571Y-99403628D01*
X167728571Y-99403628D02*
X167680952Y-99356009D01*
X167680952Y-99356009D02*
X167585714Y-99308390D01*
X168490476Y-98879819D02*
X168490476Y-99594104D01*
X168490476Y-99594104D02*
X168442857Y-99736961D01*
X168442857Y-99736961D02*
X168347619Y-99832200D01*
X168347619Y-99832200D02*
X168204762Y-99879819D01*
X168204762Y-99879819D02*
X168109524Y-99879819D01*
X168823810Y-98879819D02*
X169157143Y-99879819D01*
X169157143Y-99879819D02*
X169490476Y-98879819D01*
X169823810Y-99879819D02*
X169823810Y-98879819D01*
X169823810Y-98879819D02*
X170204762Y-98879819D01*
X170204762Y-98879819D02*
X170300000Y-98927438D01*
X170300000Y-98927438D02*
X170347619Y-98975057D01*
X170347619Y-98975057D02*
X170395238Y-99070295D01*
X170395238Y-99070295D02*
X170395238Y-99213152D01*
X170395238Y-99213152D02*
X170347619Y-99308390D01*
X170347619Y-99308390D02*
X170300000Y-99356009D01*
X170300000Y-99356009D02*
X170204762Y-99403628D01*
X170204762Y-99403628D02*
X169823810Y-99403628D01*
X165038095Y-95429819D02*
X165038095Y-96239342D01*
X165038095Y-96239342D02*
X165085714Y-96334580D01*
X165085714Y-96334580D02*
X165133333Y-96382200D01*
X165133333Y-96382200D02*
X165228571Y-96429819D01*
X165228571Y-96429819D02*
X165419047Y-96429819D01*
X165419047Y-96429819D02*
X165514285Y-96382200D01*
X165514285Y-96382200D02*
X165561904Y-96334580D01*
X165561904Y-96334580D02*
X165609523Y-96239342D01*
X165609523Y-96239342D02*
X165609523Y-95429819D01*
X165990476Y-95429819D02*
X166609523Y-95429819D01*
X166609523Y-95429819D02*
X166276190Y-95810771D01*
X166276190Y-95810771D02*
X166419047Y-95810771D01*
X166419047Y-95810771D02*
X166514285Y-95858390D01*
X166514285Y-95858390D02*
X166561904Y-95906009D01*
X166561904Y-95906009D02*
X166609523Y-96001247D01*
X166609523Y-96001247D02*
X166609523Y-96239342D01*
X166609523Y-96239342D02*
X166561904Y-96334580D01*
X166561904Y-96334580D02*
X166514285Y-96382200D01*
X166514285Y-96382200D02*
X166419047Y-96429819D01*
X166419047Y-96429819D02*
X166133333Y-96429819D01*
X166133333Y-96429819D02*
X166038095Y-96382200D01*
X166038095Y-96382200D02*
X165990476Y-96334580D01*
X169420057Y-102051904D02*
X169372438Y-102004285D01*
X169372438Y-102004285D02*
X169324819Y-101909047D01*
X169324819Y-101909047D02*
X169324819Y-101670952D01*
X169324819Y-101670952D02*
X169372438Y-101575714D01*
X169372438Y-101575714D02*
X169420057Y-101528095D01*
X169420057Y-101528095D02*
X169515295Y-101480476D01*
X169515295Y-101480476D02*
X169610533Y-101480476D01*
X169610533Y-101480476D02*
X169753390Y-101528095D01*
X169753390Y-101528095D02*
X170324819Y-102099523D01*
X170324819Y-102099523D02*
X170324819Y-101480476D01*
X169324819Y-101147142D02*
X169324819Y-100480476D01*
X169324819Y-100480476D02*
X170324819Y-100909047D01*
D11*
X168818200Y-101333332D02*
X168694391Y-101419999D01*
X168818200Y-101481904D02*
X168558200Y-101481904D01*
X168558200Y-101481904D02*
X168558200Y-101382856D01*
X168558200Y-101382856D02*
X168570581Y-101358094D01*
X168570581Y-101358094D02*
X168582962Y-101345713D01*
X168582962Y-101345713D02*
X168607724Y-101333332D01*
X168607724Y-101333332D02*
X168644867Y-101333332D01*
X168644867Y-101333332D02*
X168669629Y-101345713D01*
X168669629Y-101345713D02*
X168682010Y-101358094D01*
X168682010Y-101358094D02*
X168694391Y-101382856D01*
X168694391Y-101382856D02*
X168694391Y-101481904D01*
X168644867Y-101110475D02*
X168818200Y-101110475D01*
X168545820Y-101172380D02*
X168731534Y-101234285D01*
X168731534Y-101234285D02*
X168731534Y-101073332D01*
D10*
X170504819Y-116810475D02*
X170504819Y-116191428D01*
X170504819Y-116191428D02*
X170885771Y-116524761D01*
X170885771Y-116524761D02*
X170885771Y-116381904D01*
X170885771Y-116381904D02*
X170933390Y-116286666D01*
X170933390Y-116286666D02*
X170981009Y-116239047D01*
X170981009Y-116239047D02*
X171076247Y-116191428D01*
X171076247Y-116191428D02*
X171314342Y-116191428D01*
X171314342Y-116191428D02*
X171409580Y-116239047D01*
X171409580Y-116239047D02*
X171457200Y-116286666D01*
X171457200Y-116286666D02*
X171504819Y-116381904D01*
X171504819Y-116381904D02*
X171504819Y-116667618D01*
X171504819Y-116667618D02*
X171457200Y-116762856D01*
X171457200Y-116762856D02*
X171409580Y-116810475D01*
X170504819Y-115858094D02*
X170504819Y-115239047D01*
X170504819Y-115239047D02*
X170885771Y-115572380D01*
X170885771Y-115572380D02*
X170885771Y-115429523D01*
X170885771Y-115429523D02*
X170933390Y-115334285D01*
X170933390Y-115334285D02*
X170981009Y-115286666D01*
X170981009Y-115286666D02*
X171076247Y-115239047D01*
X171076247Y-115239047D02*
X171314342Y-115239047D01*
X171314342Y-115239047D02*
X171409580Y-115286666D01*
X171409580Y-115286666D02*
X171457200Y-115334285D01*
X171457200Y-115334285D02*
X171504819Y-115429523D01*
X171504819Y-115429523D02*
X171504819Y-115715237D01*
X171504819Y-115715237D02*
X171457200Y-115810475D01*
X171457200Y-115810475D02*
X171409580Y-115858094D01*
X170838152Y-114810475D02*
X171838152Y-114810475D01*
X170885771Y-114810475D02*
X170838152Y-114715237D01*
X170838152Y-114715237D02*
X170838152Y-114524761D01*
X170838152Y-114524761D02*
X170885771Y-114429523D01*
X170885771Y-114429523D02*
X170933390Y-114381904D01*
X170933390Y-114381904D02*
X171028628Y-114334285D01*
X171028628Y-114334285D02*
X171314342Y-114334285D01*
X171314342Y-114334285D02*
X171409580Y-114381904D01*
X171409580Y-114381904D02*
X171457200Y-114429523D01*
X171457200Y-114429523D02*
X171504819Y-114524761D01*
X171504819Y-114524761D02*
X171504819Y-114715237D01*
X171504819Y-114715237D02*
X171457200Y-114810475D01*
X170981009Y-113572380D02*
X170981009Y-113905713D01*
X171504819Y-113905713D02*
X170504819Y-113905713D01*
X170504819Y-113905713D02*
X170504819Y-113429523D01*
D11*
X169979765Y-115280714D02*
X169991670Y-115292618D01*
X169991670Y-115292618D02*
X170003574Y-115328333D01*
X170003574Y-115328333D02*
X170003574Y-115352142D01*
X170003574Y-115352142D02*
X169991670Y-115387856D01*
X169991670Y-115387856D02*
X169967860Y-115411666D01*
X169967860Y-115411666D02*
X169944050Y-115423571D01*
X169944050Y-115423571D02*
X169896431Y-115435475D01*
X169896431Y-115435475D02*
X169860717Y-115435475D01*
X169860717Y-115435475D02*
X169813098Y-115423571D01*
X169813098Y-115423571D02*
X169789289Y-115411666D01*
X169789289Y-115411666D02*
X169765479Y-115387856D01*
X169765479Y-115387856D02*
X169753574Y-115352142D01*
X169753574Y-115352142D02*
X169753574Y-115328333D01*
X169753574Y-115328333D02*
X169765479Y-115292618D01*
X169765479Y-115292618D02*
X169777384Y-115280714D01*
X170003574Y-115042618D02*
X170003574Y-115185475D01*
X170003574Y-115114047D02*
X169753574Y-115114047D01*
X169753574Y-115114047D02*
X169789289Y-115137856D01*
X169789289Y-115137856D02*
X169813098Y-115161666D01*
X169813098Y-115161666D02*
X169825003Y-115185475D01*
X169753574Y-114828333D02*
X169753574Y-114875952D01*
X169753574Y-114875952D02*
X169765479Y-114899761D01*
X169765479Y-114899761D02*
X169777384Y-114911666D01*
X169777384Y-114911666D02*
X169813098Y-114935476D01*
X169813098Y-114935476D02*
X169860717Y-114947380D01*
X169860717Y-114947380D02*
X169955955Y-114947380D01*
X169955955Y-114947380D02*
X169979765Y-114935476D01*
X169979765Y-114935476D02*
X169991670Y-114923571D01*
X169991670Y-114923571D02*
X170003574Y-114899761D01*
X170003574Y-114899761D02*
X170003574Y-114852142D01*
X170003574Y-114852142D02*
X169991670Y-114828333D01*
X169991670Y-114828333D02*
X169979765Y-114816428D01*
X169979765Y-114816428D02*
X169955955Y-114804523D01*
X169955955Y-114804523D02*
X169896431Y-114804523D01*
X169896431Y-114804523D02*
X169872622Y-114816428D01*
X169872622Y-114816428D02*
X169860717Y-114828333D01*
X169860717Y-114828333D02*
X169848812Y-114852142D01*
X169848812Y-114852142D02*
X169848812Y-114899761D01*
X169848812Y-114899761D02*
X169860717Y-114923571D01*
X169860717Y-114923571D02*
X169872622Y-114935476D01*
X169872622Y-114935476D02*
X169896431Y-114947380D01*
D10*
X165904761Y-111784819D02*
X165571428Y-111308628D01*
X165333333Y-111784819D02*
X165333333Y-110784819D01*
X165333333Y-110784819D02*
X165714285Y-110784819D01*
X165714285Y-110784819D02*
X165809523Y-110832438D01*
X165809523Y-110832438D02*
X165857142Y-110880057D01*
X165857142Y-110880057D02*
X165904761Y-110975295D01*
X165904761Y-110975295D02*
X165904761Y-111118152D01*
X165904761Y-111118152D02*
X165857142Y-111213390D01*
X165857142Y-111213390D02*
X165809523Y-111261009D01*
X165809523Y-111261009D02*
X165714285Y-111308628D01*
X165714285Y-111308628D02*
X165333333Y-111308628D01*
X166333333Y-111784819D02*
X166333333Y-110784819D01*
X166333333Y-110784819D02*
X166714285Y-110784819D01*
X166714285Y-110784819D02*
X166809523Y-110832438D01*
X166809523Y-110832438D02*
X166857142Y-110880057D01*
X166857142Y-110880057D02*
X166904761Y-110975295D01*
X166904761Y-110975295D02*
X166904761Y-111118152D01*
X166904761Y-111118152D02*
X166857142Y-111213390D01*
X166857142Y-111213390D02*
X166809523Y-111261009D01*
X166809523Y-111261009D02*
X166714285Y-111308628D01*
X166714285Y-111308628D02*
X166333333Y-111308628D01*
X167285714Y-110880057D02*
X167333333Y-110832438D01*
X167333333Y-110832438D02*
X167428571Y-110784819D01*
X167428571Y-110784819D02*
X167666666Y-110784819D01*
X167666666Y-110784819D02*
X167761904Y-110832438D01*
X167761904Y-110832438D02*
X167809523Y-110880057D01*
X167809523Y-110880057D02*
X167857142Y-110975295D01*
X167857142Y-110975295D02*
X167857142Y-111070533D01*
X167857142Y-111070533D02*
X167809523Y-111213390D01*
X167809523Y-111213390D02*
X167238095Y-111784819D01*
X167238095Y-111784819D02*
X167857142Y-111784819D01*
X168476190Y-110784819D02*
X168571428Y-110784819D01*
X168571428Y-110784819D02*
X168666666Y-110832438D01*
X168666666Y-110832438D02*
X168714285Y-110880057D01*
X168714285Y-110880057D02*
X168761904Y-110975295D01*
X168761904Y-110975295D02*
X168809523Y-111165771D01*
X168809523Y-111165771D02*
X168809523Y-111403866D01*
X168809523Y-111403866D02*
X168761904Y-111594342D01*
X168761904Y-111594342D02*
X168714285Y-111689580D01*
X168714285Y-111689580D02*
X168666666Y-111737200D01*
X168666666Y-111737200D02*
X168571428Y-111784819D01*
X168571428Y-111784819D02*
X168476190Y-111784819D01*
X168476190Y-111784819D02*
X168380952Y-111737200D01*
X168380952Y-111737200D02*
X168333333Y-111689580D01*
X168333333Y-111689580D02*
X168285714Y-111594342D01*
X168285714Y-111594342D02*
X168238095Y-111403866D01*
X168238095Y-111403866D02*
X168238095Y-111165771D01*
X168238095Y-111165771D02*
X168285714Y-110975295D01*
X168285714Y-110975295D02*
X168333333Y-110880057D01*
X168333333Y-110880057D02*
X168380952Y-110832438D01*
X168380952Y-110832438D02*
X168476190Y-110784819D01*
X169666666Y-111118152D02*
X169666666Y-111784819D01*
X169428571Y-110737200D02*
X169190476Y-111451485D01*
X169190476Y-111451485D02*
X169809523Y-111451485D01*
X170380952Y-110784819D02*
X170476190Y-110784819D01*
X170476190Y-110784819D02*
X170571428Y-110832438D01*
X170571428Y-110832438D02*
X170619047Y-110880057D01*
X170619047Y-110880057D02*
X170666666Y-110975295D01*
X170666666Y-110975295D02*
X170714285Y-111165771D01*
X170714285Y-111165771D02*
X170714285Y-111403866D01*
X170714285Y-111403866D02*
X170666666Y-111594342D01*
X170666666Y-111594342D02*
X170619047Y-111689580D01*
X170619047Y-111689580D02*
X170571428Y-111737200D01*
X170571428Y-111737200D02*
X170476190Y-111784819D01*
X170476190Y-111784819D02*
X170380952Y-111784819D01*
X170380952Y-111784819D02*
X170285714Y-111737200D01*
X170285714Y-111737200D02*
X170238095Y-111689580D01*
X170238095Y-111689580D02*
X170190476Y-111594342D01*
X170190476Y-111594342D02*
X170142857Y-111403866D01*
X170142857Y-111403866D02*
X170142857Y-111165771D01*
X170142857Y-111165771D02*
X170190476Y-110975295D01*
X170190476Y-110975295D02*
X170238095Y-110880057D01*
X170238095Y-110880057D02*
X170285714Y-110832438D01*
X170285714Y-110832438D02*
X170380952Y-110784819D01*
X167238095Y-105954819D02*
X167238095Y-106764342D01*
X167238095Y-106764342D02*
X167285714Y-106859580D01*
X167285714Y-106859580D02*
X167333333Y-106907200D01*
X167333333Y-106907200D02*
X167428571Y-106954819D01*
X167428571Y-106954819D02*
X167619047Y-106954819D01*
X167619047Y-106954819D02*
X167714285Y-106907200D01*
X167714285Y-106907200D02*
X167761904Y-106859580D01*
X167761904Y-106859580D02*
X167809523Y-106764342D01*
X167809523Y-106764342D02*
X167809523Y-105954819D01*
X168809523Y-106954819D02*
X168238095Y-106954819D01*
X168523809Y-106954819D02*
X168523809Y-105954819D01*
X168523809Y-105954819D02*
X168428571Y-106097676D01*
X168428571Y-106097676D02*
X168333333Y-106192914D01*
X168333333Y-106192914D02*
X168238095Y-106240533D01*
X171670952Y-90284819D02*
X171099524Y-90284819D01*
X171385238Y-90284819D02*
X171385238Y-89284819D01*
X171385238Y-89284819D02*
X171290000Y-89427676D01*
X171290000Y-89427676D02*
X171194762Y-89522914D01*
X171194762Y-89522914D02*
X171099524Y-89570533D01*
X172099524Y-90284819D02*
X172099524Y-89284819D01*
X172194762Y-89903866D02*
X172480476Y-90284819D01*
X172480476Y-89618152D02*
X172099524Y-89999104D01*
D11*
X171746667Y-91118200D02*
X171660000Y-90994391D01*
X171598095Y-91118200D02*
X171598095Y-90858200D01*
X171598095Y-90858200D02*
X171697143Y-90858200D01*
X171697143Y-90858200D02*
X171721905Y-90870581D01*
X171721905Y-90870581D02*
X171734286Y-90882962D01*
X171734286Y-90882962D02*
X171746667Y-90907724D01*
X171746667Y-90907724D02*
X171746667Y-90944867D01*
X171746667Y-90944867D02*
X171734286Y-90969629D01*
X171734286Y-90969629D02*
X171721905Y-90982010D01*
X171721905Y-90982010D02*
X171697143Y-90994391D01*
X171697143Y-90994391D02*
X171598095Y-90994391D01*
X171833333Y-90858200D02*
X172006667Y-90858200D01*
X172006667Y-90858200D02*
X171895238Y-91118200D01*
D10*
X173582556Y-101301142D02*
X173178495Y-101705203D01*
X173380526Y-101503172D02*
X172673419Y-100796066D01*
X172673419Y-100796066D02*
X172707091Y-100964424D01*
X172707091Y-100964424D02*
X172707091Y-101099111D01*
X172707091Y-101099111D02*
X172673419Y-101200127D01*
X173717243Y-100223646D02*
X174188648Y-100695050D01*
X173414198Y-100526692D02*
X173784587Y-100897081D01*
X173784587Y-100897081D02*
X173885602Y-100930753D01*
X173885602Y-100930753D02*
X173986617Y-100897081D01*
X173986617Y-100897081D02*
X174087633Y-100796066D01*
X174087633Y-100796066D02*
X174121304Y-100695050D01*
X174121304Y-100695050D02*
X174121304Y-100627707D01*
X173952946Y-99987944D02*
X174222320Y-99718570D01*
X174525365Y-100358333D02*
X173919274Y-99752241D01*
X173919274Y-99752241D02*
X173885602Y-99651226D01*
X173885602Y-99651226D02*
X173919274Y-99550211D01*
X173919274Y-99550211D02*
X173986617Y-99482867D01*
D11*
X172794600Y-99932346D02*
X172794600Y-99949182D01*
X172794600Y-99949182D02*
X172777764Y-99982854D01*
X172777764Y-99982854D02*
X172760928Y-99999690D01*
X172760928Y-99999690D02*
X172727256Y-100016526D01*
X172727256Y-100016526D02*
X172693585Y-100016526D01*
X172693585Y-100016526D02*
X172668331Y-100008108D01*
X172668331Y-100008108D02*
X172626241Y-99982854D01*
X172626241Y-99982854D02*
X172600987Y-99957600D01*
X172600987Y-99957600D02*
X172575733Y-99915511D01*
X172575733Y-99915511D02*
X172567315Y-99890257D01*
X172567315Y-99890257D02*
X172567315Y-99856585D01*
X172567315Y-99856585D02*
X172584151Y-99822913D01*
X172584151Y-99822913D02*
X172600987Y-99806077D01*
X172600987Y-99806077D02*
X172634659Y-99789242D01*
X172634659Y-99789242D02*
X172651495Y-99789242D01*
X172979794Y-99780824D02*
X172878779Y-99881839D01*
X172929287Y-99831331D02*
X172752510Y-99654555D01*
X172752510Y-99654555D02*
X172760928Y-99696644D01*
X172760928Y-99696644D02*
X172760928Y-99730316D01*
X172760928Y-99730316D02*
X172752510Y-99755570D01*
D10*
X170614819Y-97019999D02*
X170614819Y-96924761D01*
X170614819Y-96924761D02*
X170662438Y-96829523D01*
X170662438Y-96829523D02*
X170710057Y-96781904D01*
X170710057Y-96781904D02*
X170805295Y-96734285D01*
X170805295Y-96734285D02*
X170995771Y-96686666D01*
X170995771Y-96686666D02*
X171233866Y-96686666D01*
X171233866Y-96686666D02*
X171424342Y-96734285D01*
X171424342Y-96734285D02*
X171519580Y-96781904D01*
X171519580Y-96781904D02*
X171567200Y-96829523D01*
X171567200Y-96829523D02*
X171614819Y-96924761D01*
X171614819Y-96924761D02*
X171614819Y-97019999D01*
X171614819Y-97019999D02*
X171567200Y-97115237D01*
X171567200Y-97115237D02*
X171519580Y-97162856D01*
X171519580Y-97162856D02*
X171424342Y-97210475D01*
X171424342Y-97210475D02*
X171233866Y-97258094D01*
X171233866Y-97258094D02*
X170995771Y-97258094D01*
X170995771Y-97258094D02*
X170805295Y-97210475D01*
X170805295Y-97210475D02*
X170710057Y-97162856D01*
X170710057Y-97162856D02*
X170662438Y-97115237D01*
X170662438Y-97115237D02*
X170614819Y-97019999D01*
X171519580Y-96258094D02*
X171567200Y-96210475D01*
X171567200Y-96210475D02*
X171614819Y-96258094D01*
X171614819Y-96258094D02*
X171567200Y-96305713D01*
X171567200Y-96305713D02*
X171519580Y-96258094D01*
X171519580Y-96258094D02*
X171614819Y-96258094D01*
X171614819Y-95258095D02*
X171614819Y-95829523D01*
X171614819Y-95543809D02*
X170614819Y-95543809D01*
X170614819Y-95543809D02*
X170757676Y-95639047D01*
X170757676Y-95639047D02*
X170852914Y-95734285D01*
X170852914Y-95734285D02*
X170900533Y-95829523D01*
X170948152Y-94400952D02*
X171614819Y-94400952D01*
X170948152Y-94829523D02*
X171471961Y-94829523D01*
X171471961Y-94829523D02*
X171567200Y-94781904D01*
X171567200Y-94781904D02*
X171614819Y-94686666D01*
X171614819Y-94686666D02*
X171614819Y-94543809D01*
X171614819Y-94543809D02*
X171567200Y-94448571D01*
X171567200Y-94448571D02*
X171519580Y-94400952D01*
X170948152Y-94067618D02*
X170948152Y-93686666D01*
X171614819Y-93924761D02*
X170757676Y-93924761D01*
X170757676Y-93924761D02*
X170662438Y-93877142D01*
X170662438Y-93877142D02*
X170614819Y-93781904D01*
X170614819Y-93781904D02*
X170614819Y-93686666D01*
D11*
X170089765Y-95561666D02*
X170101670Y-95573570D01*
X170101670Y-95573570D02*
X170113574Y-95609285D01*
X170113574Y-95609285D02*
X170113574Y-95633094D01*
X170113574Y-95633094D02*
X170101670Y-95668808D01*
X170101670Y-95668808D02*
X170077860Y-95692618D01*
X170077860Y-95692618D02*
X170054050Y-95704523D01*
X170054050Y-95704523D02*
X170006431Y-95716427D01*
X170006431Y-95716427D02*
X169970717Y-95716427D01*
X169970717Y-95716427D02*
X169923098Y-95704523D01*
X169923098Y-95704523D02*
X169899289Y-95692618D01*
X169899289Y-95692618D02*
X169875479Y-95668808D01*
X169875479Y-95668808D02*
X169863574Y-95633094D01*
X169863574Y-95633094D02*
X169863574Y-95609285D01*
X169863574Y-95609285D02*
X169875479Y-95573570D01*
X169875479Y-95573570D02*
X169887384Y-95561666D01*
X170113574Y-95442618D02*
X170113574Y-95394999D01*
X170113574Y-95394999D02*
X170101670Y-95371189D01*
X170101670Y-95371189D02*
X170089765Y-95359285D01*
X170089765Y-95359285D02*
X170054050Y-95335475D01*
X170054050Y-95335475D02*
X170006431Y-95323570D01*
X170006431Y-95323570D02*
X169911193Y-95323570D01*
X169911193Y-95323570D02*
X169887384Y-95335475D01*
X169887384Y-95335475D02*
X169875479Y-95347380D01*
X169875479Y-95347380D02*
X169863574Y-95371189D01*
X169863574Y-95371189D02*
X169863574Y-95418808D01*
X169863574Y-95418808D02*
X169875479Y-95442618D01*
X169875479Y-95442618D02*
X169887384Y-95454523D01*
X169887384Y-95454523D02*
X169911193Y-95466427D01*
X169911193Y-95466427D02*
X169970717Y-95466427D01*
X169970717Y-95466427D02*
X169994527Y-95454523D01*
X169994527Y-95454523D02*
X170006431Y-95442618D01*
X170006431Y-95442618D02*
X170018336Y-95418808D01*
X170018336Y-95418808D02*
X170018336Y-95371189D01*
X170018336Y-95371189D02*
X170006431Y-95347380D01*
X170006431Y-95347380D02*
X169994527Y-95335475D01*
X169994527Y-95335475D02*
X169970717Y-95323570D01*
D10*
X173151904Y-129369580D02*
X173104285Y-129417200D01*
X173104285Y-129417200D02*
X172961428Y-129464819D01*
X172961428Y-129464819D02*
X172866190Y-129464819D01*
X172866190Y-129464819D02*
X172723333Y-129417200D01*
X172723333Y-129417200D02*
X172628095Y-129321961D01*
X172628095Y-129321961D02*
X172580476Y-129226723D01*
X172580476Y-129226723D02*
X172532857Y-129036247D01*
X172532857Y-129036247D02*
X172532857Y-128893390D01*
X172532857Y-128893390D02*
X172580476Y-128702914D01*
X172580476Y-128702914D02*
X172628095Y-128607676D01*
X172628095Y-128607676D02*
X172723333Y-128512438D01*
X172723333Y-128512438D02*
X172866190Y-128464819D01*
X172866190Y-128464819D02*
X172961428Y-128464819D01*
X172961428Y-128464819D02*
X173104285Y-128512438D01*
X173104285Y-128512438D02*
X173151904Y-128560057D01*
X173723333Y-129464819D02*
X173628095Y-129417200D01*
X173628095Y-129417200D02*
X173580476Y-129369580D01*
X173580476Y-129369580D02*
X173532857Y-129274342D01*
X173532857Y-129274342D02*
X173532857Y-128988628D01*
X173532857Y-128988628D02*
X173580476Y-128893390D01*
X173580476Y-128893390D02*
X173628095Y-128845771D01*
X173628095Y-128845771D02*
X173723333Y-128798152D01*
X173723333Y-128798152D02*
X173866190Y-128798152D01*
X173866190Y-128798152D02*
X173961428Y-128845771D01*
X173961428Y-128845771D02*
X174009047Y-128893390D01*
X174009047Y-128893390D02*
X174056666Y-128988628D01*
X174056666Y-128988628D02*
X174056666Y-129274342D01*
X174056666Y-129274342D02*
X174009047Y-129369580D01*
X174009047Y-129369580D02*
X173961428Y-129417200D01*
X173961428Y-129417200D02*
X173866190Y-129464819D01*
X173866190Y-129464819D02*
X173723333Y-129464819D01*
X174485238Y-128798152D02*
X174485238Y-129464819D01*
X174485238Y-128893390D02*
X174532857Y-128845771D01*
X174532857Y-128845771D02*
X174628095Y-128798152D01*
X174628095Y-128798152D02*
X174770952Y-128798152D01*
X174770952Y-128798152D02*
X174866190Y-128845771D01*
X174866190Y-128845771D02*
X174913809Y-128941009D01*
X174913809Y-128941009D02*
X174913809Y-129464819D01*
X175390000Y-128798152D02*
X175390000Y-129464819D01*
X175390000Y-128893390D02*
X175437619Y-128845771D01*
X175437619Y-128845771D02*
X175532857Y-128798152D01*
X175532857Y-128798152D02*
X175675714Y-128798152D01*
X175675714Y-128798152D02*
X175770952Y-128845771D01*
X175770952Y-128845771D02*
X175818571Y-128941009D01*
X175818571Y-128941009D02*
X175818571Y-129464819D01*
X176056667Y-129560057D02*
X176818571Y-129560057D01*
X177247143Y-128464819D02*
X177342381Y-128464819D01*
X177342381Y-128464819D02*
X177437619Y-128512438D01*
X177437619Y-128512438D02*
X177485238Y-128560057D01*
X177485238Y-128560057D02*
X177532857Y-128655295D01*
X177532857Y-128655295D02*
X177580476Y-128845771D01*
X177580476Y-128845771D02*
X177580476Y-129083866D01*
X177580476Y-129083866D02*
X177532857Y-129274342D01*
X177532857Y-129274342D02*
X177485238Y-129369580D01*
X177485238Y-129369580D02*
X177437619Y-129417200D01*
X177437619Y-129417200D02*
X177342381Y-129464819D01*
X177342381Y-129464819D02*
X177247143Y-129464819D01*
X177247143Y-129464819D02*
X177151905Y-129417200D01*
X177151905Y-129417200D02*
X177104286Y-129369580D01*
X177104286Y-129369580D02*
X177056667Y-129274342D01*
X177056667Y-129274342D02*
X177009048Y-129083866D01*
X177009048Y-129083866D02*
X177009048Y-128845771D01*
X177009048Y-128845771D02*
X177056667Y-128655295D01*
X177056667Y-128655295D02*
X177104286Y-128560057D01*
X177104286Y-128560057D02*
X177151905Y-128512438D01*
X177151905Y-128512438D02*
X177247143Y-128464819D01*
X178532857Y-129464819D02*
X177961429Y-129464819D01*
X178247143Y-129464819D02*
X178247143Y-128464819D01*
X178247143Y-128464819D02*
X178151905Y-128607676D01*
X178151905Y-128607676D02*
X178056667Y-128702914D01*
X178056667Y-128702914D02*
X177961429Y-128750533D01*
X178866191Y-129464819D02*
X179390000Y-128798152D01*
X178866191Y-128798152D02*
X179390000Y-129464819D01*
X179723334Y-128560057D02*
X179770953Y-128512438D01*
X179770953Y-128512438D02*
X179866191Y-128464819D01*
X179866191Y-128464819D02*
X180104286Y-128464819D01*
X180104286Y-128464819D02*
X180199524Y-128512438D01*
X180199524Y-128512438D02*
X180247143Y-128560057D01*
X180247143Y-128560057D02*
X180294762Y-128655295D01*
X180294762Y-128655295D02*
X180294762Y-128750533D01*
X180294762Y-128750533D02*
X180247143Y-128893390D01*
X180247143Y-128893390D02*
X179675715Y-129464819D01*
X179675715Y-129464819D02*
X180294762Y-129464819D01*
X180913810Y-128464819D02*
X181009048Y-128464819D01*
X181009048Y-128464819D02*
X181104286Y-128512438D01*
X181104286Y-128512438D02*
X181151905Y-128560057D01*
X181151905Y-128560057D02*
X181199524Y-128655295D01*
X181199524Y-128655295D02*
X181247143Y-128845771D01*
X181247143Y-128845771D02*
X181247143Y-129083866D01*
X181247143Y-129083866D02*
X181199524Y-129274342D01*
X181199524Y-129274342D02*
X181151905Y-129369580D01*
X181151905Y-129369580D02*
X181104286Y-129417200D01*
X181104286Y-129417200D02*
X181009048Y-129464819D01*
X181009048Y-129464819D02*
X180913810Y-129464819D01*
X180913810Y-129464819D02*
X180818572Y-129417200D01*
X180818572Y-129417200D02*
X180770953Y-129369580D01*
X180770953Y-129369580D02*
X180723334Y-129274342D01*
X180723334Y-129274342D02*
X180675715Y-129083866D01*
X180675715Y-129083866D02*
X180675715Y-128845771D01*
X180675715Y-128845771D02*
X180723334Y-128655295D01*
X180723334Y-128655295D02*
X180770953Y-128560057D01*
X180770953Y-128560057D02*
X180818572Y-128512438D01*
X180818572Y-128512438D02*
X180913810Y-128464819D01*
X176344819Y-102833333D02*
X177059104Y-102833333D01*
X177059104Y-102833333D02*
X177201961Y-102880952D01*
X177201961Y-102880952D02*
X177297200Y-102976190D01*
X177297200Y-102976190D02*
X177344819Y-103119047D01*
X177344819Y-103119047D02*
X177344819Y-103214285D01*
X176344819Y-102452380D02*
X176344819Y-101833333D01*
X176344819Y-101833333D02*
X176725771Y-102166666D01*
X176725771Y-102166666D02*
X176725771Y-102023809D01*
X176725771Y-102023809D02*
X176773390Y-101928571D01*
X176773390Y-101928571D02*
X176821009Y-101880952D01*
X176821009Y-101880952D02*
X176916247Y-101833333D01*
X176916247Y-101833333D02*
X177154342Y-101833333D01*
X177154342Y-101833333D02*
X177249580Y-101880952D01*
X177249580Y-101880952D02*
X177297200Y-101928571D01*
X177297200Y-101928571D02*
X177344819Y-102023809D01*
X177344819Y-102023809D02*
X177344819Y-102309523D01*
X177344819Y-102309523D02*
X177297200Y-102404761D01*
X177297200Y-102404761D02*
X177249580Y-102452380D01*
X163271428Y-84624819D02*
X162700000Y-84624819D01*
X162985714Y-84624819D02*
X162985714Y-83624819D01*
X162985714Y-83624819D02*
X162890476Y-83767676D01*
X162890476Y-83767676D02*
X162795238Y-83862914D01*
X162795238Y-83862914D02*
X162700000Y-83910533D01*
X163890476Y-83624819D02*
X163985714Y-83624819D01*
X163985714Y-83624819D02*
X164080952Y-83672438D01*
X164080952Y-83672438D02*
X164128571Y-83720057D01*
X164128571Y-83720057D02*
X164176190Y-83815295D01*
X164176190Y-83815295D02*
X164223809Y-84005771D01*
X164223809Y-84005771D02*
X164223809Y-84243866D01*
X164223809Y-84243866D02*
X164176190Y-84434342D01*
X164176190Y-84434342D02*
X164128571Y-84529580D01*
X164128571Y-84529580D02*
X164080952Y-84577200D01*
X164080952Y-84577200D02*
X163985714Y-84624819D01*
X163985714Y-84624819D02*
X163890476Y-84624819D01*
X163890476Y-84624819D02*
X163795238Y-84577200D01*
X163795238Y-84577200D02*
X163747619Y-84529580D01*
X163747619Y-84529580D02*
X163700000Y-84434342D01*
X163700000Y-84434342D02*
X163652381Y-84243866D01*
X163652381Y-84243866D02*
X163652381Y-84005771D01*
X163652381Y-84005771D02*
X163700000Y-83815295D01*
X163700000Y-83815295D02*
X163747619Y-83720057D01*
X163747619Y-83720057D02*
X163795238Y-83672438D01*
X163795238Y-83672438D02*
X163890476Y-83624819D01*
X165080952Y-83958152D02*
X165080952Y-84624819D01*
X164652381Y-83958152D02*
X164652381Y-84481961D01*
X164652381Y-84481961D02*
X164700000Y-84577200D01*
X164700000Y-84577200D02*
X164795238Y-84624819D01*
X164795238Y-84624819D02*
X164938095Y-84624819D01*
X164938095Y-84624819D02*
X165033333Y-84577200D01*
X165033333Y-84577200D02*
X165080952Y-84529580D01*
X165414286Y-83958152D02*
X165795238Y-83958152D01*
X165557143Y-84624819D02*
X165557143Y-83767676D01*
X165557143Y-83767676D02*
X165604762Y-83672438D01*
X165604762Y-83672438D02*
X165700000Y-83624819D01*
X165700000Y-83624819D02*
X165795238Y-83624819D01*
D12*
X163942857Y-85743832D02*
X163923809Y-85762880D01*
X163923809Y-85762880D02*
X163866667Y-85781927D01*
X163866667Y-85781927D02*
X163828571Y-85781927D01*
X163828571Y-85781927D02*
X163771428Y-85762880D01*
X163771428Y-85762880D02*
X163733333Y-85724784D01*
X163733333Y-85724784D02*
X163714286Y-85686689D01*
X163714286Y-85686689D02*
X163695238Y-85610499D01*
X163695238Y-85610499D02*
X163695238Y-85553356D01*
X163695238Y-85553356D02*
X163714286Y-85477165D01*
X163714286Y-85477165D02*
X163733333Y-85439070D01*
X163733333Y-85439070D02*
X163771428Y-85400975D01*
X163771428Y-85400975D02*
X163828571Y-85381927D01*
X163828571Y-85381927D02*
X163866667Y-85381927D01*
X163866667Y-85381927D02*
X163923809Y-85400975D01*
X163923809Y-85400975D02*
X163942857Y-85420022D01*
X164323809Y-85781927D02*
X164095238Y-85781927D01*
X164209524Y-85781927D02*
X164209524Y-85381927D01*
X164209524Y-85381927D02*
X164171428Y-85439070D01*
X164171428Y-85439070D02*
X164133333Y-85477165D01*
X164133333Y-85477165D02*
X164095238Y-85496213D01*
X164457142Y-85381927D02*
X164704761Y-85381927D01*
X164704761Y-85381927D02*
X164571428Y-85534308D01*
X164571428Y-85534308D02*
X164628571Y-85534308D01*
X164628571Y-85534308D02*
X164666666Y-85553356D01*
X164666666Y-85553356D02*
X164685714Y-85572403D01*
X164685714Y-85572403D02*
X164704761Y-85610499D01*
X164704761Y-85610499D02*
X164704761Y-85705737D01*
X164704761Y-85705737D02*
X164685714Y-85743832D01*
X164685714Y-85743832D02*
X164666666Y-85762880D01*
X164666666Y-85762880D02*
X164628571Y-85781927D01*
X164628571Y-85781927D02*
X164514285Y-85781927D01*
X164514285Y-85781927D02*
X164476190Y-85762880D01*
X164476190Y-85762880D02*
X164457142Y-85743832D01*
D10*
X172314819Y-103119999D02*
X172314819Y-103024761D01*
X172314819Y-103024761D02*
X172362438Y-102929523D01*
X172362438Y-102929523D02*
X172410057Y-102881904D01*
X172410057Y-102881904D02*
X172505295Y-102834285D01*
X172505295Y-102834285D02*
X172695771Y-102786666D01*
X172695771Y-102786666D02*
X172933866Y-102786666D01*
X172933866Y-102786666D02*
X173124342Y-102834285D01*
X173124342Y-102834285D02*
X173219580Y-102881904D01*
X173219580Y-102881904D02*
X173267200Y-102929523D01*
X173267200Y-102929523D02*
X173314819Y-103024761D01*
X173314819Y-103024761D02*
X173314819Y-103119999D01*
X173314819Y-103119999D02*
X173267200Y-103215237D01*
X173267200Y-103215237D02*
X173219580Y-103262856D01*
X173219580Y-103262856D02*
X173124342Y-103310475D01*
X173124342Y-103310475D02*
X172933866Y-103358094D01*
X172933866Y-103358094D02*
X172695771Y-103358094D01*
X172695771Y-103358094D02*
X172505295Y-103310475D01*
X172505295Y-103310475D02*
X172410057Y-103262856D01*
X172410057Y-103262856D02*
X172362438Y-103215237D01*
X172362438Y-103215237D02*
X172314819Y-103119999D01*
X173219580Y-102358094D02*
X173267200Y-102310475D01*
X173267200Y-102310475D02*
X173314819Y-102358094D01*
X173314819Y-102358094D02*
X173267200Y-102405713D01*
X173267200Y-102405713D02*
X173219580Y-102358094D01*
X173219580Y-102358094D02*
X173314819Y-102358094D01*
X173314819Y-101358095D02*
X173314819Y-101929523D01*
X173314819Y-101643809D02*
X172314819Y-101643809D01*
X172314819Y-101643809D02*
X172457676Y-101739047D01*
X172457676Y-101739047D02*
X172552914Y-101834285D01*
X172552914Y-101834285D02*
X172600533Y-101929523D01*
X172648152Y-100500952D02*
X173314819Y-100500952D01*
X172648152Y-100929523D02*
X173171961Y-100929523D01*
X173171961Y-100929523D02*
X173267200Y-100881904D01*
X173267200Y-100881904D02*
X173314819Y-100786666D01*
X173314819Y-100786666D02*
X173314819Y-100643809D01*
X173314819Y-100643809D02*
X173267200Y-100548571D01*
X173267200Y-100548571D02*
X173219580Y-100500952D01*
X172648152Y-100167618D02*
X172648152Y-99786666D01*
X173314819Y-100024761D02*
X172457676Y-100024761D01*
X172457676Y-100024761D02*
X172362438Y-99977142D01*
X172362438Y-99977142D02*
X172314819Y-99881904D01*
X172314819Y-99881904D02*
X172314819Y-99786666D01*
D11*
X171789765Y-101661666D02*
X171801670Y-101673570D01*
X171801670Y-101673570D02*
X171813574Y-101709285D01*
X171813574Y-101709285D02*
X171813574Y-101733094D01*
X171813574Y-101733094D02*
X171801670Y-101768808D01*
X171801670Y-101768808D02*
X171777860Y-101792618D01*
X171777860Y-101792618D02*
X171754050Y-101804523D01*
X171754050Y-101804523D02*
X171706431Y-101816427D01*
X171706431Y-101816427D02*
X171670717Y-101816427D01*
X171670717Y-101816427D02*
X171623098Y-101804523D01*
X171623098Y-101804523D02*
X171599289Y-101792618D01*
X171599289Y-101792618D02*
X171575479Y-101768808D01*
X171575479Y-101768808D02*
X171563574Y-101733094D01*
X171563574Y-101733094D02*
X171563574Y-101709285D01*
X171563574Y-101709285D02*
X171575479Y-101673570D01*
X171575479Y-101673570D02*
X171587384Y-101661666D01*
X171563574Y-101435475D02*
X171563574Y-101554523D01*
X171563574Y-101554523D02*
X171682622Y-101566427D01*
X171682622Y-101566427D02*
X171670717Y-101554523D01*
X171670717Y-101554523D02*
X171658812Y-101530713D01*
X171658812Y-101530713D02*
X171658812Y-101471189D01*
X171658812Y-101471189D02*
X171670717Y-101447380D01*
X171670717Y-101447380D02*
X171682622Y-101435475D01*
X171682622Y-101435475D02*
X171706431Y-101423570D01*
X171706431Y-101423570D02*
X171765955Y-101423570D01*
X171765955Y-101423570D02*
X171789765Y-101435475D01*
X171789765Y-101435475D02*
X171801670Y-101447380D01*
X171801670Y-101447380D02*
X171813574Y-101471189D01*
X171813574Y-101471189D02*
X171813574Y-101530713D01*
X171813574Y-101530713D02*
X171801670Y-101554523D01*
X171801670Y-101554523D02*
X171789765Y-101566427D01*
D10*
X167054819Y-94461904D02*
X166054819Y-94461904D01*
X166054819Y-94461904D02*
X166769104Y-94128571D01*
X166769104Y-94128571D02*
X166054819Y-93795238D01*
X166054819Y-93795238D02*
X167054819Y-93795238D01*
X166959580Y-92747619D02*
X167007200Y-92795238D01*
X167007200Y-92795238D02*
X167054819Y-92938095D01*
X167054819Y-92938095D02*
X167054819Y-93033333D01*
X167054819Y-93033333D02*
X167007200Y-93176190D01*
X167007200Y-93176190D02*
X166911961Y-93271428D01*
X166911961Y-93271428D02*
X166816723Y-93319047D01*
X166816723Y-93319047D02*
X166626247Y-93366666D01*
X166626247Y-93366666D02*
X166483390Y-93366666D01*
X166483390Y-93366666D02*
X166292914Y-93319047D01*
X166292914Y-93319047D02*
X166197676Y-93271428D01*
X166197676Y-93271428D02*
X166102438Y-93176190D01*
X166102438Y-93176190D02*
X166054819Y-93033333D01*
X166054819Y-93033333D02*
X166054819Y-92938095D01*
X166054819Y-92938095D02*
X166102438Y-92795238D01*
X166102438Y-92795238D02*
X166150057Y-92747619D01*
X167054819Y-92319047D02*
X166054819Y-92319047D01*
X166054819Y-92319047D02*
X166054819Y-91938095D01*
X166054819Y-91938095D02*
X166102438Y-91842857D01*
X166102438Y-91842857D02*
X166150057Y-91795238D01*
X166150057Y-91795238D02*
X166245295Y-91747619D01*
X166245295Y-91747619D02*
X166388152Y-91747619D01*
X166388152Y-91747619D02*
X166483390Y-91795238D01*
X166483390Y-91795238D02*
X166531009Y-91842857D01*
X166531009Y-91842857D02*
X166578628Y-91938095D01*
X166578628Y-91938095D02*
X166578628Y-92319047D01*
X167054819Y-90795238D02*
X167054819Y-91366666D01*
X167054819Y-91080952D02*
X166054819Y-91080952D01*
X166054819Y-91080952D02*
X166197676Y-91176190D01*
X166197676Y-91176190D02*
X166292914Y-91271428D01*
X166292914Y-91271428D02*
X166340533Y-91366666D01*
X166054819Y-90461904D02*
X166054819Y-89795238D01*
X166054819Y-89795238D02*
X167054819Y-90223809D01*
X166054819Y-89223809D02*
X166054819Y-89128571D01*
X166054819Y-89128571D02*
X166102438Y-89033333D01*
X166102438Y-89033333D02*
X166150057Y-88985714D01*
X166150057Y-88985714D02*
X166245295Y-88938095D01*
X166245295Y-88938095D02*
X166435771Y-88890476D01*
X166435771Y-88890476D02*
X166673866Y-88890476D01*
X166673866Y-88890476D02*
X166864342Y-88938095D01*
X166864342Y-88938095D02*
X166959580Y-88985714D01*
X166959580Y-88985714D02*
X167007200Y-89033333D01*
X167007200Y-89033333D02*
X167054819Y-89128571D01*
X167054819Y-89128571D02*
X167054819Y-89223809D01*
X167054819Y-89223809D02*
X167007200Y-89319047D01*
X167007200Y-89319047D02*
X166959580Y-89366666D01*
X166959580Y-89366666D02*
X166864342Y-89414285D01*
X166864342Y-89414285D02*
X166673866Y-89461904D01*
X166673866Y-89461904D02*
X166435771Y-89461904D01*
X166435771Y-89461904D02*
X166245295Y-89414285D01*
X166245295Y-89414285D02*
X166150057Y-89366666D01*
X166150057Y-89366666D02*
X166102438Y-89319047D01*
X166102438Y-89319047D02*
X166054819Y-89223809D01*
X166054819Y-88271428D02*
X166054819Y-88176190D01*
X166054819Y-88176190D02*
X166102438Y-88080952D01*
X166102438Y-88080952D02*
X166150057Y-88033333D01*
X166150057Y-88033333D02*
X166245295Y-87985714D01*
X166245295Y-87985714D02*
X166435771Y-87938095D01*
X166435771Y-87938095D02*
X166673866Y-87938095D01*
X166673866Y-87938095D02*
X166864342Y-87985714D01*
X166864342Y-87985714D02*
X166959580Y-88033333D01*
X166959580Y-88033333D02*
X167007200Y-88080952D01*
X167007200Y-88080952D02*
X167054819Y-88176190D01*
X167054819Y-88176190D02*
X167054819Y-88271428D01*
X167054819Y-88271428D02*
X167007200Y-88366666D01*
X167007200Y-88366666D02*
X166959580Y-88414285D01*
X166959580Y-88414285D02*
X166864342Y-88461904D01*
X166864342Y-88461904D02*
X166673866Y-88509523D01*
X166673866Y-88509523D02*
X166435771Y-88509523D01*
X166435771Y-88509523D02*
X166245295Y-88461904D01*
X166245295Y-88461904D02*
X166150057Y-88414285D01*
X166150057Y-88414285D02*
X166102438Y-88366666D01*
X166102438Y-88366666D02*
X166054819Y-88271428D01*
X167054819Y-87604761D02*
X166388152Y-87080952D01*
X166388152Y-87604761D02*
X167054819Y-87080952D01*
X166673866Y-86699999D02*
X166673866Y-85938095D01*
X166054819Y-85557142D02*
X166054819Y-84938095D01*
X166054819Y-84938095D02*
X166435771Y-85271428D01*
X166435771Y-85271428D02*
X166435771Y-85128571D01*
X166435771Y-85128571D02*
X166483390Y-85033333D01*
X166483390Y-85033333D02*
X166531009Y-84985714D01*
X166531009Y-84985714D02*
X166626247Y-84938095D01*
X166626247Y-84938095D02*
X166864342Y-84938095D01*
X166864342Y-84938095D02*
X166959580Y-84985714D01*
X166959580Y-84985714D02*
X167007200Y-85033333D01*
X167007200Y-85033333D02*
X167054819Y-85128571D01*
X167054819Y-85128571D02*
X167054819Y-85414285D01*
X167054819Y-85414285D02*
X167007200Y-85509523D01*
X167007200Y-85509523D02*
X166959580Y-85557142D01*
X166054819Y-84604761D02*
X166054819Y-83985714D01*
X166054819Y-83985714D02*
X166435771Y-84319047D01*
X166435771Y-84319047D02*
X166435771Y-84176190D01*
X166435771Y-84176190D02*
X166483390Y-84080952D01*
X166483390Y-84080952D02*
X166531009Y-84033333D01*
X166531009Y-84033333D02*
X166626247Y-83985714D01*
X166626247Y-83985714D02*
X166864342Y-83985714D01*
X166864342Y-83985714D02*
X166959580Y-84033333D01*
X166959580Y-84033333D02*
X167007200Y-84080952D01*
X167007200Y-84080952D02*
X167054819Y-84176190D01*
X167054819Y-84176190D02*
X167054819Y-84461904D01*
X167054819Y-84461904D02*
X167007200Y-84557142D01*
X167007200Y-84557142D02*
X166959580Y-84604761D01*
X166054819Y-83366666D02*
X166054819Y-83271428D01*
X166054819Y-83271428D02*
X166102438Y-83176190D01*
X166102438Y-83176190D02*
X166150057Y-83128571D01*
X166150057Y-83128571D02*
X166245295Y-83080952D01*
X166245295Y-83080952D02*
X166435771Y-83033333D01*
X166435771Y-83033333D02*
X166673866Y-83033333D01*
X166673866Y-83033333D02*
X166864342Y-83080952D01*
X166864342Y-83080952D02*
X166959580Y-83128571D01*
X166959580Y-83128571D02*
X167007200Y-83176190D01*
X167007200Y-83176190D02*
X167054819Y-83271428D01*
X167054819Y-83271428D02*
X167054819Y-83366666D01*
X167054819Y-83366666D02*
X167007200Y-83461904D01*
X167007200Y-83461904D02*
X166959580Y-83509523D01*
X166959580Y-83509523D02*
X166864342Y-83557142D01*
X166864342Y-83557142D02*
X166673866Y-83604761D01*
X166673866Y-83604761D02*
X166435771Y-83604761D01*
X166435771Y-83604761D02*
X166245295Y-83557142D01*
X166245295Y-83557142D02*
X166150057Y-83509523D01*
X166150057Y-83509523D02*
X166102438Y-83461904D01*
X166102438Y-83461904D02*
X166054819Y-83366666D01*
X167054819Y-82699999D02*
X166388152Y-82176190D01*
X166388152Y-82699999D02*
X167054819Y-82176190D01*
X167054819Y-81890475D02*
X166388152Y-81366666D01*
X166388152Y-81890475D02*
X167054819Y-81366666D01*
X166054819Y-81128570D02*
X166054819Y-80557142D01*
X167054819Y-80842856D02*
X166054819Y-80842856D01*
X166054819Y-80366665D02*
X166054819Y-79795237D01*
X167054819Y-80080951D02*
X166054819Y-80080951D01*
D13*
X164551428Y-88007365D02*
X164551428Y-88590222D01*
X164551428Y-88590222D02*
X164585714Y-88658794D01*
X164585714Y-88658794D02*
X164620000Y-88693080D01*
X164620000Y-88693080D02*
X164688571Y-88727365D01*
X164688571Y-88727365D02*
X164825714Y-88727365D01*
X164825714Y-88727365D02*
X164894285Y-88693080D01*
X164894285Y-88693080D02*
X164928571Y-88658794D01*
X164928571Y-88658794D02*
X164962857Y-88590222D01*
X164962857Y-88590222D02*
X164962857Y-88007365D01*
X165271428Y-88075937D02*
X165305714Y-88041651D01*
X165305714Y-88041651D02*
X165374286Y-88007365D01*
X165374286Y-88007365D02*
X165545714Y-88007365D01*
X165545714Y-88007365D02*
X165614286Y-88041651D01*
X165614286Y-88041651D02*
X165648571Y-88075937D01*
X165648571Y-88075937D02*
X165682857Y-88144508D01*
X165682857Y-88144508D02*
X165682857Y-88213080D01*
X165682857Y-88213080D02*
X165648571Y-88315937D01*
X165648571Y-88315937D02*
X165237143Y-88727365D01*
X165237143Y-88727365D02*
X165682857Y-88727365D01*
D10*
X165118571Y-113104819D02*
X164547143Y-113104819D01*
X164832857Y-113104819D02*
X164832857Y-112104819D01*
X164832857Y-112104819D02*
X164737619Y-112247676D01*
X164737619Y-112247676D02*
X164642381Y-112342914D01*
X164642381Y-112342914D02*
X164547143Y-112390533D01*
X165499524Y-112200057D02*
X165547143Y-112152438D01*
X165547143Y-112152438D02*
X165642381Y-112104819D01*
X165642381Y-112104819D02*
X165880476Y-112104819D01*
X165880476Y-112104819D02*
X165975714Y-112152438D01*
X165975714Y-112152438D02*
X166023333Y-112200057D01*
X166023333Y-112200057D02*
X166070952Y-112295295D01*
X166070952Y-112295295D02*
X166070952Y-112390533D01*
X166070952Y-112390533D02*
X166023333Y-112533390D01*
X166023333Y-112533390D02*
X165451905Y-113104819D01*
X165451905Y-113104819D02*
X166070952Y-113104819D01*
X167261429Y-113104819D02*
X167261429Y-112104819D01*
X167261429Y-112104819D02*
X167594762Y-112819104D01*
X167594762Y-112819104D02*
X167928095Y-112104819D01*
X167928095Y-112104819D02*
X167928095Y-113104819D01*
X168404286Y-113104819D02*
X168404286Y-112104819D01*
X168404286Y-112581009D02*
X168975714Y-112581009D01*
X168975714Y-113104819D02*
X168975714Y-112104819D01*
X169356667Y-112438152D02*
X169880476Y-112438152D01*
X169880476Y-112438152D02*
X169356667Y-113104819D01*
X169356667Y-113104819D02*
X169880476Y-113104819D01*
D14*
X166809048Y-115082902D02*
X166809048Y-115463855D01*
X166542381Y-114663855D02*
X166809048Y-115082902D01*
X166809048Y-115082902D02*
X167075714Y-114663855D01*
X167761428Y-115463855D02*
X167304285Y-115463855D01*
X167532857Y-115463855D02*
X167532857Y-114663855D01*
X167532857Y-114663855D02*
X167456666Y-114778140D01*
X167456666Y-114778140D02*
X167380476Y-114854331D01*
X167380476Y-114854331D02*
X167304285Y-114892426D01*
D10*
X172320000Y-108114819D02*
X172415238Y-108114819D01*
X172415238Y-108114819D02*
X172510476Y-108162438D01*
X172510476Y-108162438D02*
X172558095Y-108210057D01*
X172558095Y-108210057D02*
X172605714Y-108305295D01*
X172605714Y-108305295D02*
X172653333Y-108495771D01*
X172653333Y-108495771D02*
X172653333Y-108733866D01*
X172653333Y-108733866D02*
X172605714Y-108924342D01*
X172605714Y-108924342D02*
X172558095Y-109019580D01*
X172558095Y-109019580D02*
X172510476Y-109067200D01*
X172510476Y-109067200D02*
X172415238Y-109114819D01*
X172415238Y-109114819D02*
X172320000Y-109114819D01*
X172320000Y-109114819D02*
X172224762Y-109067200D01*
X172224762Y-109067200D02*
X172177143Y-109019580D01*
X172177143Y-109019580D02*
X172129524Y-108924342D01*
X172129524Y-108924342D02*
X172081905Y-108733866D01*
X172081905Y-108733866D02*
X172081905Y-108495771D01*
X172081905Y-108495771D02*
X172129524Y-108305295D01*
X172129524Y-108305295D02*
X172177143Y-108210057D01*
X172177143Y-108210057D02*
X172224762Y-108162438D01*
X172224762Y-108162438D02*
X172320000Y-108114819D01*
X173081905Y-109019580D02*
X173129524Y-109067200D01*
X173129524Y-109067200D02*
X173081905Y-109114819D01*
X173081905Y-109114819D02*
X173034286Y-109067200D01*
X173034286Y-109067200D02*
X173081905Y-109019580D01*
X173081905Y-109019580D02*
X173081905Y-109114819D01*
X174081904Y-109114819D02*
X173510476Y-109114819D01*
X173796190Y-109114819D02*
X173796190Y-108114819D01*
X173796190Y-108114819D02*
X173700952Y-108257676D01*
X173700952Y-108257676D02*
X173605714Y-108352914D01*
X173605714Y-108352914D02*
X173510476Y-108400533D01*
X174939047Y-108448152D02*
X174939047Y-109114819D01*
X174510476Y-108448152D02*
X174510476Y-108971961D01*
X174510476Y-108971961D02*
X174558095Y-109067200D01*
X174558095Y-109067200D02*
X174653333Y-109114819D01*
X174653333Y-109114819D02*
X174796190Y-109114819D01*
X174796190Y-109114819D02*
X174891428Y-109067200D01*
X174891428Y-109067200D02*
X174939047Y-109019580D01*
X175272381Y-108448152D02*
X175653333Y-108448152D01*
X175415238Y-109114819D02*
X175415238Y-108257676D01*
X175415238Y-108257676D02*
X175462857Y-108162438D01*
X175462857Y-108162438D02*
X175558095Y-108114819D01*
X175558095Y-108114819D02*
X175653333Y-108114819D01*
D11*
X173659285Y-107589765D02*
X173647381Y-107601670D01*
X173647381Y-107601670D02*
X173611666Y-107613574D01*
X173611666Y-107613574D02*
X173587857Y-107613574D01*
X173587857Y-107613574D02*
X173552143Y-107601670D01*
X173552143Y-107601670D02*
X173528333Y-107577860D01*
X173528333Y-107577860D02*
X173516428Y-107554050D01*
X173516428Y-107554050D02*
X173504524Y-107506431D01*
X173504524Y-107506431D02*
X173504524Y-107470717D01*
X173504524Y-107470717D02*
X173516428Y-107423098D01*
X173516428Y-107423098D02*
X173528333Y-107399289D01*
X173528333Y-107399289D02*
X173552143Y-107375479D01*
X173552143Y-107375479D02*
X173587857Y-107363574D01*
X173587857Y-107363574D02*
X173611666Y-107363574D01*
X173611666Y-107363574D02*
X173647381Y-107375479D01*
X173647381Y-107375479D02*
X173659285Y-107387384D01*
X173897381Y-107613574D02*
X173754524Y-107613574D01*
X173825952Y-107613574D02*
X173825952Y-107363574D01*
X173825952Y-107363574D02*
X173802143Y-107399289D01*
X173802143Y-107399289D02*
X173778333Y-107423098D01*
X173778333Y-107423098D02*
X173754524Y-107435003D01*
X174135476Y-107613574D02*
X173992619Y-107613574D01*
X174064047Y-107613574D02*
X174064047Y-107363574D01*
X174064047Y-107363574D02*
X174040238Y-107399289D01*
X174040238Y-107399289D02*
X174016428Y-107423098D01*
X174016428Y-107423098D02*
X173992619Y-107435003D01*
D10*
X170124819Y-86680952D02*
X170124819Y-87157142D01*
X170124819Y-87157142D02*
X170601009Y-87204761D01*
X170601009Y-87204761D02*
X170553390Y-87157142D01*
X170553390Y-87157142D02*
X170505771Y-87061904D01*
X170505771Y-87061904D02*
X170505771Y-86823809D01*
X170505771Y-86823809D02*
X170553390Y-86728571D01*
X170553390Y-86728571D02*
X170601009Y-86680952D01*
X170601009Y-86680952D02*
X170696247Y-86633333D01*
X170696247Y-86633333D02*
X170934342Y-86633333D01*
X170934342Y-86633333D02*
X171029580Y-86680952D01*
X171029580Y-86680952D02*
X171077200Y-86728571D01*
X171077200Y-86728571D02*
X171124819Y-86823809D01*
X171124819Y-86823809D02*
X171124819Y-87061904D01*
X171124819Y-87061904D02*
X171077200Y-87157142D01*
X171077200Y-87157142D02*
X171029580Y-87204761D01*
X171029580Y-86204761D02*
X171077200Y-86157142D01*
X171077200Y-86157142D02*
X171124819Y-86204761D01*
X171124819Y-86204761D02*
X171077200Y-86252380D01*
X171077200Y-86252380D02*
X171029580Y-86204761D01*
X171029580Y-86204761D02*
X171124819Y-86204761D01*
X171124819Y-85204762D02*
X171124819Y-85776190D01*
X171124819Y-85490476D02*
X170124819Y-85490476D01*
X170124819Y-85490476D02*
X170267676Y-85585714D01*
X170267676Y-85585714D02*
X170362914Y-85680952D01*
X170362914Y-85680952D02*
X170410533Y-85776190D01*
X171124819Y-84776190D02*
X170124819Y-84776190D01*
X170743866Y-84680952D02*
X171124819Y-84395238D01*
X170458152Y-84395238D02*
X170839104Y-84776190D01*
D11*
X169618200Y-85843332D02*
X169494391Y-85929999D01*
X169618200Y-85991904D02*
X169358200Y-85991904D01*
X169358200Y-85991904D02*
X169358200Y-85892856D01*
X169358200Y-85892856D02*
X169370581Y-85868094D01*
X169370581Y-85868094D02*
X169382962Y-85855713D01*
X169382962Y-85855713D02*
X169407724Y-85843332D01*
X169407724Y-85843332D02*
X169444867Y-85843332D01*
X169444867Y-85843332D02*
X169469629Y-85855713D01*
X169469629Y-85855713D02*
X169482010Y-85868094D01*
X169482010Y-85868094D02*
X169494391Y-85892856D01*
X169494391Y-85892856D02*
X169494391Y-85991904D01*
X169382962Y-85744285D02*
X169370581Y-85731904D01*
X169370581Y-85731904D02*
X169358200Y-85707142D01*
X169358200Y-85707142D02*
X169358200Y-85645237D01*
X169358200Y-85645237D02*
X169370581Y-85620475D01*
X169370581Y-85620475D02*
X169382962Y-85608094D01*
X169382962Y-85608094D02*
X169407724Y-85595713D01*
X169407724Y-85595713D02*
X169432486Y-85595713D01*
X169432486Y-85595713D02*
X169469629Y-85608094D01*
X169469629Y-85608094D02*
X169618200Y-85756666D01*
X169618200Y-85756666D02*
X169618200Y-85595713D01*
D10*
X170420057Y-102051904D02*
X170372438Y-102004285D01*
X170372438Y-102004285D02*
X170324819Y-101909047D01*
X170324819Y-101909047D02*
X170324819Y-101670952D01*
X170324819Y-101670952D02*
X170372438Y-101575714D01*
X170372438Y-101575714D02*
X170420057Y-101528095D01*
X170420057Y-101528095D02*
X170515295Y-101480476D01*
X170515295Y-101480476D02*
X170610533Y-101480476D01*
X170610533Y-101480476D02*
X170753390Y-101528095D01*
X170753390Y-101528095D02*
X171324819Y-102099523D01*
X171324819Y-102099523D02*
X171324819Y-101480476D01*
X170324819Y-101147142D02*
X170324819Y-100480476D01*
X170324819Y-100480476D02*
X171324819Y-100909047D01*
D11*
X169818200Y-101333332D02*
X169694391Y-101419999D01*
X169818200Y-101481904D02*
X169558200Y-101481904D01*
X169558200Y-101481904D02*
X169558200Y-101382856D01*
X169558200Y-101382856D02*
X169570581Y-101358094D01*
X169570581Y-101358094D02*
X169582962Y-101345713D01*
X169582962Y-101345713D02*
X169607724Y-101333332D01*
X169607724Y-101333332D02*
X169644867Y-101333332D01*
X169644867Y-101333332D02*
X169669629Y-101345713D01*
X169669629Y-101345713D02*
X169682010Y-101358094D01*
X169682010Y-101358094D02*
X169694391Y-101382856D01*
X169694391Y-101382856D02*
X169694391Y-101481904D01*
X169558200Y-101246666D02*
X169558200Y-101085713D01*
X169558200Y-101085713D02*
X169657248Y-101172380D01*
X169657248Y-101172380D02*
X169657248Y-101135237D01*
X169657248Y-101135237D02*
X169669629Y-101110475D01*
X169669629Y-101110475D02*
X169682010Y-101098094D01*
X169682010Y-101098094D02*
X169706772Y-101085713D01*
X169706772Y-101085713D02*
X169768677Y-101085713D01*
X169768677Y-101085713D02*
X169793439Y-101098094D01*
X169793439Y-101098094D02*
X169805820Y-101110475D01*
X169805820Y-101110475D02*
X169818200Y-101135237D01*
X169818200Y-101135237D02*
X169818200Y-101209523D01*
X169818200Y-101209523D02*
X169805820Y-101234285D01*
X169805820Y-101234285D02*
X169793439Y-101246666D01*
D10*
X169707200Y-90747618D02*
X169754819Y-90604761D01*
X169754819Y-90604761D02*
X169754819Y-90366666D01*
X169754819Y-90366666D02*
X169707200Y-90271428D01*
X169707200Y-90271428D02*
X169659580Y-90223809D01*
X169659580Y-90223809D02*
X169564342Y-90176190D01*
X169564342Y-90176190D02*
X169469104Y-90176190D01*
X169469104Y-90176190D02*
X169373866Y-90223809D01*
X169373866Y-90223809D02*
X169326247Y-90271428D01*
X169326247Y-90271428D02*
X169278628Y-90366666D01*
X169278628Y-90366666D02*
X169231009Y-90557142D01*
X169231009Y-90557142D02*
X169183390Y-90652380D01*
X169183390Y-90652380D02*
X169135771Y-90699999D01*
X169135771Y-90699999D02*
X169040533Y-90747618D01*
X169040533Y-90747618D02*
X168945295Y-90747618D01*
X168945295Y-90747618D02*
X168850057Y-90699999D01*
X168850057Y-90699999D02*
X168802438Y-90652380D01*
X168802438Y-90652380D02*
X168754819Y-90557142D01*
X168754819Y-90557142D02*
X168754819Y-90319047D01*
X168754819Y-90319047D02*
X168802438Y-90176190D01*
X168754819Y-89842856D02*
X169754819Y-89604761D01*
X169754819Y-89604761D02*
X169040533Y-89414285D01*
X169040533Y-89414285D02*
X169754819Y-89223809D01*
X169754819Y-89223809D02*
X168754819Y-88985714D01*
X169850057Y-88842857D02*
X169850057Y-88080952D01*
X169754819Y-87842856D02*
X168754819Y-87842856D01*
X168754819Y-87842856D02*
X168754819Y-87461904D01*
X168754819Y-87461904D02*
X168802438Y-87366666D01*
X168802438Y-87366666D02*
X168850057Y-87319047D01*
X168850057Y-87319047D02*
X168945295Y-87271428D01*
X168945295Y-87271428D02*
X169088152Y-87271428D01*
X169088152Y-87271428D02*
X169183390Y-87319047D01*
X169183390Y-87319047D02*
X169231009Y-87366666D01*
X169231009Y-87366666D02*
X169278628Y-87461904D01*
X169278628Y-87461904D02*
X169278628Y-87842856D01*
X169088152Y-86414285D02*
X169754819Y-86414285D01*
X169088152Y-86842856D02*
X169611961Y-86842856D01*
X169611961Y-86842856D02*
X169707200Y-86795237D01*
X169707200Y-86795237D02*
X169754819Y-86699999D01*
X169754819Y-86699999D02*
X169754819Y-86557142D01*
X169754819Y-86557142D02*
X169707200Y-86461904D01*
X169707200Y-86461904D02*
X169659580Y-86414285D01*
X169707200Y-85985713D02*
X169754819Y-85890475D01*
X169754819Y-85890475D02*
X169754819Y-85699999D01*
X169754819Y-85699999D02*
X169707200Y-85604761D01*
X169707200Y-85604761D02*
X169611961Y-85557142D01*
X169611961Y-85557142D02*
X169564342Y-85557142D01*
X169564342Y-85557142D02*
X169469104Y-85604761D01*
X169469104Y-85604761D02*
X169421485Y-85699999D01*
X169421485Y-85699999D02*
X169421485Y-85842856D01*
X169421485Y-85842856D02*
X169373866Y-85938094D01*
X169373866Y-85938094D02*
X169278628Y-85985713D01*
X169278628Y-85985713D02*
X169231009Y-85985713D01*
X169231009Y-85985713D02*
X169135771Y-85938094D01*
X169135771Y-85938094D02*
X169088152Y-85842856D01*
X169088152Y-85842856D02*
X169088152Y-85699999D01*
X169088152Y-85699999D02*
X169135771Y-85604761D01*
X169754819Y-85128570D02*
X168754819Y-85128570D01*
X169754819Y-84699999D02*
X169231009Y-84699999D01*
X169231009Y-84699999D02*
X169135771Y-84747618D01*
X169135771Y-84747618D02*
X169088152Y-84842856D01*
X169088152Y-84842856D02*
X169088152Y-84985713D01*
X169088152Y-84985713D02*
X169135771Y-85080951D01*
X169135771Y-85080951D02*
X169183390Y-85128570D01*
X172207200Y-89033332D02*
X172254819Y-88890475D01*
X172254819Y-88890475D02*
X172254819Y-88652380D01*
X172254819Y-88652380D02*
X172207200Y-88557142D01*
X172207200Y-88557142D02*
X172159580Y-88509523D01*
X172159580Y-88509523D02*
X172064342Y-88461904D01*
X172064342Y-88461904D02*
X171969104Y-88461904D01*
X171969104Y-88461904D02*
X171873866Y-88509523D01*
X171873866Y-88509523D02*
X171826247Y-88557142D01*
X171826247Y-88557142D02*
X171778628Y-88652380D01*
X171778628Y-88652380D02*
X171731009Y-88842856D01*
X171731009Y-88842856D02*
X171683390Y-88938094D01*
X171683390Y-88938094D02*
X171635771Y-88985713D01*
X171635771Y-88985713D02*
X171540533Y-89033332D01*
X171540533Y-89033332D02*
X171445295Y-89033332D01*
X171445295Y-89033332D02*
X171350057Y-88985713D01*
X171350057Y-88985713D02*
X171302438Y-88938094D01*
X171302438Y-88938094D02*
X171254819Y-88842856D01*
X171254819Y-88842856D02*
X171254819Y-88604761D01*
X171254819Y-88604761D02*
X171302438Y-88461904D01*
X171254819Y-88128570D02*
X172254819Y-87890475D01*
X172254819Y-87890475D02*
X171540533Y-87699999D01*
X171540533Y-87699999D02*
X172254819Y-87509523D01*
X172254819Y-87509523D02*
X171254819Y-87271428D01*
X172254819Y-86366666D02*
X172254819Y-86938094D01*
X172254819Y-86652380D02*
X171254819Y-86652380D01*
X171254819Y-86652380D02*
X171397676Y-86747618D01*
X171397676Y-86747618D02*
X171492914Y-86842856D01*
X171492914Y-86842856D02*
X171540533Y-86938094D01*
X164171428Y-90224819D02*
X163600000Y-90224819D01*
X163885714Y-90224819D02*
X163885714Y-89224819D01*
X163885714Y-89224819D02*
X163790476Y-89367676D01*
X163790476Y-89367676D02*
X163695238Y-89462914D01*
X163695238Y-89462914D02*
X163600000Y-89510533D01*
X164790476Y-89224819D02*
X164885714Y-89224819D01*
X164885714Y-89224819D02*
X164980952Y-89272438D01*
X164980952Y-89272438D02*
X165028571Y-89320057D01*
X165028571Y-89320057D02*
X165076190Y-89415295D01*
X165076190Y-89415295D02*
X165123809Y-89605771D01*
X165123809Y-89605771D02*
X165123809Y-89843866D01*
X165123809Y-89843866D02*
X165076190Y-90034342D01*
X165076190Y-90034342D02*
X165028571Y-90129580D01*
X165028571Y-90129580D02*
X164980952Y-90177200D01*
X164980952Y-90177200D02*
X164885714Y-90224819D01*
X164885714Y-90224819D02*
X164790476Y-90224819D01*
X164790476Y-90224819D02*
X164695238Y-90177200D01*
X164695238Y-90177200D02*
X164647619Y-90129580D01*
X164647619Y-90129580D02*
X164600000Y-90034342D01*
X164600000Y-90034342D02*
X164552381Y-89843866D01*
X164552381Y-89843866D02*
X164552381Y-89605771D01*
X164552381Y-89605771D02*
X164600000Y-89415295D01*
X164600000Y-89415295D02*
X164647619Y-89320057D01*
X164647619Y-89320057D02*
X164695238Y-89272438D01*
X164695238Y-89272438D02*
X164790476Y-89224819D01*
X165980952Y-89558152D02*
X165980952Y-90224819D01*
X165552381Y-89558152D02*
X165552381Y-90081961D01*
X165552381Y-90081961D02*
X165600000Y-90177200D01*
X165600000Y-90177200D02*
X165695238Y-90224819D01*
X165695238Y-90224819D02*
X165838095Y-90224819D01*
X165838095Y-90224819D02*
X165933333Y-90177200D01*
X165933333Y-90177200D02*
X165980952Y-90129580D01*
X166314286Y-89558152D02*
X166695238Y-89558152D01*
X166457143Y-90224819D02*
X166457143Y-89367676D01*
X166457143Y-89367676D02*
X166504762Y-89272438D01*
X166504762Y-89272438D02*
X166600000Y-89224819D01*
X166600000Y-89224819D02*
X166695238Y-89224819D01*
D12*
X164842857Y-91343832D02*
X164823809Y-91362880D01*
X164823809Y-91362880D02*
X164766667Y-91381927D01*
X164766667Y-91381927D02*
X164728571Y-91381927D01*
X164728571Y-91381927D02*
X164671428Y-91362880D01*
X164671428Y-91362880D02*
X164633333Y-91324784D01*
X164633333Y-91324784D02*
X164614286Y-91286689D01*
X164614286Y-91286689D02*
X164595238Y-91210499D01*
X164595238Y-91210499D02*
X164595238Y-91153356D01*
X164595238Y-91153356D02*
X164614286Y-91077165D01*
X164614286Y-91077165D02*
X164633333Y-91039070D01*
X164633333Y-91039070D02*
X164671428Y-91000975D01*
X164671428Y-91000975D02*
X164728571Y-90981927D01*
X164728571Y-90981927D02*
X164766667Y-90981927D01*
X164766667Y-90981927D02*
X164823809Y-91000975D01*
X164823809Y-91000975D02*
X164842857Y-91020022D01*
X165223809Y-91381927D02*
X164995238Y-91381927D01*
X165109524Y-91381927D02*
X165109524Y-90981927D01*
X165109524Y-90981927D02*
X165071428Y-91039070D01*
X165071428Y-91039070D02*
X165033333Y-91077165D01*
X165033333Y-91077165D02*
X164995238Y-91096213D01*
X165566666Y-91115260D02*
X165566666Y-91381927D01*
X165471428Y-90962880D02*
X165376190Y-91248594D01*
X165376190Y-91248594D02*
X165623809Y-91248594D01*
D10*
X159694183Y-108394325D02*
X159761527Y-108326982D01*
X159761527Y-108326982D02*
X159862542Y-108293310D01*
X159862542Y-108293310D02*
X159929886Y-108293310D01*
X159929886Y-108293310D02*
X160030901Y-108326982D01*
X160030901Y-108326982D02*
X160199260Y-108427997D01*
X160199260Y-108427997D02*
X160367619Y-108596356D01*
X160367619Y-108596356D02*
X160468634Y-108764714D01*
X160468634Y-108764714D02*
X160502306Y-108865730D01*
X160502306Y-108865730D02*
X160502306Y-108933073D01*
X160502306Y-108933073D02*
X160468634Y-109034088D01*
X160468634Y-109034088D02*
X160401290Y-109101432D01*
X160401290Y-109101432D02*
X160300275Y-109135104D01*
X160300275Y-109135104D02*
X160232932Y-109135104D01*
X160232932Y-109135104D02*
X160131916Y-109101432D01*
X160131916Y-109101432D02*
X159963557Y-109000417D01*
X159963557Y-109000417D02*
X159795199Y-108832058D01*
X159795199Y-108832058D02*
X159694183Y-108663699D01*
X159694183Y-108663699D02*
X159660512Y-108562684D01*
X159660512Y-108562684D02*
X159660512Y-108495340D01*
X159660512Y-108495340D02*
X159694183Y-108394325D01*
X160872695Y-108495340D02*
X160940038Y-108495340D01*
X160940038Y-108495340D02*
X160940038Y-108562684D01*
X160940038Y-108562684D02*
X160872695Y-108562684D01*
X160872695Y-108562684D02*
X160872695Y-108495340D01*
X160872695Y-108495340D02*
X160940038Y-108562684D01*
X161647145Y-107855577D02*
X161243084Y-108259639D01*
X161445114Y-108057608D02*
X160738007Y-107350501D01*
X160738007Y-107350501D02*
X160771679Y-107518860D01*
X160771679Y-107518860D02*
X160771679Y-107653547D01*
X160771679Y-107653547D02*
X160738007Y-107754562D01*
X161781832Y-106778081D02*
X162253236Y-107249486D01*
X161478786Y-107081127D02*
X161849175Y-107451516D01*
X161849175Y-107451516D02*
X161950191Y-107485188D01*
X161950191Y-107485188D02*
X162051206Y-107451516D01*
X162051206Y-107451516D02*
X162152221Y-107350501D01*
X162152221Y-107350501D02*
X162185893Y-107249486D01*
X162185893Y-107249486D02*
X162185893Y-107182142D01*
X162017534Y-106542379D02*
X162286908Y-106273005D01*
X162589954Y-106912768D02*
X161983862Y-106306677D01*
X161983862Y-106306677D02*
X161950191Y-106205662D01*
X161950191Y-106205662D02*
X161983862Y-106104646D01*
X161983862Y-106104646D02*
X162051206Y-106037303D01*
D11*
X161910420Y-108716526D02*
X161910420Y-108733362D01*
X161910420Y-108733362D02*
X161893584Y-108767034D01*
X161893584Y-108767034D02*
X161876748Y-108783870D01*
X161876748Y-108783870D02*
X161843077Y-108800705D01*
X161843077Y-108800705D02*
X161809405Y-108800705D01*
X161809405Y-108800705D02*
X161784151Y-108792288D01*
X161784151Y-108792288D02*
X161742061Y-108767034D01*
X161742061Y-108767034D02*
X161716808Y-108741780D01*
X161716808Y-108741780D02*
X161691554Y-108699690D01*
X161691554Y-108699690D02*
X161683136Y-108674436D01*
X161683136Y-108674436D02*
X161683136Y-108640765D01*
X161683136Y-108640765D02*
X161699972Y-108607093D01*
X161699972Y-108607093D02*
X161716808Y-108590257D01*
X161716808Y-108590257D02*
X161750479Y-108573421D01*
X161750479Y-108573421D02*
X161767315Y-108573421D01*
X162095615Y-108565003D02*
X161994599Y-108666018D01*
X162045107Y-108615511D02*
X161868330Y-108438734D01*
X161868330Y-108438734D02*
X161876748Y-108480824D01*
X161876748Y-108480824D02*
X161876748Y-108514496D01*
X161876748Y-108514496D02*
X161868330Y-108539749D01*
X162003017Y-108337719D02*
X162003017Y-108320883D01*
X162003017Y-108320883D02*
X162011435Y-108295629D01*
X162011435Y-108295629D02*
X162053525Y-108253540D01*
X162053525Y-108253540D02*
X162078779Y-108245122D01*
X162078779Y-108245122D02*
X162095615Y-108245122D01*
X162095615Y-108245122D02*
X162120868Y-108253540D01*
X162120868Y-108253540D02*
X162137704Y-108270376D01*
X162137704Y-108270376D02*
X162154540Y-108304047D01*
X162154540Y-108304047D02*
X162154540Y-108506078D01*
X162154540Y-108506078D02*
X162263973Y-108396645D01*
D10*
X168184819Y-114679999D02*
X168184819Y-114584761D01*
X168184819Y-114584761D02*
X168232438Y-114489523D01*
X168232438Y-114489523D02*
X168280057Y-114441904D01*
X168280057Y-114441904D02*
X168375295Y-114394285D01*
X168375295Y-114394285D02*
X168565771Y-114346666D01*
X168565771Y-114346666D02*
X168803866Y-114346666D01*
X168803866Y-114346666D02*
X168994342Y-114394285D01*
X168994342Y-114394285D02*
X169089580Y-114441904D01*
X169089580Y-114441904D02*
X169137200Y-114489523D01*
X169137200Y-114489523D02*
X169184819Y-114584761D01*
X169184819Y-114584761D02*
X169184819Y-114679999D01*
X169184819Y-114679999D02*
X169137200Y-114775237D01*
X169137200Y-114775237D02*
X169089580Y-114822856D01*
X169089580Y-114822856D02*
X168994342Y-114870475D01*
X168994342Y-114870475D02*
X168803866Y-114918094D01*
X168803866Y-114918094D02*
X168565771Y-114918094D01*
X168565771Y-114918094D02*
X168375295Y-114870475D01*
X168375295Y-114870475D02*
X168280057Y-114822856D01*
X168280057Y-114822856D02*
X168232438Y-114775237D01*
X168232438Y-114775237D02*
X168184819Y-114679999D01*
X169089580Y-113918094D02*
X169137200Y-113870475D01*
X169137200Y-113870475D02*
X169184819Y-113918094D01*
X169184819Y-113918094D02*
X169137200Y-113965713D01*
X169137200Y-113965713D02*
X169089580Y-113918094D01*
X169089580Y-113918094D02*
X169184819Y-113918094D01*
X169184819Y-112918095D02*
X169184819Y-113489523D01*
X169184819Y-113203809D02*
X168184819Y-113203809D01*
X168184819Y-113203809D02*
X168327676Y-113299047D01*
X168327676Y-113299047D02*
X168422914Y-113394285D01*
X168422914Y-113394285D02*
X168470533Y-113489523D01*
X168518152Y-112060952D02*
X169184819Y-112060952D01*
X168518152Y-112489523D02*
X169041961Y-112489523D01*
X169041961Y-112489523D02*
X169137200Y-112441904D01*
X169137200Y-112441904D02*
X169184819Y-112346666D01*
X169184819Y-112346666D02*
X169184819Y-112203809D01*
X169184819Y-112203809D02*
X169137200Y-112108571D01*
X169137200Y-112108571D02*
X169089580Y-112060952D01*
X168518152Y-111727618D02*
X168518152Y-111346666D01*
X169184819Y-111584761D02*
X168327676Y-111584761D01*
X168327676Y-111584761D02*
X168232438Y-111537142D01*
X168232438Y-111537142D02*
X168184819Y-111441904D01*
X168184819Y-111441904D02*
X168184819Y-111346666D01*
D11*
X169979765Y-113221666D02*
X169991670Y-113233570D01*
X169991670Y-113233570D02*
X170003574Y-113269285D01*
X170003574Y-113269285D02*
X170003574Y-113293094D01*
X170003574Y-113293094D02*
X169991670Y-113328808D01*
X169991670Y-113328808D02*
X169967860Y-113352618D01*
X169967860Y-113352618D02*
X169944050Y-113364523D01*
X169944050Y-113364523D02*
X169896431Y-113376427D01*
X169896431Y-113376427D02*
X169860717Y-113376427D01*
X169860717Y-113376427D02*
X169813098Y-113364523D01*
X169813098Y-113364523D02*
X169789289Y-113352618D01*
X169789289Y-113352618D02*
X169765479Y-113328808D01*
X169765479Y-113328808D02*
X169753574Y-113293094D01*
X169753574Y-113293094D02*
X169753574Y-113269285D01*
X169753574Y-113269285D02*
X169765479Y-113233570D01*
X169765479Y-113233570D02*
X169777384Y-113221666D01*
X169777384Y-113126427D02*
X169765479Y-113114523D01*
X169765479Y-113114523D02*
X169753574Y-113090713D01*
X169753574Y-113090713D02*
X169753574Y-113031189D01*
X169753574Y-113031189D02*
X169765479Y-113007380D01*
X169765479Y-113007380D02*
X169777384Y-112995475D01*
X169777384Y-112995475D02*
X169801193Y-112983570D01*
X169801193Y-112983570D02*
X169825003Y-112983570D01*
X169825003Y-112983570D02*
X169860717Y-112995475D01*
X169860717Y-112995475D02*
X170003574Y-113138332D01*
X170003574Y-113138332D02*
X170003574Y-112983570D01*
D10*
X170184819Y-113632381D02*
X170184819Y-114203809D01*
X170184819Y-113918095D02*
X169184819Y-113918095D01*
X169184819Y-113918095D02*
X169327676Y-114013333D01*
X169327676Y-114013333D02*
X169422914Y-114108571D01*
X169422914Y-114108571D02*
X169470533Y-114203809D01*
X169518152Y-112775238D02*
X170184819Y-112775238D01*
X169518152Y-113203809D02*
X170041961Y-113203809D01*
X170041961Y-113203809D02*
X170137200Y-113156190D01*
X170137200Y-113156190D02*
X170184819Y-113060952D01*
X170184819Y-113060952D02*
X170184819Y-112918095D01*
X170184819Y-112918095D02*
X170137200Y-112822857D01*
X170137200Y-112822857D02*
X170089580Y-112775238D01*
X169518152Y-112441904D02*
X169518152Y-112060952D01*
X170184819Y-112299047D02*
X169327676Y-112299047D01*
X169327676Y-112299047D02*
X169232438Y-112251428D01*
X169232438Y-112251428D02*
X169184819Y-112156190D01*
X169184819Y-112156190D02*
X169184819Y-112060952D01*
D11*
X170979765Y-113340714D02*
X170991670Y-113352618D01*
X170991670Y-113352618D02*
X171003574Y-113388333D01*
X171003574Y-113388333D02*
X171003574Y-113412142D01*
X171003574Y-113412142D02*
X170991670Y-113447856D01*
X170991670Y-113447856D02*
X170967860Y-113471666D01*
X170967860Y-113471666D02*
X170944050Y-113483571D01*
X170944050Y-113483571D02*
X170896431Y-113495475D01*
X170896431Y-113495475D02*
X170860717Y-113495475D01*
X170860717Y-113495475D02*
X170813098Y-113483571D01*
X170813098Y-113483571D02*
X170789289Y-113471666D01*
X170789289Y-113471666D02*
X170765479Y-113447856D01*
X170765479Y-113447856D02*
X170753574Y-113412142D01*
X170753574Y-113412142D02*
X170753574Y-113388333D01*
X170753574Y-113388333D02*
X170765479Y-113352618D01*
X170765479Y-113352618D02*
X170777384Y-113340714D01*
X171003574Y-113102618D02*
X171003574Y-113245475D01*
X171003574Y-113174047D02*
X170753574Y-113174047D01*
X170753574Y-113174047D02*
X170789289Y-113197856D01*
X170789289Y-113197856D02*
X170813098Y-113221666D01*
X170813098Y-113221666D02*
X170825003Y-113245475D01*
X170753574Y-112947857D02*
X170753574Y-112924047D01*
X170753574Y-112924047D02*
X170765479Y-112900238D01*
X170765479Y-112900238D02*
X170777384Y-112888333D01*
X170777384Y-112888333D02*
X170801193Y-112876428D01*
X170801193Y-112876428D02*
X170848812Y-112864523D01*
X170848812Y-112864523D02*
X170908336Y-112864523D01*
X170908336Y-112864523D02*
X170955955Y-112876428D01*
X170955955Y-112876428D02*
X170979765Y-112888333D01*
X170979765Y-112888333D02*
X170991670Y-112900238D01*
X170991670Y-112900238D02*
X171003574Y-112924047D01*
X171003574Y-112924047D02*
X171003574Y-112947857D01*
X171003574Y-112947857D02*
X170991670Y-112971666D01*
X170991670Y-112971666D02*
X170979765Y-112983571D01*
X170979765Y-112983571D02*
X170955955Y-112995476D01*
X170955955Y-112995476D02*
X170908336Y-113007380D01*
X170908336Y-113007380D02*
X170848812Y-113007380D01*
X170848812Y-113007380D02*
X170801193Y-112995476D01*
X170801193Y-112995476D02*
X170777384Y-112983571D01*
X170777384Y-112983571D02*
X170765479Y-112971666D01*
X170765479Y-112971666D02*
X170753574Y-112947857D01*
G04 #@! TO.C,C3*
D15*
X170450000Y-101800000D02*
X170950000Y-101800000D01*
X170950000Y-100800000D01*
X170450000Y-100800000D01*
X170450000Y-101800000D01*
G04 #@! TO.C,C6*
X170750000Y-96020000D02*
X171250000Y-96020000D01*
X171250000Y-95020000D01*
X170750000Y-95020000D01*
X170750000Y-96020000D01*
G04 #@! TO.C,C8*
X172300000Y-102750000D02*
X173300000Y-102750000D01*
X173300000Y-103250000D01*
X172300000Y-103250000D01*
X172300000Y-102750000D01*
G04 #@! TO.C,C15*
X164740000Y-114600000D02*
X164240000Y-114600000D01*
X164240000Y-115600000D01*
X164740000Y-115600000D01*
X164740000Y-114600000D01*
G04 #@! TO.C,J4*
X164190000Y-125120000D02*
X171810000Y-125120000D01*
X164190000Y-127025000D02*
X164190000Y-125120000D01*
X164825000Y-127660000D02*
X164190000Y-127025000D01*
X171810000Y-125120000D02*
X171810000Y-127660000D01*
X171810000Y-127660000D02*
X164825000Y-127660000D01*
G04 #@! TO.C,J2*
X157840000Y-77735000D02*
X158475000Y-77100000D01*
X157840000Y-127900000D02*
X157840000Y-77735000D01*
X158475000Y-77100000D02*
X160380000Y-77100000D01*
X160380000Y-77100000D02*
X160380000Y-127900000D01*
X160380000Y-127900000D02*
X157840000Y-127900000D01*
G04 #@! TO.C,C7*
X171750000Y-95380000D02*
X172250000Y-95380000D01*
X172250000Y-94380000D01*
X171750000Y-94380000D01*
X171750000Y-95380000D01*
G04 #@! TO.C,C17*
X166980000Y-92950000D02*
X165980000Y-92950000D01*
X165980000Y-92450000D01*
X166980000Y-92450000D01*
X166980000Y-92950000D01*
G04 #@! TO.C,C4*
X164180000Y-102450000D02*
X163180000Y-102450000D01*
X163180000Y-101950000D01*
X164180000Y-101950000D01*
X164180000Y-102450000D01*
G04 #@! TO.C,J1*
X163530000Y-83150000D02*
X163530000Y-75850000D01*
X172470000Y-75850000D02*
X163530000Y-75850000D01*
X172470000Y-83150000D02*
X163530000Y-83150000D01*
X172470000Y-83150000D02*
X172470000Y-75850000D01*
G04 #@! TO.C,R1*
X167230000Y-86325000D02*
X167770000Y-86325000D01*
X167770000Y-85275000D01*
X167230000Y-85275000D01*
X167230000Y-86325000D01*
G04 #@! TO.C,R6*
X163980000Y-92430000D02*
X165030000Y-92430000D01*
X165030000Y-92970000D01*
X163980000Y-92970000D01*
X163980000Y-92430000D01*
G04 #@! TO.C,R5*
X167775000Y-112530000D02*
X168825000Y-112530000D01*
X168825000Y-113070000D01*
X167775000Y-113070000D01*
X167775000Y-112530000D01*
G04 #@! TO.C,U3*
X168800000Y-98475000D02*
X162800000Y-98475000D01*
X162800000Y-94475000D01*
X163800000Y-93475000D01*
X168800000Y-93475000D01*
X168800000Y-98475000D01*
G04 #@! TO.C,R4*
X168430000Y-101815000D02*
X168970000Y-101815000D01*
X168970000Y-100765000D01*
X168430000Y-100765000D01*
X168430000Y-101815000D01*
G04 #@! TO.C,C16*
X169640000Y-115620000D02*
X170140000Y-115620000D01*
X170140000Y-114620000D01*
X169640000Y-114620000D01*
X169640000Y-115620000D01*
G04 #@! TO.C,U1*
X171500000Y-110000000D02*
X164500000Y-110000000D01*
X164500000Y-104000000D01*
X165500000Y-103000000D01*
X171500000Y-103000000D01*
X171500000Y-110000000D01*
G04 #@! TO.C,R7*
X172315000Y-91270000D02*
X171265000Y-91270000D01*
X171265000Y-90730000D01*
X172315000Y-90730000D01*
X172315000Y-91270000D01*
G04 #@! TO.C,C1*
X173290919Y-99662634D02*
X172583812Y-100369741D01*
X172230259Y-100016188D01*
X172937366Y-99309081D01*
X173290919Y-99662634D01*
G04 #@! TO.C,C9*
X169750000Y-96020000D02*
X170250000Y-96020000D01*
X170250000Y-95020000D01*
X169750000Y-95020000D01*
X169750000Y-96020000D01*
G04 #@! TO.C,J3*
X175620000Y-77735000D02*
X176255000Y-77100000D01*
X175620000Y-127900000D02*
X175620000Y-77735000D01*
X176255000Y-77100000D02*
X178160000Y-77100000D01*
X178160000Y-77100000D02*
X178160000Y-127900000D01*
X178160000Y-127900000D02*
X175620000Y-127900000D01*
G04 #@! TO.C,C13*
X165000000Y-86000000D02*
X163400000Y-86000000D01*
X163400000Y-85200000D01*
X165000000Y-85200000D01*
X165000000Y-86000000D01*
G04 #@! TO.C,C5*
X171450000Y-102120000D02*
X171950000Y-102120000D01*
X171950000Y-101120000D01*
X171450000Y-101120000D01*
X171450000Y-102120000D01*
G04 #@! TO.C,U2*
X166550000Y-89050000D02*
X163975000Y-89050000D01*
X163650000Y-88725000D01*
X163650000Y-87750000D01*
X166550000Y-87750000D01*
X166550000Y-89050000D01*
G04 #@! TO.C,Y1*
X168790000Y-114475000D02*
X168790000Y-116350000D01*
X165590000Y-116350000D01*
X165590000Y-113850000D01*
X168165000Y-113850000D01*
X168790000Y-114475000D01*
G04 #@! TO.C,C11*
X173320000Y-107250000D02*
X174320000Y-107250000D01*
X174320000Y-107750000D01*
X173320000Y-107750000D01*
X173320000Y-107250000D01*
G04 #@! TO.C,R2*
X169230000Y-86325000D02*
X169770000Y-86325000D01*
X169770000Y-85275000D01*
X169230000Y-85275000D01*
X169230000Y-86325000D01*
G04 #@! TO.C,R3*
X169430000Y-101815000D02*
X169970000Y-101815000D01*
X169970000Y-100765000D01*
X169430000Y-100765000D01*
X169430000Y-101815000D01*
G04 #@! TO.C,SW1*
X170350000Y-85750000D02*
X173250000Y-85750000D01*
X170350000Y-89650000D02*
X170350000Y-85750000D01*
X173250000Y-85750000D02*
X173250000Y-89650000D01*
X173250000Y-89650000D02*
X170350000Y-89650000D01*
X172800000Y-87700000D02*
G75*
G02*
X170800000Y-87700000I-1000000J0D01*
G01*
X170800000Y-87700000D02*
G75*
G02*
X172800000Y-87700000I1000000J0D01*
G01*
G04 #@! TO.C,C14*
X165900000Y-91600000D02*
X164300000Y-91600000D01*
X164300000Y-90800000D01*
X165900000Y-90800000D01*
X165900000Y-91600000D01*
G04 #@! TO.C,C12*
X162490919Y-108362634D02*
X161783812Y-109069741D01*
X161430259Y-108716188D01*
X162137366Y-108009081D01*
X162490919Y-108362634D01*
G04 #@! TO.C,C2*
X170140000Y-112680000D02*
X169640000Y-112680000D01*
X169640000Y-113680000D01*
X170140000Y-113680000D01*
X170140000Y-112680000D01*
G04 #@! TO.C,C10*
X171140000Y-112680000D02*
X170640000Y-112680000D01*
X170640000Y-113680000D01*
X171140000Y-113680000D01*
X171140000Y-112680000D01*
G04 #@! TD*
M02*
